<?xml version="1.0" encoding="UTF-8" standalone="no"?>
<!DOCTYPE svg PUBLIC "-//W3C//DTD SVG 1.1//EN" "http://www.w3.org/Graphics/SVG/1.1/DTD/svg11.dtd">
<svg width="100%" height="100%" viewBox="0 0 36 39" version="1.1" xmlns="http://www.w3.org/2000/svg" xmlns:xlink="http://www.w3.org/1999/xlink" xml:space="preserve" xmlns:serif="http://www.serif.com/" style="fill-rule:evenodd;clip-rule:evenodd;stroke-linejoin:round;stroke-miterlimit:2;">
    <g id="Armor-Reduction" serif:id="Armor Reduction">
        <g transform="matrix(0.268034,-1.4104e-18,1.23536e-18,-0.244856,-55.9241,34.3371)">
            <g id="SP_DEF">
                <path d="M275,11.327C312.044,11.327 319.611,108.879 319.611,108.879L299.972,109.068L275,119.962L250.028,109.068L230.389,108.879C230.389,108.879 237.956,11.327 275,11.327Z" style="fill:rgb(68,0,147);"/>
                <clipPath id="_clip1">
                    <path d="M275,11.327C312.044,11.327 319.611,108.879 319.611,108.879L299.972,109.068L275,119.962L250.028,109.068L230.389,108.879C230.389,108.879 237.956,11.327 275,11.327Z"/>
                </clipPath>
                <g clip-path="url(#_clip1)">
                    <g transform="matrix(4.00173e-18,-1.52297,-1.36663,4.56876e-18,349.887,492.369)">
                        <path d="M284.215,40.987L290.589,47.361L283.153,54.797L290.589,62.233L284.215,68.607L276.779,61.171L269.343,68.607L262.969,62.233L270.405,54.797L262.969,47.361L269.343,40.987L276.779,48.423L284.215,40.987Z" style="fill:rgb(209,114,255);"/>
                        <clipPath id="_clip2">
                            <path d="M284.215,40.987L290.589,47.361L283.153,54.797L290.589,62.233L284.215,68.607L276.779,61.171L269.343,68.607L262.969,62.233L270.405,54.797L262.969,47.361L269.343,40.987L276.779,48.423L284.215,40.987Z"/>
                        </clipPath>
                        <g clip-path="url(#_clip2)">
                            <g transform="matrix(0,-0.721689,0.721689,0,228.312,292.954)">
                                <rect x="267.577" y="-12.836" width="62.423" height="121.714" style="fill:rgb(68,0,147);"/>
                            </g>
                        </g>
                        <path d="M287.664,37.413L294.038,43.787C294.98,44.729 295.511,46.017 295.511,47.361C295.511,48.705 294.98,49.993 294.038,50.935C294.038,50.935 290.176,54.797 290.176,54.797L294.038,58.659C294.98,59.601 295.511,60.889 295.511,62.233C295.511,63.578 294.98,64.866 294.038,65.808L287.664,72.181C285.749,74.096 282.681,74.096 280.766,72.181L276.779,68.194L272.792,72.181C270.877,74.096 267.809,74.096 265.894,72.181L259.52,65.808C258.578,64.866 258.047,63.578 258.047,62.233C258.047,60.889 258.578,59.601 259.52,58.659C259.52,58.659 263.382,54.797 263.382,54.797L259.52,50.935C258.578,49.993 258.047,48.705 258.047,47.361C258.047,46.017 258.578,44.729 259.52,43.787L265.894,37.413C267.809,35.498 270.877,35.498 272.792,37.413L276.779,41.4L280.766,37.413C282.681,35.498 285.749,35.498 287.664,37.413ZM284.215,40.987L276.779,48.423L269.343,40.987L262.969,47.361L270.405,54.797L262.969,62.233L269.343,68.607L276.779,61.171L284.215,68.607L290.589,62.233L283.153,54.797L290.589,47.361L284.215,40.987Z" style="fill:rgb(237,198,255);"/>
                    </g>
                </g>
                <path d="M275,3.839C261.536,3.839 250.837,13.799 243.084,28.69C227.547,58.536 223.573,108.245 223.573,108.245C223.412,110.322 224.049,112.379 225.331,113.92C226.613,115.462 228.424,116.348 230.329,116.366L248.686,116.543L272.468,126.918C274.094,127.628 275.906,127.628 277.532,126.918L301.314,116.543L319.671,116.366C321.576,116.348 323.387,115.462 324.669,113.92C325.951,112.379 326.588,110.322 326.427,108.245C326.427,108.245 322.453,58.536 306.916,28.69C299.163,13.799 288.464,3.839 275,3.839ZM275,11.327C312.044,11.327 319.611,108.879 319.611,108.879L299.972,109.068L275,119.962L250.028,109.068L230.389,108.879C230.389,108.879 237.956,11.327 275,11.327Z" style="fill:rgb(128,34,232);"/>
            </g>
        </g>
        <g transform="matrix(0.89568,0,0,0.89568,1.63674,2.02462)">
            <rect x="0" y="-2.26" width="18" height="43.336" style="fill:none;"/>
            <clipPath id="_clip3">
                <rect x="0" y="-2.26" width="18" height="43.336"/>
            </clipPath>
            <g clip-path="url(#_clip3)">
                <g transform="matrix(0.299485,-9.13233e-19,7.86924e-19,-0.27317,-64.3771,36.0514)">
                    <g id="DEF">
                        <path d="M275,11.327C312.044,11.327 319.611,108.879 319.611,108.879L299.972,109.068L275,119.962L250.028,109.068L230.389,108.879C230.389,108.879 237.956,11.327 275,11.327Z" style="fill:rgb(215,64,0);"/>
                        <clipPath id="_clip4">
                            <path d="M275,11.327C312.044,11.327 319.611,108.879 319.611,108.879L299.972,109.068L275,119.962L250.028,109.068L230.389,108.879C230.389,108.879 237.956,11.327 275,11.327Z"/>
                        </clipPath>
                        <g clip-path="url(#_clip4)">
                            <g transform="matrix(1.19961,-4.01042e-18,3.51268e-18,-1.33685,-45.9886,130.95)">
                                <rect x="267.577" y="-12.836" width="62.423" height="121.714" style="fill:rgb(134,19,0);"/>
                            </g>
                            <g transform="matrix(4.00173e-18,-1.52297,-1.36663,4.56876e-18,349.887,492.369)">
                                <path d="M284.215,40.987L290.589,47.361L283.153,54.797L290.589,62.233L284.215,68.607L276.779,61.171L269.343,68.607L262.969,62.233L270.405,54.797L262.969,47.361L269.343,40.987L276.779,48.423L284.215,40.987Z" style="fill:rgb(215,64,0);"/>
                                <clipPath id="_clip5">
                                    <path d="M284.215,40.987L290.589,47.361L283.153,54.797L290.589,62.233L284.215,68.607L276.779,61.171L269.343,68.607L262.969,62.233L270.405,54.797L262.969,47.361L269.343,40.987L276.779,48.423L284.215,40.987Z"/>
                                </clipPath>
                                <g clip-path="url(#_clip5)">
                                    <g transform="matrix(0,-0.721689,0.721689,0,228.312,292.954)">
                                        <rect x="267.577" y="-12.836" width="62.423" height="121.714" style="fill:rgb(134,19,0);"/>
                                    </g>
                                </g>
                                <path d="M287.675,37.412L294.049,43.786C294.992,44.729 295.523,46.017 295.523,47.361C295.523,48.705 294.992,49.993 294.049,50.936L290.188,54.797L294.049,58.658C294.992,59.601 295.523,60.889 295.523,62.233C295.523,63.578 294.992,64.866 294.049,65.808L287.675,72.182C285.755,74.102 282.675,74.102 280.755,72.182C280.755,72.182 276.779,68.206 276.779,68.206L272.803,72.182C270.883,74.102 267.803,74.102 265.883,72.182L259.509,65.808C258.566,64.866 258.035,63.578 258.035,62.233C258.035,60.889 258.566,59.601 259.509,58.658L263.37,54.797L259.509,50.936C258.566,49.993 258.035,48.705 258.035,47.361C258.035,46.017 258.566,44.729 259.509,43.786L265.883,37.412C267.803,35.492 270.883,35.492 272.803,37.412C272.803,37.412 276.779,41.388 276.779,41.388L280.755,37.412C282.675,35.492 285.755,35.492 287.675,37.412ZM284.215,40.987L276.779,48.423L269.343,40.987L262.969,47.361L270.405,54.797L262.969,62.233L269.343,68.607L276.779,61.171L284.215,68.607L290.589,62.233L283.153,54.797L290.589,47.361L284.215,40.987Z" style="fill:rgb(255,144,71);"/>
                            </g>
                        </g>
                        <path d="M275,3.819C261.534,3.819 250.834,13.782 243.08,28.676C227.541,58.526 223.566,108.242 223.566,108.242C223.404,110.325 224.042,112.387 225.325,113.933C226.609,115.478 228.422,116.367 230.329,116.386L248.686,116.563L272.468,126.938C274.094,127.647 275.906,127.647 277.532,126.938L301.314,116.563L319.671,116.386C321.578,116.367 323.391,115.478 324.675,113.933C325.958,112.387 326.596,110.325 326.434,108.242C326.434,108.242 322.459,58.526 306.92,28.676C299.166,13.782 288.466,3.819 275,3.819ZM275,11.327C312.044,11.327 319.611,108.879 319.611,108.879L299.972,109.068L275,119.962L250.028,109.068L230.389,108.879C230.389,108.879 237.956,11.327 275,11.327Z" style="fill:rgb(169,54,0);"/>
                    </g>
                </g>
            </g>
        </g>
        <g transform="matrix(4.39718e-17,0.718114,-3.18768,1.95189e-16,57.7751,10.9395)">
            <path d="M14.632,10.081L14.632,8.615L22.087,8.615L22.087,7.255L31.379,9.348L22.087,11.441L22.087,10.081L14.632,10.081Z" style="fill:rgb(255,0,12);"/>
        </g>
        <g transform="matrix(4.39718e-17,0.718114,-3.18768,1.95189e-16,57.7751,10.9395)">
            <path d="M13.378,10.081L13.378,8.615C13.378,8.459 13.939,8.333 14.632,8.333L20.833,8.333L20.833,7.255C20.833,7.14 21.139,7.037 21.607,6.994C22.075,6.95 22.614,6.974 22.973,7.055L32.265,9.148C32.755,9.259 32.755,9.437 32.265,9.548L22.973,11.641C22.614,11.722 22.075,11.746 21.607,11.702C21.139,11.659 20.833,11.556 20.833,11.441C20.833,11.441 20.833,10.363 20.833,10.363L14.632,10.363C13.939,10.363 13.378,10.237 13.378,10.081ZM15.885,9.798L22.087,9.798C22.779,9.798 23.34,9.925 23.34,10.081L23.34,10.76L29.607,9.348L23.34,7.936L23.34,8.615C23.34,8.771 22.779,8.898 22.087,8.898C22.087,8.898 15.885,8.898 15.885,8.898L15.885,9.798Z" style="fill:rgb(175,17,0);"/>
        </g>
        <g transform="matrix(4.39718e-17,0.718114,-3.18768,1.95189e-16,38.1085,-8.49556)">
            <path d="M14.632,10.081L14.632,8.615L22.087,8.615L22.087,7.255L31.379,9.348L22.087,11.441L22.087,10.081L14.632,10.081Z" style="fill:rgb(255,0,12);"/>
        </g>
        <g transform="matrix(4.39718e-17,0.718114,-3.18768,1.95189e-16,38.1085,-8.49556)">
            <path d="M13.378,10.081L13.378,8.615C13.378,8.459 13.939,8.333 14.632,8.333L20.833,8.333L20.833,7.255C20.833,7.14 21.139,7.037 21.607,6.994C22.075,6.95 22.614,6.974 22.973,7.055L32.265,9.148C32.755,9.259 32.755,9.437 32.265,9.548L22.973,11.641C22.614,11.722 22.075,11.746 21.607,11.702C21.139,11.659 20.833,11.556 20.833,11.441C20.833,11.441 20.833,10.363 20.833,10.363L14.632,10.363C13.939,10.363 13.378,10.237 13.378,10.081ZM15.885,9.798L22.087,9.798C22.779,9.798 23.34,9.925 23.34,10.081L23.34,10.76L29.607,9.348L23.34,7.936L23.34,8.615C23.34,8.771 22.779,8.898 22.087,8.898C22.087,8.898 15.885,8.898 15.885,8.898L15.885,9.798Z" style="fill:rgb(175,17,0);"/>
        </g>
    </g>
</svg>
