<?xml version="1.0" encoding="UTF-8" standalone="no"?>
<!DOCTYPE svg PUBLIC "-//W3C//DTD SVG 1.1//EN" "http://www.w3.org/Graphics/SVG/1.1/DTD/svg11.dtd">
<svg width="100%" height="100%" viewBox="0 0 25 28" version="1.1" xmlns="http://www.w3.org/2000/svg" xmlns:xlink="http://www.w3.org/1999/xlink" xml:space="preserve" xmlns:serif="http://www.serif.com/" style="fill-rule:evenodd;clip-rule:evenodd;stroke-linejoin:round;stroke-miterlimit:2;">
    <g transform="matrix(1,0,0,1,-7,-4)">
        <g transform="matrix(1,0,0,1,-0.129299,0.560631)">
            <g id="Burn">
                <g transform="matrix(1.04904,0,0,1.04904,5.23892,1.82913)">
                    <g transform="matrix(0.677727,0,0,0.804797,-1.89272,-0.612663)">
                        <path d="M19.996,35.239C17.574,35.169 13.261,35.135 8.602,32.309C6.311,30.92 5.084,28.09 5.96,26.324C6.624,24.982 7.248,26.647 8.602,27.826C9.436,28.552 11.086,28.151 10.512,27.826C8.737,26.823 6.245,25.594 7.651,19.915C8.563,16.237 8.559,19.61 10.512,20.962C12.465,22.314 20.127,8.278 19.526,5.342C18.925,2.407 28.739,7.75 28.739,16.315C28.739,17.344 29.097,17.443 30.036,16.315C30.708,15.507 31.051,14.047 31.653,14.013C32.374,13.972 35.72,22.625 32.646,25.495C29.027,28.873 29.987,28.652 32.646,27.666C34.154,27.107 35.483,25.97 35.807,26.324C36.392,26.962 36.005,29.403 31.653,32.309C29.247,33.917 24.563,35.37 19.996,35.239Z" style="fill:rgb(152,0,0);"/>
                    </g>
                    <g transform="matrix(0.677727,0,0,0.685579,-1.89272,3.58965)">
                        <path d="M19.996,35.239C17.574,35.169 13.261,35.135 8.602,32.309C6.311,30.92 5.084,28.09 5.96,26.324C6.624,24.982 7.248,26.647 8.602,27.826C9.436,28.552 10.896,28.362 10.512,27.826C8.82,25.47 6.374,23.483 7.651,19.915C8.928,16.347 8.559,19.61 10.512,20.962C12.465,22.314 21.449,6.284 20.848,3.349C20.247,0.414 27.905,8.319 27.905,16.884C27.905,17.913 29.097,17.443 30.036,16.315C30.708,15.507 31.051,14.047 31.653,14.013C32.374,13.972 35.72,21.642 32.646,24.511C29.027,27.89 29.987,28.652 32.646,27.666C34.154,27.107 35.353,25.774 35.678,26.128C36.262,26.766 34.864,29.359 31.653,32.309C29.578,34.216 24.563,35.37 19.996,35.239Z" style="fill:rgb(208,56,0);"/>
                    </g>
                    <g transform="matrix(0.948332,0,0,1.07316,-8.18105,-5.86315)">
                        <path d="M18.299,30.437C16.966,30.132 12.013,26.829 15.936,26.983C19.859,27.137 19.62,26.707 17.64,26.072C15.659,25.437 15.742,24.842 17.434,22.073C19.126,19.304 22.009,17.803 21.454,15.426C20.426,11.023 27.422,16.862 24.519,22.073C21.52,27.455 26.225,21.428 27.05,24.511C27.655,26.771 25.924,29.856 22.539,30.647C21.416,30.909 19.59,30.733 18.299,30.437Z" style="fill:rgb(240,232,0);"/>
                    </g>
                    <g transform="matrix(0.561494,0,0,0.801343,0.539124,2.4671)">
                        <path d="M18.299,30.437C16.966,30.132 11.78,26.463 15.703,26.617C19.626,26.771 20.28,25.579 18.299,24.944C16.319,24.309 15.742,24.842 17.434,22.073C19.126,19.304 21.722,17.299 21.953,14.881C22.184,12.463 24.395,15.943 21.492,21.154C18.493,26.536 26.225,21.428 27.05,24.511C27.856,27.52 23.479,31.623 18.299,30.437Z" style="fill:rgb(240,240,240);"/>
                    </g>
                </g>
                <g transform="matrix(-0.999669,0.025728,-0.025728,-0.999669,22.0922,24.6192)">
                    <path d="M9.987,13.711C10.308,12.573 12.139,8.707 12.51,9.437C14.037,12.437 9.407,15.767 9.987,13.711Z" style="fill:rgb(152,0,0);"/>
                </g>
                <g transform="matrix(-0.999127,-0.0417838,0.0417838,-0.999127,41.0749,32.7622)">
                    <path d="M9.987,13.711C10.308,12.573 12.139,8.707 12.51,9.437C14.037,12.437 9.407,15.767 9.987,13.711Z" style="fill:rgb(152,0,0);"/>
                </g>
                <g transform="matrix(0.526068,-0.55622,0.700848,0.662856,7.953,5.14489)">
                    <path d="M9.987,13.711C10.308,12.573 12.139,8.707 12.51,9.437C14.037,12.437 9.407,15.767 9.987,13.711Z" style="fill:rgb(152,0,0);"/>
                </g>
                <g transform="matrix(0.63733,-0.424191,0.53449,0.803048,9.24046,1.69393)">
                    <path d="M9.987,13.711C10.308,12.573 11.395,9.617 11.766,10.347C13.292,13.346 9.407,15.767 9.987,13.711Z" style="fill:rgb(208,56,0);"/>
                </g>
                <g transform="matrix(-0.760295,0.0898847,-0.113257,-0.957987,39.5354,30.6229)">
                    <path d="M9.757,13.611C10.722,12.281 12.139,8.707 12.51,9.437C14.037,12.437 8.432,15.436 9.757,13.611Z" style="fill:rgb(208,56,0);"/>
                </g>
                <g transform="matrix(-0.740328,0.195045,-0.245761,-0.932827,20.9285,21.7841)">
                    <path d="M9.411,13.37C11.702,11.192 12.139,8.707 12.51,9.437C14.037,12.437 7.71,14.987 9.411,13.37Z" style="fill:rgb(208,56,0);"/>
                </g>
            </g>
        </g>
    </g>
</svg>
