<?xml version="1.0" ?><!-- Uploaded to: SVG Repo, www.svgrepo.com, Generator: SVG Repo Mixer Tools -->
<svg width="800px" height="800px" viewBox="0 0 32 32" enable-background="new 0 0 32 32" id="Filled_Line" version="1.1" xml:space="preserve" xmlns="http://www.w3.org/2000/svg" xmlns:xlink="http://www.w3.org/1999/xlink">
<path d="M16,8.064c-2.974-2.753-7.796-2.753-10.77,0s-2.974,7.215,0,9.968L16,28l10.77-9.968  c2.974-2.753,2.974-7.215,0-9.968S18.974,5.312,16,8.064z" fill="#FF26FF" id="XMLID_1338_"/>
<path d="M7.23,17.032c-2.974-2.753-2.974-7.215,0-9.968c0.257-0.237,0.531-0.447,0.813-0.643  C7.017,6.761,6.052,7.304,5.23,8.064c-2.974,2.753-2.974,7.215,0,9.968L16,28l1.54-1.426L7.23,17.032z" fill="#D115E5" id="XMLID_1344_"/>
<path d="M26.77,8.064c-2.974-2.753-7.796-2.753-10.77,0c-2.974-2.753-7.796-2.753-10.77,0  c-0.91,0.843-1.539,1.846-1.892,2.911C6.342,8.317,12.06,8.343,15,11.064c2.974-2.753,6.796-2.753,9.77,0  c2.069,1.915,2.694,4.656,1.885,7.074l0.115-0.106C29.743,15.28,29.743,10.817,26.77,8.064z" fill="#F97EFA" id="XMLID_1342_"/>
<path d="  M16,8.064c-2.974-2.753-7.796-2.753-10.77,0s-2.974,7.215,0,9.968L16,28l10.77-9.968c2.974-2.753,2.974-7.215,0-9.968  S18.974,5.312,16,8.064z" fill="none" id="XMLID_818_" stroke="#008400" stroke-linecap="round" stroke-linejoin="round" stroke-miterlimit="10" stroke-width="2"/>
<path d="  M22,10.044c0.784,0.113,1.497,0.443,2.052,0.956C24.663,11.565,25,12.293,25,13.048" fill="none" id="XMLID_1340_" stroke="#FFFFFF" stroke-linecap="round" stroke-linejoin="round" stroke-miterlimit="10" stroke-width="2"/>
</svg>