<?xml version="1.0"?>
<svg width="450" height="450" xmlns="http://www.w3.org/2000/svg" xmlns:svg="http://www.w3.org/2000/svg" version="1.0">
 <g class="layer">
  <title>Layer 1</title>
  <path d="m185.78,422.4c10.24,-2.79 24.51,-14.02 30.11,-23.69c10.78,-18.6 7.29,-40.87 -8,-51.02c-17.18,-11.4 -45.85,-4.88 -59.18,13.46c-24.29,33.41 -1.14,71.66 37.07,61.25z" fill="#88d8f0" id="svg_1" stroke="#1898d8" stroke-width="21"/>
  <path d="m221.96,311.45c5.21,-1.32 7.13,-3.94 9.34,-12.73c5.69,-22.68 24.99,-90.96 39.24,-138.86c8.09,-27.21 18.78,-79.59 21.85,-95.79l5.59,-29.47c1.25,-24.02 -67.84,-23.65 -113.25,-4.36c-0.92,0.53 -5.26,76.94 -7.97,147.43l-4.93,128.16l9.42,2.08c17.05,3.75 34.04,5.23 40.7,3.54l0.01,0z" fill="url(#svg_3)" id="svg_2" stroke="#1898d8" stroke-width="18"/>
 </g>
 <defs>
  <linearGradient fx="1" fy="0" id="svg_3" x1="0" x2="1" y1="1" y2="0">
   <stop id="jq_stop_6267" offset="0" stop-color="#88d8f0"/>
   <stop id="jq_stop_6754" offset="1" stop-color="#ffffff" stop-opacity="1"/>
  </linearGradient>
 </defs>
</svg>