<?xml version="1.0" encoding="UTF-8" standalone="no"?>
<svg
   width="900"
   height="900"
   viewBox="0 0 900 900"
   version="1.1"
   xml:space="preserve"
   id="SVGRoot"
   xmlns:inkscape="http://www.inkscape.org/namespaces/inkscape"
   xmlns:sodipodi="http://sodipodi.sourceforge.net/DTD/sodipodi-0.dtd"
   xmlns="http://www.w3.org/2000/svg"
   xmlns:svg="http://www.w3.org/2000/svg"><defs
   id="defs4" />&#10;<sodipodi:namedview
   pagecolor="#a9a9a9"
   bordercolor="#292929"
   borderopacity="1"
   inkscape:showpageshadow="2"
   inkscape:pageopacity="0.0"
   inkscape:pagecheckerboard="0"
   inkscape:deskcolor="#232323"
   id="namedview1" />&#10;<style
   type="text/css"
   id="style1">&#10;g.prefab path {&#10;  vector-effect:non-scaling-stroke;&#10;  -inkscape-stroke:hairline;&#10;  fill: none;&#10;  fill-opacity: 1;&#10;  stroke-opacity: 1;&#10;  stroke: #00349c;&#10;}&#10;</style>&#10;&#10;<path
   style="display:inline;fill:rgb(23,179,0);stroke:rgb(0,128,0);stroke-width:4;stroke-dasharray:none"
   d="m 283.92775,575.23196 c -27.88221,-2.05802 -53.85008,-8.2604 -78.26735,-18.69402 -29.38855,-12.55786 -54.79622,-30.0124 -77.40774,-53.17751 -12.25072,-12.55065 -19.62905,-21.7134 -29.065536,-36.0949 C 48.722123,390.35528 46.87109,291.66313 94.411507,212.64234 109.33447,187.83767 130.40886,164.27099 153.74543,146.2915 215.71761,98.5455 297.8473,84.289762 372.7162,108.28345 c 51.67978,16.56213 97.12773,51.26221 127.02415,96.98452 23.69539,36.2387 37.0227,77.80201 38.70951,120.72168 2.68042,68.20125 -22.11294,131.74145 -70.0969,179.64372 -39.27233,39.20547 -88.95142,62.84027 -144.65041,68.81736 -9.29335,0.99728 -31.0566,1.42474 -39.7748,0.78123 z m 40.00648,-38.00192 c 26.37821,-3.57831 49.06578,-10.75458 70.96098,-22.44556 52.75104,-28.16652 90.94322,-79.36519 102.77912,-137.78093 2.93906,-14.50561 3.7794,-23.29738 3.81517,-39.91463 0.0337,-15.66225 -0.38079,-21.36783 -2.48873,-34.25701 -13.60025,-83.15981 -78.50274,-149.59708 -161.6378,-165.46009 -13.94235,-2.66034 -18.66424,-3.04588 -37.54567,-3.06553 -18.36399,-0.0191 -21.2719,0.18648 -35.07918,2.48022 -23.63726,3.92677 -48.71945,13.30955 -70.15834,26.24494 -40.0634,24.17269 -71.36428,62.89649 -86.40362,106.89398 -7.65946,22.4077 -10.920817,42.12033 -10.936246,66.10203 -0.01495,23.23376 2.970456,42.34491 9.883916,63.27217 10.29286,31.15683 26.03179,56.69862 49.33958,80.0703 16.44658,16.49165 32.30593,27.85638 53.46351,38.31166 22.95429,11.34315 45.84354,17.84182 71.29744,20.24264 7.87566,0.74283 35.41642,0.2952 42.70987,-0.69419 z"
   id="path72" /><path
   style="display:inline;fill:rgb(23,179,0);stroke:rgb(0,128,0);stroke-width:4;stroke-dasharray:none"
   d="M 580.97306,574.68359 C 523.6082,569.6183 471.66849,545.41616 431.32633,504.95329 394.70956,468.22698 371.80594,422.48123 363.82552,370.13293 c -1.61878,-10.61852 -1.82648,-14.62714 -1.7873,-34.49406 0.0372,-18.89227 0.30537,-24.15065 1.68027,-32.9535 4.46656,-28.59745 12.80581,-54.25574 25.31602,-77.89259 32.30471,-61.03667 89.51252,-105.4228 156.28176,-121.25518 32.00163,-7.588255 67.09262,-8.414017 99.60646,-2.34394 64.81082,12.09967 122.57408,51.48455 158.21095,107.87343 6.92376,10.9556 17.11609,31.59815 21.5625,43.67057 15.92398,43.23515 19.27698,89.77155 9.65926,134.06095 -17.18431,79.13346 -74.46494,145.3292 -150.18877,173.56407 -32.19592,12.00478 -70.00345,17.2516 -103.19361,14.32091 z m 34.04928,-36.36616 c 49.91397,-3.8076 93.80322,-23.85997 128.78182,-58.83857 62.27985,-62.27984 77.20827,-157.05854 37.12391,-235.69497 -9.01543,-17.68623 -20.60117,-33.73128 -35.19086,-48.73569 -31.68766,-32.58838 -70.349,-52.3114 -116.70501,-59.53683 -12.51864,-1.95126 -44.77582,-1.95851 -57.0138,-0.0128 -42.40963,6.74264 -76.82363,23.02017 -108.09262,51.12689 -10.76033,9.67213 -23.14096,24.03033 -31.61055,36.65974 -28.76086,42.8867 -40.00937,95.36765 -31.47463,146.84774 6.56613,39.60576 25.52456,77.13343 53.78341,106.46275 11.33903,11.76855 20.92976,19.80102 34.08695,28.54862 11.3485,7.54508 29.27256,16.71503 41.38145,21.17074 27.1235,9.98063 56.67905,14.15745 84.92993,12.00239 z"
   id="path73"
   inkscape:label="path73" /><path
   style="display:inline;fill:rgb(23,179,0);stroke:rgb(0,128,0);stroke-width:4;stroke-dasharray:none"
   d="m 427.52741,833.54533 c -53.67993,-5.07657 -106.53286,-30.15283 -145.24989,-68.91434 -27.23014,-27.26142 -45.92288,-57.54861 -57.96428,-93.91748 -16.4062,-49.55192 -16.45178,-99.70288 -0.13593,-149.5575 14.3851,-43.95506 41.61067,-83.22168 77.60002,-111.92019 71.32861,-56.87862 168.49763,-68.2505 250.97336,-29.3719 24.93317,11.75336 45.88828,26.69919 66.67659,47.55581 46.08624,46.23767 69.73105,103.33229 69.73105,168.37808 0,38.15266 -7.01897,69.15564 -23.30021,102.9176 -43.84262,90.91526 -138.20558,144.29885 -238.33071,134.82992 z m 57.55176,-37.71875 C 549.53645,784.39067 603.19843,744.396 632.43937,685.9979 670.528,609.9298 656.22452,516.60981 597.06562,455.20942 c -33.65488,-34.93004 -77.08935,-56.11019 -125.6015,-61.24764 -14.54974,-1.54082 -41.25653,-0.70742 -54.89896,1.71316 -74.69963,13.25394 -135.01655,65.26283 -158.48059,136.65155 -7.73075,23.52061 -9.24697,34.06734 -9.20357,64.01943 0.0419,28.87405 1.14801,36.87136 8.33945,60.29233 13.37343,43.55441 42.99001,82.89829 81.5128,108.28496 26.56858,17.50878 60.04034,29.49651 92.08283,32.97895 9.59293,1.04257 44.13497,-0.27867 54.26309,-2.07558 z"
   id="path74" /><path
   style="fill:rgb(23,179,0);stroke:rgb(0,128,0);stroke-width:4;stroke-dasharray:none"
   d="m 432.72146,631.83877 c -85.13487,-7.00482 -157.46969,-68.4008 -179.00892,-151.93827 -21.43678,-83.14014 12.23592,-170.33807 84.58794,-219.0467 17.08989,-11.50521 43.36617,-22.94171 65.11,-28.33849 20.5829,-5.10865 52.94259,-6.55629 74.95066,-3.35298 50.13926,7.29784 95.44892,32.73618 127.8001,71.75119 66.98424,80.78198 60.88916,199.07943 -14.07639,273.20392 -34.2888,33.90411 -78.19367,53.86338 -127.17096,57.81224 -15.49427,1.24926 -15.91902,1.24805 -32.19243,-0.0909 z m 50.65363,-32.69717 c 15.73027,-3.18799 30.02084,-8.183 44.75193,-15.64222 49.19306,-24.90938 82.60971,-70.42228 91.98186,-125.2777 2.92593,-17.12557 2.35982,-47.88836 -1.17551,-63.87744 -11.71301,-52.97385 -45.77258,-96.48942 -93.72641,-119.74778 -54.74754,-26.5534 -120.37626,-22.13538 -170.53108,11.47989 -38.0322,25.49034 -63.63181,63.14344 -73.60925,108.26789 -3.53533,15.98908 -4.10145,46.75187 -1.17551,63.87744 12.1932,71.36716 67.15676,127.81234 137.14033,140.83714 16.67493,3.10341 17.44441,3.15913 37.35345,2.70496 12.33489,-0.28138 21.55524,-1.11538 28.99019,-2.62218 z"
   id="path75"
   inkscape:label="path75" /></svg>
