<?xml version="1.0" encoding="UTF-8" standalone="no"?>
<!DOCTYPE svg PUBLIC "-//W3C//DTD SVG 1.1//EN" "http://www.w3.org/Graphics/SVG/1.1/DTD/svg11.dtd">
<svg width="100%" height="100%" viewBox="0 0 36 34" version="1.1" xmlns="http://www.w3.org/2000/svg" xmlns:xlink="http://www.w3.org/1999/xlink" xml:space="preserve" xmlns:serif="http://www.serif.com/" style="fill-rule:evenodd;clip-rule:evenodd;stroke-linejoin:round;stroke-miterlimit:2;">
    <g transform="matrix(1,0,0,1,0,-1)">
        <g transform="matrix(0.324459,0,0,0.324459,-70.0171,1.86855)">
            <g id="Paraliyzed">
                <g transform="matrix(2.2149,0,0,5.00879,282.314,2.96056)">
                    <path d="M13.377,3.562L4.207,12.129L10.575,12.129L7.136,18.426L17.024,10.994L10.575,10.994L13.377,3.562Z" style="fill:rgb(241,228,121);"/>
                    <clipPath id="_clip1">
                        <path d="M13.377,3.562L4.207,12.129L10.575,12.129L7.136,18.426L17.024,10.994L10.575,10.994L13.377,3.562Z"/>
                    </clipPath>
                    <g clip-path="url(#_clip1)">
                        <g transform="matrix(1.80912,0.379434,-0.311208,0.290152,-10.8001,-0.098136)">
                            <path d="M16.629,10.154L14.226,9.767L14.226,31.587L16.094,31.587L16.629,10.154Z" style="fill:rgb(255,252,230);"/>
                        </g>
                    </g>
                    <path d="M15.847,3.744L13.532,9.886L17.024,9.886C17.922,9.886 18.752,10.099 19.198,10.444C19.644,10.789 19.638,11.213 19.182,11.555L9.295,18.988C8.666,19.461 7.348,19.659 6.197,19.453C5.046,19.247 4.41,18.7 4.701,18.166L7.393,13.237L4.207,13.237C3.348,13.237 2.55,13.042 2.091,12.721C1.631,12.401 1.576,11.998 1.943,11.655L11.113,3.088C11.647,2.588 12.933,2.339 14.125,2.505C15.318,2.67 16.053,3.199 15.847,3.744ZM13.377,3.562L4.207,12.129L10.575,12.129L7.136,18.426L17.024,10.994L10.575,10.994L13.377,3.562Z" style="fill:rgb(226,180,54);"/>
                </g>
                <g transform="matrix(2.2149,0,0,5.00879,213.21,2.96056)">
                    <path d="M13.377,3.562L4.207,12.129L10.575,12.129L7.136,18.426L17.024,10.994L10.575,10.994L13.377,3.562Z" style="fill:rgb(241,228,121);"/>
                    <clipPath id="_clip2">
                        <path d="M13.377,3.562L4.207,12.129L10.575,12.129L7.136,18.426L17.024,10.994L10.575,10.994L13.377,3.562Z"/>
                    </clipPath>
                    <g clip-path="url(#_clip2)">
                        <g transform="matrix(1.80912,0.379434,-0.311208,0.290152,-10.0206,-0.683268)">
                            <path d="M16.629,10.154L14.226,9.767L14.226,31.587L16.094,31.587L16.629,10.154Z" style="fill:rgb(255,252,230);"/>
                        </g>
                    </g>
                    <path d="M15.847,3.744L13.532,9.886L17.024,9.886C17.922,9.886 18.752,10.099 19.198,10.444C19.644,10.789 19.638,11.213 19.182,11.555L9.295,18.988C8.666,19.461 7.348,19.659 6.197,19.453C5.046,19.247 4.41,18.7 4.701,18.166L7.393,13.237L4.207,13.237C3.348,13.237 2.55,13.042 2.091,12.721C1.631,12.401 1.576,11.998 1.943,11.655L11.113,3.088C11.647,2.588 12.933,2.339 14.125,2.505C15.318,2.67 16.053,3.199 15.847,3.744ZM13.377,3.562L4.207,12.129L10.575,12.129L7.136,18.426L17.024,10.994L10.575,10.994L13.377,3.562Z" style="fill:rgb(226,180,54);"/>
                </g>
                <g transform="matrix(2.2149,0,0,5.00879,247.762,-13.6565)">
                    <path d="M13.377,3.562L4.207,12.129L10.575,12.129L7.136,18.426L17.024,10.994L10.575,10.994L13.377,3.562Z" style="fill:rgb(241,228,121);"/>
                    <clipPath id="_clip3">
                        <path d="M13.377,3.562L4.207,12.129L10.575,12.129L7.136,18.426L17.024,10.994L10.575,10.994L13.377,3.562Z"/>
                    </clipPath>
                    <g clip-path="url(#_clip3)">
                        <g transform="matrix(1.80912,0.379434,-0.311208,0.290152,-10.8001,-0.157615)">
                            <path d="M16.629,10.154L14.226,9.767L14.226,31.587L16.094,31.587L16.629,10.154Z" style="fill:rgb(255,252,230);"/>
                        </g>
                    </g>
                    <path d="M15.847,3.744L13.532,9.886L17.024,9.886C17.922,9.886 18.752,10.099 19.198,10.444C19.644,10.789 19.638,11.213 19.182,11.555L9.295,18.988C8.666,19.461 7.348,19.659 6.197,19.453C5.046,19.247 4.41,18.7 4.701,18.166L7.393,13.237L4.207,13.237C3.348,13.237 2.55,13.042 2.091,12.721C1.631,12.401 1.576,11.998 1.943,11.655L11.113,3.088C11.647,2.588 12.933,2.339 14.125,2.505C15.318,2.67 16.053,3.199 15.847,3.744ZM13.377,3.562L4.207,12.129L10.575,12.129L7.136,18.426L17.024,10.994L10.575,10.994L13.377,3.562Z" style="fill:rgb(226,180,54);"/>
                </g>
            </g>
        </g>
    </g>
</svg>
