<?xml version="1.0" encoding="UTF-8" standalone="no"?>
<!DOCTYPE svg PUBLIC "-//W3C//DTD SVG 1.1//EN" "http://www.w3.org/Graphics/SVG/1.1/DTD/svg11.dtd">
<svg width="100%" height="100%" viewBox="0 0 31 35" version="1.1" xmlns="http://www.w3.org/2000/svg" xmlns:xlink="http://www.w3.org/1999/xlink" xml:space="preserve" xmlns:serif="http://www.serif.com/" style="fill-rule:evenodd;clip-rule:evenodd;stroke-linejoin:round;stroke-miterlimit:2;">
    <g transform="matrix(1,0,0,1,-2,0)">
        <g id="Poison">
            <g transform="matrix(1.30116,0,0,1.30116,-7.82272,-2.78505)">
                <circle cx="20.649" cy="12.09" r="7.545" style="fill:rgb(189,74,239);"/>
                <clipPath id="_clip1">
                    <circle cx="20.649" cy="12.09" r="7.545"/>
                </clipPath>
                <g clip-path="url(#_clip1)">
                    <g transform="matrix(0.34327,0.390966,-0.443251,0.389177,16.7759,-3.38027)">
                        <path d="M21.529,3C25.693,3 26.007,8.327 26.007,12.492C26.007,16.656 25.296,21.201 21.131,21.201C16.967,21.201 14.11,17.038 14.11,12.873C14.11,8.709 17.364,3 21.529,3Z" style="fill:rgb(254,132,255);"/>
                    </g>
                </g>
                <path d="M20.649,2.745C25.807,2.745 29.994,6.932 29.994,12.09C29.994,17.248 25.807,21.435 20.649,21.435C15.491,21.435 11.304,17.248 11.304,12.09C11.304,6.932 15.491,2.745 20.649,2.745ZM20.649,4.545C16.485,4.545 13.104,7.925 13.104,12.09C13.104,16.254 16.485,19.635 20.649,19.635C24.813,19.635 28.194,16.254 28.194,12.09C28.194,7.925 24.813,4.545 20.649,4.545Z" style="fill:rgb(101,66,215);"/>
            </g>
            <g transform="matrix(0.779518,0,0,0.779518,-6.2147,14.4574)">
                <circle cx="20.649" cy="12.09" r="7.545" style="fill:rgb(189,74,239);"/>
                <clipPath id="_clip2">
                    <circle cx="20.649" cy="12.09" r="7.545"/>
                </clipPath>
                <g clip-path="url(#_clip2)">
                    <g transform="matrix(0.319375,0.36375,-0.41142,0.361229,16.5972,-2.9079)">
                        <path d="M21.529,3C25.693,3 26.007,8.327 26.007,12.492C26.007,16.656 25.296,21.201 21.131,21.201C16.967,21.201 14.11,17.038 14.11,12.873C14.11,8.709 17.364,3 21.529,3Z" style="fill:rgb(254,132,255);"/>
                    </g>
                </g>
                <path d="M20.649,2.235C26.088,2.235 30.503,6.651 30.503,12.09C30.503,17.529 26.088,21.944 20.649,21.944C15.21,21.944 10.795,17.529 10.795,12.09C10.795,6.651 15.21,2.235 20.649,2.235ZM20.649,4.545C16.485,4.545 13.104,7.925 13.104,12.09C13.104,16.254 16.485,19.635 20.649,19.635C24.813,19.635 28.194,16.254 28.194,12.09C28.194,7.925 24.813,4.545 20.649,4.545Z" style="fill:rgb(101,66,215);"/>
            </g>
            <g transform="matrix(0.529872,0,0,0.529872,16.2357,22.7988)">
                <circle cx="20.649" cy="12.09" r="7.545" style="fill:rgb(189,74,239);"/>
                <clipPath id="_clip3">
                    <circle cx="20.649" cy="12.09" r="7.545"/>
                </clipPath>
                <g clip-path="url(#_clip3)">
                    <g transform="matrix(0.318998,0.363321,-0.410074,0.360047,16.7638,-2.58259)">
                        <path d="M21.529,3C25.693,3 26.007,8.327 26.007,12.492C26.007,16.656 25.296,21.201 21.131,21.201C16.967,21.201 14.11,17.038 14.11,12.873C14.11,8.709 17.364,3 21.529,3Z" style="fill:rgb(254,132,255);"/>
                    </g>
                </g>
                <path d="M20.649,1.148C26.688,1.148 31.591,6.051 31.591,12.09C31.591,18.129 26.688,23.032 20.649,23.032C14.61,23.032 9.707,18.129 9.707,12.09C9.707,6.051 14.61,1.148 20.649,1.148ZM20.649,4.545C16.485,4.545 13.104,7.925 13.104,12.09C13.104,16.254 16.485,19.635 20.649,19.635C24.813,19.635 28.194,16.254 28.194,12.09C28.194,7.925 24.813,4.545 20.649,4.545Z" style="fill:rgb(101,66,215);"/>
            </g>
        </g>
    </g>
</svg>
