<?xml version="1.0" encoding="UTF-8" standalone="no"?>
<!DOCTYPE svg PUBLIC "-//W3C//DTD SVG 1.1//EN" "http://www.w3.org/Graphics/SVG/1.1/DTD/svg11.dtd">
<svg width="100%" height="100%" viewBox="0 0 32 32" version="1.1" xmlns="http://www.w3.org/2000/svg" xmlns:xlink="http://www.w3.org/1999/xlink" xml:space="preserve" xmlns:serif="http://www.serif.com/" style="fill-rule:evenodd;clip-rule:evenodd;stroke-linecap:round;stroke-linejoin:round;stroke-miterlimit:1.5;">
    <g transform="matrix(1,0,0,1,-3,-2)">
        <g transform="matrix(0.324459,0,0,0.324459,-70.0171,1.86855)">
            <g id="Protect">
                <g transform="matrix(0.826094,-4.34693e-18,3.80743e-18,-0.754657,43.4353,100.07)">
                    <path d="M275,11.327C312.044,11.327 319.611,108.879 319.611,108.879L299.972,109.068L275,119.962L250.028,109.068L230.389,108.879C230.389,108.879 237.956,11.327 275,11.327Z" style="fill:rgb(0,96,176);"/>
                    <clipPath id="_clip1">
                        <path d="M275,11.327C312.044,11.327 319.611,108.879 319.611,108.879L299.972,109.068L275,119.962L250.028,109.068L230.389,108.879C230.389,108.879 237.956,11.327 275,11.327Z"/>
                    </clipPath>
                    <g clip-path="url(#_clip1)">
                        <g transform="matrix(3.73087,-2.14904e-17,1.88232e-17,-4.08404,208.646,140.234)">
                            <path d="M10.36,14.701L10.36,4.964L15.281,4.964L15.281,14.701L20.235,14.701L20.235,4.122L25.156,4.122L25.156,14.701L32.142,14.701L32.142,19.622L25.156,19.622L25.156,32.406L20.235,32.406L20.235,19.622L15.281,19.622L15.281,33.247L10.36,33.247L10.36,19.622L3.858,19.622L3.858,14.701L10.36,14.701Z" style="fill:rgb(24,152,216);stroke:rgb(136,216,240);stroke-width:1.8px;"/>
                        </g>
                    </g>
                    <path d="M275,3.839C261.536,3.839 250.837,13.799 243.084,28.69C227.547,58.536 223.573,108.245 223.573,108.245C223.412,110.322 224.049,112.379 225.331,113.92C226.613,115.462 228.424,116.348 230.329,116.366L248.686,116.543L272.468,126.918C274.094,127.628 275.906,127.628 277.532,126.918L301.314,116.543L319.671,116.366C321.576,116.348 323.387,115.462 324.669,113.92C325.951,112.379 326.588,110.322 326.427,108.245C326.427,108.245 322.453,58.536 306.916,28.69C299.163,13.799 288.464,3.839 275,3.839ZM275,11.327C312.044,11.327 319.611,108.879 319.611,108.879L299.972,109.068L275,119.962L250.028,109.068L230.389,108.879C230.389,108.879 237.956,11.327 275,11.327Z" style="fill:rgb(136,216,240);"/>
                </g>
                <g transform="matrix(3.08205,0,0,3.08205,217.872,-11.8282)">
                    <path d="M26.711,4.964L28.471,9.721L33.229,11.482L28.471,13.242L26.711,18L24.95,13.242L20.193,11.482L24.95,9.721L26.711,4.964Z" style="fill:rgb(255,254,214);stroke:rgb(248,242,37);stroke-width:1.8px;"/>
                </g>
            </g>
        </g>
    </g>
</svg>
