<?xml version="1.0" encoding="UTF-8" standalone="no"?>
<!DOCTYPE svg PUBLIC "-//W3C//DTD SVG 1.1//EN" "http://www.w3.org/Graphics/SVG/1.1/DTD/svg11.dtd">
<svg width="100%" height="100%" viewBox="0 0 30 34" version="1.1" xmlns="http://www.w3.org/2000/svg" xmlns:xlink="http://www.w3.org/1999/xlink" xml:space="preserve" xmlns:serif="http://www.serif.com/" style="fill-rule:evenodd;clip-rule:evenodd;stroke-linecap:round;stroke-linejoin:round;stroke-miterlimit:1.5;">
    <g transform="matrix(1,0,0,1,-3,-1)">
        <g transform="matrix(0.299821,0,0,0.299821,-65.5487,2.52907)">
            <g id="Silenced">
                <g transform="matrix(0.981033,0,0,1.02292,8.05504,-5.12946)">
                    <path d="M275.839,9.027C275.839,9.027 241.065,32.027 241.065,68.463C241.065,86.87 256.647,101.813 275.839,101.813C295.032,101.813 310.614,86.87 310.614,68.463C310.614,32.027 275.839,9.027 275.839,9.027Z" style="fill:rgb(0,80,241);"/>
                    <clipPath id="_clip1">
                        <path d="M275.839,9.027C275.839,9.027 241.065,32.027 241.065,68.463C241.065,86.87 256.647,101.813 275.839,101.813C295.032,101.813 310.614,86.87 310.614,68.463C310.614,32.027 275.839,9.027 275.839,9.027Z"/>
                    </clipPath>
                    <g clip-path="url(#_clip1)">
                        <g transform="matrix(0.770684,0,0,0.770684,63.2543,15.3926)">
                            <path d="M275.839,9.027C275.839,9.027 241.065,32.027 241.065,68.463C241.065,86.87 256.647,101.813 275.839,101.813C295.032,101.813 310.614,86.87 310.614,68.463C310.614,32.027 275.839,9.027 275.839,9.027Z" style="fill:rgb(75,160,255);"/>
                        </g>
                        <g transform="matrix(0.458533,0,0,0.478407,149.358,31.5906)">
                            <path d="M275.839,9.027C275.839,9.027 241.065,32.563 241.065,69.848C241.065,87.49 256.647,101.813 275.839,101.813C295.032,101.813 310.614,87.49 310.614,69.848C310.614,32.563 275.839,9.027 275.839,9.027Z" style="fill:rgb(182,216,255);"/>
                        </g>
                    </g>
                    <path d="M279.506,3.927C279.506,3.927 317.073,28.948 317.073,68.463C317.073,90.289 298.597,108.009 275.839,108.009C253.081,108.009 234.605,90.289 234.605,68.463C234.605,28.948 272.172,3.927 272.172,3.927C274.38,2.467 277.299,2.467 279.506,3.927ZM275.839,9.027C275.839,9.027 241.065,32.027 241.065,68.463C241.065,86.87 256.647,101.813 275.839,101.813C295.032,101.813 310.614,86.87 310.614,68.463C310.614,32.027 275.839,9.027 275.839,9.027Z" style="fill:rgb(0,30,154);"/>
                </g>
                <g transform="matrix(3.33008,3.33008,-2.85293,2.85293,248.952,-25.9557)">
                    <path d="M29.958,9.147C29.958,8.305 29.373,7.621 28.651,7.621L4.865,7.621C4.144,7.621 3.558,8.305 3.558,9.147C3.558,9.989 4.144,10.673 4.865,10.673L28.651,10.673C29.373,10.673 29.958,9.989 29.958,9.147Z" style="fill:rgb(255,0,12);stroke:rgb(175,17,0);stroke-width:1.45px;"/>
                </g>
            </g>
        </g>
    </g>
</svg>
