<?xml version="1.0" encoding="UTF-8" standalone="no"?>
<!DOCTYPE svg PUBLIC "-//W3C//DTD SVG 1.1//EN" "http://www.w3.org/Graphics/SVG/1.1/DTD/svg11.dtd">
<svg width="100%" height="100%" viewBox="0 0 34 34" version="1.1" xmlns="http://www.w3.org/2000/svg" xmlns:xlink="http://www.w3.org/1999/xlink" xml:space="preserve" xmlns:serif="http://www.serif.com/" style="fill-rule:evenodd;clip-rule:evenodd;stroke-linejoin:round;stroke-miterlimit:2;">
    <g transform="matrix(1,0,0,1,-1,-1)">
        <g id="Asleep">
            <g transform="matrix(1.8393,1.06192,-0.753116,1.30444,24.4696,-22.5708)">
                <path d="M13.511,27.15L8.615,27.15L8.567,26.046L10.763,21.558L8.447,21.558L8.327,19.698L13.391,19.698L13.451,20.874L11.363,25.434L13.511,25.434L13.511,27.15Z" style="fill:rgb(32,49,169);fill-rule:nonzero;stroke:rgb(128,166,239);stroke-width:0.54px;"/>
            </g>
            <g transform="matrix(2.97327,-0.796686,0.5457,2.03658,-33.7726,-26.9724)">
                <path d="M13.511,27.15L8.615,27.15L8.567,26.046L10.763,21.558L8.447,21.558L8.327,19.698L13.391,19.698L13.451,20.874L11.363,25.434L13.511,25.434L13.511,27.15Z" style="fill:rgb(32,49,169);fill-rule:nonzero;stroke:rgb(128,166,239);stroke-width:0.38px;"/>
            </g>
            <g transform="matrix(1.62045,0,-5.55112e-17,1.23006,-2.02605,0.127424)">
                <path d="M13.511,27.15L8.615,27.15L8.567,26.046L10.763,21.558L8.447,21.558L8.327,19.698L13.391,19.698L13.451,20.874L11.363,25.434L13.511,25.434L13.511,27.15Z" style="fill:rgb(32,49,169);fill-rule:nonzero;stroke:rgb(128,166,239);stroke-width:0.7px;"/>
            </g>
        </g>
    </g>
</svg>
