<?xml version="1.0" encoding="UTF-8" standalone="no"?>
<!DOCTYPE svg PUBLIC "-//W3C//DTD SVG 1.1//EN" "http://www.w3.org/Graphics/SVG/1.1/DTD/svg11.dtd">
<svg width="100%" height="100%" viewBox="0 0 32 30" version="1.1" xmlns="http://www.w3.org/2000/svg" xmlns:xlink="http://www.w3.org/1999/xlink" xml:space="preserve" xmlns:serif="http://www.serif.com/" style="fill-rule:evenodd;clip-rule:evenodd;stroke-linecap:round;stroke-linejoin:round;stroke-miterlimit:1.5;">
    <g transform="matrix(1,0,0,1,-2,-3)">
        <g transform="matrix(1,0,0,1,-222.533,1.60798)">
            <g id="Wounded">
                <g transform="matrix(0.285366,0,0,0.27131,162.542,2.19165)">
                    <g>
                        <g transform="matrix(1.10496,0,0,1.29784,-28.8648,-30.0224)">
                            <path d="M275,40.532C283.87,25.327 301.609,25.327 310.479,32.93C319.35,40.532 319.35,55.736 310.479,70.94C304.27,82.343 288.305,93.746 275,101.348C261.695,93.746 245.73,82.343 239.521,70.94C230.651,55.736 230.651,40.532 239.521,32.93C248.391,25.327 266.13,25.327 275,40.532Z" style="fill:rgb(0,143,8);"/>
                        </g>
                        <g transform="matrix(1.06697,0,0,1.22511,-18.4177,-24.1937)">
                            <path d="M275,31.166C286.92,19.205 304.905,20.75 314.51,28.983C324.887,37.876 326.069,55.638 315.737,73.393C309.104,85.533 292.287,97.841 278.123,105.934C276.212,107.026 273.788,107.026 271.877,105.934C257.724,97.847 240.922,85.552 234.278,73.421C223.932,55.636 225.114,37.875 235.49,28.983C245.095,20.75 263.08,19.205 275,31.166ZM275,40.532C266.13,25.327 248.391,25.327 239.521,32.93C230.651,40.532 230.651,55.736 239.521,70.94C245.73,82.343 261.695,93.746 275,101.348C288.305,93.746 304.27,82.343 310.479,70.94C319.35,55.736 319.35,40.532 310.479,32.93C301.609,25.327 283.87,25.327 275,40.532Z" style="fill:rgb(4,76,0);"/>
                        </g>
                        <g transform="matrix(0.857883,0,0,0.985031,39.0822,-8.98759)">
                            <path d="M275,40.532C283.87,25.327 301.609,25.327 310.479,32.93C319.35,40.532 319.35,55.736 310.479,70.94C304.27,82.343 288.305,93.746 275,101.348C261.695,93.746 245.73,82.343 239.521,70.94C230.651,55.736 230.651,40.532 239.521,32.93C248.391,25.327 266.13,25.327 275,40.532Z" style="fill:rgb(125,220,19);"/>
                        </g>
                        <g transform="matrix(0.63281,0,0,0.726599,100.977,7.38088)">
                            <path d="M275,40.532C283.87,25.327 301.609,25.327 310.479,32.93C319.35,40.532 319.35,55.736 310.479,70.94C304.27,82.343 288.305,93.746 275,101.348C261.695,93.746 245.73,82.343 239.521,70.94C230.651,55.736 230.651,40.532 239.521,32.93C248.391,25.327 266.13,25.327 275,40.532Z" style="fill:rgb(202,241,159);"/>
                        </g>
                    </g>
                </g>
                <g transform="matrix(0.998426,0.998426,-0.855368,0.855368,231.241,-8.16385)">
                    <path d="M29.958,9.147C29.958,8.305 29.373,7.621 28.651,7.621L4.865,7.621C4.144,7.621 3.558,8.305 3.558,9.147C3.558,9.989 4.144,10.673 4.865,10.673L28.651,10.673C29.373,10.673 29.958,9.989 29.958,9.147Z" style="fill:rgb(255,0,12);stroke:rgb(175,17,0);stroke-width:1.45px;"/>
                </g>
            </g>
        </g>
    </g>
</svg>
