<?xml version="1.0" encoding="UTF-8" standalone="no"?>
<!DOCTYPE svg PUBLIC "-//W3C//DTD SVG 1.1//EN" "http://www.w3.org/Graphics/SVG/1.1/DTD/svg11.dtd">
<svg width="100%" height="100%" viewBox="0 0 34 33" version="1.1" xmlns="http://www.w3.org/2000/svg" xmlns:xlink="http://www.w3.org/1999/xlink" xml:space="preserve" xmlns:serif="http://www.serif.com/" style="fill-rule:evenodd;clip-rule:evenodd;stroke-linejoin:round;stroke-miterlimit:2;">
    <g transform="matrix(1,0,0,1,-1,-1)">
        <g transform="matrix(0.371934,-0.87227,0.87227,0.371934,-6.14452,25.9912)">
            <path id="Confused" d="M16.819,20.088C17.169,20.342 17.247,20.832 16.993,21.182C16.74,21.531 16.25,21.61 15.9,21.356C13.997,20.268 13.071,18.936 12.667,17.725C11.964,15.615 13.022,13.682 14.859,12.511C17.18,11.031 21.113,11.132 24.85,14.448C26.065,15.621 26.821,17.295 27.063,19.151C27.36,21.429 26.785,23.988 25.389,26.113C23.492,29.003 20.031,31.159 14.858,30.629C7.933,29.886 4.272,24.939 3.567,19.503C2.833,13.847 5.465,7.73 10.777,5.29C15.98,2.927 23.024,3.415 28.03,6.885C32.495,9.979 35.484,15.33 34.076,22.97C32.394,30.831 27.784,34.49 22.575,35.636C20.877,36.01 19.128,36.131 17.412,36.016C12.839,35.711 8.576,33.949 6.453,32.178C6.104,31.923 6.028,31.433 6.283,31.084C6.538,30.735 7.028,30.659 7.377,30.914C10.162,32.701 16.396,33.986 21.667,32.271C25.431,31.046 28.586,28.078 29.348,22.161C30.177,16.904 28.204,13.245 25.109,11.177C21.555,8.802 16.634,8.436 12.997,10.125C9.781,11.601 8.409,15.404 8.84,18.829C9.243,22.033 11.356,24.976 15.433,25.444C18.203,25.775 20.138,24.815 21.19,23.288C21.947,22.19 22.283,20.867 22.185,19.665C22.124,18.911 21.965,18.183 21.508,17.676C19.769,15.573 17.79,14.922 16.397,15.489C15.786,15.738 15.229,16.085 15.131,16.697C14.976,17.675 15.45,18.849 16.819,20.088Z" style="fill:rgb(240,232,0);stroke:rgb(216,176,1);stroke-width:1.9px;"/>
        </g>
    </g>
</svg>
