<?xml version="1.0" encoding="UTF-8" standalone="no"?>
<!DOCTYPE svg PUBLIC "-//W3C//DTD SVG 1.1//EN" "http://www.w3.org/Graphics/SVG/1.1/DTD/svg11.dtd">
<svg width="100%" height="100%" viewBox="0 0 30 34" version="1.1" xmlns="http://www.w3.org/2000/svg" xmlns:xlink="http://www.w3.org/1999/xlink" xml:space="preserve" xmlns:serif="http://www.serif.com/" style="fill-rule:evenodd;clip-rule:evenodd;stroke-linecap:round;stroke-linejoin:round;stroke-miterlimit:1.5;">
    <g transform="matrix(1,0,0,1,-3,-1)">
        <g transform="matrix(0.299821,0,0,0.299821,-65.5487,2.52907)">
            <g id="Fatigued">
                <g transform="matrix(0.981033,0,0,1.02292,8.05504,-5.12946)">
                    <path d="M275.839,9.027C275.839,9.027 241.065,32.027 241.065,68.463C241.065,86.87 256.647,101.813 275.839,101.813C295.032,101.813 310.614,86.87 310.614,68.463C310.614,32.027 275.839,9.027 275.839,9.027Z" style="fill:rgb(0,80,241);"/>
                    <clipPath id="_clip1">
                        <path d="M275.839,9.027C275.839,9.027 241.065,32.027 241.065,68.463C241.065,86.87 256.647,101.813 275.839,101.813C295.032,101.813 310.614,86.87 310.614,68.463C310.614,32.027 275.839,9.027 275.839,9.027Z"/>
                    </clipPath>
                    <g clip-path="url(#_clip1)">
                        <g transform="matrix(0.770684,0,0,0.770684,63.2543,15.3926)">
                            <path d="M275.839,9.027C275.839,9.027 241.065,32.027 241.065,68.463C241.065,86.87 256.647,101.813 275.839,101.813C295.032,101.813 310.614,86.87 310.614,68.463C310.614,32.027 275.839,9.027 275.839,9.027Z" style="fill:rgb(75,160,255);"/>
                        </g>
                        <g transform="matrix(0.458533,0,0,0.478407,149.358,31.5906)">
                            <path d="M275.839,9.027C275.839,9.027 241.065,32.563 241.065,69.848C241.065,87.49 256.647,101.813 275.839,101.813C295.032,101.813 310.614,87.49 310.614,69.848C310.614,32.563 275.839,9.027 275.839,9.027Z" style="fill:rgb(182,216,255);"/>
                        </g>
                    </g>
                    <path d="M279.506,3.927C279.506,3.927 317.073,28.948 317.073,68.463C317.073,90.289 298.597,108.009 275.839,108.009C253.081,108.009 234.605,90.289 234.605,68.463C234.605,28.948 272.172,3.927 272.172,3.927C274.38,2.467 277.299,2.467 279.506,3.927ZM275.839,9.027C275.839,9.027 241.065,32.027 241.065,68.463C241.065,86.87 256.647,101.813 275.839,101.813C295.032,101.813 310.614,86.87 310.614,68.463C310.614,32.027 275.839,9.027 275.839,9.027Z" style="fill:rgb(0,30,154);"/>
                </g>
            </g>
        </g>
        <g transform="matrix(4.39718e-17,0.718114,-3.18768,1.95189e-16,57.7751,10.9395)">
            <path d="M14.632,10.081L14.632,8.615L22.087,8.615L22.087,7.255L31.379,9.348L22.087,11.441L22.087,10.081L14.632,10.081Z" style="fill:rgb(255,0,12);"/>
        </g>
        <g transform="matrix(4.39718e-17,0.718114,-3.18768,1.95189e-16,57.7751,10.9395)">
            <path d="M13.378,10.081L13.378,8.615C13.378,8.459 13.939,8.333 14.632,8.333L20.833,8.333L20.833,7.255C20.833,7.14 21.139,7.037 21.607,6.994C22.075,6.95 22.614,6.974 22.973,7.055L32.265,9.148C32.755,9.259 32.755,9.437 32.265,9.548L22.973,11.641C22.614,11.722 22.075,11.746 21.607,11.702C21.139,11.659 20.833,11.556 20.833,11.441C20.833,11.441 20.833,10.363 20.833,10.363L14.632,10.363C13.939,10.363 13.378,10.237 13.378,10.081ZM15.885,9.798L22.087,9.798C22.779,9.798 23.34,9.925 23.34,10.081L23.34,10.76L29.607,9.348L23.34,7.936L23.34,8.615C23.34,8.771 22.779,8.898 22.087,8.898C22.087,8.898 15.885,8.898 15.885,8.898L15.885,9.798Z" style="fill:rgb(175,17,0);"/>
        </g>
    </g>
</svg>
