<?xml version="1.0" encoding="UTF-8" standalone="no"?>
<!DOCTYPE svg PUBLIC "-//W3C//DTD SVG 1.1//EN" "http://www.w3.org/Graphics/SVG/1.1/DTD/svg11.dtd">
<svg width="100%" height="100%" viewBox="0 0 34 34" version="1.1" xmlns="http://www.w3.org/2000/svg" xmlns:xlink="http://www.w3.org/1999/xlink" xml:space="preserve" xmlns:serif="http://www.serif.com/" style="fill-rule:evenodd;clip-rule:evenodd;stroke-linecap:round;stroke-linejoin:round;stroke-miterlimit:1.5;">
    <g transform="matrix(1,0,0,1,-1,-1)">
        <g id="Freeze">
            <g transform="matrix(1.14241,0,0,1.14241,-3.27828,-3.70539)">
                <path d="M31.819,9.739C31.287,7.958 29.657,6.329 27.877,5.797C25.678,5.14 21.709,6.816 18.625,6.816C15.541,6.816 11.572,5.14 9.373,5.797C7.592,6.329 5.963,7.958 5.431,9.739C4.774,11.938 6.577,15.907 6.577,18.991C6.577,22.075 4.774,26.044 5.431,28.243C5.963,30.023 7.592,31.653 9.373,32.185C11.572,32.842 15.541,32.185 18.625,32.185C21.709,32.185 25.678,32.842 27.877,32.185C29.657,31.653 31.287,30.023 31.819,28.243C32.476,26.044 30.885,22.075 30.885,18.991C30.885,15.907 32.476,11.938 31.819,9.739Z" style="fill:rgb(136,234,250);stroke:rgb(184,245,255);stroke-width:1.66px;"/>
            </g>
            <g transform="matrix(0.687181,0,0,0.687181,5.20371,4.97157)">
                <path d="M31.819,9.739C31.287,7.958 29.657,6.329 27.877,5.797C25.678,5.14 21.709,6.816 18.625,6.816C15.541,6.816 11.572,5.14 9.373,5.797C7.592,6.329 5.963,7.958 5.431,9.739C4.774,11.938 6.577,15.907 6.577,18.991C6.577,22.075 4.774,26.044 5.431,28.243C5.963,30.023 7.592,31.653 9.373,32.185C11.572,32.842 15.541,32.185 18.625,32.185C21.709,32.185 25.678,32.842 27.877,32.185C29.657,31.653 31.287,30.023 31.819,28.243C32.476,26.044 30.885,22.075 30.885,18.991C30.885,15.907 32.476,11.938 31.819,9.739Z" style="fill:rgb(14,220,255);stroke:rgb(61,227,255);stroke-width:2.76px;"/>
            </g>
            <g transform="matrix(0.310742,0,0,0.310742,12.2177,12.1467)">
                <path d="M31.819,9.739C31.287,7.958 29.657,6.329 27.877,5.797C25.678,5.14 21.709,6.816 18.625,6.816C15.541,6.816 11.572,5.14 9.373,5.797C7.592,6.329 5.963,7.958 5.431,9.739C4.774,11.938 6.577,15.907 6.577,18.991C6.577,22.075 4.774,26.044 5.431,28.243C5.963,30.023 7.592,31.653 9.373,32.185C11.572,32.842 15.541,32.185 18.625,32.185C21.709,32.185 25.678,32.842 27.877,32.185C29.657,31.653 31.287,30.023 31.819,28.243C32.476,26.044 30.885,22.075 30.885,18.991C30.885,15.907 32.476,11.938 31.819,9.739Z" style="fill:rgb(0,210,245);"/>
            </g>
            <g transform="matrix(1.14241,0,0,1.14241,-3.27828,-3.70539)">
                <path d="M31.819,9.739C31.287,7.958 29.657,6.329 27.877,5.797C25.678,5.14 21.709,6.816 18.625,6.816C15.541,6.816 11.572,5.14 9.373,5.797C7.592,6.329 5.963,7.958 5.431,9.739C4.774,11.938 6.577,15.907 6.577,18.991C6.577,22.075 4.774,26.044 5.431,28.243C5.963,30.023 7.592,31.653 9.373,32.185C11.572,32.842 15.541,32.185 18.625,32.185C21.709,32.185 25.678,32.842 27.877,32.185C29.657,31.653 31.287,30.023 31.819,28.243C32.476,26.044 30.885,22.075 30.885,18.991C30.885,15.907 32.476,11.938 31.819,9.739Z" style="fill:none;"/>
                <clipPath id="_clip1">
                    <path d="M31.819,9.739C31.287,7.958 29.657,6.329 27.877,5.797C25.678,5.14 21.709,6.816 18.625,6.816C15.541,6.816 11.572,5.14 9.373,5.797C7.592,6.329 5.963,7.958 5.431,9.739C4.774,11.938 6.577,15.907 6.577,18.991C6.577,22.075 4.774,26.044 5.431,28.243C5.963,30.023 7.592,31.653 9.373,32.185C11.572,32.842 15.541,32.185 18.625,32.185C21.709,32.185 25.678,32.842 27.877,32.185C29.657,31.653 31.287,30.023 31.819,28.243C32.476,26.044 30.885,22.075 30.885,18.991C30.885,15.907 32.476,11.938 31.819,9.739Z"/>
                </clipPath>
                <g clip-path="url(#_clip1)">
                    <g transform="matrix(0.665327,-0.746552,0.539183,0.48052,7.76002,27.1252)">
                        <rect x="-6.521" y="1.036" width="39.551" height="5.546" style="fill:white;fill-opacity:0.5;"/>
                    </g>
                    <g transform="matrix(0.665327,-0.746552,0.539183,0.48052,0.986569,21.0243)">
                        <rect x="-6.521" y="1.036" width="39.551" height="5.546" style="fill:white;fill-opacity:0.5;"/>
                    </g>
                    <g transform="matrix(0.665327,-0.746552,0.539183,0.48052,15.639,33.4416)">
                        <rect x="-6.521" y="1.036" width="39.551" height="5.546" style="fill:white;fill-opacity:0.5;"/>
                    </g>
                </g>
                <path d="M31.819,9.739C31.287,7.958 29.657,6.329 27.877,5.797C25.678,5.14 21.709,6.816 18.625,6.816C15.541,6.816 11.572,5.14 9.373,5.797C7.592,6.329 5.963,7.958 5.431,9.739C4.774,11.938 6.577,15.907 6.577,18.991C6.577,22.075 4.774,26.044 5.431,28.243C5.963,30.023 7.592,31.653 9.373,32.185C11.572,32.842 15.541,32.185 18.625,32.185C21.709,32.185 25.678,32.842 27.877,32.185C29.657,31.653 31.287,30.023 31.819,28.243C32.476,26.044 30.885,22.075 30.885,18.991C30.885,15.907 32.476,11.938 31.819,9.739Z" style="fill:none;stroke:rgb(184,245,255);stroke-width:1.66px;"/>
            </g>
        </g>
    </g>
</svg>
