<?xml version="1.0" encoding="UTF-8"?>
<svg xmlns="http://www.w3.org/2000/svg" viewBox="0 0 74 104">
  <defs>
    <style>
      .cls-1 {
        fill: #727272;
      }

      .cls-1, .cls-2, .cls-3, .cls-4, .cls-5, .cls-6 {
        stroke-width: 0px;
      }

      .cls-2 {
        fill: #e5e5e5;
      }

      .cls-3 {
        fill: #9e9e9e;
      }

      .cls-7 {
        stroke: #6d6d6d;
      }

      .cls-7, .cls-8 {
        stroke-miterlimit: 10;
        stroke-width: 3px;
      }

      .cls-7, .cls-6 {
        fill: #5b5b5b;
      }

      .cls-4 {
        fill: #878787;
      }

      .cls-8 {
        fill: none;
        stroke: #d6d6d6;
        stroke-linecap: round;
      }

      .cls-5 {
        fill: #aaa;
      }
    </style>
  </defs>
  <g id="Layer_4" data-name="Layer 4">
    <path class="cls-2" d="M8,38.2c-2.4-13,2-25.4,11.7-32C27.7.9,37.2.8,37.2.8c31.6-.3,29.2,38.6,29.2,38.6h-13.5v-3.2c.1-.9.2-2.3,0-4.1-.3-4.2-.7-11-5.5-15.2-3.8-3.4-8.5-3.5-10.2-3.6-1.8,0-5.8-.2-9.5,2.5-3.1,2.2-4.3,5.3-4.9,6.5-1,2.4-1.2,4.9-1.6,9.7-.2,2.5-.3,4.6-.3,6.1-1.5.4-3.5.9-6,.9-3,0-5.4-.4-7-.9Z"/>
    <path class="cls-4" d="M72.9,45.7v52.4c0,2.5-1.8,4.6-4,4.6H5.1c-2.2,0-4-2.1-4-4.6v-52.4c0-2.5,1.8-4.6,4-4.6h63.8c2.2,0,4,2.1,4,4.6Z"/>
    <rect class="cls-3" x="2.3" y="42.4" width="11.1" height="59.9"/>
    <rect class="cls-1" x="66.6" y="41.6" width="5.9" height="60.7" rx="1.4" ry="1.4"/>
  </g>
  <g id="Layer_7" data-name="Layer 7">
    <path class="cls-8" d="M9.5,38.7c-.7-3.1-1.9-10.1,1.3-17.9C15.9,8.4,27.8,3.4,30.2,2.4c3.7-.8,11.8-1.9,19.2,2,9.5,4.8,12.3,14.5,14.1,20.7,1.6,5.4,1.7,10.1,1.6,13.2"/>
    <path class="cls-8" d="M64.3,38.2c0-3.1-.3-7.3-1.7-12.2-1.3-4.6-4.4-14.9-12.5-19.5-5.3-3-10.9-3.2-12.5-3.2-3.1,0-5.7.4-7.5.8-2,.6-5.2,1.7-8.4,4.1-5.7,4.3-7.8,9.8-9.2,13.3-2.7,7.2-2.6,13.7-2,18"/>
  </g>
  <g id="Layer_3" data-name="Layer 3">
    <path class="cls-5" d="M67.2,40.3h-15.1v-4.1c.1-1.4.1-2.7,0-4-.3-4.2-.7-10.7-5.2-14.7-3.6-3.2-8-3.3-9.6-3.3-1.5,0-5.4-.1-9,2.4-5.4,3.9-6,11-6.2,12.6-.1,1.3-.2,2.8-.2,2.8,0,1.8,0,2.9,0,6.2v1.8H7c0-.4,0-1.1,0-1.8,0-7.7.1-12.8,2-18.2.8-2.4,3.3-9.4,10.2-14.4,1.7-1.2,3.2-2.1,3.9-2.4C27.3,1.1,32,0,37.2,0c5.3,0,10.1,1,14.1,3.1,0,0,3.2,1.7,6,4.5,9.2,9.1,9.9,31.1,10,32.7ZM54,38h11c.1-2.9,0-7.1-1-12-1.3-6.1-2.6-12.2-8-17.3C48.6,1.7,38.5,1.6,37.2,1.6c0,0,0,0,0,0,0,0,0,0,0,0,0,0-6.1.1-11.2,2-2.8,1.1-4.7,2.4-5.8,3.2-10.1,7.6-11,21.5-11.2,25.9-.1,2.4,0,4.3,0,5.5h11c0-.5,0-1.3,0-1.8,0-6,0-6.6,0-7.4,0-1.9.5-4.6,2-8,.8-1.4,2.4-3.8,5.3-5.8,4.2-2.8,8.5-2.8,10-2.7,1.8,0,6.7.2,10.7,3.8,4.6,4.1,5.2,10.4,5.8,15.8.2,1.6.2,2.9.2,3.9v2Z"/>
    <path class="cls-6" d="M69,104H5.1c-2.8,0-5.1-2.6-5.1-5.9v-52.4c0-3.2,2.3-5.9,5.1-5.9h63.8c2.8,0,5.1,2.6,5.1,5.9v52.4c0,3.2-2.3,5.9-5.1,5.9ZM5.1,42.4c-1.6,0-2.9,1.5-2.9,3.3v52.4c0,1.8,1.3,3.3,2.9,3.3h63.8c1.6,0,2.9-1.5,2.9-3.3v-52.4c0-1.8-1.3-3.3-2.9-3.3H5.1Z"/>
    <path class="cls-7" d="M41.1,72.1c.7,3.9,1.5,7.7,2.2,11.6,0,.2.1.7,0,1.1-.2.7-.9,1.2-1.7,1.1h-10c-.8.1-1.5-.4-1.7-1.1-.1-.4,0-.9,0-1.1.7-3.9,1.4-7.8,2.2-11.6-1-.8-1.7-1.6-2.2-2.2-.6-.9-1.6-2.3-1.7-4.2,0-1.3.4-2.3.6-2.8,1-2.5,3-3.6,3.6-4,1.7-.9,3.2-.9,4.2-.9,1.3,0,3.7,0,5.9,1.8.2.2,2.2,1.9,2.5,4.2.2,1.1,0,2.5,0,2.5,0,0,0,.8-.3,1.4-.2.7-.8,1.7-1.6,2.6-.4.5-1.1,1.1-2,1.6Z"/>
  </g>
</svg>