<?xml version="1.0" encoding="UTF-8" standalone="no"?>
<!DOCTYPE svg PUBLIC "-//W3C//DTD SVG 1.1//EN" "http://www.w3.org/Graphics/SVG/1.1/DTD/svg11.dtd">
<svg width="100%" height="100%" viewBox="0 0 400 400" version="1.1" xmlns="http://www.w3.org/2000/svg" xmlns:xlink="http://www.w3.org/1999/xlink" xml:space="preserve" xmlns:serif="http://www.serif.com/" style="fill-rule:evenodd;clip-rule:evenodd;stroke-linejoin:round;stroke-miterlimit:1.5;">
    <g transform="translate(60 20) matrix(0.906912,0,0,0.906912,11.4392,12.7995)">
        <g transform="matrix(1.02196,0,0,1.02196,-1.37624,-5.31177)">
            <circle cx="137.359" cy="139.742" r="127.528" style="fill:rgb(255,209,26);"/>
            <path d="M137.359,-7.207C56.256,-7.207 -9.59,58.639 -9.59,139.742C-9.59,220.846 56.256,286.692 137.359,286.692C218.463,286.692 284.309,220.846 284.309,139.742C284.309,58.639 218.463,-7.207 137.359,-7.207ZM137.359,12.214C207.744,12.214 264.888,69.358 264.888,139.742C264.888,210.127 207.744,267.271 137.359,267.271C66.974,267.271 9.831,210.127 9.831,139.742C9.831,69.358 66.974,12.214 137.359,12.214Z"/>
        </g>
        <g transform="matrix(1.01663,0,0,1.01663,-4.22485,-6.80808)">
            <path d="M24.767,196.252C17.007,179.762 12.684,161.356 12.684,141.948C12.684,71.193 70.128,13.75 140.882,13.75C172.212,13.75 200.932,25.013 223.19,43.717C203.958,33.442 181.992,27.627 158.679,27.627C82.791,27.627 21.179,89.239 21.179,165.127C21.179,175.835 22.406,186.259 24.767,196.252Z" style="fill:rgb(250,255,85);"/>
        </g>
        <g transform="matrix(1.01663,0,0,1.01663,-45.6997,-61.9118)">
            <path d="M291.791,130.583C303.288,149.753 309.876,172.188 309.876,196.15C309.876,266.904 252.433,324.348 181.679,324.348C144.186,324.348 110.43,308.218 87.035,282.473C107.902,295.26 132.437,302.627 158.679,302.627C234.567,302.627 296.179,241.016 296.179,165.127C296.179,153.198 294.657,141.621 291.791,130.583Z" style="fill:rgb(211,117,0);"/>
        </g>
        <g transform="matrix(0.8445,0,0,0.8445,23.0001,19.4875)">
            <circle cx="137.359" cy="139.742" r="127.528" style="fill:none;stroke:rgb(171,80,0);stroke-width:23.5px;"/>
        </g>
        <g transform="matrix(0.685105,-0.685105,0.41058,0.41058,-57.065,149.043)">
            <path d="M122.978,120.891L120.014,138.868C118.974,145.028 118.186,149.881 117.652,153.428C117.117,156.974 116.922,158.868 117.067,159.11C117.621,159.311 119.033,159.731 121.302,160.37C123.571,161.008 125.409,161.52 126.816,161.907C128.223,162.294 128.975,162.568 129.072,162.729L123.359,195.166L18.218,195.166C20.229,169.517 24.902,144.342 32.235,120.891L122.978,120.891Z" style="fill:rgb(255,247,214);fill-opacity:0.5;"/>
        </g>
        <g transform="matrix(0.685105,-0.685105,0.41058,0.41058,-57.065,149.043)">
            <path d="M141.406,120.891L270.796,120.891C278.131,144.348 282.812,169.523 284.813,195.166L199.016,195.166L196.154,190.286C191.959,183.287 187.645,176.811 183.21,170.856C177.447,163.097 171.249,155.258 164.617,147.34C157.985,139.421 151.576,132.056 145.39,125.243L141.406,120.891Z" style="fill:rgb(255,247,214);fill-opacity:0.5;"/>
        </g>
        <g transform="matrix(0.685105,-0.685105,0.277683,0.277683,15.7727,217.997)">
            <path d="M110.087,120.891L101.24,195.166L23.014,195.166C19.293,171.082 16.751,146.14 15.397,120.891L110.087,120.891Z" style="fill:rgb(255,247,214);fill-opacity:0.5;"/>
        </g>
        <g transform="matrix(0.685105,-0.685105,0.277683,0.277683,15.7727,217.997)">
            <path d="M218.524,120.891L281.965,120.891C280.617,146.153 278.088,171.103 274.348,195.166L133.678,195.166L142.581,138.022C147.161,141.233 154.315,145.529 164.042,150.91C173.769,156.29 184.122,160.008 195.1,162.065C206.078,164.122 213.299,160.877 216.763,152.33C217.69,150.041 218.283,147.153 218.539,143.665C219.046,136.34 219.05,128.745 218.524,120.891Z" style="fill:rgb(255,247,214);fill-opacity:0.5;"/>
        </g>
        <g transform="matrix(1.20206,0,0,0.771152,136.694,67.3097)">
            <g transform="matrix(168.819,0,0,168.819,-47.5403,180.587)">
                <path d="M-0.04,-0.776C-0.001,-0.789 0.036,-0.801 0.071,-0.812C0.106,-0.823 0.142,-0.834 0.181,-0.844C0.219,-0.853 0.256,-0.861 0.291,-0.867C0.318,-0.872 0.346,-0.874 0.374,-0.874C0.421,-0.874 0.452,-0.873 0.467,-0.87C0.489,-0.866 0.51,-0.859 0.53,-0.85C0.549,-0.84 0.567,-0.828 0.582,-0.812C0.598,-0.796 0.61,-0.777 0.62,-0.756C0.624,-0.747 0.626,-0.738 0.626,-0.728C0.626,-0.692 0.606,-0.647 0.566,-0.593C0.526,-0.54 0.486,-0.493 0.446,-0.454C0.406,-0.414 0.376,-0.385 0.356,-0.368L0.444,-0.06L0.316,0.032L0.092,-0.608C0.091,-0.608 0.088,-0.605 0.083,-0.599C0.077,-0.592 0.07,-0.584 0.061,-0.574C0.052,-0.565 0.046,-0.558 0.044,-0.556C0.043,-0.556 0.04,-0.563 0.034,-0.577C0.029,-0.591 0.022,-0.611 0.013,-0.635C0.004,-0.66 -0.006,-0.688 -0.017,-0.719C-0.029,-0.749 -0.036,-0.768 -0.04,-0.776ZM0.276,-0.64L0.316,-0.496C0.336,-0.517 0.361,-0.545 0.391,-0.58C0.421,-0.616 0.436,-0.641 0.436,-0.657C0.436,-0.663 0.433,-0.667 0.428,-0.668C0.414,-0.671 0.399,-0.673 0.385,-0.673C0.342,-0.673 0.306,-0.662 0.276,-0.64Z" style="fill:rgb(255,236,198);fill-rule:nonzero;"/>
            </g>
            <path d="M-38.814,112.348L-8.701,198.357C-4.535,210.255 4.836,215.078 12.727,209.385L34.324,193.806C42.512,187.899 46.143,172.841 42.477,159.991L33.561,128.735C34.534,127.783 35.547,126.787 36.599,125.748C44.027,118.411 51.429,109.821 58.797,99.958C70.712,84.006 74.648,68.576 74.648,57.682C74.648,50.914 73.427,44.418 70.72,38.326C70.687,38.252 70.653,38.178 70.62,38.104C67.82,31.944 64.24,26.542 59.806,22.015C55.962,18.09 51.606,14.903 46.71,12.556C42.492,10.534 38.015,9.055 33.274,8.148C33.228,8.139 33.181,8.131 33.135,8.123C30.366,7.63 24.523,7.297 15.602,7.297C10.215,7.297 4.952,7.734 -0.188,8.601C-6.403,9.637 -12.928,11.035 -19.742,12.796C-26.441,14.528 -32.813,16.359 -38.859,18.29C-44.747,20.169 -51.036,22.215 -57.725,24.426C-63.293,26.267 -67.86,32.447 -69.811,40.781C-71.762,49.115 -70.821,58.428 -67.323,65.425C-66.872,66.327 -66.076,68.608 -64.779,72.122C-62.917,77.168 -61.244,81.755 -59.76,85.884C-58.152,90.358 -56.864,93.85 -55.899,96.365C-49.762,112.358 -41.237,112.435 -40.121,112.435C-39.684,112.435 -39.247,112.408 -38.814,112.348ZM-54.3,49.604C-47.65,47.405 -41.399,45.372 -35.547,43.504C-29.694,41.635 -23.525,39.863 -17.041,38.187C-10.556,36.511 -4.346,35.178 1.589,34.189C6.15,33.42 10.821,33.035 15.602,33.035C23.57,33.035 28.791,33.255 31.264,33.694C35.001,34.409 38.532,35.563 41.856,37.157C45.181,38.75 48.149,40.88 50.759,43.545C53.369,46.21 55.499,49.356 57.147,52.983C57.807,54.467 58.137,56.033 58.137,57.682C58.137,63.837 54.771,71.42 48.039,80.433C41.307,89.445 34.548,97.304 27.761,104.008C20.974,110.713 15.904,115.521 12.552,118.434L27.39,170.448L5.793,186.027L-32.043,77.96C-32.153,77.96 -32.675,78.482 -33.609,79.526C-34.544,80.57 -35.766,81.93 -37.278,83.607C-38.789,85.283 -39.737,86.313 -40.121,86.698C-40.286,86.698 -40.822,85.516 -41.729,83.153C-42.636,80.79 -43.845,77.507 -45.356,73.303C-46.867,69.099 -48.571,64.428 -50.467,59.289C-52.363,54.151 -53.64,50.923 -54.3,49.604ZM-0.967,72.52L5.793,96.837C9.2,93.375 13.431,88.649 18.487,82.659C23.543,76.669 26.071,72.327 26.071,69.634C26.071,68.59 25.631,67.986 24.752,67.821C22.279,67.271 19.834,66.997 17.416,66.997C10.162,66.997 4.034,68.838 -0.967,72.52Z"/>
        </g>
        <g transform="matrix(0.685105,-0.685105,0.41058,0.41058,-57.065,149.043)">
            <path d="M199.016,195.166L123.359,195.166L129.072,162.729C128.975,162.568 128.223,162.294 126.816,161.907C125.409,161.52 123.571,161.008 121.302,160.37C119.033,159.731 117.621,159.311 117.067,159.11C116.922,158.868 117.117,156.974 117.652,153.428C118.186,149.881 118.974,145.028 120.014,138.868L122.978,120.891L141.406,120.891L145.39,125.243C151.576,132.056 157.985,139.421 164.617,147.34C171.249,155.258 177.447,163.097 183.21,170.856C187.645,176.811 191.959,183.287 196.154,190.286L199.016,195.166Z" style="fill:rgb(255,247,214);"/>
        </g>
        <g transform="matrix(0.685105,-0.685105,0.277683,0.277683,15.7727,217.997)">
            <path d="M218.524,120.891C219.05,128.745 219.046,136.34 218.539,143.665C218.283,147.153 217.69,150.041 216.763,152.33C213.299,160.877 206.078,164.122 195.1,162.065C184.122,160.008 173.769,156.29 164.042,150.91C154.315,145.529 147.161,141.233 142.581,138.022L133.678,195.166L101.24,195.166L110.087,120.891L218.524,120.891Z" style="fill:rgb(255,247,214);"/>
        </g>
    </g>
    <g transform="translate(0 120) matrix(0.906912,0,0,0.906912,11.4392,12.7995)">
        <g transform="matrix(1.02196,0,0,1.02196,-1.37624,-5.31177)">
            <circle cx="137.359" cy="139.742" r="127.528" style="fill:rgb(255,209,26);"/>
            <path d="M137.359,-7.207C56.256,-7.207 -9.59,58.639 -9.59,139.742C-9.59,220.846 56.256,286.692 137.359,286.692C218.463,286.692 284.309,220.846 284.309,139.742C284.309,58.639 218.463,-7.207 137.359,-7.207ZM137.359,12.214C207.744,12.214 264.888,69.358 264.888,139.742C264.888,210.127 207.744,267.271 137.359,267.271C66.974,267.271 9.831,210.127 9.831,139.742C9.831,69.358 66.974,12.214 137.359,12.214Z"/>
        </g>
        <g transform="matrix(1.01663,0,0,1.01663,-4.22485,-6.80808)">
            <path d="M24.767,196.252C17.007,179.762 12.684,161.356 12.684,141.948C12.684,71.193 70.128,13.75 140.882,13.75C172.212,13.75 200.932,25.013 223.19,43.717C203.958,33.442 181.992,27.627 158.679,27.627C82.791,27.627 21.179,89.239 21.179,165.127C21.179,175.835 22.406,186.259 24.767,196.252Z" style="fill:rgb(250,255,85);"/>
        </g>
        <g transform="matrix(1.01663,0,0,1.01663,-45.6997,-61.9118)">
            <path d="M291.791,130.583C303.288,149.753 309.876,172.188 309.876,196.15C309.876,266.904 252.433,324.348 181.679,324.348C144.186,324.348 110.43,308.218 87.035,282.473C107.902,295.26 132.437,302.627 158.679,302.627C234.567,302.627 296.179,241.016 296.179,165.127C296.179,153.198 294.657,141.621 291.791,130.583Z" style="fill:rgb(211,117,0);"/>
        </g>
        <g transform="matrix(0.8445,0,0,0.8445,23.0001,19.4875)">
            <circle cx="137.359" cy="139.742" r="127.528" style="fill:none;stroke:rgb(171,80,0);stroke-width:23.5px;"/>
        </g>
        <g transform="matrix(0.685105,-0.685105,0.41058,0.41058,-57.065,149.043)">
            <path d="M122.978,120.891L120.014,138.868C118.974,145.028 118.186,149.881 117.652,153.428C117.117,156.974 116.922,158.868 117.067,159.11C117.621,159.311 119.033,159.731 121.302,160.37C123.571,161.008 125.409,161.52 126.816,161.907C128.223,162.294 128.975,162.568 129.072,162.729L123.359,195.166L18.218,195.166C20.229,169.517 24.902,144.342 32.235,120.891L122.978,120.891Z" style="fill:rgb(255,247,214);fill-opacity:0.5;"/>
        </g>
        <g transform="matrix(0.685105,-0.685105,0.41058,0.41058,-57.065,149.043)">
            <path d="M141.406,120.891L270.796,120.891C278.131,144.348 282.812,169.523 284.813,195.166L199.016,195.166L196.154,190.286C191.959,183.287 187.645,176.811 183.21,170.856C177.447,163.097 171.249,155.258 164.617,147.34C157.985,139.421 151.576,132.056 145.39,125.243L141.406,120.891Z" style="fill:rgb(255,247,214);fill-opacity:0.5;"/>
        </g>
        <g transform="matrix(0.685105,-0.685105,0.277683,0.277683,15.7727,217.997)">
            <path d="M110.087,120.891L101.24,195.166L23.014,195.166C19.293,171.082 16.751,146.14 15.397,120.891L110.087,120.891Z" style="fill:rgb(255,247,214);fill-opacity:0.5;"/>
        </g>
        <g transform="matrix(0.685105,-0.685105,0.277683,0.277683,15.7727,217.997)">
            <path d="M218.524,120.891L281.965,120.891C280.617,146.153 278.088,171.103 274.348,195.166L133.678,195.166L142.581,138.022C147.161,141.233 154.315,145.529 164.042,150.91C173.769,156.29 184.122,160.008 195.1,162.065C206.078,164.122 213.299,160.877 216.763,152.33C217.69,150.041 218.283,147.153 218.539,143.665C219.046,136.34 219.05,128.745 218.524,120.891Z" style="fill:rgb(255,247,214);fill-opacity:0.5;"/>
        </g>
        <g transform="matrix(1.20206,0,0,0.771152,136.694,67.3097)">
            <g transform="matrix(168.819,0,0,168.819,-47.5403,180.587)">
                <path d="M-0.04,-0.776C-0.001,-0.789 0.036,-0.801 0.071,-0.812C0.106,-0.823 0.142,-0.834 0.181,-0.844C0.219,-0.853 0.256,-0.861 0.291,-0.867C0.318,-0.872 0.346,-0.874 0.374,-0.874C0.421,-0.874 0.452,-0.873 0.467,-0.87C0.489,-0.866 0.51,-0.859 0.53,-0.85C0.549,-0.84 0.567,-0.828 0.582,-0.812C0.598,-0.796 0.61,-0.777 0.62,-0.756C0.624,-0.747 0.626,-0.738 0.626,-0.728C0.626,-0.692 0.606,-0.647 0.566,-0.593C0.526,-0.54 0.486,-0.493 0.446,-0.454C0.406,-0.414 0.376,-0.385 0.356,-0.368L0.444,-0.06L0.316,0.032L0.092,-0.608C0.091,-0.608 0.088,-0.605 0.083,-0.599C0.077,-0.592 0.07,-0.584 0.061,-0.574C0.052,-0.565 0.046,-0.558 0.044,-0.556C0.043,-0.556 0.04,-0.563 0.034,-0.577C0.029,-0.591 0.022,-0.611 0.013,-0.635C0.004,-0.66 -0.006,-0.688 -0.017,-0.719C-0.029,-0.749 -0.036,-0.768 -0.04,-0.776ZM0.276,-0.64L0.316,-0.496C0.336,-0.517 0.361,-0.545 0.391,-0.58C0.421,-0.616 0.436,-0.641 0.436,-0.657C0.436,-0.663 0.433,-0.667 0.428,-0.668C0.414,-0.671 0.399,-0.673 0.385,-0.673C0.342,-0.673 0.306,-0.662 0.276,-0.64Z" style="fill:rgb(255,236,198);fill-rule:nonzero;"/>
            </g>
            <path d="M-38.814,112.348L-8.701,198.357C-4.535,210.255 4.836,215.078 12.727,209.385L34.324,193.806C42.512,187.899 46.143,172.841 42.477,159.991L33.561,128.735C34.534,127.783 35.547,126.787 36.599,125.748C44.027,118.411 51.429,109.821 58.797,99.958C70.712,84.006 74.648,68.576 74.648,57.682C74.648,50.914 73.427,44.418 70.72,38.326C70.687,38.252 70.653,38.178 70.62,38.104C67.82,31.944 64.24,26.542 59.806,22.015C55.962,18.09 51.606,14.903 46.71,12.556C42.492,10.534 38.015,9.055 33.274,8.148C33.228,8.139 33.181,8.131 33.135,8.123C30.366,7.63 24.523,7.297 15.602,7.297C10.215,7.297 4.952,7.734 -0.188,8.601C-6.403,9.637 -12.928,11.035 -19.742,12.796C-26.441,14.528 -32.813,16.359 -38.859,18.29C-44.747,20.169 -51.036,22.215 -57.725,24.426C-63.293,26.267 -67.86,32.447 -69.811,40.781C-71.762,49.115 -70.821,58.428 -67.323,65.425C-66.872,66.327 -66.076,68.608 -64.779,72.122C-62.917,77.168 -61.244,81.755 -59.76,85.884C-58.152,90.358 -56.864,93.85 -55.899,96.365C-49.762,112.358 -41.237,112.435 -40.121,112.435C-39.684,112.435 -39.247,112.408 -38.814,112.348ZM-54.3,49.604C-47.65,47.405 -41.399,45.372 -35.547,43.504C-29.694,41.635 -23.525,39.863 -17.041,38.187C-10.556,36.511 -4.346,35.178 1.589,34.189C6.15,33.42 10.821,33.035 15.602,33.035C23.57,33.035 28.791,33.255 31.264,33.694C35.001,34.409 38.532,35.563 41.856,37.157C45.181,38.75 48.149,40.88 50.759,43.545C53.369,46.21 55.499,49.356 57.147,52.983C57.807,54.467 58.137,56.033 58.137,57.682C58.137,63.837 54.771,71.42 48.039,80.433C41.307,89.445 34.548,97.304 27.761,104.008C20.974,110.713 15.904,115.521 12.552,118.434L27.39,170.448L5.793,186.027L-32.043,77.96C-32.153,77.96 -32.675,78.482 -33.609,79.526C-34.544,80.57 -35.766,81.93 -37.278,83.607C-38.789,85.283 -39.737,86.313 -40.121,86.698C-40.286,86.698 -40.822,85.516 -41.729,83.153C-42.636,80.79 -43.845,77.507 -45.356,73.303C-46.867,69.099 -48.571,64.428 -50.467,59.289C-52.363,54.151 -53.64,50.923 -54.3,49.604ZM-0.967,72.52L5.793,96.837C9.2,93.375 13.431,88.649 18.487,82.659C23.543,76.669 26.071,72.327 26.071,69.634C26.071,68.59 25.631,67.986 24.752,67.821C22.279,67.271 19.834,66.997 17.416,66.997C10.162,66.997 4.034,68.838 -0.967,72.52Z"/>
        </g>
        <g transform="matrix(0.685105,-0.685105,0.41058,0.41058,-57.065,149.043)">
            <path d="M199.016,195.166L123.359,195.166L129.072,162.729C128.975,162.568 128.223,162.294 126.816,161.907C125.409,161.52 123.571,161.008 121.302,160.37C119.033,159.731 117.621,159.311 117.067,159.11C116.922,158.868 117.117,156.974 117.652,153.428C118.186,149.881 118.974,145.028 120.014,138.868L122.978,120.891L141.406,120.891L145.39,125.243C151.576,132.056 157.985,139.421 164.617,147.34C171.249,155.258 177.447,163.097 183.21,170.856C187.645,176.811 191.959,183.287 196.154,190.286L199.016,195.166Z" style="fill:rgb(255,247,214);"/>
        </g>
        <g transform="matrix(0.685105,-0.685105,0.277683,0.277683,15.7727,217.997)">
            <path d="M218.524,120.891C219.05,128.745 219.046,136.34 218.539,143.665C218.283,147.153 217.69,150.041 216.763,152.33C213.299,160.877 206.078,164.122 195.1,162.065C184.122,160.008 173.769,156.29 164.042,150.91C154.315,145.529 147.161,141.233 142.581,138.022L133.678,195.166L101.24,195.166L110.087,120.891L218.524,120.891Z" style="fill:rgb(255,247,214);"/>
        </g>
    </g>
    <g transform="translate(120 120) matrix(0.906912,0,0,0.906912,11.4392,12.7995)">
        <g transform="matrix(1.02196,0,0,1.02196,-1.37624,-5.31177)">
            <circle cx="137.359" cy="139.742" r="127.528" style="fill:rgb(255,209,26);"/>
            <path d="M137.359,-7.207C56.256,-7.207 -9.59,58.639 -9.59,139.742C-9.59,220.846 56.256,286.692 137.359,286.692C218.463,286.692 284.309,220.846 284.309,139.742C284.309,58.639 218.463,-7.207 137.359,-7.207ZM137.359,12.214C207.744,12.214 264.888,69.358 264.888,139.742C264.888,210.127 207.744,267.271 137.359,267.271C66.974,267.271 9.831,210.127 9.831,139.742C9.831,69.358 66.974,12.214 137.359,12.214Z"/>
        </g>
        <g transform="matrix(1.01663,0,0,1.01663,-4.22485,-6.80808)">
            <path d="M24.767,196.252C17.007,179.762 12.684,161.356 12.684,141.948C12.684,71.193 70.128,13.75 140.882,13.75C172.212,13.75 200.932,25.013 223.19,43.717C203.958,33.442 181.992,27.627 158.679,27.627C82.791,27.627 21.179,89.239 21.179,165.127C21.179,175.835 22.406,186.259 24.767,196.252Z" style="fill:rgb(250,255,85);"/>
        </g>
        <g transform="matrix(1.01663,0,0,1.01663,-45.6997,-61.9118)">
            <path d="M291.791,130.583C303.288,149.753 309.876,172.188 309.876,196.15C309.876,266.904 252.433,324.348 181.679,324.348C144.186,324.348 110.43,308.218 87.035,282.473C107.902,295.26 132.437,302.627 158.679,302.627C234.567,302.627 296.179,241.016 296.179,165.127C296.179,153.198 294.657,141.621 291.791,130.583Z" style="fill:rgb(211,117,0);"/>
        </g>
        <g transform="matrix(0.8445,0,0,0.8445,23.0001,19.4875)">
            <circle cx="137.359" cy="139.742" r="127.528" style="fill:none;stroke:rgb(171,80,0);stroke-width:23.5px;"/>
        </g>
        <g transform="matrix(0.685105,-0.685105,0.41058,0.41058,-57.065,149.043)">
            <path d="M122.978,120.891L120.014,138.868C118.974,145.028 118.186,149.881 117.652,153.428C117.117,156.974 116.922,158.868 117.067,159.11C117.621,159.311 119.033,159.731 121.302,160.37C123.571,161.008 125.409,161.52 126.816,161.907C128.223,162.294 128.975,162.568 129.072,162.729L123.359,195.166L18.218,195.166C20.229,169.517 24.902,144.342 32.235,120.891L122.978,120.891Z" style="fill:rgb(255,247,214);fill-opacity:0.5;"/>
        </g>
        <g transform="matrix(0.685105,-0.685105,0.41058,0.41058,-57.065,149.043)">
            <path d="M141.406,120.891L270.796,120.891C278.131,144.348 282.812,169.523 284.813,195.166L199.016,195.166L196.154,190.286C191.959,183.287 187.645,176.811 183.21,170.856C177.447,163.097 171.249,155.258 164.617,147.34C157.985,139.421 151.576,132.056 145.39,125.243L141.406,120.891Z" style="fill:rgb(255,247,214);fill-opacity:0.5;"/>
        </g>
        <g transform="matrix(0.685105,-0.685105,0.277683,0.277683,15.7727,217.997)">
            <path d="M110.087,120.891L101.24,195.166L23.014,195.166C19.293,171.082 16.751,146.14 15.397,120.891L110.087,120.891Z" style="fill:rgb(255,247,214);fill-opacity:0.5;"/>
        </g>
        <g transform="matrix(0.685105,-0.685105,0.277683,0.277683,15.7727,217.997)">
            <path d="M218.524,120.891L281.965,120.891C280.617,146.153 278.088,171.103 274.348,195.166L133.678,195.166L142.581,138.022C147.161,141.233 154.315,145.529 164.042,150.91C173.769,156.29 184.122,160.008 195.1,162.065C206.078,164.122 213.299,160.877 216.763,152.33C217.69,150.041 218.283,147.153 218.539,143.665C219.046,136.34 219.05,128.745 218.524,120.891Z" style="fill:rgb(255,247,214);fill-opacity:0.5;"/>
        </g>
        <g transform="matrix(1.20206,0,0,0.771152,136.694,67.3097)">
            <g transform="matrix(168.819,0,0,168.819,-47.5403,180.587)">
                <path d="M-0.04,-0.776C-0.001,-0.789 0.036,-0.801 0.071,-0.812C0.106,-0.823 0.142,-0.834 0.181,-0.844C0.219,-0.853 0.256,-0.861 0.291,-0.867C0.318,-0.872 0.346,-0.874 0.374,-0.874C0.421,-0.874 0.452,-0.873 0.467,-0.87C0.489,-0.866 0.51,-0.859 0.53,-0.85C0.549,-0.84 0.567,-0.828 0.582,-0.812C0.598,-0.796 0.61,-0.777 0.62,-0.756C0.624,-0.747 0.626,-0.738 0.626,-0.728C0.626,-0.692 0.606,-0.647 0.566,-0.593C0.526,-0.54 0.486,-0.493 0.446,-0.454C0.406,-0.414 0.376,-0.385 0.356,-0.368L0.444,-0.06L0.316,0.032L0.092,-0.608C0.091,-0.608 0.088,-0.605 0.083,-0.599C0.077,-0.592 0.07,-0.584 0.061,-0.574C0.052,-0.565 0.046,-0.558 0.044,-0.556C0.043,-0.556 0.04,-0.563 0.034,-0.577C0.029,-0.591 0.022,-0.611 0.013,-0.635C0.004,-0.66 -0.006,-0.688 -0.017,-0.719C-0.029,-0.749 -0.036,-0.768 -0.04,-0.776ZM0.276,-0.64L0.316,-0.496C0.336,-0.517 0.361,-0.545 0.391,-0.58C0.421,-0.616 0.436,-0.641 0.436,-0.657C0.436,-0.663 0.433,-0.667 0.428,-0.668C0.414,-0.671 0.399,-0.673 0.385,-0.673C0.342,-0.673 0.306,-0.662 0.276,-0.64Z" style="fill:rgb(255,236,198);fill-rule:nonzero;"/>
            </g>
            <path d="M-38.814,112.348L-8.701,198.357C-4.535,210.255 4.836,215.078 12.727,209.385L34.324,193.806C42.512,187.899 46.143,172.841 42.477,159.991L33.561,128.735C34.534,127.783 35.547,126.787 36.599,125.748C44.027,118.411 51.429,109.821 58.797,99.958C70.712,84.006 74.648,68.576 74.648,57.682C74.648,50.914 73.427,44.418 70.72,38.326C70.687,38.252 70.653,38.178 70.62,38.104C67.82,31.944 64.24,26.542 59.806,22.015C55.962,18.09 51.606,14.903 46.71,12.556C42.492,10.534 38.015,9.055 33.274,8.148C33.228,8.139 33.181,8.131 33.135,8.123C30.366,7.63 24.523,7.297 15.602,7.297C10.215,7.297 4.952,7.734 -0.188,8.601C-6.403,9.637 -12.928,11.035 -19.742,12.796C-26.441,14.528 -32.813,16.359 -38.859,18.29C-44.747,20.169 -51.036,22.215 -57.725,24.426C-63.293,26.267 -67.86,32.447 -69.811,40.781C-71.762,49.115 -70.821,58.428 -67.323,65.425C-66.872,66.327 -66.076,68.608 -64.779,72.122C-62.917,77.168 -61.244,81.755 -59.76,85.884C-58.152,90.358 -56.864,93.85 -55.899,96.365C-49.762,112.358 -41.237,112.435 -40.121,112.435C-39.684,112.435 -39.247,112.408 -38.814,112.348ZM-54.3,49.604C-47.65,47.405 -41.399,45.372 -35.547,43.504C-29.694,41.635 -23.525,39.863 -17.041,38.187C-10.556,36.511 -4.346,35.178 1.589,34.189C6.15,33.42 10.821,33.035 15.602,33.035C23.57,33.035 28.791,33.255 31.264,33.694C35.001,34.409 38.532,35.563 41.856,37.157C45.181,38.75 48.149,40.88 50.759,43.545C53.369,46.21 55.499,49.356 57.147,52.983C57.807,54.467 58.137,56.033 58.137,57.682C58.137,63.837 54.771,71.42 48.039,80.433C41.307,89.445 34.548,97.304 27.761,104.008C20.974,110.713 15.904,115.521 12.552,118.434L27.39,170.448L5.793,186.027L-32.043,77.96C-32.153,77.96 -32.675,78.482 -33.609,79.526C-34.544,80.57 -35.766,81.93 -37.278,83.607C-38.789,85.283 -39.737,86.313 -40.121,86.698C-40.286,86.698 -40.822,85.516 -41.729,83.153C-42.636,80.79 -43.845,77.507 -45.356,73.303C-46.867,69.099 -48.571,64.428 -50.467,59.289C-52.363,54.151 -53.64,50.923 -54.3,49.604ZM-0.967,72.52L5.793,96.837C9.2,93.375 13.431,88.649 18.487,82.659C23.543,76.669 26.071,72.327 26.071,69.634C26.071,68.59 25.631,67.986 24.752,67.821C22.279,67.271 19.834,66.997 17.416,66.997C10.162,66.997 4.034,68.838 -0.967,72.52Z"/>
        </g>
        <g transform="matrix(0.685105,-0.685105,0.41058,0.41058,-57.065,149.043)">
            <path d="M199.016,195.166L123.359,195.166L129.072,162.729C128.975,162.568 128.223,162.294 126.816,161.907C125.409,161.52 123.571,161.008 121.302,160.37C119.033,159.731 117.621,159.311 117.067,159.11C116.922,158.868 117.117,156.974 117.652,153.428C118.186,149.881 118.974,145.028 120.014,138.868L122.978,120.891L141.406,120.891L145.39,125.243C151.576,132.056 157.985,139.421 164.617,147.34C171.249,155.258 177.447,163.097 183.21,170.856C187.645,176.811 191.959,183.287 196.154,190.286L199.016,195.166Z" style="fill:rgb(255,247,214);"/>
        </g>
        <g transform="matrix(0.685105,-0.685105,0.277683,0.277683,15.7727,217.997)">
            <path d="M218.524,120.891C219.05,128.745 219.046,136.34 218.539,143.665C218.283,147.153 217.69,150.041 216.763,152.33C213.299,160.877 206.078,164.122 195.1,162.065C184.122,160.008 173.769,156.29 164.042,150.91C154.315,145.529 147.161,141.233 142.581,138.022L133.678,195.166L101.24,195.166L110.087,120.891L218.524,120.891Z" style="fill:rgb(255,247,214);"/>
        </g>
    </g>
</svg>
