<?xml version="1.0" encoding="UTF-8" standalone="no"?>
<!DOCTYPE svg PUBLIC "-//W3C//DTD SVG 1.1//EN" "http://www.w3.org/Graphics/SVG/1.1/DTD/svg11.dtd">
<svg width="100%" height="100%" viewBox="0 0 36 36" version="1.1" xmlns="http://www.w3.org/2000/svg" xmlns:xlink="http://www.w3.org/1999/xlink" xml:space="preserve" xmlns:serif="http://www.serif.com/" style="fill-rule:evenodd;clip-rule:evenodd;stroke-linejoin:round;stroke-miterlimit:2;">
    <g id="Posessed2" transform="matrix(1.12369,0,0,1.12369,-2.19898,-2.2532)">
        <g transform="matrix(1.16626,1.16626,-1.16626,1.16626,23.9864,-23.0346)">
            <path d="M8.857,22.418C8.813,22.298 8.725,22.199 8.611,22.142L4.644,20.159L8.611,18.176C8.725,18.118 8.813,18.02 8.857,17.9C9.779,15.386 12.194,13.591 15.026,13.591C17.857,13.591 20.273,15.386 21.195,17.9C21.239,18.02 21.327,18.118 21.441,18.176L25.407,20.159L21.441,22.142C21.327,22.199 21.239,22.298 21.195,22.418C20.273,24.931 17.857,26.727 15.026,26.727C12.194,26.727 9.779,24.931 8.857,22.418Z" style="fill:rgb(205,62,185);"/>
            <clipPath id="_clip1">
                <path d="M8.857,22.418C8.813,22.298 8.725,22.199 8.611,22.142L4.644,20.159L8.611,18.176C8.725,18.118 8.813,18.02 8.857,17.9C9.779,15.386 12.194,13.591 15.026,13.591C17.857,13.591 20.273,15.386 21.195,17.9C21.239,18.02 21.327,18.118 21.441,18.176L25.407,20.159L21.441,22.142C21.327,22.199 21.239,22.298 21.195,22.418C20.273,24.931 17.857,26.727 15.026,26.727C12.194,26.727 9.779,24.931 8.857,22.418Z"/>
            </clipPath>
            <g clip-path="url(#_clip1)">
                <g transform="matrix(0.443211,-0.443211,0.443211,0.443211,-0.929728,20.1588)">
                    <path d="M31.476,30.814C35.424,33.446 25.827,36.332 20.52,36.63C15.214,36.927 0.655,17.781 1.404,11.158C2.154,4.536 1.504,1.394 4.603,4.408C7.702,7.422 6.938,8.823 11.183,12.517C15.428,16.21 21.289,12.494 23.961,21.566C25.665,27.349 27.527,28.182 31.476,30.814Z" style="fill:rgb(229,105,211);"/>
                </g>
            </g>
            <path d="M8.013,17.389C9.118,14.597 11.843,12.62 15.026,12.62C18.209,12.62 20.934,14.597 22.039,17.389L25.842,19.29C26.171,19.455 26.379,19.791 26.379,20.159C26.379,20.527 26.171,20.863 25.842,21.028L22.039,22.929C20.934,25.721 18.209,27.698 15.026,27.698C11.843,27.698 9.118,25.721 8.013,22.929L4.21,21.028C3.881,20.863 3.673,20.527 3.673,20.159C3.673,19.791 3.881,19.455 4.21,19.29L8.013,17.389ZM8.857,22.418C9.779,24.931 12.194,26.727 15.026,26.727C17.857,26.727 20.273,24.931 21.195,22.418C21.239,22.298 21.327,22.199 21.441,22.142L25.407,20.159L21.441,18.176C21.327,18.118 21.239,18.02 21.195,17.9C20.273,15.386 17.857,13.591 15.026,13.591C12.194,13.591 9.779,15.386 8.857,17.9C8.813,18.02 8.725,18.118 8.611,18.176L4.644,20.159L8.611,22.142C8.725,22.199 8.813,22.298 8.857,22.418Z" style="fill:rgb(128,23,110);"/>
        </g>
        <g transform="matrix(0.00831672,-1.16111e-34,-1.16111e-34,-0.00831672,-25.2698,61.8231)">
            <path d="M5997.62,5822.05L6141.36,5959.14C6285.42,6100.37 6411.15,6228.84 6421.87,6246.22C6437.77,6277.57 6433.44,6341.79 6415.1,6377.27C6372.56,6457.74 6264.75,6481.58 6182.03,6431.95L6180.85,6431.26C6161.68,6420.3 6124.52,6387.9 6052.45,6317.66L5909.68,6175.89C5897.66,6163.94 5881.4,6157.24 5864.45,6157.24C5848.8,6157.24 5834.09,6162.92 5822.69,6172.67L5789.46,6200.2L5788.06,6201.36C5742.29,6239.95 5629.99,6295.18 5565.27,6312.31C5532.69,6320.66 5468.74,6329.74 5423.3,6333.45L5333.47,6340.44C5308.3,6342.39 5286.62,6358.91 5278.05,6382.66C5269.49,6406.4 5275.63,6432.96 5293.74,6450.53L5526.77,6676.56C5657.47,6803.17 5747.01,6883.24 5774.58,6904.68L5775.39,6905.3C5880.62,6984.49 6034.61,7046.46 6172.4,7062.75C6405.91,7091.08 6629.52,7017.71 6796.18,6857.58C6965.07,6697.41 7046.29,6511.96 7045.2,6290C7045.2,6165.43 7026.93,6086.68 6966.83,5962.12C6925.85,5877.01 6914.84,5860.85 6671.08,5621.28C6383.98,5337.29 6293.38,5262.3 6191.79,5215.65L6191.61,5215.57C5982.96,5120.53 5738.27,5122.21 5541.63,5219.41C5424.89,5276.71 5297.86,5405.14 5233.99,5528.48L5232.52,5531.51L5191.41,5622.26L5144.61,5582.92C5064.97,5507.2 4979.93,5425.1 4952.81,5398.01L4906.33,5349.56C4887.06,5329.47 4857.04,5324.08 4831.99,5336.23L4766.37,5368.05C4734.43,5383.11 4684.14,5401.92 4654.05,5408.12L4653.07,5408.33C4553.78,5430.39 4350.59,5421.49 4260.49,5391.15L4260.3,5391.09L4246.25,5388.04L4228.97,5388.53L4216.02,5392.06L4201.6,5399.88L4185.23,5417.04L4176.86,5436.06L4174.92,5456.42L4178.03,5472.67L4192.43,5498.39C4229.76,5546.62 4502.31,5821.93 4674.14,5981.88C4800.24,6100.56 4854.92,6142.18 4918.53,6175.04L4918.77,6175.16C5014.04,6223.88 5095.45,6251.58 5174.48,6263.49C5349.84,6289.63 5540.46,6252.49 5689.68,6164.27L5690.03,6164.05C5810.72,6091.64 5949.2,5939.46 5995.28,5828.65C5996.18,5826.48 5996.97,5824.28 5997.62,5822.05ZM5145.13,4940.51L5165.66,4894.56L5268.16,4985.93L5459.08,5172.87C5478.26,5191.65 5507.1,5196.52 5531.38,5185.07L5601.05,5152.23C5635.54,5136.33 5687.58,5119.4 5715.85,5114.1C5836.24,5091.47 6039.03,5106.17 6113.81,5143.19C6128.81,5151.17 6140.52,5155.06 6148.44,5156.76L6176.9,5157.61L6200.79,5148.86L6217.63,5134.51L6226.91,5119.99L6231.86,5105.15L6233.27,5089.82L6230.9,5073.19C6227.82,5061.53 6213.65,5034.91 6179.47,5005.99L6179.1,5005.68C6161.3,4990.85 6022.98,4857.25 5870.7,4709.91C5714.95,4558.23 5563.03,4416.02 5535.07,4395.06C5421.9,4308.25 5257.33,4255.8 5098,4255.8C4800.61,4255.8 4565.63,4383.93 4393.68,4640.23C4392.34,4642.24 4391.11,4644.32 4389.99,4646.47L4360.42,4703.55L4220.7,4567.91C4103.23,4453.99 4030.93,4383.5 3986.62,4333.47C3936.4,4276.76 3931.75,4255.77 3932.2,4210.64L3932.2,4210C3932.2,4160.12 3945.91,4125.97 3979.32,4087.28C4011.75,4050.63 4051.72,4034.2 4105,4034.2C4140.74,4034.2 4153.89,4037.56 4193.71,4072.62C4218.2,4094.19 4249.59,4124.55 4293.27,4167.06C4358.34,4230.13 4402.92,4271.7 4429.95,4297.73L4480.02,4345.8C4502.01,4366.91 4535.81,4369.65 4560.91,4352.36L4605.51,4321.63C4660.97,4284.39 4738.77,4244.88 4782.4,4232.14C4848.67,4212.95 5073.22,4193.43 5073.22,4193.43C5098.14,4191.19 5119.49,4174.69 5127.93,4151.14C5136.36,4127.58 5130.35,4101.27 5112.52,4083.73L4860.55,3835.76C4568.03,3547.45 4514.01,3516.9 4381.43,3474.81L4381.12,3474.71C4145.4,3401.18 3944.33,3414.97 3741.04,3517.7L3740.59,3517.93C3599.14,3590.83 3470.55,3721.21 3395.45,3873.54C3277.65,4111.36 3296.37,4421.16 3441.46,4640.43L3441.97,4641.19C3485.98,4705.67 3916.38,5138.12 4024.86,5225.11C4112.45,5295.18 4191.38,5335.57 4293.17,5362.96C4462.84,5409.21 4697.36,5379.76 4838.38,5293.84C4958.59,5221.57 5091.73,5067.47 5144.17,4942.91L5145.13,4940.51Z" style="fill:rgb(128,23,110);"/>
        </g>
        <g transform="matrix(0.00831672,-1.16111e-34,-1.16111e-34,-0.00831672,-25.2698,61.8231)">
            <path d="M4532.39,4203.69C4599.47,4159.32 4691.79,4114 4743.66,4098.87C4783.81,4087.23 4842.76,4075.4 4897.61,4066.95L4763.13,3934.6C4500.9,3676.14 4458.39,3644.88 4339.57,3607.13C4142.38,3545.67 3974.03,3555.56 3803.95,3641.41C3687.37,3701.56 3581.75,3809.48 3519.86,3935.04C3423.37,4129.81 3438.22,4383.57 3556.84,4563.3C3599.97,4625.77 4008.67,5034.22 4111.63,5116.79C4182.75,5173.68 4246.68,5206.75 4329.36,5228.98L4329.62,5229.05C4465.41,5266.08 4653.33,5244.09 4766.19,5175.31L4766.63,5175.05C4844.32,5128.43 4928.79,5039.89 4981.79,4954.58L4450,4954.58C4430.6,4954.58 4411.97,4947.03 4398.05,4933.51L4124.05,4667.52C4002.86,4549.98 3928.44,4477.1 3882.72,4425.48C3795.33,4326.79 3792.65,4287.89 3793.42,4209.4C3793.52,4122.97 3816.47,4063.37 3874.6,3996.2L3875.08,3995.66C3934.65,3928.14 4007.04,3895.42 4105,3895.42C4194.92,3895.42 4211.33,3893.66 4389.92,4067.46C4454.8,4130.34 4499.13,4171.68 4526.16,4197.7L4532.39,4203.69ZM4541.81,4671.58L4761.52,4673.42L5120.41,4675.42C5139.85,4675.53 5158.47,4683.22 5172.32,4696.85L5364.25,4885.78L5519.12,5037.42L5542.2,5026.54L5542.75,5026.28C5586.98,5005.87 5653.95,4984.51 5690.24,4977.7C5760.1,4964.57 5852.56,4963.03 5940.17,4969.88L5774.14,4809.6L5773.97,4809.43C5624.2,4663.58 5478.66,4526.22 5451.25,4505.67L5450.61,4505.18C5359.43,4435.25 5226.36,4394.58 5098,4394.58C4867.47,4394.58 4682.26,4487.5 4541.81,4671.58ZM5859.39,6321.53C5794.81,6368.22 5673.41,6427.31 5600.48,6446.56L5600.02,6446.68C5577.67,6452.42 5542.53,6458.62 5506.58,6463.63L5623.35,6576.89C5747.6,6697.26 5831.26,6772.61 5859.1,6794.59C5946.75,6860.39 6074.51,6911.44 6188.75,6924.93L6188.99,6924.96C6380.26,6948.2 6563.58,6888.6 6700.33,6757.22L6700.68,6756.88C6839.54,6625.19 6907.32,6473.13 6906.42,6290.37L6906.42,6290C6906.42,6188.28 6890.89,6124.1 6841.81,6022.38C6805.13,5946.19 6791.95,5934.66 6573.72,5720.19L6573.55,5720.02C6308.43,5457.77 6227.75,5384.91 6133.97,5341.82C5963.53,5264.23 5763.66,5264.44 5603.06,5343.86L5602.85,5343.96C5517.81,5385.68 5426.59,5475.22 5372.29,5565.42L5911,5565.42C5930.69,5565.42 5949.57,5573.2 5963.55,5587.07L6238.42,5859.94C6397.89,6016.28 6533.56,6161.65 6543,6178.44L6543.81,6179.9C6576.48,6241.17 6574.95,6370.57 6538.19,6441.37L6537.99,6441.76C6459.78,6590.22 6263.07,6642.42 6110.63,6550.95C6089.38,6538.83 6040.48,6499.79 5955.39,6416.86L5954.89,6416.37L5859.39,6321.53ZM5828.04,5844.58L5249,5844.58C5229.94,5844.58 5211.61,5837.29 5197.76,5824.19L5050.76,5685.19L5050.61,5685.06C4969.05,5607.52 4881.45,5522.93 4854.26,5495.74L4853.18,5494.63L4843.73,5484.78L4826.54,5493.11L4825.85,5493.44C4785.5,5512.49 4721.73,5535.69 4683.14,5543.82C4623.11,5557.15 4531.19,5560.79 4441.24,5556.4C4542,5659.16 4676.25,5794.24 4768.82,5880.41L4769.12,5880.69C4879.66,5984.73 4926.37,6022.85 4982.09,6051.67C5061.56,6092.29 5129.12,6116.3 5195.06,6126.24C5339.27,6147.72 5496.03,6117.44 5618.79,6044.95C5692.75,6000.53 5775.91,5919.97 5828.04,5844.58Z" style="fill:rgb(205,62,185);"/>
        </g>
    </g>
</svg>
