<?xml version="1.0" encoding="UTF-8" standalone="no"?>
<!DOCTYPE svg PUBLIC "-//W3C//DTD SVG 1.1//EN" "http://www.w3.org/Graphics/SVG/1.1/DTD/svg11.dtd">
<svg width="100%" height="100%" viewBox="0 0 34 28" version="1.1" xmlns="http://www.w3.org/2000/svg" xmlns:xlink="http://www.w3.org/1999/xlink" xml:space="preserve" xmlns:serif="http://www.serif.com/" style="fill-rule:evenodd;clip-rule:evenodd;stroke-linecap:round;stroke-linejoin:round;stroke-miterlimit:1.5;">
    <g transform="matrix(1,0,0,1,-1,-4)">
        <g id="Ressurection">
            <g transform="matrix(-1.01207,0,0,1.05252,37.2186,2.26071)">
                <path d="M16.473,15.895C16.999,12.192 10.161,5.76 5.351,2.733C6.741,7.159 7.127,17.395 3.907,19.572C1.691,21.07 7.855,19.572 7.855,19.572C7.937,22.133 6.164,23.716 5.351,24.301C6.811,24.944 9.59,24.562 10.87,22.942C10.875,24.23 10.637,25.923 9.563,27.163C12.422,27.322 14.422,25.861 16.473,24.301C16.473,24.301 15.955,19.551 16.473,15.895Z" style="fill:white;stroke:white;stroke-width:1.94px;"/>
            </g>
            <g transform="matrix(1.01207,0,0,1.05252,-1.44728,2.26071)">
                <path d="M16.473,15.895C16.999,12.192 10.161,5.76 5.351,2.733C6.741,7.159 7.127,17.395 3.907,19.572C1.691,21.07 7.855,19.572 7.855,19.572C7.937,22.133 6.164,23.716 5.351,24.301C6.811,24.944 9.59,24.562 10.87,22.942C10.875,24.23 10.637,25.923 9.563,27.163C12.422,27.322 14.422,25.861 16.473,24.301C16.473,24.301 15.955,19.551 16.473,15.895Z" style="fill:white;stroke:white;stroke-width:1.94px;"/>
            </g>
            <g transform="matrix(0.803472,0,0,0.870178,3.11535,2.76119)">
                <path d="M3.189,22.985C2.678,22.149 6.835,19.887 6.503,13.571C6.281,9.343 2.669,3.522 8.268,9.114C13.587,14.425 19.166,22.283 16.841,25.713C14.515,29.143 8.615,32.396 10.042,29.358C12.57,23.973 12.828,23.173 10.511,25.713C8.211,28.235 1.842,29.568 6.503,25.278C11.454,20.722 3.747,23.898 3.189,22.985Z" style="fill:rgb(189,189,189);"/>
            </g>
            <g transform="matrix(-0.803472,0,0,0.870178,32.656,2.76119)">
                <path d="M3.189,22.985C2.678,22.149 6.835,19.887 6.503,13.571C6.281,9.343 2.669,3.522 8.268,9.114C13.587,14.425 19.166,22.283 16.841,25.713C14.515,29.143 8.615,32.396 10.042,29.358C12.57,23.973 12.828,23.173 10.511,25.713C8.211,28.235 1.842,29.568 6.503,25.278C11.454,20.722 3.747,23.898 3.189,22.985Z" style="fill:rgb(189,189,189);"/>
            </g>
            <g transform="matrix(0.9053,0,0,1.12471,2.06222,2.29257)">
                <path d="M17.479,11.316C19.715,8.129 24.188,8.129 26.425,9.723C28.661,11.316 28.661,14.503 26.425,17.69C24.859,20.08 20.833,22.471 17.479,24.064C14.124,22.471 10.098,20.08 8.533,17.69C6.296,14.503 6.296,11.316 8.533,9.723C10.769,8.129 15.242,8.129 17.479,11.316Z" style="fill:rgb(255,0,0);stroke:rgb(255,0,0);stroke-width:1.96px;"/>
            </g>
            <g transform="matrix(1.72701,-1.51682,1.59392,1.8148,-37.7691,13.5293)">
                <path d="M18.589,16.076C19.513,16.076 20.263,16.787 20.263,17.662C20.263,18.536 18.896,20.043 16.785,19.58C15.885,19.382 19.468,18.022 18.367,17.393C17.579,16.942 17.665,16.076 18.589,16.076Z" style="fill:white;stroke:rgb(255,119,119);stroke-width:0.85px;"/>
            </g>
        </g>
    </g>
</svg>
