<!DOCTYPE svg PUBLIC "-//W3C//DTD SVG 1.1//EN" "http://www.w3.org/Graphics/SVG/1.1/DTD/svg11.dtd">
<!-- Uploaded to: SVG Repo, www.svgrepo.com, Transformed by: SVG Repo Mixer Tools -->
<svg width="800px" height="800px" viewBox="0 0 24 24" fill="none" xmlns="http://www.w3.org/2000/svg">
<g id="SVGRepo_bgCarrier" stroke-width="0"/>
<g id="SVGRepo_tracerCarrier" stroke-linecap="round" stroke-linejoin="round"/>
<g id="SVGRepo_iconCarrier"> <path fill-rule="evenodd" clip-rule="evenodd" d="M15.002 16.043C15.5716 15.3138 15.8564 14.2611 15.8564 12.8848V11.0527C15.8428 9.71745 15.5488 8.69434 14.9746 7.9834C14.4004 7.2679 13.571 6.91016 12.4863 6.91016C11.4017 6.91016 10.57 7.27018 9.99121 7.99023C9.41699 8.71029 9.12988 9.7653 9.12988 11.1553V12.9873C9.14355 14.3226 9.4375 15.348 10.0117 16.0635C10.5859 16.779 11.4154 17.1367 12.5 17.1367C13.5983 17.1367 14.4323 16.7721 15.002 16.043ZM13.5391 9.07715C13.7669 9.45085 13.8809 10.0501 13.8809 10.875V13.2402C13.8717 14.0195 13.7601 14.5983 13.5459 14.9766C13.3317 15.3548 12.9831 15.5439 12.5 15.5439C12.0124 15.5439 11.6569 15.348 11.4336 14.9561C11.2148 14.5596 11.1055 13.9557 11.1055 13.1445V10.7246C11.1191 9.96354 11.2354 9.40527 11.4541 9.0498C11.6774 8.68978 12.0215 8.50977 12.4863 8.50977C12.9648 8.50977 13.3158 8.69889 13.5391 9.07715Z" fill="#fff"/> <path fill-rule="evenodd" clip-rule="evenodd" d="M2 2H22V22H2V2ZM4 4H20V20H4V4Z" fill="#fff"/> </g>
</svg>