<!DOCTYPE svg PUBLIC "-//W3C//DTD SVG 1.1//EN" "http://www.w3.org/Graphics/SVG/1.1/DTD/svg11.dtd">
<!-- Uploaded to: SVG Repo, www.svgrepo.com, Transformed by: SVG Repo Mixer Tools -->
<svg width="800px" height="800px" viewBox="0 0 24 24" fill="none" xmlns="http://www.w3.org/2000/svg">
<g id="SVGRepo_bgCarrier" stroke-width="0"/>
<g id="SVGRepo_tracerCarrier" stroke-linecap="round" stroke-linejoin="round"/>
<g id="SVGRepo_iconCarrier"> <path d="M12.2197 11.1484H11.167V12.6934H12.2129C13.3066 12.6934 13.8535 13.1901 13.8535 14.1836C13.8535 14.5938 13.7191 14.9242 13.4502 15.1748C13.1859 15.4209 12.819 15.5439 12.3496 15.5439C11.9395 15.5439 11.5931 15.4255 11.3105 15.1885C11.0326 14.9515 10.8936 14.6462 10.8936 14.2725H8.91797C8.91797 15.1338 9.23242 15.8265 9.86133 16.3506C10.4948 16.8747 11.3083 17.1367 12.3018 17.1367C13.3636 17.1367 14.2158 16.8701 14.8584 16.3369C15.5055 15.8037 15.8291 15.0951 15.8291 14.2109C15.8291 13.6641 15.6901 13.1901 15.4121 12.7891C15.1387 12.388 14.7217 12.0872 14.1611 11.8867C14.6123 11.6816 14.9769 11.3877 15.2549 11.0049C15.5329 10.6221 15.6719 10.2028 15.6719 9.74707C15.6719 8.86296 15.3734 8.17025 14.7764 7.66895C14.1794 7.16309 13.3545 6.91016 12.3018 6.91016C11.6956 6.91016 11.1396 7.02637 10.6338 7.25879C10.1325 7.49121 9.74056 7.81478 9.45801 8.22949C9.18001 8.63965 9.04102 9.10449 9.04102 9.62402H11.0166C11.0166 9.29134 11.1442 9.02246 11.3994 8.81738C11.6546 8.60775 11.9714 8.50293 12.3496 8.50293C12.7689 8.50293 13.097 8.61458 13.334 8.83789C13.5755 9.0612 13.6963 9.37337 13.6963 9.77441C13.6963 10.1891 13.5755 10.5218 13.334 10.7725C13.0924 11.0231 12.721 11.1484 12.2197 11.1484Z" fill="#fff"/> <path fill-rule="evenodd" clip-rule="evenodd" d="M2 2H22V22H2V2ZM4 4H20V20H4V4Z" fill="#fff"/> </g>
</svg>