<!DOCTYPE svg PUBLIC "-//W3C//DTD SVG 1.1//EN" "http://www.w3.org/Graphics/SVG/1.1/DTD/svg11.dtd">
<!-- Uploaded to: SVG Repo, www.svgrepo.com, Transformed by: SVG Repo Mixer Tools -->
<svg width="800px" height="800px" viewBox="0 0 24 24" fill="none" xmlns="http://www.w3.org/2000/svg">
<g id="SVGRepo_bgCarrier" stroke-width="0"/>
<g id="SVGRepo_tracerCarrier" stroke-linecap="round" stroke-linejoin="round"/>
<g id="SVGRepo_iconCarrier"> <path fill-rule="evenodd" clip-rule="evenodd" d="M14.5166 8.57129V6.94434H14.1885C13.1813 6.94889 12.2949 7.17904 11.5293 7.63477C10.7682 8.08594 10.1826 8.72624 9.77246 9.55566C9.36686 10.3805 9.16406 11.333 9.16406 12.4131V13.124C9.16406 14.3408 9.48535 15.3138 10.1279 16.043C10.7751 16.7721 11.6227 17.1367 12.6709 17.1367C13.318 17.1367 13.8968 16.9909 14.4072 16.6992C14.9222 16.4076 15.3187 15.9997 15.5967 15.4756C15.8792 14.9515 16.0205 14.3659 16.0205 13.7188C16.0205 12.707 15.7653 11.8913 15.2549 11.2715C14.7445 10.6517 14.0563 10.3418 13.1904 10.3418C12.3838 10.3418 11.7161 10.6107 11.1875 11.1484C11.2969 10.3464 11.6227 9.71973 12.165 9.26855C12.7119 8.81738 13.432 8.58496 14.3252 8.57129H14.5166ZM11.7207 12.1807C11.9805 12.012 12.2699 11.9277 12.5889 11.9277C13.0355 11.9277 13.391 12.0941 13.6553 12.4268C13.9196 12.7594 14.0518 13.1969 14.0518 13.7393C14.0518 14.2725 13.9196 14.7077 13.6553 15.0449C13.3955 15.3776 13.0537 15.5439 12.6299 15.5439C12.1605 15.5439 11.7959 15.3594 11.5361 14.9902C11.2764 14.6165 11.1465 14.0993 11.1465 13.4385V12.8369C11.2695 12.5635 11.4609 12.3447 11.7207 12.1807Z" fill="#fff"/> <path fill-rule="evenodd" clip-rule="evenodd" d="M2 2H22V22H2V2ZM4 4H20V20H4V4Z" fill="#fff"/> </g>
</svg>