<!DOCTYPE svg PUBLIC "-//W3C//DTD SVG 1.1//EN" "http://www.w3.org/Graphics/SVG/1.1/DTD/svg11.dtd">
<!-- Uploaded to: SVG Repo, www.svgrepo.com, Transformed by: SVG Repo Mixer Tools -->
<svg width="800px" height="800px" viewBox="0 0 24 24" fill="none" xmlns="http://www.w3.org/2000/svg">
<g id="SVGRepo_bgCarrier" stroke-width="0"/>
<g id="SVGRepo_tracerCarrier" stroke-linecap="round" stroke-linejoin="round"/>
<g id="SVGRepo_iconCarrier"> <path fill-rule="evenodd" clip-rule="evenodd" d="M15.2822 10.9775C15.5238 10.6038 15.6445 10.1755 15.6445 9.69238C15.6445 8.83561 15.3597 8.15885 14.79 7.66211C14.2249 7.16081 13.4593 6.91016 12.4932 6.91016C11.5225 6.91016 10.7546 7.16309 10.1895 7.66895C9.62435 8.17025 9.3418 8.84473 9.3418 9.69238C9.3418 10.1755 9.46029 10.6038 9.69727 10.9775C9.9388 11.3512 10.2715 11.6497 10.6953 11.873C10.2168 12.1009 9.83626 12.4199 9.55371 12.8301C9.27116 13.2402 9.12988 13.721 9.12988 14.2725C9.12988 15.152 9.43294 15.8493 10.0391 16.3643C10.6452 16.8792 11.4655 17.1367 12.5 17.1367C13.5345 17.1367 14.3525 16.8815 14.9541 16.3711C15.5557 15.8561 15.8564 15.1566 15.8564 14.2725C15.8564 13.721 15.7152 13.2425 15.4326 12.8369C15.1501 12.4268 14.7673 12.1055 14.2842 11.873C14.708 11.6497 15.0407 11.3512 15.2822 10.9775ZM13.498 13.0898C13.7487 13.3496 13.874 13.696 13.874 14.1289C13.874 14.571 13.751 14.9173 13.5049 15.168C13.2633 15.4186 12.9284 15.5439 12.5 15.5439C12.0625 15.5439 11.7207 15.4141 11.4746 15.1543C11.2285 14.8945 11.1055 14.5527 11.1055 14.1289C11.1055 13.6914 11.2308 13.3451 11.4814 13.0898C11.7321 12.8301 12.0671 12.7002 12.4863 12.7002C12.9102 12.7002 13.2474 12.8301 13.498 13.0898ZM13.3613 8.8584C13.5664 9.09082 13.6689 9.40072 13.6689 9.78809C13.6689 10.1846 13.5664 10.5036 13.3613 10.7451C13.1608 10.9867 12.8737 11.1074 12.5 11.1074C12.1263 11.1074 11.8369 10.9867 11.6318 10.7451C11.4268 10.5036 11.3242 10.1846 11.3242 9.78809C11.3242 9.38704 11.4268 9.07259 11.6318 8.84473C11.8369 8.61686 12.124 8.50293 12.4932 8.50293C12.8669 8.50293 13.1562 8.62142 13.3613 8.8584Z" fill="#fff"/> <path fill-rule="evenodd" clip-rule="evenodd" d="M2 2H22V22H2V2ZM4 4H20V20H4V4Z" fill="#fff"/> </g>
</svg>