<!DOCTYPE svg PUBLIC "-//W3C//DTD SVG 1.1//EN" "http://www.w3.org/Graphics/SVG/1.1/DTD/svg11.dtd">
<!-- Uploaded to: SVG Repo, www.svgrepo.com, Transformed by: SVG Repo Mixer Tools -->
<svg width="800px" height="800px" viewBox="0 0 24 24" fill="none" xmlns="http://www.w3.org/2000/svg">
<g id="SVGRepo_bgCarrier" stroke-width="0"/>
<g id="SVGRepo_tracerCarrier" stroke-linecap="round" stroke-linejoin="round"/>
<g id="SVGRepo_iconCarrier"> <path fill-rule="evenodd" clip-rule="evenodd" d="M11.9736 13.7803C12.6618 13.7803 13.2633 13.5273 13.7783 13.0215C13.637 14.5573 12.7074 15.3639 10.9893 15.4414L10.5518 15.4482V17.0957L11.0371 17.0889C12.5501 17.0251 13.7191 16.5192 14.5439 15.5713C15.3688 14.6234 15.7812 13.32 15.7812 11.6611V10.9297C15.7767 10.1367 15.6331 9.43262 15.3506 8.81738C15.068 8.20215 14.6715 7.73047 14.1611 7.40234C13.6507 7.07422 13.0674 6.91016 12.4111 6.91016C11.7731 6.91016 11.1989 7.06283 10.6885 7.36816C10.1781 7.66895 9.7793 8.09277 9.49219 8.63965C9.20964 9.18197 9.06836 9.77897 9.06836 10.4307C9.06836 11.4561 9.33268 12.2718 9.86133 12.8779C10.39 13.4795 11.0941 13.7803 11.9736 13.7803ZM13.2793 12.0234C13.0514 12.1875 12.778 12.2695 12.459 12.2695C12.0078 12.2695 11.6569 12.0964 11.4062 11.75C11.1602 11.3991 11.0371 10.9525 11.0371 10.4102C11.0371 9.86328 11.1647 9.40983 11.4199 9.0498C11.6751 8.68522 12.001 8.50293 12.3975 8.50293C12.8258 8.50293 13.1676 8.6875 13.4229 9.05664C13.6781 9.42578 13.8057 9.94531 13.8057 10.6152V11.4287C13.6872 11.6611 13.5117 11.8594 13.2793 12.0234Z" fill="#fff"/> <path fill-rule="evenodd" clip-rule="evenodd" d="M2 2H22V22H2V2ZM4 4H20V20H4V4Z" fill="#fff"/> </g>
</svg>