<?xml version="1.0" encoding="UTF-8" standalone="no"?>
<svg
   viewBox="0 0 512 512"
   style="height: 512px; width: 512px;"
   version="1.1"
   id="svg1"
   sodipodi:docname="cone.svg"
   inkscape:version="1.3.2 (091e20e, 2023-11-25, custom)"
   xmlns:inkscape="http://www.inkscape.org/namespaces/inkscape"
   xmlns:sodipodi="http://sodipodi.sourceforge.net/DTD/sodipodi-0.dtd"
   xmlns="http://www.w3.org/2000/svg"
   xmlns:svg="http://www.w3.org/2000/svg">
  <defs
     id="defs1" />
  <sodipodi:namedview
     id="namedview1"
     pagecolor="#000000"
     bordercolor="#000000"
     borderopacity="0.25"
     inkscape:showpageshadow="2"
     inkscape:pageopacity="0.0"
     inkscape:pagecheckerboard="0"
     inkscape:deskcolor="#d1d1d1"
     inkscape:zoom="0.81552061"
     inkscape:cx="87.674057"
     inkscape:cy="191.90196"
     inkscape:window-width="2560"
     inkscape:window-height="1377"
     inkscape:window-x="-8"
     inkscape:window-y="-8"
     inkscape:window-maximized="1"
     inkscape:current-layer="layer1" />
  <g
     class=""
     transform="translate(-1,0)"
     style=""
     id="g1">
    <path
       d="m 92.03,29.95 c -8.9,0 -15.3,4.7 -19,10.54 -3.3,5.26 -4.62,11.36 -4.91,16.76 -10.04,5 -21.16,10 -30.14,15.1 -6.92,4.3 -17.07,10.2 -17.25,18.4 0.8,6.3 9.28,8.6 13.9,10.05 5.13,1.5 10.83,2.6 15.75,3.1 -4.92,8.5 -11.48,16.3 -17.25,23.8 -6.63,8.6 -12.4,16.9 -12.4,26.1 0.1,3.9 0.6,7.7 4.92,8.1 12.95,0.3 26.7,0.1 39.98,0.1 5.9,0.5 8.7,-2.1 11,-6.8 3.3,-6.9 8.2,-16.9 15.4,-24.5 6.95,7.6 11.47,15.5 15.57,24.4 v 0.1 c 2.4,5.3 5.7,6.8 10.8,6.8 l 40.1,-0.1 c 4.3,-0.5 4.8,-4.4 4.8,-8.1 0,-9.2 -5.7,-17.5 -12.4,-26.1 -5.7,-7.5 -12.3,-15.3 -17.2,-23.8 4.9,-0.5 10.6,-1.6 15.7,-3.1 4.8,-1.85 13.8,-4.15 13.9,-10.05 -1.2,-9.4 -10.5,-14.5 -17.2,-18.4 -9,-5.1 -20.1,-10.1 -30.2,-15.1 -0.2,-5.4 -1.6,-11.5 -4.9,-16.76 -3.7,-5.84 -10.1,-10.54 -18.97,-10.54 z m 164.07,0 c -8.9,0 -15.3,4.7 -19,10.54 -3.3,5.26 -4.6,11.36 -4.9,16.76 -10,5 -21.2,10 -30.1,15.1 -7,4.3 -17.1,10.2 -17.3,18.4 0.8,6.3 9.3,8.6 13.9,10.05 5.1,1.5 10.8,2.6 15.8,3.1 -5,8.5 -11.5,16.3 -17.3,23.8 -6.6,8.6 -12.4,16.9 -12.4,26.1 0.1,3.9 0.6,7.7 4.9,8.1 13,0.3 26.7,0.1 40,0.1 5.9,0.5 8.7,-2.1 11,-6.8 3.3,-6.9 8.2,-16.9 15.4,-24.5 6.9,7.6 11.4,15.5 15.5,24.4 v 0.1 c 2.4,5.3 5.7,6.8 10.8,6.8 l 40.1,-0.1 c 4.3,-0.5 4.8,-4.4 4.8,-8.1 0,-9.2 -5.7,-17.5 -12.4,-26.1 -5.7,-7.5 -12.3,-15.3 -17.2,-23.8 4.9,-0.5 10.6,-1.6 15.7,-3.1 4.8,-1.85 13.8,-4.15 13.9,-10.05 -1.2,-9.4 -10.5,-14.5 -17.2,-18.4 -9,-5.1 -20.1,-10.1 -30.2,-15.1 -0.2,-5.4 -1.6,-11.5 -4.9,-16.76 -3.7,-5.84 -10.1,-10.54 -18.9,-10.54 z m 164,0 c -8.9,0 -15.3,4.7 -19,10.54 -3.3,5.26 -4.6,11.36 -4.9,16.76 -10,5 -21.2,10 -30.1,15.1 -7,4.3 -17.1,10.2 -17.3,18.4 0.8,6.3 9.3,8.6 13.8,10.05 5.2,1.5 10.9,2.6 15.9,3.1 -5,8.5 -11.5,16.3 -17.4,23.8 -6.6,8.6 -12.3,16.9 -12.3,26.1 0.1,3.9 0.6,7.7 4.8,8.1 13,0.3 26.7,0.1 40,0.1 5.9,0.5 8.7,-2.1 11,-6.8 3.4,-6.9 8.2,-16.9 15.4,-24.5 6.9,7.6 11.4,15.5 15.5,24.4 v 0.1 c 2.4,5.3 5.7,6.8 10.8,6.8 l 40.2,-0.1 c 4.3,-0.5 4.8,-4.4 4.8,-8.1 0,-9.2 -5.7,-17.5 -12.4,-26.1 -5.7,-7.5 -12.3,-15.3 -17.2,-23.8 4.9,-0.5 10.6,-1.6 15.7,-3.1 4.8,-1.85 13.8,-4.15 13.9,-10.05 -1.2,-9.4 -10.5,-14.5 -17.2,-18.4 -9,-5.1 -20.1,-10.1 -30.2,-15.1 -0.2,-5.4 -1.6,-11.5 -4.9,-16.76 -3.7,-5.84 -10.1,-10.54 -18.9,-10.54 z M 92.03,190 c -8.9,0 -15.3,4.7 -19,10.6 -3.3,5.2 -4.6,11.3 -4.9,16.7 -10,5 -21.2,10 -30.1,15.1 -7,4.3 -17.1,10.2 -17.3,18.4 0.8,6.3 9.3,8.6 13.9,10 5.1,1.5 10.8,2.6 15.7,3.1 -4.9,8.5 -11.4,16.3 -17.2,23.8 -6.6,8.6 -12.4,16.9 -12.4,26.1 0.1,3.9 0.6,7.7 4.9,8.1 13,0.3 26.7,0.1 40,0.1 5.9,0.5 8.7,-2.1 11,-6.8 3.3,-6.9 8.2,-16.9 15.4,-24.5 6.95,7.6 11.47,15.5 15.57,24.4 v 0.1 c 2.4,5.3 5.7,6.8 10.8,6.8 l 40.1,-0.1 c 4.3,-0.5 4.8,-4.4 4.8,-8.1 0,-9.2 -5.7,-17.5 -12.4,-26.1 -5.7,-7.5 -12.3,-15.3 -17.2,-23.8 4.9,-0.5 10.6,-1.6 15.7,-3.1 4.8,-1.8 13.8,-4.1 13.9,-10 -1.2,-9.4 -10.5,-14.5 -17.2,-18.4 -9,-5.1 -20.1,-10.1 -30.2,-15.1 -0.2,-5.4 -1.6,-11.5 -4.9,-16.7 C 107.3,194.7 100.9,190 92.03,190 Z m 328.07,0 c -8.9,0 -15.3,4.7 -19,10.6 -3.3,5.2 -4.6,11.3 -4.9,16.7 -10,5 -21.2,10 -30.1,15.1 -7,4.3 -17.1,10.2 -17.3,18.4 0.8,6.3 9.3,8.6 13.8,10 5.2,1.5 10.9,2.6 15.9,3.1 -5,8.5 -11.5,16.3 -17.4,23.8 -6.6,8.6 -12.3,16.9 -12.3,26.1 0.1,3.9 0.6,7.7 4.8,8.1 13,0.3 26.7,0.1 40,0.1 5.9,0.5 8.7,-2.1 11,-6.8 3.4,-6.9 8.2,-16.9 15.4,-24.5 6.9,7.6 11.4,15.5 15.5,24.4 v 0.1 c 2.4,5.3 5.7,6.8 10.8,6.8 l 40.2,-0.1 c 4.3,-0.5 4.8,-4.4 4.8,-8.1 0,-9.2 -5.7,-17.5 -12.4,-26.1 -5.7,-7.5 -12.3,-15.3 -17.2,-23.8 4.9,-0.5 10.6,-1.6 15.7,-3.1 4.8,-1.8 13.8,-4.1 13.9,-10 -1.2,-9.4 -10.5,-14.5 -17.2,-18.4 -9,-5.1 -20.1,-10.1 -30.2,-15.1 -0.2,-5.4 -1.6,-11.5 -4.9,-16.7 -3.7,-5.9 -10.1,-10.6 -18.9,-10.6 z m -164,160 c -8.9,0 -15.3,4.7 -19,10.6 -3.3,5.2 -4.6,11.3 -4.9,16.7 -10,5 -21.2,10 -30.1,15.1 -7,4.3 -17.1,10.2 -17.3,18.4 0.8,6.3 9.3,8.6 13.9,10 5.1,1.5 10.8,2.6 15.8,3.1 -5,8.5 -11.5,16.3 -17.3,23.8 -6.6,8.6 -12.4,16.9 -12.4,26.1 0.1,3.9 0.6,7.7 4.9,8.1 13,0.3 26.7,0.1 40,0.1 5.9,0.5 8.7,-2.1 11,-6.8 3.3,-6.9 8.2,-16.9 15.4,-24.5 6.9,7.6 11.4,15.5 15.5,24.4 v 0.1 c 2.4,5.3 5.7,6.8 10.8,6.8 l 40.1,-0.1 c 4.3,-0.5 4.8,-4.4 4.8,-8.1 0,-9.2 -5.7,-17.5 -12.4,-26.1 -5.7,-7.5 -12.3,-15.3 -17.2,-23.8 4.9,-0.5 10.6,-1.6 15.7,-3.1 4.8,-1.8 13.8,-4.1 13.9,-10 -1.2,-9.4 -10.5,-14.5 -17.2,-18.4 -9,-5.1 -20.1,-10.1 -30.2,-15.1 -0.2,-5.4 -1.6,-11.5 -4.9,-16.7 -3.7,-5.9 -10.1,-10.6 -18.9,-10.6 z m 164,0 c -8.9,0 -15.3,4.7 -19,10.6 -3.3,5.2 -4.6,11.3 -4.9,16.7 -10,5 -21.2,10 -30.1,15.1 -7,4.3 -17.1,10.2 -17.3,18.4 0.8,6.3 9.3,8.6 13.8,10 5.2,1.5 10.9,2.6 15.9,3.1 -5,8.5 -11.5,16.3 -17.4,23.8 -6.6,8.6 -12.3,16.9 -12.3,26.1 0.1,3.9 0.6,7.7 4.8,8.1 13,0.3 26.7,0.1 40,0.1 5.9,0.5 8.7,-2.1 11,-6.8 3.4,-6.9 8.2,-16.9 15.4,-24.5 6.9,7.6 11.4,15.5 15.5,24.4 v 0.1 c 2.4,5.3 5.7,6.8 10.8,6.8 l 40.2,-0.1 c 4.3,-0.5 4.8,-4.4 4.8,-8.1 0,-9.2 -5.7,-17.5 -12.4,-26.1 -5.7,-7.5 -12.3,-15.3 -17.2,-23.8 4.9,-0.5 10.6,-1.6 15.7,-3.1 4.8,-1.8 13.8,-4.1 13.9,-10 -1.2,-9.4 -10.5,-14.5 -17.2,-18.4 -9,-5.1 -20.1,-10.1 -30.2,-15.1 -0.2,-5.4 -1.6,-11.5 -4.9,-16.7 -3.7,-5.9 -10.1,-10.6 -18.9,-10.6 z"
       fill="#ffffff"
       fill-opacity="1"
       id="path1"
       sodipodi:nodetypes="sccccccccccccccccscccccccssccccccccccccccccscccccccssccccccccccccccccscccccccssccccccccccccccccscccccccssccccccccccccccccscccccccssccccccccccccccccscccccccssccccccccccccccccscccccccs"
       style="fill:#ffffff;fill-opacity:1" />
    <path
       d="m 256.77655,189.01185 c -8.9,0 -15.3,4.7 -19,10.6 -3.3,5.2 -4.6,11.3 -4.9,16.7 -10,5 -21.2,10 -30.1,15.1 -7,4.3 -17.1,10.2 -17.3,18.4 0.8,6.3 9.3,8.6 13.9,10 5.1,1.5 10.8,2.6 15.8,3.1 -5,8.5 -11.5,16.3 -17.3,23.8 -6.6,8.6 -12.4,16.9 -12.4,26.1 0.1,3.9 0.6,7.7 4.9,8.1 13,0.3 26.7,0.1 40,0.1 5.9,0.5 8.7,-2.1 11,-6.8 3.3,-6.9 8.2,-16.9 15.4,-24.5 6.9,7.6 11.4,15.5 15.5,24.4 v 0.1 c 2.4,5.3 5.7,6.8 10.8,6.8 l 40.1,-0.1 c 4.3,-0.5 4.8,-4.4 4.8,-8.1 0,-9.2 -5.7,-17.5 -12.4,-26.1 -5.7,-7.5 -12.3,-15.3 -17.2,-23.8 4.9,-0.5 10.6,-1.6 15.7,-3.1 4.8,-1.8 13.8,-4.1 13.9,-10 -1.2,-9.4 -10.5,-14.5 -17.2,-18.4 -9,-5.1 -20.1,-10.1 -30.2,-15.1 -0.2,-5.4 -1.6,-11.5 -4.9,-16.7 -3.7,-5.9 -10.1,-10.6 -18.9,-10.6 z"
       style="fill:#ff0000;fill-opacity:1"
       id="path1-3" />
  </g>
  <g
     inkscape:groupmode="layer"
     id="layer1"
     inkscape:label="lines">
    <rect
       style="fill:#ff000f;fill-opacity:0.941176;stroke-width:1.06513"
       id="rect1"
       width="9.5376797"
       height="421.6088"
       x="88.440308"
       y="9.5376797" />
    <rect
       style="fill:#ff000f;fill-opacity:0.941176;stroke-width:0.916365"
       id="rect1-7"
       width="406.65201"
       height="9.5376511"
       x="97.234558"
       y="421.65201" />
    <path
       d="M 97.111328,11.748047 V 427.46094 H 507.70117 A 514.16766,509.83234 0 0 0 97.111328,11.748047 Z"
       style="fill:#ff0000;fill-opacity:0.44705883;stroke-width:0.949"
       id="path3" />
  </g>
  <g
     inkscape:groupmode="layer"
     id="layer2"
     inkscape:label="user">
    <path
       d="m 91.097738,350.5851 c -8.9,0 -15.3,4.7 -19,10.6 -3.3,5.2 -4.6,11.3 -4.9,16.7 -10,5 -21.2,10 -30.1,15.1 -7,4.3 -17.1,10.2 -17.3,18.4 0.8,6.3 9.3,8.6 13.9,10 5.1,1.5 10.8,2.6 15.7,3.1 -4.9,8.5 -11.4,16.3 -17.2,23.8 -6.6,8.6 -12.4,16.9 -12.4,26.1 0.1,3.9 0.6,7.7 4.9,8.1 13,0.3 26.7,0.1 40,0.1 5.9,0.5 8.7,-2.1 11,-6.8 3.3,-6.9 8.2,-16.9 15.4,-24.5 6.95,7.6 11.470002,15.5 15.570002,24.4 v 0.1 c 2.4,5.3 5.7,6.8 10.8,6.8 l 40.1,-0.1 c 4.3,-0.5 4.8,-4.4 4.8,-8.1 0,-9.2 -5.7,-17.5 -12.4,-26.1 -5.7,-7.5 -12.3,-15.3 -17.2,-23.8 4.9,-0.5 10.6,-1.6 15.7,-3.1 4.8,-1.8 13.8,-4.1 13.9,-10 -1.2,-9.4 -10.5,-14.5 -17.2,-18.4 -9,-5.1 -20.1,-10.1 -30.2,-15.1 -0.2,-5.4 -1.6,-11.5 -4.9,-16.7 -3.7,-5.9 -10.100002,-10.6 -18.970002,-10.6 z"
       style="height:512px;width:512px;fill:#1195ec;fill-opacity:1"
       id="path1-1" />
  </g>
</svg>
