<?xml version="1.0" encoding="UTF-8" standalone="no"?>
<svg width="24" height="24" viewBox="0 0 24 24" version="1.1" xml:space="preserve" style="clip-rule:evenodd;fill-rule:evenodd; fill:white;" xmlns="http://www.w3.org/2000/svg" xmlns:svg="http://www.w3.org/2000/svg">
	<defs />
	<g transform="matrix(0.9514038,0,0,0.94496407,-4.2940149,-4.0814679)">
		<g transform="matrix(1.05355,0,0,1.05355,-1.86385,-2.01385)">
			<path d="m 9.051,16.404 c 0,-1.582 4.211,-4.585 4.211,-4.891 0,-0.305 -0.209,-0.971 -0.951,-0.645 -1.798,0.791 -0.881,-1.179 0.36,-2.132 0.729,-0.559 2.882,-1.492 2.001,0.481 -0.355,0.797 0.472,0.927 0.815,0.776 1.676,-0.736 6.813,-1.185 7.804,-0.369 1.478,1.217 -2.109,4.238 -4.413,5.846 -2.545,1.778 -9.827,3.969 -9.827,0.934 z" />
		</g>
		<g transform="matrix(1.05355,0,0,1.05355,-1.86385,-2.01385)">
			<path d="M 19.283,17.608 C 18.801,17.022 18.961,14.81 24.021,13.751 25.726,13.394 26.513,11.08 26.216,9.775 25.779,7.853 24.636,6.559 22,6.839 c -4.499,0.478 1.543,-1.522 3.869,-0.565 2.326,0.956 3.586,2.869 3.021,4.738 -0.565,1.869 -3.369,2.934 -4.869,3.26 -1.499,0.326 -3.931,0.59 -3.173,3.043 0.369,1.196 -0.717,1.326 -1.565,0.293 z" />
		</g>
		<g transform="matrix(1.05355,0,0,1.05355,-1.86385,-2.01385)">
			<path d="m 23.202,17.913 c -1.217,-0.264 -1.856,-2.098 0.007,-2.219 3.688,-0.24 4.126,-3.142 6.302,-1.751 1.189,0.759 -0.025,0.486 -1.281,0.852 -0.752,0.219 -1.061,0.942 -2.2,2.327 -0.9,1.095 -2.003,0.97 -2.828,0.791 z" />
		</g>
		<g transform="matrix(1.05355,0,0,1.05355,-1.86385,-2.01385)">
			<path d="m 9.552,19.005 c 0.823,0.043 16.073,0.043 16.896,0 0.824,-0.042 0.501,1.182 0.501,1.182 0,0 2.615,-0.637 2.912,0.339 0.755,2.479 -3.708,3.3 -3.878,3.512 -0.17,0.212 0.478,6.08 -3.57,6.08 h -8.826 c -4.048,0 -3.4,-5.868 -3.57,-6.08 -0.17,-0.212 -4.633,-1.033 -3.878,-3.512 0.297,-0.976 2.912,-0.339 2.912,-0.339 0,0 -0.323,-1.224 0.501,-1.182 z" />
		</g>
	</g>
</svg>
