<?xml version="1.0" encoding="iso-8859-1"?>
<!-- Uploaded to: SVG Repo, www.svgrepo.com, Generator: SVG Repo Mixer Tools -->
<!DOCTYPE svg PUBLIC "-//W3C//DTD SVG 1.1//EN" "http://www.w3.org/Graphics/SVG/1.1/DTD/svg11.dtd">
<svg fill="#ffffff" version="1.1" id="Capa_1" xmlns="http://www.w3.org/2000/svg" xmlns:xlink="http://www.w3.org/1999/xlink" 
	 width="800px" height="800px" viewBox="0 0 576.859 576.859"
	 xml:space="preserve">
<g>
	<g>
		<path d="M464.695,0H112.161c-14.29,0-25.894,11.595-25.894,25.896v525.067c0,14.301,11.605,25.896,25.894,25.896h258.517
			c66.229,0,119.915-53.688,119.915-119.906V25.896C490.593,11.595,478.987,0,464.695,0z M135.085,80.745
			c0-11.744,9.523-21.255,21.259-21.255h264.168c11.736,0,21.257,9.511,21.257,21.255v149.381c0,11.745-9.521,21.255-21.257,21.255
			H156.345c-11.736,0-21.259-9.51-21.259-21.255V80.745z M264.431,430.222c0,4.657-3.776,8.433-8.431,8.433h-31.23v31.228
			c0,4.658-3.774,8.433-8.432,8.433h-40.82c-4.657,0-8.433-3.774-8.433-8.433v-31.228h-31.224c-4.658,0-8.434-3.776-8.434-8.433
			V389.4c0-4.657,3.776-8.433,8.434-8.433h31.226v-31.229c0-4.657,3.776-8.432,8.433-8.432h40.823c4.657,0,8.431,3.773,8.431,8.432
			v31.229h31.23c4.655,0,8.431,3.774,8.431,8.433v40.821H264.431z M353.756,490.33c-17.257,0-31.245-13.988-31.245-31.246
			c0-17.257,13.988-31.247,31.245-31.247c17.258,0,31.246,13.988,31.246,31.247C385.004,476.342,371.014,490.33,353.756,490.33z
			 M411.442,394.188c-17.258,0-31.244-13.987-31.244-31.246c0-17.258,13.986-31.247,31.244-31.247
			c17.259,0,31.247,13.987,31.247,31.247C442.689,380.2,428.701,394.188,411.442,394.188z"/>
	</g>
</g>
</svg>