<!DOCTYPE svg PUBLIC "-//W3C//DTD SVG 1.1//EN" "http://www.w3.org/Graphics/SVG/1.1/DTD/svg11.dtd">
<!-- Uploaded to: SVG Repo, www.svgrepo.com, Transformed by: SVG Repo Mixer Tools -->
<svg width="90px" height="90px" viewBox="0 0 64 64" xmlns="http://www.w3.org/2000/svg" xmlns:xlink="http://www.w3.org/1999/xlink" aria-hidden="true" role="img" class="iconify iconify--emojione-monotone" preserveAspectRatio="xMidYMid meet" fill="#fff" stroke="#fff">
<g id="SVGRepo_bgCarrier" stroke-width="0"/>
<g id="SVGRepo_tracerCarrier" stroke-linecap="round" stroke-linejoin="round"/>
<g id="SVGRepo_iconCarrier"> <g fill-rule="evenodd"> <path d="M30.249 2.065C18.612 2.789 12.531 9.379 12 21.296h11.739c.147-4.128 2.451-7.214 6.741-7.669c4.211-.447 8.206.556 9.416 3.435c1.307 3.11-1.627 6.724-3.022 8.241c-2.582 2.813-6.776 4.865-8.95 7.9c-2.131 2.974-2.51 6.887-2.674 11.676h10.346c.145-3.062.349-5.995 1.742-7.898c2.266-3.092 5.65-4.541 8.486-6.983c2.709-2.334 5.559-5.147 6.043-9.501C53.32 7.466 42.683 1.289 30.249 2.065" fill="#fff"> </path> <ellipse cx="30.515" cy="55.567" rx="6.532" ry="6.433" fill="#fff"> </ellipse> </g> </g>
</svg>