<?xml version="1.0" encoding="UTF-8" standalone="no"?>
<!DOCTYPE svg PUBLIC "-//W3C//DTD SVG 1.1//EN" "http://www.w3.org/Graphics/SVG/1.1/DTD/svg11.dtd">
<svg width="100%" height="100%" viewBox="0 0 36 36" version="1.1" xmlns="http://www.w3.org/2000/svg" xmlns:xlink="http://www.w3.org/1999/xlink" xml:space="preserve" xmlns:serif="http://www.serif.com/" style="fill-rule:evenodd;clip-rule:evenodd;stroke-linejoin:round;stroke-miterlimit:2;">
	<g transform="matrix(0.275956,0,0,0.275956,-16.8333,-33.2823)">
		<g transform="matrix(0.963158,0,0,0.994565,8.74383,-1.30661)">
			<ellipse cx="117.588" cy="183.913" rx="63.333" ry="61.333" style="fill:rgb(204,197,176);" />
		</g>
		<g transform="matrix(0.963158,0,0,0.994565,8.74383,-1.30661)">
			<path d="M117.588,122.58C152.543,122.58 180.922,150.062 180.922,183.913C180.922,217.764 152.543,245.247 117.588,245.247C82.634,245.247 54.255,217.764 54.255,183.913C54.255,150.062 82.634,122.58 117.588,122.58ZM117.588,129.203C148.768,129.203 174.082,153.718 174.082,183.913C174.082,214.108 148.768,238.623 117.588,238.623C86.409,238.623 61.094,214.108 61.094,183.913C61.094,153.718 86.409,129.203 117.588,129.203Z" style="fill:rgb(140,134,115);" />
		</g>
		<g transform="matrix(1.1395,0,0,1.1395,-228.797,25.177)">
			<path d="M294.907,145.011C286.462,142.87 280.207,135.213 280.207,126.107C280.207,115.345 288.945,106.607 299.707,106.607C309.04,106.607 316.851,113.178 318.76,121.942L340.107,121.942C341.808,121.942 343.338,122.977 343.972,124.555C344.606,126.134 344.216,127.939 342.987,129.116L326.587,144.816C325.052,146.286 322.656,146.363 321.028,144.996L314.142,139.212C311.385,142.247 307.685,144.41 303.507,145.236L303.507,150.042L311.707,150.042C314.006,150.042 315.872,151.908 315.872,154.207C315.872,156.506 314.006,158.372 311.707,158.372L303.507,158.372L303.507,164.83C304.962,165.604 306.652,166.257 308.602,166.789C310.82,167.393 312.13,169.684 311.526,171.902C310.921,174.12 308.63,175.43 306.412,174.826C303.745,174.099 301.444,173.181 299.457,172.11C297.47,173.181 295.169,174.099 292.502,174.826C290.284,175.43 287.993,174.12 287.389,171.902C286.784,169.684 288.094,167.393 290.312,166.789C292.043,166.317 293.568,165.749 294.907,165.086L294.907,145.011ZM299.707,114.937C305.872,114.937 310.877,119.942 310.877,126.107C310.877,132.272 305.872,137.277 299.707,137.277C293.542,137.277 288.537,132.272 288.537,126.107C288.537,119.942 293.542,114.937 299.707,114.937ZM318.76,130.272L329.733,130.272C329.733,130.272 323.525,136.215 323.525,136.215L318.343,131.861C318.504,131.34 318.643,130.81 318.76,130.272ZM299.707,122.107C301.915,122.107 303.707,123.899 303.707,126.107C303.707,128.315 301.915,130.107 299.707,130.107C297.499,130.107 295.707,128.315 295.707,126.107C295.707,123.899 297.499,122.107 299.707,122.107ZM298.757,123.295C299.585,123.295 300.257,123.967 300.257,124.795C300.257,125.622 299.585,126.295 298.757,126.295C297.929,126.295 297.257,125.622 297.257,124.795C297.257,123.967 297.929,123.295 298.757,123.295Z" style="fill:rgb(38,38,42);fill-opacity:0.21;" />
		</g>
		<g transform="matrix(1.1395,0,0,1.1395,-228.797,21.177)">
			<path d="M294.907,145.011C286.462,142.87 280.207,135.213 280.207,126.107C280.207,115.345 288.945,106.607 299.707,106.607C309.04,106.607 316.851,113.178 318.76,121.942L340.107,121.942C341.808,121.942 343.338,122.977 343.972,124.555C344.606,126.134 344.216,127.939 342.987,129.116L326.587,144.816C325.052,146.286 322.656,146.363 321.028,144.996L314.142,139.212C311.385,142.247 307.685,144.41 303.507,145.236L303.507,150.042L311.707,150.042C314.006,150.042 315.872,151.908 315.872,154.207C315.872,156.506 314.006,158.372 311.707,158.372L303.507,158.372L303.507,164.83C304.962,165.604 306.652,166.257 308.602,166.789C310.82,167.393 312.13,169.684 311.526,171.902C310.921,174.12 308.63,175.43 306.412,174.826C303.745,174.099 301.444,173.181 299.457,172.11C297.47,173.181 295.169,174.099 292.502,174.826C290.284,175.43 287.993,174.12 287.389,171.902C286.784,169.684 288.094,167.393 290.312,166.789C292.043,166.317 293.568,165.749 294.907,165.086L294.907,145.011ZM299.707,114.937C305.872,114.937 310.877,119.942 310.877,126.107C310.877,132.272 305.872,137.277 299.707,137.277C293.542,137.277 288.537,132.272 288.537,126.107C288.537,119.942 293.542,114.937 299.707,114.937ZM318.76,130.272L329.733,130.272C329.733,130.272 323.525,136.215 323.525,136.215L318.343,131.861C318.504,131.34 318.643,130.81 318.76,130.272ZM299.707,122.107C301.915,122.107 303.707,123.899 303.707,126.107C303.707,128.315 301.915,130.107 299.707,130.107C297.499,130.107 295.707,128.315 295.707,126.107C295.707,123.899 297.499,122.107 299.707,122.107ZM298.757,123.295C299.585,123.295 300.257,123.967 300.257,124.795C300.257,125.622 299.585,126.295 298.757,126.295C297.929,126.295 297.257,125.622 297.257,124.795C297.257,123.967 297.929,123.295 298.757,123.295Z" style="fill:rgb(38,38,42);" />
		</g>
	</g>
</svg>
