<?xml version="1.0" encoding="UTF-8" standalone="no"?>
<svg
   xmlns:dc="http://purl.org/dc/elements/1.1/"
   xmlns:cc="http://creativecommons.org/ns#"
   xmlns:rdf="http://www.w3.org/1999/02/22-rdf-syntax-ns#"
   xmlns:svg="http://www.w3.org/2000/svg"
   xmlns="http://www.w3.org/2000/svg"
   xmlns:sodipodi="http://sodipodi.sourceforge.net/DTD/sodipodi-0.dtd"
   xmlns:inkscape="http://www.inkscape.org/namespaces/inkscape"
   id="Layer_1"
   viewBox="0 0 120 59.999999"
   version="1.1"
   sodipodi:docname="discordapp-ar21.svg"
   width="100%"
   height="100%"
   inkscape:version="0.92.2 (5c3e80d, 2017-08-06)">
  <metadata
     id="metadata13">
    <rdf:RDF>
      <cc:Work
         rdf:about="">
        <dc:format>image/svg+xml</dc:format>
        <dc:type
           rdf:resource="http://purl.org/dc/dcmitype/StillImage" />
        <dc:title></dc:title>
      </cc:Work>
    </rdf:RDF>
  </metadata>
  <defs
     id="defs11" />
  <sodipodi:namedview
     pagecolor="#ffffff"
     bordercolor="#666666"
     borderopacity="1"
     objecttolerance="10"
     gridtolerance="10"
     guidetolerance="10"
     inkscape:pageopacity="0"
     inkscape:pageshadow="2"
     inkscape:window-width="1920"
     inkscape:window-height="1001"
     id="namedview9"
     showgrid="false"
     inkscape:zoom="4.794184"
     inkscape:cx="78.24959"
     inkscape:cy="25.146066"
     inkscape:window-x="-9"
     inkscape:window-y="-9"
     inkscape:window-maximized="1"
     inkscape:current-layer="Layer_1" />
  <style
     id="style2">.st0{fill:#7289da}</style>
  <g
     id="g881"
     transform="translate(-1.0313211)">
    <g
       transform="matrix(1.0979811,0,0,1.0979811,0.39505897,-5.689398)"
       id="g871">
      <path
         class="st0"
         d="m 20.49179,30.177553 c -0.831597,0 -1.488121,0.714881 -1.488121,1.604836 0,0.889955 0.671113,1.604836 1.488121,1.604836 0.831597,0 1.488121,-0.714881 1.488121,-1.604836 0,-0.889955 -0.671114,-1.604836 -1.488121,-1.604836 z m -5.325139,0 c -0.831597,0 -1.488121,0.714881 -1.488121,1.604836 0,0.889955 0.671113,1.604836 1.488121,1.604836 0.831597,0 1.488121,-0.714881 1.488121,-1.604836 0.01459,-0.889955 -0.656524,-1.604836 -1.488121,-1.604836 z"
         id="path4"
         inkscape:connector-curvature="0"
         style="fill:#7289da;stroke-width:0.14589421" />
      <path
         class="st0"
         d="M 27.582248,18.039154 H 8.0324241 c -1.6486045,0 -2.9908313,1.342227 -2.9908313,2.990831 V 40.57981 c 0,1.648605 1.3422268,2.990831 2.9908313,2.990831 H 24.576828 l -0.77324,-2.669864 1.867446,1.721552 1.76532,1.619426 3.151315,2.728221 V 21.029985 c -0.01459,-1.648604 -1.356816,-2.990831 -3.005421,-2.990831 z m -5.631516,18.893301 c 0,0 -0.525219,-0.627345 -0.962902,-1.167154 1.911214,-0.539809 2.640685,-1.721552 2.640685,-1.721552 -0.598166,0.393915 -1.167153,0.671114 -1.677783,0.860776 -0.729471,0.306378 -1.429763,0.496041 -2.115466,0.627345 -1.400585,0.26261 -2.684454,0.189663 -3.77866,-0.01459 -0.831597,-0.160484 -1.546479,-0.379325 -2.144645,-0.627345 -0.335557,-0.131305 -0.700292,-0.291789 -1.065028,-0.496041 -0.04377,-0.02918 -0.08754,-0.04377 -0.131305,-0.07295 -0.02918,-0.01459 -0.04377,-0.02918 -0.05836,-0.02918 -0.26261,-0.145895 -0.408504,-0.248021 -0.408504,-0.248021 0,0 0.700292,1.152565 2.553148,1.706963 -0.437682,0.554398 -0.977491,1.196332 -0.977491,1.196332 -3.224262,-0.102126 -4.4497731,-2.203002 -4.4497731,-2.203002 0,-4.654026 2.1008771,-8.432686 2.1008771,-8.432686 2.100876,-1.561068 4.085037,-1.5173 4.085037,-1.5173 l 0.145895,0.175073 c -2.626096,0.74406 -3.822429,1.896625 -3.822429,1.896625 0,0 0.320968,-0.175073 0.860776,-0.408504 1.561068,-0.685703 2.801169,-0.860776 3.311799,-0.919134 0.08754,-0.01459 0.160483,-0.02918 0.24802,-0.02918 0.889955,-0.116716 1.896625,-0.145895 2.947063,-0.02918 1.385995,0.160483 2.874116,0.568987 4.391416,1.385995 0,0 -1.152565,-1.094207 -3.632766,-1.838267 l 0.204252,-0.233431 c 0,0 1.99875,-0.04377 4.085038,1.5173 0,0 2.100876,3.77866 2.100876,8.432686 0,-0.01459 -1.225511,2.086287 -4.449773,2.188413 z"
         id="path6"
         inkscape:connector-curvature="0"
         style="fill:#7289da;stroke-width:0.14589421"
         sodipodi:nodetypes="sssssccccccsccccccccccccccccccccccccccccc" />
    </g>
    <g
       transform="matrix(1.0813655,0,0,1.0813655,-63.131886,42.33966)"
       id="g874">
      <path
         class="st0"
         d="m 98.853809,-17.888887 h -4.843687 v 5.441855 l 3.224262,2.9032953 v -5.2813713 h 1.721551 c 1.094205,0 1.634015,0.525219 1.634015,1.371405 v 4.0412703 c 0,0.846187 -0.51063,1.415174 -1.634015,1.415174 h -4.960403 v 3.078368 h 4.843688 c 2.59692,0.01459 5.03335,-1.283869 5.03335,-4.260111 V -13.52665 c 0.0146,-3.0346 -2.42184,-4.362237 -5.018761,-4.362237 z m 25.385591,8.7098853 v -4.4643633 c 0,-1.604837 2.88871,-1.969572 3.76407,-0.364736 l 2.66987,-1.079617 c -1.05044,-2.305129 -2.96166,-2.976242 -4.5519,-2.976242 -2.59692,0 -5.16466,1.50271 -5.16466,4.420595 v 4.4643633 c 0,2.947063 2.56774,4.420595 5.1063,4.420595 1.63402,0 3.589,-0.802419 4.66861,-2.903295 l -2.85952,-1.313048 c -0.70029,1.794499 -3.63277,1.356816 -3.63277,-0.204252 z m -8.8266,-3.8516073 c -1.00667,-0.218842 -1.67778,-0.583578 -1.72155,-1.210923 0.0584,-1.50271 2.37808,-1.561068 3.73489,-0.116715 l 2.14465,-1.648605 c -1.34223,-1.634015 -2.85953,-2.071697 -4.4206,-2.071697 -2.37807,0 -4.6832,1.342226 -4.6832,3.880786 0,2.465612 1.89662,3.79325 3.98291,4.114217 1.06503,0.1458943 2.24677,0.5689873 2.21759,1.2984583 -0.0875,1.385995 -2.94706,1.313048 -4.24552,-0.262609 l -2.0717,1.940393 c 1.21093,1.561068 2.85953,2.348897 4.40601,2.348897 2.37807,0 5.01876,-1.371406 5.12089,-3.880786 0.14589,-3.1659053 -2.15924,-3.9683233 -4.46437,-4.3914163 z m -9.77491,8.0971293 h 3.26803 V -17.888887 h -3.26803 z m 55.10425,-12.9554073 h -4.8437 v 5.441855 l 3.22427,2.9032953 v -5.2813713 h 1.72156 c 1.0942,0 1.63401,0.525219 1.63401,1.371405 v 4.0412703 c 0,0.846187 -0.51063,1.415174 -1.63401,1.415174 h -4.96042 v 3.078368 h 4.85829 c 2.59692,0.01459 5.03335,-1.283869 5.03335,-4.260111 V -13.52665 c 0,-3.0346 -2.43643,-4.362237 -5.03335,-4.362237 z m -23.76617,-0.175073 c -2.68446,0 -5.35432,1.458942 -5.35432,4.449773 v 4.4205963 c 0,2.961652 2.68445,4.449773 5.3835,4.449773 2.68445,0 5.35431,-1.488121 5.35431,-4.449773 v -4.4205963 c 0,-2.976241 -2.69904,-4.449773 -5.38349,-4.449773 z m 2.10087,8.8703693 c 0,0.933723 -1.05043,1.415173 -2.08628,1.415173 -1.05044,0 -2.10088,-0.452272 -2.10088,-1.415173 v -4.4205963 c 0,-0.948312 1.02126,-1.458942 2.04252,-1.458942 1.06503,0 2.14464,0.452272 2.14464,1.458942 z m 15.01252,-4.4205963 c -0.0729,-3.034599 -2.14465,-4.26011 -4.81451,-4.26011 h -5.17925 v 12.9554063 h 3.3118 v -4.114217 h 0.58358 l 3.00542,4.114217 h 4.08504 l -3.53064,-4.449773 c 1.56107,-0.496041 2.53856,-1.8528573 2.53856,-4.2455233 z m -4.75615,1.750732 h -1.92581 v -2.961653 h 1.92581 c 2.05711,0 2.05711,2.961653 0,2.961653 z"
         id="path6-8"
         inkscape:connector-curvature="0"
         style="fill:#7289da;stroke-width:0.14589421"
         sodipodi:nodetypes="sccccsssscccscsssccssssccsccccssccccscccccccsccccsssscccssssssssssssssssscscccccccccsccss" />
    </g>
  </g>
</svg>
