<?xml version="1.0" encoding="UTF-8" standalone="no"?>
<!DOCTYPE svg PUBLIC "-//W3C//DTD SVG 1.1//EN" "http://www.w3.org/Graphics/SVG/1.1/DTD/svg11.dtd">
<svg width="100%" height="100%" viewBox="0 0 110 110" version="1.1" xmlns="http://www.w3.org/2000/svg" xmlns:xlink="http://www.w3.org/1999/xlink" xml:space="preserve" xmlns:serif="http://www.serif.com/" style="fill-rule:evenodd;clip-rule:evenodd;stroke-linecap:round;stroke-linejoin:round;stroke-miterlimit:1.5;">
    <g id="Lock">
        <path d="M28.391,33.533C28.391,18.847 40.314,6.924 55,6.924C69.686,6.924 81.609,18.847 81.609,33.533L81.609,71.929L28.391,71.929L28.391,33.533ZM40.054,36.116L40.054,57.683L69.946,57.683L69.946,36.116C69.946,27.867 63.249,21.17 55,21.17C46.751,21.17 40.054,27.867 40.054,36.116Z" style="fill:rgb(235,235,235);"/>
        <clipPath id="_clip1">
            <path d="M28.391,33.533C28.391,18.847 40.314,6.924 55,6.924C69.686,6.924 81.609,18.847 81.609,33.533L81.609,71.929L28.391,71.929L28.391,33.533ZM40.054,36.116L40.054,57.683L69.946,57.683L69.946,36.116C69.946,27.867 63.249,21.17 55,21.17C46.751,21.17 40.054,27.867 40.054,36.116Z"/>
        </clipPath>
        <g clip-path="url(#_clip1)">
            <g transform="matrix(1,0,0,1,0,0.255033)">
                <rect x="63.198" y="20.566" width="23.196" height="39.6" style="fill:rgb(93,93,93);"/>
            </g>
            <g transform="matrix(1,0,0,1,8.74072,1.1949)">
                <path d="M28.391,33.533C28.391,18.847 40.314,6.924 55,6.924C69.686,6.924 81.609,18.847 81.609,33.533L81.609,71.929L28.391,71.929L28.391,33.533ZM40.054,36.116L40.054,57.683L69.946,57.683L69.946,36.116C69.946,27.867 63.249,21.17 55,21.17C46.751,21.17 40.054,27.867 40.054,36.116Z" style="fill:rgb(183,183,183);"/>
            </g>
        </g>
        <path d="M28.391,33.533C28.391,18.847 40.314,6.924 55,6.924C69.686,6.924 81.609,18.847 81.609,33.533L81.609,71.929L28.391,71.929L28.391,33.533ZM40.054,36.116L40.054,57.683L69.946,57.683L69.946,36.116C69.946,27.867 63.249,21.17 55,21.17C46.751,21.17 40.054,27.867 40.054,36.116Z" style="fill:none;stroke:rgb(116,116,116);stroke-width:6px;"/>
        <g transform="matrix(1.00921,0,0,0.747905,8.47399,21.9897)">
            <path d="M80.035,54.028C80.035,44.663 74.401,37.061 67.461,37.061L24.741,37.061C17.802,37.061 12.167,44.663 12.167,54.028L12.167,87.962C12.167,97.326 17.802,104.929 24.741,104.929L67.461,104.929C74.401,104.929 80.035,97.326 80.035,87.962L80.035,54.028Z" style="fill:rgb(235,235,235);"/>
            <clipPath id="_clip2">
                <path d="M80.035,54.028C80.035,44.663 74.401,37.061 67.461,37.061L24.741,37.061C17.802,37.061 12.167,44.663 12.167,54.028L12.167,87.962C12.167,97.326 17.802,104.929 24.741,104.929L67.461,104.929C74.401,104.929 80.035,97.326 80.035,87.962L80.035,54.028Z"/>
            </clipPath>
            <g clip-path="url(#_clip2)">
                <g transform="matrix(0.597696,0.617649,-1.05766,1.86362,105.434,-92.5149)">
                    <rect x="33.316" y="43.5" width="27.396" height="63.509" style="fill:rgb(183,183,183);"/>
                </g>
                <g transform="matrix(0.597696,0.617649,-1.05766,1.86362,120.962,-78.9799)">
                    <rect x="33.316" y="43.5" width="27.396" height="63.509" style="fill:rgb(165,165,165);"/>
                </g>
            </g>
            <path d="M80.035,54.028C80.035,44.663 74.401,37.061 67.461,37.061L24.741,37.061C17.802,37.061 12.167,44.663 12.167,54.028L12.167,87.962C12.167,97.326 17.802,104.929 24.741,104.929L67.461,104.929C74.401,104.929 80.035,97.326 80.035,87.962L80.035,54.028Z" style="fill:none;stroke:rgb(116,116,116);stroke-width:6.76px;"/>
        </g>
        <g transform="matrix(1,0,0,1,7.10543e-15,3.03659)">
            <path d="M50.434,73.743C48.109,72.241 46.568,69.627 46.568,66.655C46.568,62.002 50.346,58.224 55,58.224C59.654,58.224 63.432,62.002 63.432,66.655C63.432,69.627 61.891,72.241 59.566,73.743L59.566,85.877L50.434,85.877L50.434,73.743Z" style="fill:rgb(29,29,29);stroke:rgb(116,116,116);stroke-width:6px;"/>
        </g>
    </g>
</svg>
