<?xml version="1.0" encoding="utf-8"?><!-- Uploaded to: SVG Repo, www.svgrepo.com, Generator: SVG Repo Mixer Tools -->
<svg fill="#000000" width="800px" height="800px" viewBox="0 0 256.00098 256.00098" id="Flat" xmlns="http://www.w3.org/2000/svg">
  <path d="M211.8501,133.12744c.20752-3.41528-.00049-10.25464-.00049-10.25464l16.5542-22.07177a103.36316,103.36316,0,0,0-10.16358-24.5608L190.918,72.33862a84.52765,84.52765,0,0,0-7.25195-7.25219L179.76514,37.7749a103.36081,103.36081,0,0,0-24.5542-10.18017l-22.07862,16.561a84.505,84.505,0,0,0-10.25586,0l-22.0708-16.55395A103.37063,103.37063,0,0,0,76.24512,37.76562L72.34375,65.08789a84.46168,84.46168,0,0,0-7.25244,7.2522L37.77979,76.24072a103.37861,103.37861,0,0,0-10.18018,24.5542l16.561,22.07862c-.20752,3.41528.00049,10.25463.00049,10.25463L27.60693,155.2a103.36309,103.36309,0,0,0,10.16358,24.56079l27.32226,3.90161a84.46312,84.46312,0,0,0,7.25244,7.2522l3.9004,27.31152a103.36018,103.36018,0,0,0,24.55419,10.18018l22.07862-16.561a84.50294,84.50294,0,0,0,10.25586,0l22.0708,16.554a103.37032,103.37032,0,0,0,24.56054-10.16382l3.90186-27.32226c2.56152-2.26807,7.25049-7.25171,7.25049-7.25171l27.313-3.90113a103.37883,103.37883,0,0,0,10.18017-24.5542ZM128.00488,176a48,48,0,1,1,48-48A47.99988,47.99988,0,0,1,128.00488,176Z" opacity="0.2"/>
  <path d="M128.00488,72a56,56,0,1,0,56,56A56.06353,56.06353,0,0,0,128.00488,72Zm0,96a40,40,0,1,1,40-40A40.04521,40.04521,0,0,1,128.00488,168Zm106.80567-17.59424-14.87793-19.835c.02246-1.75244.00439-3.62207-.02149-5.11377l14.89258-19.856a8.00087,8.00087,0,0,0,1.32422-6.88476,111.46438,111.46438,0,0,0-10.95068-26.46094,7.99975,7.99975,0,0,0-5.80616-3.93457l-24.4873-3.49707q-1.7981-1.90282-3.70313-3.70361l-3.49609-24.47657a8.00014,8.00014,0,0,0-3.93262-5.80419,111.45388,111.45388,0,0,0-26.45312-10.96729,8.00184,8.00184,0,0,0-6.88819,1.32275L130.62305,36.0376c-1.74414-.04834-3.49317-.04834-5.23731,0L105.60645,21.20215a8.00208,8.00208,0,0,0-6.88526-1.32373A111.45837,111.45837,0,0,0,72.26025,30.82861a8.00166,8.00166,0,0,0-3.93505,5.80616L64.82861,61.12158q-1.90209,1.79809-3.70361,3.7041L36.64844,68.32129a7.99957,7.99957,0,0,0-5.8042,3.93213A111.45394,111.45394,0,0,0,19.877,98.70752a7.99838,7.99838,0,0,0,1.32325,6.88769l14.87792,19.835c-.02246,1.75244-.00439,3.62207.02149,5.11377L21.207,150.3999a8.00089,8.00089,0,0,0-1.32422,6.88477A111.46458,111.46458,0,0,0,30.8335,183.74561a7.99971,7.99971,0,0,0,5.80615,3.93457l24.4873,3.49707q1.79809,1.90283,3.70313,3.70361l3.49609,24.47656a8.00017,8.00017,0,0,0,3.93262,5.8042,111.45423,111.45423,0,0,0,26.45312,10.96729,7.99972,7.99972,0,0,0,6.88819-1.32276l19.7876-14.84277c1.74414.04932,3.49316.04932,5.2373,0l19.7793,14.83545a7.99851,7.99851,0,0,0,6.88525,1.32373,111.45823,111.45823,0,0,0,26.46094-10.9502,8.00166,8.00166,0,0,0,3.93506-5.80615l3.50488-24.54541c1.25488-1.22363,2.56348-2.5581,3.60059-3.63135l24.57128-3.50976a7.99957,7.99957,0,0,0,5.8042-3.93213,111.45394,111.45394,0,0,0,10.96729-26.4541A7.99843,7.99843,0,0,0,234.81055,150.40576Zm-21.668,22-23.356,3.33643a7.99832,7.99832,0,0,0-4.69482,2.437c-1.23633,1.31348-4.8545,5.08594-6.72754,6.74414a7.99806,7.99806,0,0,0-2.6167,4.85889L172.41113,213.144a95.42706,95.42706,0,0,1-15.60449,6.45655l-18.87207-14.15528a8.00657,8.00657,0,0,0-5.28516-1.58545,76.72117,76.72117,0,0,1-9.28613,0,8.00177,8.00177,0,0,0-5.28516,1.58545L99.19971,219.606a95.44381,95.44381,0,0,1-15.59961-6.46875l-3.33545-23.354a8.00076,8.00076,0,0,0-2.6167-4.8584,76.93262,76.93262,0,0,1-6.56592-6.56591,7.99808,7.99808,0,0,0-4.8584-2.61573l-23.36181-3.33642a95.49848,95.49848,0,0,1-6.45655-15.60449L50.561,137.92871a8.0021,8.0021,0,0,0,1.59619-5.04346c-.05469-1.80322-.16309-7.02929-.01172-9.52587a7.997,7.997,0,0,0-1.585-5.28614L36.39941,99.19482a95.50434,95.50434,0,0,1,6.46875-15.59961l23.3545-3.33544a7.99759,7.99759,0,0,0,4.85839-2.61622,76.92836,76.92836,0,0,1,6.56543-6.56591,7.99809,7.99809,0,0,0,2.6167-4.85889l3.33643-23.36182A95.4279,95.4279,0,0,1,99.2041,36.40039l18.87207,14.15527a8.01671,8.01671,0,0,0,5.28516,1.58545,76.52156,76.52156,0,0,1,9.28613,0,7.99816,7.99816,0,0,0,5.28516-1.58545L156.811,36.395a95.44232,95.44232,0,0,1,15.5996,6.46875l3.33545,23.354a8.0007,8.0007,0,0,0,2.6167,4.8584,76.93274,76.93274,0,0,1,6.56592,6.56592,7.998,7.998,0,0,0,4.8584,2.61572l23.36182,3.33643a95.499,95.499,0,0,1,6.45654,15.60449l-14.15576,18.87354a8.002,8.002,0,0,0-1.59619,5.04345c.05468,1.80323.16308,7.0293.01171,9.52588a7.99693,7.99693,0,0,0,1.585,5.28613l14.16113,18.87842A95.504,95.504,0,0,1,213.14258,172.40576Z"/>
</svg>