<?xml version="1.0" encoding="UTF-8" standalone="no"?>
<!DOCTYPE svg PUBLIC "-//W3C//DTD SVG 1.1//EN" "http://www.w3.org/Graphics/SVG/1.1/DTD/svg11.dtd">
<svg width="100%" height="100%" viewBox="0 0 181 181" version="1.1" xmlns="http://www.w3.org/2000/svg" xmlns:xlink="http://www.w3.org/1999/xlink" xml:space="preserve" xmlns:serif="http://www.serif.com/" style="fill-rule:evenodd;clip-rule:evenodd;stroke-linecap:round;stroke-linejoin:round;stroke-miterlimit:1.5;">
    <g transform="matrix(1.12538,0,0,1.12538,-138.694,-157.798)">
        <circle cx="203.341" cy="220.316" r="74.554" style="fill:rgb(246,24,58);"/>
        <clipPath id="_clip1">
            <circle cx="203.341" cy="220.316" r="74.554"/>
        </clipPath>
        <g clip-path="url(#_clip1)">
            <g transform="matrix(0.888587,0,0,0.888587,-18.8059,-14.9749)">
                <path d="M199.161,254.38L199.161,159.784L300.839,159.784L300.839,254.38C295.667,251.075 289.896,248.265 283.663,246.05L283.663,177.921L216.337,177.921L216.337,246.05C210.104,248.265 204.333,251.075 199.161,254.38Z" style="fill:rgb(208,19,49);"/>
            </g>
            <g transform="matrix(0.888587,0,0,0.888587,123.242,140.217)">
                <path d="M140.981,79.73C157.385,90.213 167.765,105.676 167.765,122.91C167.765,154.457 132.983,180.069 90.142,180.069C47.3,180.069 12.518,154.457 12.518,122.91C12.518,105.676 22.899,90.213 39.303,79.73C44.475,76.425 50.245,73.614 56.478,71.399C66.664,67.78 78.084,65.751 90.142,65.751C102.2,65.751 113.62,67.78 123.805,71.399C130.038,73.614 135.809,76.425 140.981,79.73Z" style="fill:white;"/>
            </g>
            <g transform="matrix(0.888587,0,0,0.888587,-18.8059,-14.9749)">
                <path d="M300.839,254.38L300.839,261.63C300.839,286.514 278.059,306.716 250,306.716C221.941,306.716 199.161,286.514 199.161,261.63L199.161,254.38C204.333,251.075 210.104,248.265 216.337,246.05L216.337,254.624C216.337,273.365 231.421,288.58 250,288.58C268.579,288.58 283.663,273.365 283.663,254.624L283.663,246.05C289.896,248.265 295.667,251.075 300.839,254.38Z" style="fill:rgb(216,203,216);"/>
            </g>
            <g transform="matrix(0.894889,0,0,0.65896,22.5732,101.958)">
                <path d="M117.128,218.297C119.893,173.227 156.352,135.909 202,135.909C247.648,135.909 284.107,173.227 286.872,218.297C274.963,266.443 241.444,301.167 202,301.167C162.556,301.167 129.037,266.443 117.128,218.297ZM202,157.538C178.823,157.538 158.186,168.547 145.446,185.923C137.643,196.565 132.887,209.605 132.887,223.8C132.887,237.996 137.643,251.035 145.446,261.678C158.186,279.053 178.823,290.062 202,290.062C225.177,290.062 245.814,279.053 258.554,261.678C266.357,251.035 271.113,237.996 271.113,223.8C271.113,209.605 266.357,196.565 258.554,185.923C245.814,168.547 225.177,157.538 202,157.538Z"/>
            </g>
            <g transform="matrix(0.947267,0,0,0.947267,11.4289,27.1795)">
                <circle cx="202.595" cy="183.368" r="18.084" style="fill:white;stroke:black;stroke-width:11.76px;"/>
            </g>
        </g>
        <circle cx="203.341" cy="220.316" r="74.554" style="fill:none;stroke:black;stroke-width:11.09px;"/>
    </g>
</svg>
