<svg width="100%" height="100%" viewBox="0 0 1003.61072174 335.94" xmlns="http://www.w3.org/2000/svg"><g clip-rule="evenodd" fill-rule="evenodd"><path d="m888.002 134.4c-.808 1.266-.516 2.772-.922 4.146-2.004 6.776-5.498 12.746-9.693 18.348-7.275 9.714-15.759 18.295-25.001 26.111-24.586 20.791-51.223 38.508-80.07 52.844-17.634 8.763-35.871 16.008-54.891 21.184-9.907 2.696-19.967 4.514-30.292 3.996-11.321-.566-21.675-3.788-30.269-11.57-2.327-2.107-4.334-4.483-6.127-7.044-1.036-1.48-.741-1.7-2.768-.567-8.1 4.527-16.448 8.52-25.168 11.724-9.337 3.431-18.914 5.863-28.812 6.909-10.236 1.081-20.275.364-29.85-3.799-7.308-3.178-13.14-8.147-17.56-14.762-1.194-1.787-1.045-1.589-2.743-.626-9.887 5.608-20.108 10.485-30.848 14.252-8.584 3.011-17.401 4.965-26.494 4.968-18.408.006-32.272-7.824-40.765-24.471a40.72 40.72 0 0 0 -.797-1.464c-.035-.063-.126-.096-.227-.167-3.169 1.447-6.352 2.919-9.551 4.354-2.694 1.208-5.523 1.681-8.424 1.064-5.737-1.218-9.247-7.016-7.993-13.085.727-3.519 2.583-6.049 6.032-7.477 4.499-1.861 8.899-3.957 13.24-6.176 1.009-.517 1.357-1.134 1.269-2.24-.185-2.308-.334-4.624-.354-6.938-.14-15.692 2.429-31.027 6.25-46.181 3.527-13.989 8.275-27.534 15.057-40.311 7.707-14.522 17.6-27.226 30.897-37.098 7.085-5.26 14.812-9.122 23.49-10.944 6.183-1.297 12.361-1.54 18.499.239 7.429 2.152 12.691 6.897 16.088 13.749 3.65 7.36 4.784 15.163 3.938 23.311-1.159 11.17-5.228 21.383-10.352 31.208-9.628 18.463-21.434 35.41-35.785 50.538a219.297 219.297 0 0 1 -40.34 33.451c-.403.261-.795.54-1.209.781-.659.385-.789.825-.486 1.582 3.493 8.741 9.256 13.74 19.354 14.239 7.398.366 14.451-1.405 21.318-3.883 10.852-3.915 21.068-9.189 31.074-14.896 1.266-.722 1.572-1.539 1.398-2.886-.733-5.651-.748-11.34-.367-17.003.757-11.266 2.652-22.363 5.617-33.262 5.103-18.759 12.393-36.624 22.393-53.313 7.249-12.099 16.254-22.76 27.271-31.634 8.438-6.796 17.99-11.171 28.688-13.079 15.613-2.785 29.301 7.075 33.52 20.471 2.778 8.822 2.425 17.651.221 26.493-1.672 6.711-4.599 12.943-7.619 19.115-8.989 18.372-20.758 34.861-34.202 50.205-14.088 16.078-29.968 30.146-47.496 42.365-.328.229-.642.481-.985.684-.728.429-.691.925-.282 1.589 1.535 2.494 3.463 4.597 6.011 6.07 3.821 2.211 7.958 3.13 12.366 3.274 8.582.282 16.854-1.33 25.032-3.681 11.449-3.291 21.973-8.638 32.274-14.487 1.053-.599 1.468-1.3 1.248-2.507-.679-3.711-.709-7.49-.717-11.229-.01-4.704.242-9.42.81-14.107 1.678-13.852 4.782-27.371 9.423-40.528 5.765-16.34 12.854-32.044 22.735-46.358 8.224-11.914 18.105-22.143 30.725-29.496 6.117-3.564 12.546-6.339 19.569-7.542 8.423-1.444 16.291-.253 23.01 5.396 5.617 4.722 9.184 10.806 10.988 17.9 2.037 8.002 1.555 16.013-.173 23.987-2.271 10.486-6.552 20.185-11.762 29.505-8.04 14.383-17.938 27.412-28.972 39.604-14.482 16.001-30.328 30.486-47.944 42.994-.39.277-.813.52-1.054 1.122 2.426 4.136 6.092 6.755 10.662 8.251 4.275 1.4 8.682 1.249 13.071 1.086 9.665-.358 18.927-2.859 28.127-5.569 12.521-3.688 24.511-8.746 36.249-14.41a406.817 406.817 0 0 0 67.49-41.068c11.222-8.42 21.671-17.698 30.984-28.22 3.727-4.209 7.033-8.703 9.54-13.755a17.778 17.778 0 0 0 1.798-6.173c.507-4.99 4.329-8.887 9.354-9.473 2.308-.269 4.615-.238 6.836.719 2.736 1.179 4.492 3.196 5.445 5.973.003 2.558.003 5.118.003 7.678zm-224.655 70.47c1.066-.177 1.524-.771 2.073-1.201 10.659-8.334 20.6-17.46 29.987-27.198 13.38-13.879 25.09-29.003 34.116-46.089 4.32-8.177 7.582-16.755 8.01-26.128.153-3.341-.108-6.702-1.729-9.784-1.312-2.496-3.34-3.713-6.161-3.837-3.565-.157-6.763 1.021-9.878 2.512-6.728 3.222-12.306 7.983-17.504 13.234-9.058 9.149-15.565 20.026-21.168 31.491-7.261 14.859-12.38 30.452-15.631 46.657-1.335 6.659-2.155 13.382-2.115 20.343zm-103.604-.794c.846-.074 1.177-.454 1.547-.736 9.423-7.182 18.313-14.962 26.626-23.416 14.95-15.205 27.562-32.133 37.733-50.872 2.935-5.407 5.771-10.866 7.667-16.756 1.459-4.534 2.299-9.14 1.759-13.917-.668-5.908-4.334-8.783-10.223-8.041-.315.04-.623.135-.937.194-3.896.732-7.479 2.273-10.863 4.287-9.443 5.621-16.862 13.413-23.286 22.175-5.209 7.104-9.545 14.763-13.268 22.749-7.192 15.429-12.214 31.559-15.258 48.295-.956 5.257-1.412 10.588-1.497 16.038zm-98.412-5.608c.758.03 1.063-.241 1.381-.464 10.181-7.147 19.467-15.322 28.06-24.307 11.567-12.095 21.104-25.682 29.388-40.165 4.615-8.07 8.449-16.507 10.43-25.661.764-3.533 1.058-7.11.282-10.706-1.098-5.089-3.827-7.27-8.972-6.95-3.826.238-7.3 1.73-10.606 3.521-10.578 5.729-18.648 14.223-25.488 23.904-4.858 6.875-8.458 14.487-11.575 22.3-5.319 13.333-9.088 27.106-11.384 41.271-.922 5.678-1.397 11.412-1.516 17.257z" fill="#d8485a"/><path d="m0 71.04c.153-.028.394-.005.445-.093 1.374-2.352 3.553-2.599 6.001-2.527 3.917.115 7.838.051 11.758.021 1.689-.013 1.82-.072 1.739-1.782-.287-6.073-.135-12.15-.219-18.224-.051-3.679-.1-7.36-.023-11.037.103-4.929 2.468-7.79 7.172-9.198 13.766-4.122 27.585-8.069 41.186-12.728 1.127-.387 2.308-.654 3.485-.856 4.409-.756 7.554 1.577 8.08 6.022.14 1.183.055 2.394.055 3.592.002 13.998-.001 27.996.005 41.995.001 2.195.022 2.221 2.276 2.224 9.599.01 19.197.003 28.796.007.719 0 1.446-.035 2.156.058 1.87.244 3.178 1.599 3.404 3.479.057.474.036.958.036 1.438.002 13.678.008 27.356-.003 41.035-.003 3.486-1.474 4.938-4.956 4.985-.48.006-.96.001-1.44.001-9.119 0-18.238-.008-27.356.004-3.323.004-2.909-.317-2.91 2.97-.011 22.797-.008 45.594-.001 68.392 0 1.596-.013 3.188.337 4.771.936 4.224 3.448 6.624 7.705 7.493 3.961.81 7.802.111 11.63-.737 3.669-.813 7.221-2.026 10.671-3.524.293-.128.58-.272.877-.387 3.363-1.296 5.284-.074 5.427 3.548.091 2.316.022 4.64.022 6.959v32.396c0 4.617-1.91 7.508-6.217 9.18-7.152 2.776-14.447 5.099-21.913 6.901-8.99 2.172-18.082 3.348-27.323 2.715-10.777-.738-20.479-4.16-28.149-12.155-5.874-6.121-9.208-13.571-11.084-21.729-1.078-4.685-1.539-9.441-1.529-14.266.046-23.598.026-47.194.018-70.792-.002-6.479-.043-12.957-.071-19.435-.01-2.29-.017-2.298-2.393-2.303-3.839-.007-7.682-.084-11.518.029-2.328.068-4.277-.383-5.572-2.494-.106-.173-.398-.233-.604-.346v-45.602z" fill="#d84759"/><path d="m188.161 0c4.22.528 8.272 1.563 12.077 3.564 11.113 5.844 17.558 18.132 16.395 30.657-1.448 15.596-15.105 29.037-32.729 28.094-17.141-.917-28.681-14.862-29.471-29.28-.836-15.238 9.33-28.896 24.068-32.327.978-.228 2.095.062 2.94-.708h6.72z" fill="#d8485a"/><path d="m317.083 74.01c3.69-1.357 7.203-2.644 10.853-3.487 20.368-4.706 39.551-1.717 57.351 9.216 17.688 10.864 29.574 26.574 37.117 45.721 3.983 10.108 6.2 20.622 6.897 31.464 1.342 20.851-2.648 40.569-12.809 58.881-8.914 16.065-21.302 28.659-37.92 36.854-12.342 6.086-25.404 8.436-39.072 7.411-6.881-.516-13.566-2.074-20.037-4.512-.722-.271-1.404-.789-2.244-.626-.506.363-.334.885-.334 1.326-.014 8.639-.016 17.276-.006 25.914.002 1.954.028 1.975 1.961 1.983 3.519.017 7.039-.008 10.558.009 3.3.016 4.827 1.448 5.074 4.734.042.557.015 1.119.015 1.679 0 12.718-.001 25.435.003 38.151 0 1.121.01 2.237-.31 3.329-.545 1.861-1.888 2.968-3.797 3.083-.478.029-.959.007-1.439.007-28.953 0-57.907.001-86.86-.002-.719 0-1.455.061-2.153-.068-1.674-.311-3.035-1.901-3.253-3.726-.066-.553-.035-1.118-.035-1.678-.002-13.356-.003-26.714.002-40.07.001-.953-.094-1.917.341-2.829.845-1.771 2.22-2.632 4.19-2.62 3.759.022 7.518.016 11.277.002 1.985-.007 1.986-.024 2.021-1.913.007-.399.001-.8.001-1.199 0-52.868.003-105.736-.006-158.604-.001-3.582.482-3.179-3.179-3.2-3.199-.019-6.399.027-9.598-.013-3.587-.044-5.043-1.541-5.046-5.175-.011-13.517-.011-27.034 0-40.55.003-3.748 1.51-5.33 5.189-5.333 23.275-.019 46.549-.019 69.824 0 3.653.005 4.788 1.232 5.424 5.841zm59.739 90.169c-.021-8.239-1.26-15.685-3.907-22.781-2.346-6.289-5.65-11.978-10.606-16.616-4.109-3.845-8.893-6.285-14.541-6.563-5.228-.257-9.869 1.603-14.009 4.739-5.029 3.811-8.625 8.785-11.144 14.478-7.364 16.646-7.682 33.574-1.499 50.625 2.262 6.237 5.732 11.767 10.702 16.261 8.65 7.822 19.684 8.163 28.784.894 4.134-3.302 7.178-7.481 9.589-12.137 4.694-9.06 6.592-18.77 6.631-28.9zm-222.497-26.835c-.886-.34-1.612.068-2.366.293-3.06.913-6.114 1.846-9.186 2.719-2.521.716-4.661-.659-5.076-3.242-.126-.784-.125-1.593-.125-2.39-.007-12.479-.006-24.958-.002-37.437 0-.719.013-1.44.075-2.156.284-3.251 1.45-4.731 4.576-5.672 11.924-3.591 23.854-7.158 35.782-10.737 10.782-3.235 21.563-6.474 32.345-9.707.611-.183 1.224-.401 1.852-.483 2.247-.294 4.131 1.14 4.416 3.385.11.867.058 1.756.058 2.636.002 43.916 0 87.832.006 131.748 0 3.457-.295 2.951 2.898 2.976 3.359.025 6.72-.022 10.079.015 2.985.033 4.573 1.621 4.578 4.63.019 13.919.02 27.838 0 41.756-.004 3.195-1.554 4.558-5.063 4.559-25.277.004-50.555.002-75.833.002-3.92 0-7.839.019-11.759-.007-3.161-.021-4.69-1.536-4.694-4.723-.019-13.839-.02-27.678.001-41.517.005-3.105 1.631-4.679 4.773-4.703 3.36-.026 6.72.005 10.079-.01 3.057-.013 2.741.321 2.748-2.639.014-5.76.004-11.519.004-17.278 0-16.479.002-32.957-.005-49.436-.004-.867.115-1.751-.161-2.582z" fill="#d84759"/><path d="m822.01 291.137c3.731-4.199 7.707-7.141 13.269-6.765 5.153.348 9.708 1.923 12.644 6.539 1.042-.377 1.522-1.156 2.14-1.749 6.37-6.127 15.79-5.729 21.668-2.641 3.534 1.858 5.53 4.979 6.719 8.683 1.236 3.854 1.466 7.837 1.467 11.846.001 3.84-.017 7.681.009 11.52.012 1.715.051 1.715 1.741 1.786 2.977.124 2.977.124 2.977 3.173.001 2.64.014 5.28-.004 7.92-.014 1.903-.032 1.95-1.783 1.955-6.96.02-13.92.022-20.88-.004-1.684-.006-1.731-.067-1.731-1.793-.003-8.399.031-16.799.027-25.198-.001-1.749.082-3.507-.395-5.231-.443-1.604-1.297-2.754-3.038-2.975-1.71-.217-3.524.844-4.336 2.434-.487.955-.649 1.99-.657 3.024-.039 5.119-.01 10.239-.047 15.358-.008 1.105.352 1.635 1.521 1.56.956-.062 1.92.015 2.879-.01.795-.021 1.162.291 1.157 1.12-.018 3.52-.013 7.039.002 10.56.003.802-.352 1.168-1.148 1.158-.88-.012-1.76.005-2.64.006-6.319 0-12.64.011-18.959-.007-1.835-.006-1.871-.044-1.875-1.863-.016-7.68-.025-15.359.004-23.039.01-2.325-.123-4.644-.48-6.928-.451-2.88-2.993-4.178-5.499-2.938-1.441.713-2.011 2.024-2.118 3.526-.098 1.354-.067 2.718-.069 4.077-.007 4.239-.017 8.479.005 12.72.009 1.699.046 1.681 1.715 1.76 1.188.057 2.653-.496 3.494.263.966.873.372 2.427.406 3.68.062 2.238.035 4.479.012 6.72-.02 1.983-.039 2.019-2.001 2.023-6.72.018-13.44.007-20.16.007-1.6 0-3.2-.027-4.8.006-.993.021-1.465-.35-1.455-1.395.029-3.279.038-6.561-.004-9.84-.015-1.178.509-1.579 1.605-1.475.396.038.801-.02 1.199.005.92.059 1.27-.353 1.267-1.273-.021-6.561-.021-13.12 0-19.68.003-.924-.351-1.332-1.27-1.271-.318.021-.64.01-.959-.003-1.751-.07-1.802-.072-1.819-1.709-.036-3.199.015-6.399-.022-9.6-.013-1.139.436-1.531 1.57-1.521 5.04.043 10.08.041 15.12-.001 1.038-.009 1.609.31 1.929 1.334.399 1.289.967 2.527 1.603 4.146zm-50.081-6.503c4.882-.165 9.529.805 13.86 3.088 7.266 3.829 11.206 9.983 12.411 17.995.564 3.753.454 7.5-.507 11.176-1.902 7.287-6.343 12.521-13.299 15.335-9.175 3.712-18.288 3.34-26.994-1.519-6.144-3.429-9.838-8.775-11.076-15.71-1.158-6.483-.608-12.774 2.931-18.499 4.534-7.336 11.405-10.912 19.8-11.853.946-.105 1.916-.013 2.874-.013zm-6.391 24.775c-.107 3.785.474 7.305 2.617 10.359 2.446 3.488 6.324 3.311 8.541-.314.371-.606.68-1.269.908-1.941 1.659-4.902 1.658-9.853.27-14.805-.41-1.46-1.109-2.816-2.18-3.938-2.351-2.46-5.304-2.33-7.375.345a10.73 10.73 0 0 0 -1.417 2.479 17.978 17.978 0 0 0 -1.364 7.815zm-35.882-19.9c.584-.451.601-1.232.859-1.868.818-2.012.785-2.032 2.81-2.038 2.559-.008 5.117.032 7.674-.018 1.063-.02 1.596.204 1.586 1.44-.052 6.235-.043 12.472-.006 18.707.007 1.103-.301 1.579-1.483 1.563a441.113 441.113 0 0 0 -11.271-.004c-1.031.011-1.438-.424-1.492-1.392a15.537 15.537 0 0 0 -.914-4.442c-1.956-5.411-6.595-4.962-9.705-2.203a4.82 4.82 0 0 0 -.93 1.094c-2.861 4.745-3.563 9.704-1.201 14.846 1.626 3.538 4.556 5.237 8.396 5.365 3.974.132 7.304-1.371 10.151-4.092 1.373-1.31 1.423-1.286 2.68.149 1.895 2.164 3.764 4.352 5.647 6.524 1.602 1.848 1.626 1.868-.294 3.557-4.105 3.609-8.873 5.972-14.185 7.147-6.294 1.394-12.559 1.24-18.607-1.169-8.834-3.52-13.651-10.162-14.835-19.532-.559-4.418-.324-8.794 1.039-13.034 2.766-8.596 8.829-13.423 17.606-14.972 2.042-.359 4.108-.59 6.202-.336 3.434.416 6.469 1.683 9.041 4.019.336.306.596.774 1.232.689zm-47.736 44.168c-6.156.305-10.938-5.175-10.884-10.395.062-5.965 4.89-10.776 10.845-10.808 6.384-.033 10.988 5.186 11.006 10.937.022 7.141-5.384 10.556-10.967 10.266z" fill="#d8485a"/></g></svg>