<?xml version="1.0" encoding="UTF-8" standalone="no"?>
<svg
   width="77.202003"
   height="29.151134"
   fill-rule="evenodd"
   version="1.1"
   id="svg10"
   sodipodi:docname="tipeee.svg"
   inkscape:version="1.1.1 (3bf5ae0d25, 2021-09-20)"
   xmlns:inkscape="http://www.inkscape.org/namespaces/inkscape"
   xmlns:sodipodi="http://sodipodi.sourceforge.net/DTD/sodipodi-0.dtd"
   xmlns="http://www.w3.org/2000/svg"
   xmlns:svg="http://www.w3.org/2000/svg">
  <defs
     id="defs14" />
  <sodipodi:namedview
     id="namedview12"
     pagecolor="#ffffff"
     bordercolor="#666666"
     borderopacity="1.0"
     inkscape:pageshadow="2"
     inkscape:pageopacity="0.0"
     inkscape:pagecheckerboard="0"
     showgrid="false"
     fit-margin-top="0"
     fit-margin-left="0"
     fit-margin-right="0"
     fit-margin-bottom="0"
     inkscape:zoom="4.4541667"
     inkscape:cx="23.461179"
     inkscape:cy="6.6230122"
     inkscape:window-width="2560"
     inkscape:window-height="1377"
     inkscape:window-x="-8"
     inkscape:window-y="-8"
     inkscape:window-maximized="1"
     inkscape:current-layer="svg10" />
  <path
     d="m 77.202,11.696 c -0.07,0.1 -0.045,0.24 -0.08,0.36 -0.174,0.59 -0.478,1.108 -0.843,1.595 a 13.9,13.9 0 0 1 -2.174,2.27 34.61,34.61 0 0 1 -6.961,4.594 c -1.533,0.762 -3.12,1.392 -4.772,1.842 -0.86,0.234 -1.736,0.392 -2.634,0.347 -0.984,-0.05 -1.884,-0.33 -2.632,-1.006 -0.202,-0.183 -0.377,-0.4 -0.533,-0.612 -0.1,-0.13 -0.064,-0.148 -0.24,-0.05 -0.704,0.394 -1.43,0.74 -2.188,1.02 -0.812,0.298 -1.644,0.5 -2.505,0.6 -0.9,0.094 -1.763,0.032 -2.595,-0.33 a 3.47,3.47 0 0 1 -1.527,-1.283 c -0.104,-0.155 -0.09,-0.138 -0.238,-0.054 -0.86,0.488 -1.748,0.912 -2.682,1.24 -0.746,0.262 -1.513,0.432 -2.303,0.432 -1.6,10e-4 -2.806,-0.68 -3.544,-2.128 l -0.07,-0.127 c -0.003,-0.005 -0.01,-0.008 -0.02,-0.015 l -0.83,0.38 c -0.234,0.105 -0.48,0.146 -0.732,0.093 -0.5,-0.106 -0.804,-0.6 -0.695,-1.138 0.063,-0.306 0.225,-0.526 0.524,-0.65 l 1.15,-0.537 c 0.088,-0.045 0.118,-0.1 0.1,-0.195 l -0.03,-0.603 c -0.012,-1.364 0.21,-2.697 0.543,-4.015 0.307,-1.216 0.72,-2.394 1.31,-3.505 0.67,-1.263 1.53,-2.367 2.686,-3.225 0.616,-0.457 1.288,-0.793 2.042,-0.95 0.538,-0.113 1.075,-0.134 1.608,0.02 0.646,0.187 1.103,0.6 1.4,1.195 0.317,0.64 0.416,1.318 0.342,2.027 -0.1,0.97 -0.455,1.86 -0.9,2.713 -0.837,1.605 -1.863,3.08 -3.11,4.394 -1.053,1.1 -2.222,2.08 -3.507,2.908 l -0.105,0.068 c -0.057,0.033 -0.07,0.072 -0.042,0.138 0.304,0.76 0.805,1.195 1.683,1.238 0.643,0.032 1.256,-0.122 1.853,-0.338 0.943,-0.34 1.832,-0.8 2.702,-1.295 0.1,-0.063 0.137,-0.134 0.122,-0.25 -0.064,-0.49 -0.065,-0.986 -0.032,-1.478 a 14.77,14.77 0 0 1 0.488,-2.892 c 0.444,-1.63 1.077,-3.184 1.947,-4.635 0.63,-1.052 1.413,-1.98 2.37,-2.75 0.734,-0.59 1.564,-0.97 2.494,-1.137 1.357,-0.242 2.547,0.615 2.914,1.78 0.242,0.767 0.21,1.535 0.02,2.303 -0.145,0.583 -0.4,1.125 -0.662,1.662 -0.782,1.597 -1.805,3.03 -2.974,4.365 a 22.79,22.79 0 0 1 -4.129,3.683 l -0.086,0.06 c -0.063,0.037 -0.06,0.08 -0.025,0.138 0.133,0.217 0.3,0.4 0.523,0.528 0.332,0.192 0.692,0.272 1.075,0.285 0.746,0.025 1.465,-0.116 2.176,-0.32 0.995,-0.286 1.9,-0.75 2.806,-1.26 0.092,-0.052 0.128,-0.113 0.11,-0.218 -0.06,-0.323 -0.062,-0.65 -0.062,-0.976 a 10.02,10.02 0 0 1 0.07,-1.226 c 0.146,-1.204 0.416,-2.38 0.82,-3.524 0.5,-1.42 1.118,-2.786 1.977,-4.03 0.715,-1.036 1.574,-1.925 2.67,-2.564 0.532,-0.3 1.09,-0.55 1.7,-0.656 0.732,-0.126 1.416,-0.022 2,0.47 a 2.92,2.92 0 0 1 0.955,1.556 c 0.177,0.696 0.135,1.392 -0.015,2.085 -0.197,0.912 -0.57,1.755 -1.023,2.565 -0.7,1.25 -1.56,2.383 -2.52,3.443 -1.26,1.39 -2.637,2.65 -4.168,3.738 -0.034,0.024 -0.07,0.045 -0.092,0.098 0.21,0.36 0.53,0.587 0.927,0.717 0.372,0.122 0.755,0.11 1.136,0.094 0.84,-0.03 1.646,-0.25 2.445,-0.484 1.09,-0.32 2.13,-0.76 3.15,-1.253 a 35.37,35.37 0 0 0 5.868,-3.57 c 0.976,-0.732 1.884,-1.54 2.694,-2.453 a 5.5,5.5 0 0 0 0.829,-1.196 c 0.084,-0.17 0.137,-0.347 0.156,-0.537 0.044,-0.434 0.376,-0.773 0.813,-0.824 0.2,-0.023 0.4,-0.02 0.594,0.063 a 0.83,0.83 0 0 1 0.473,0.519 v 0.668 z m -19.53,6.127 c 0.093,-0.015 0.132,-0.067 0.18,-0.104 0.927,-0.725 1.79,-1.518 2.607,-2.365 1.163,-1.207 2.18,-2.522 2.966,-4.007 0.376,-0.71 0.66,-1.457 0.696,-2.272 0.013,-0.3 -0.01,-0.583 -0.15,-0.85 -0.114,-0.217 -0.3,-0.323 -0.536,-0.334 -0.3,-0.014 -0.588,0.09 -0.86,0.218 -0.585,0.28 -1.07,0.694 -1.522,1.15 -0.788,0.795 -1.353,1.74 -1.84,2.738 -0.63,1.292 -1.076,2.647 -1.36,4.056 -0.116,0.58 -0.187,1.163 -0.184,1.77 z m -9.007,-0.07 c 0.074,-0.006 0.102,-0.04 0.134,-0.064 a 21.61,21.61 0 0 0 2.315,-2.036 c 1.3,-1.322 2.396,-2.794 3.28,-4.423 0.255,-0.47 0.502,-0.945 0.667,-1.457 0.127,-0.394 0.2,-0.795 0.153,-1.2 -0.058,-0.514 -0.377,-0.764 -0.89,-0.7 -0.027,0.003 -0.054,0.012 -0.08,0.017 -0.34,0.064 -0.65,0.198 -0.944,0.373 -0.82,0.49 -1.466,1.166 -2.024,1.928 a 11.66,11.66 0 0 0 -1.154,1.978 c -0.625,1.34 -1.062,2.744 -1.327,4.2 a 8.51,8.51 0 0 0 -0.13,1.394 z m -8.556,-0.488 c 0.066,0.003 0.092,-0.02 0.12,-0.04 0.885,-0.62 1.692,-1.332 2.44,-2.113 1.005,-1.051 1.833,-2.231 2.553,-3.491 0.4,-0.702 0.735,-1.435 0.907,-2.23 0.066,-0.307 0.092,-0.618 0.025,-0.93 -0.095,-0.442 -0.333,-0.632 -0.78,-0.604 -0.333,0.02 -0.635,0.15 -0.922,0.306 -0.92,0.498 -1.62,1.237 -2.216,2.078 -0.422,0.598 -0.735,1.26 -1.006,1.94 -0.462,1.16 -0.8,2.357 -1,3.588 a 10.69,10.69 0 0 0 -0.132,1.5 z"
     fill="#ffffff"
     id="path2" />
  <path
     d="M 0,6.188 C 0.013,6.186 0.034,6.188 0.04,6.18 0.16,5.976 0.35,5.954 0.562,5.96 H 1.584 C 1.731,5.959 1.742,5.954 1.734,5.805 L 1.714,4.221 1.712,3.261 a 0.77,0.77 0 0 1 0.624,-0.8 L 5.916,1.354 A 1.95,1.95 0 0 1 6.219,1.28 C 6.602,1.214 6.876,1.417 6.921,1.804 6.933,1.907 6.926,2.012 6.926,2.116 v 3.65 c 0,0.19 0.002,0.193 0.198,0.193 h 2.504 c 0.063,0 0.126,-0.003 0.187,0.005 0.163,0.02 0.276,0.14 0.296,0.302 0.005,0.04 0.003,0.083 0.003,0.125 v 3.568 c 0,0.303 -0.128,0.43 -0.43,0.433 H 9.559 c -0.793,0 -1.586,-10e-4 -2.378,0 -0.29,0 -0.253,-0.028 -0.253,0.258 v 5.946 c 0,0.14 -0.001,0.277 0.03,0.415 0.08,0.367 0.3,0.576 0.67,0.65 0.344,0.07 0.678,0.01 1.01,-0.064 a 5.1,5.1 0 0 0 0.928,-0.306 l 0.076,-0.034 c 0.292,-0.113 0.46,-0.006 0.472,0.308 l 0.002,0.605 v 2.817 c 0,0.4 -0.166,0.653 -0.54,0.798 -0.622,0.24 -1.256,0.443 -1.905,0.6 -0.782,0.19 -1.572,0.29 -2.375,0.236 -0.937,-0.064 -1.78,-0.362 -2.447,-1.057 -0.51,-0.532 -0.8,-1.18 -0.964,-1.89 -0.094,-0.407 -0.134,-0.82 -0.133,-1.24 L 1.747,10.59 C 1.746,10.39 1.746,10.39 1.539,10.39 1.205,10.389 0.871,10.383 0.539,10.393 0.337,10.399 0.167,10.36 0.055,10.176 0.045,10.161 0.02,10.156 0.002,10.146 V 6.181 Z"
     fill="#ffffff"
     id="path4" />
  <path
     d="m 16.359,0.011 c 0.367,0.046 0.72,0.136 1.05,0.3 0.966,0.508 1.526,1.576 1.425,2.665 C 18.708,4.332 17.521,5.5 15.989,5.418 14.489,5.338 13.495,4.126 13.427,2.872 13.354,1.547 14.237,0.36 15.519,0.062 15.604,0.042 15.701,0.067 15.775,0 h 0.584 z"
     fill="#ffffff"
     id="path6" />
  <path
     d="m 27.568,6.446 0.944,-0.303 c 1.77,-0.4 3.44,-0.15 4.986,0.8 1.538,0.945 2.57,2.3 3.227,3.975 0.346,0.88 0.54,1.793 0.6,2.735 0.117,1.813 -0.23,3.527 -1.114,5.12 -0.775,1.397 -1.852,2.492 -3.297,3.204 -1.073,0.53 -2.2,0.733 -3.397,0.644 -0.598,-0.045 -1.18,-0.18 -1.742,-0.392 -0.063,-0.024 -0.122,-0.07 -0.195,-0.054 -0.044,0.032 -0.03,0.077 -0.03,0.115 v 2.253 c 0,0.17 0.002,0.172 0.17,0.172 l 0.918,0.001 a 0.38,0.38 0 0 1 0.441,0.412 c 0.004,0.048 10e-4,0.097 10e-4,0.146 v 3.307 c 0,0.097 0.001,0.194 -0.027,0.3 -0.047,0.162 -0.164,0.258 -0.33,0.268 -0.042,0.003 -0.083,10e-4 -0.125,10e-4 h -7.552 c -0.063,0 -0.126,0.005 -0.187,-0.006 -0.146,-0.027 -0.264,-0.165 -0.283,-0.324 -0.006,-0.048 -0.003,-0.097 -0.003,-0.146 v -3.493 c 0,-0.083 -0.008,-0.167 0.03,-0.246 a 0.37,0.37 0 0 1 0.364,-0.228 h 0.98 c 0.173,-0.001 0.173,-0.002 0.176,-0.166 V 10.657 c 0,-0.3 0.042,-0.276 -0.276,-0.278 -0.278,-0.002 -0.556,0.002 -0.834,-10e-4 -0.312,-0.004 -0.438,-0.134 -0.44,-0.45 V 6.401 c 0,-0.326 0.13,-0.463 0.45,-0.464 h 6.07 c 0.318,0 0.416,0.107 0.472,0.508 z m 5.194,7.84 c -0.002,-0.716 -0.1,-1.364 -0.34,-1.98 -0.204,-0.547 -0.5,-1.04 -0.922,-1.445 -0.357,-0.334 -0.773,-0.546 -1.264,-0.57 -0.455,-0.022 -0.858,0.14 -1.218,0.412 -0.437,0.33 -0.75,0.764 -0.97,1.26 -0.64,1.447 -0.668,2.92 -0.13,4.4 a 3.47,3.47 0 0 0 0.93,1.414 c 0.752,0.68 1.7,0.7 2.502,0.078 0.36,-0.287 0.624,-0.65 0.834,-1.055 0.408,-0.788 0.573,-1.632 0.576,-2.513 z M 13.418,11.951 c -0.077,-0.03 -0.14,0.006 -0.206,0.025 l -0.8,0.236 A 0.33,0.33 0 0 1 11.971,11.93 c -0.01,-0.068 -0.01,-0.138 -0.01,-0.208 V 8.481 l 0.007,-0.187 c 0.025,-0.283 0.126,-0.4 0.398,-0.493 l 5.923,-1.777 c 0.053,-0.016 0.106,-0.035 0.16,-0.042 a 0.33,0.33 0 0 1 0.384,0.294 c 0.01,0.075 0.005,0.153 0.005,0.23 l 10e-4,11.454 c 0,0.3 -0.026,0.257 0.252,0.26 h 0.876 c 0.26,0.003 0.398,0.14 0.398,0.403 v 3.63 c 0,0.278 -0.135,0.396 -0.44,0.396 h -6.593 c -0.34,0 -0.682,0.002 -1.022,-0.001 -0.275,-0.002 -0.408,-0.134 -0.408,-0.4 v -3.6 c 0,-0.27 0.142,-0.407 0.415,-0.4 l 0.876,-0.001 c 0.266,-0.001 0.238,0.028 0.24,-0.23 v -5.8 c 0,-0.075 0.01,-0.152 -0.014,-0.224 z"
     fill="#ffffff"
     id="path8" />
</svg>
