<?xml version="1.0" encoding="UTF-8" standalone="no"?>
<!DOCTYPE svg PUBLIC "-//W3C//DTD SVG 1.1//EN" "http://www.w3.org/Graphics/SVG/1.1/DTD/svg11.dtd">
<svg width="100%" height="100%" viewBox="0 0 40 40" version="1.1" xmlns="http://www.w3.org/2000/svg" xmlns:xlink="http://www.w3.org/1999/xlink" xml:space="preserve" xmlns:serif="http://www.serif.com/" style="fill-rule:evenodd;clip-rule:evenodd;stroke-linejoin:round;stroke-miterlimit:2;">
    <g transform="matrix(1.41203,6.04464e-17,-6.05026e-17,1.41072,-236.52,-1168.65)">
        <g transform="matrix(-1,-1.22465e-16,1.22465e-16,-1,363.205,1698.31)">
            <path d="M176.545,849.111L186.711,849.186L185.169,844.323L178.796,844.252L176.545,849.111Z" style="fill:white;"/>
        </g>
        <g transform="matrix(1,0,0,1,-0.00441109,-0.343307)">
            <circle cx="181.581" cy="849.469" r="1.241"/>
        </g>
        <g transform="matrix(0.771878,-3.30733e-17,3.30733e-17,0.771878,174.617,828.402)">
            <path d="M7.062,18.654C5.679,19.148 3.482,20.406 2.439,21.547C1.578,22.489 0.809,24.474 0.575,26.585C0.34,28.713 0.661,30.907 1.501,32.2C3.548,35.347 6.032,36.447 9.875,36.201C15.247,35.857 19.473,30.097 16.817,23.837C15.749,21.318 13.596,19.892 11.251,18.629C11.243,18.473 11.154,16.359 11.274,16.189C11.384,16.033 11.606,15.99 11.904,15.93C15.932,15.127 17.774,11.716 17.768,8.339C17.765,6.112 16.919,3.954 15.513,2.624C13.263,0.496 10.9,0.344 6.347,0.586C5.19,0.647 4.3,1.636 4.362,2.794C4.423,3.951 5.412,4.841 6.57,4.78C7.976,4.705 9.118,4.641 10.093,4.703C11.119,4.768 11.897,4.985 12.627,5.675C13.275,6.288 13.567,7.319 13.568,8.346C13.571,9.847 12.873,11.454 11.083,11.812C9.761,12.075 8.882,12.618 8.271,13.249C7.332,14.22 6.98,15.477 6.96,16.768C6.951,17.339 7.016,18.163 7.062,18.654ZM9.017,23.125C11.665,23.125 13.814,25.275 13.814,27.922C13.814,30.569 11.665,32.718 9.017,32.718C6.37,32.718 4.221,30.569 4.221,27.922C4.221,25.275 6.37,23.125 9.017,23.125Z" style="stroke:white;stroke-width:1px;"/>
        </g>
        <path d="M176.545,849.111L186.711,849.186L182.595,844.688L177.696,845.935L176.545,849.111Z"/>
    </g>
</svg>
