<?xml version="1.0" encoding="UTF-8" standalone="no"?>
<!DOCTYPE svg PUBLIC "-//W3C//DTD SVG 1.1//EN" "http://www.w3.org/Graphics/SVG/1.1/DTD/svg11.dtd">
<svg width="100%" height="100%" viewBox="0 0 278 275" version="1.1" xmlns="http://www.w3.org/2000/svg" xmlns:xlink="http://www.w3.org/1999/xlink" xml:space="preserve" xmlns:serif="http://www.serif.com/" style="fill-rule:evenodd;clip-rule:evenodd;stroke-linecap:round;stroke-linejoin:round;stroke-miterlimit:1.5;">
    <g transform="matrix(0.75,0,0,0.75,0,2.25)">
        <g transform="matrix(1,0,0,1,-65,-50.457)">
            <g id="Superball">
                <g transform="matrix(2.64055,0,0,1.76388,-33.0138,42.8944)">
                    <path d="M107.76,65.74C115.171,65.74 170.03,87.561 173.736,93.98C177.441,100.398 168.181,175.537 164.475,181.955C160.769,188.374 115.27,206.286 107.859,206.286C100.448,206.286 55.689,188.374 51.983,181.955C48.277,175.537 36.786,100.398 40.491,93.98C44.197,87.561 100.349,65.74 107.76,65.74Z" style="fill:rgb(28,31,45);stroke:rgb(28,31,45);stroke-width:5.56px;"/>
                </g>
                <g transform="matrix(2.48802,0,0,2.32444,-17.6664,-88.9852)">
                    <path d="M107.582,65.883C114.993,65.883 167.253,92.908 170.958,99.326C174.664,105.744 168.181,175.537 164.475,181.955C160.769,188.374 114.993,206.43 107.582,206.43C100.171,206.43 55.689,188.374 51.983,181.955C48.277,175.537 40.357,105.744 44.063,99.326C47.768,92.908 100.171,65.883 107.582,65.883Z" style="fill:rgb(0,134,255);stroke:black;stroke-width:5.18px;"/>
                </g>
                <g transform="matrix(2.1821,0,0,2.01824,15.2453,-47.1554)">
                    <path d="M107.582,65.815C114.993,65.815 167.253,92.908 170.958,99.326C174.664,105.744 168.181,175.537 164.475,181.955C160.769,188.374 114.993,206.361 107.582,206.361C100.171,206.361 55.689,188.374 51.983,181.955C48.277,175.537 40.357,105.744 44.063,99.326C47.768,92.908 100.171,65.815 107.582,65.815Z" style="fill:rgb(0,134,255);stroke:white;stroke-width:5.94px;"/>
                </g>
                <g transform="matrix(1.90708,0,0,1.76388,44.832,-12.4074)">
                    <path d="M107.582,65.74C114.993,65.74 167.253,92.908 170.958,99.326C174.664,105.744 168.181,175.537 164.475,181.955C160.769,188.374 114.993,206.286 107.582,206.286C100.171,206.286 55.689,188.374 51.983,181.955C48.277,175.537 40.357,105.744 44.063,99.326C47.768,92.908 100.171,65.74 107.582,65.74Z" style="fill:rgb(80,81,96);"/>
                    <clipPath id="_clip1">
                        <path d="M107.582,65.74C114.993,65.74 167.253,92.908 170.958,99.326C174.664,105.744 168.181,175.537 164.475,181.955C160.769,188.374 114.993,206.286 107.582,206.286C100.171,206.286 55.689,188.374 51.983,181.955C48.277,175.537 40.357,105.744 44.063,99.326C47.768,92.908 100.171,65.74 107.582,65.74Z"/>
                    </clipPath>
                    <g clip-path="url(#_clip1)">
                        <g transform="matrix(0.549433,0,0,0.594042,-3.40351,26.1439)">
                            <rect x="202" y="38.686" width="162.768" height="324.407" style="fill:rgb(58,60,73);"/>
                        </g>
                    </g>
                </g>
                <g transform="matrix(1.63385,0,0,1.40629,74.2273,36.4415)">
                    <path d="M107.582,65.588C114.993,65.588 165.329,92.908 169.034,99.326C172.74,105.744 166.257,175.537 162.551,181.955C158.845,188.374 114.993,206.135 107.582,206.135C100.171,206.135 56.33,188.374 52.624,181.955C48.919,175.537 40.998,105.744 44.704,99.326C48.41,92.908 100.171,65.588 107.582,65.588Z" style="fill:rgb(58,60,73);stroke:rgb(245,186,28);stroke-width:8.19px;"/>
                </g>
                <g transform="matrix(0.806356,0,0,0.806356,97.0039,71.9786)">
                    <path d="M143.032,119.02C126.012,86.254 126.694,55.423 151.435,29.912C173.732,6.922 221.119,-5.854 276.116,23.476C323.596,48.798 340.46,37.155 345.397,31.055C351.53,39.356 359.411,92.891 323.771,102.099C283.488,112.507 290.748,154.7 303.486,155.736C311.958,156.425 320.789,151.611 324.224,146.275C326.5,159.028 339.381,211.405 254.137,240.845C156.258,250.927 192.234,182.765 192.234,182.765L154.325,139.487C154.325,139.487 160.053,151.787 143.032,119.02Z" style="fill:rgb(245,137,28);"/>
                    <g>
                        <clipPath id="_clip2">
                            <path d="M143.032,119.02C126.012,86.254 126.694,55.423 151.435,29.912C173.732,6.922 221.119,-5.854 276.116,23.476C323.596,48.798 340.46,37.155 345.397,31.055C351.53,39.356 359.411,92.891 323.771,102.099C283.488,112.507 290.748,154.7 303.486,155.736C311.958,156.425 320.789,151.611 324.224,146.275C326.5,159.028 339.381,211.405 254.137,240.845C156.258,250.927 192.234,182.765 192.234,182.765L154.325,139.487C154.325,139.487 160.053,151.787 143.032,119.02Z"/>
                        </clipPath>
                        <g clip-path="url(#_clip2)">
                            <path d="M143.032,141.696C143.032,141.696 165.209,117.228 167.498,114.819C169.787,112.41 171.636,67.545 187.537,48.987C192.844,42.792 208.192,35.531 231.249,35.531C268.935,35.531 282.867,59.62 315.734,55.147C348.601,50.673 343.095,27.616 343.095,17.636C343.095,7.656 276.597,-16.07 276.597,-16.07C276.597,-16.07 161.494,-34.554 146.791,-28.673C132.088,-22.792 96.801,-9.769 94.7,-5.568C92.6,-1.367 91.34,42.322 90.5,57.865C89.659,73.408 103.113,110.795 102.688,116.677C102.262,122.558 143.032,141.696 143.032,141.696Z" style="fill:rgb(245,186,28);"/>
                        </g>
                    </g>
                    <path d="M143.032,119.02C126.012,86.254 126.694,55.423 151.435,29.912C173.732,6.922 221.119,-5.854 276.116,23.476C323.596,48.798 340.46,37.155 345.397,31.055C351.53,39.356 359.411,92.891 323.771,102.099C283.488,112.507 290.748,154.7 303.486,155.736C311.958,156.425 320.789,151.611 324.224,146.275C326.5,159.028 339.381,211.405 254.137,240.845C156.258,250.927 192.234,182.765 192.234,182.765L154.325,139.487C154.325,139.487 160.053,151.787 143.032,119.02Z" style="fill:none;stroke:black;stroke-width:15.54px;"/>
                    <g transform="matrix(0.579475,0,0,1,132.294,-36.426)">
                        <path d="M252.325,251.821C251.973,276.785 269.554,294.366 293.112,306.321C316.669,318.275 328.992,318.508 328.992,318.508L329.39,334.227L165.567,334.227" style="fill:rgb(255,242,196);stroke:black;stroke-width:19.02px;"/>
                    </g>
                    <g transform="matrix(0.825128,0,0,1.11203,45.5257,-51.2808)">
                        <rect x="152.138" y="313.914" width="184.345" height="18.13" style="fill:rgb(255,242,196);stroke:black;stroke-width:15.87px;"/>
                    </g>
                </g>
                <g transform="matrix(1.12538,0,0,1.12538,21.1638,16.8525)">
                    <circle cx="203.341" cy="220.316" r="74.554" style="fill:rgb(0,134,255);"/>
                    <clipPath id="_clip3">
                        <circle cx="203.341" cy="220.316" r="74.554"/>
                    </clipPath>
                    <g clip-path="url(#_clip3)">
                        <g transform="matrix(0.894889,0,0,0.65896,22.5732,101.958)">
                            <circle cx="202" cy="223.8" r="77.077" style="fill:white;"/>
                        </g>
                        <g transform="matrix(0.888587,0,0,0.888587,38.9523,29.8605)">
                            <path d="M235.839,198.362L235.839,211.173C235.839,236.057 213.059,256.259 185,256.259C156.941,256.259 134.161,236.057 134.161,211.173L134.161,202.036C138.565,200.323 143.423,199.183 147.288,197.975C148.629,197.556 149.979,197.185 151.337,196.853L151.337,204.167C151.337,222.908 166.421,238.123 185,238.123C203.579,238.123 218.663,222.908 218.663,204.167L218.663,194.52C218.82,194.54 218.976,194.56 219.132,194.58C223.062,195.071 226.757,196.202 230.57,197.082C232.305,197.482 234.087,197.873 235.839,198.362Z" style="fill:rgb(216,203,216);"/>
                        </g>
                        <g transform="matrix(0.888587,0,0,0.888587,38.9523,29.8605)">
                            <path d="M134.161,202.036L134.161,109.327L235.839,109.327L235.839,198.362C234.087,197.873 232.305,197.482 230.57,197.082C226.757,196.202 223.062,195.071 219.132,194.58C218.976,194.56 218.82,194.54 218.663,194.52L218.663,127.464L151.337,127.464L151.337,196.853C149.979,197.185 148.629,197.556 147.288,197.975C143.423,199.183 138.565,200.323 134.161,202.036Z" style="fill:rgb(0,107,216);"/>
                        </g>
                        <g transform="matrix(0.894889,0,0,0.65896,22.5732,101.958)">
                            <path d="M202,135.909C249.494,135.909 287.04,176.306 287.04,223.8C287.04,271.294 249.494,311.692 202,311.692C154.506,311.692 116.96,271.294 116.96,223.8C116.96,176.306 154.506,135.909 202,135.909ZM202,157.538C178.823,157.538 158.186,168.547 145.446,185.923C137.643,196.565 132.887,209.605 132.887,223.8C132.887,237.996 137.643,251.035 145.446,261.678C158.186,279.053 178.823,290.062 202,290.062C225.177,290.062 245.814,279.053 258.554,261.678C266.357,251.035 271.113,237.996 271.113,223.8C271.113,209.605 266.357,196.565 258.554,185.923C245.814,168.547 225.177,157.538 202,157.538Z"/>
                        </g>
                        <g transform="matrix(0.947267,0,0,0.947267,11.4289,27.1795)">
                            <circle cx="202.595" cy="183.368" r="18.084" style="fill:white;stroke:black;stroke-width:11.76px;"/>
                        </g>
                        <g transform="matrix(0.66835,-0.585572,0.585572,0.66835,-91.549,139.453)">
                            <path d="M204.817,179.055C204.817,174.677 201.263,171.123 196.885,171.123L181.021,171.123C176.644,171.123 173.089,174.677 173.089,179.055C173.089,179.055 163.421,184.97 173.089,227.525C173.918,231.171 176.644,235.457 181.021,235.457L196.885,235.457C201.263,235.457 204.817,231.903 204.817,227.525L204.817,179.055Z" style="fill:rgb(237,23,56);stroke:black;stroke-width:12.53px;"/>
                        </g>
                        <g transform="matrix(-0.66835,-0.585572,-0.585572,0.66835,498.231,139.453)">
                            <path d="M204.817,179.055C204.817,174.677 201.263,171.123 196.885,171.123L181.021,171.123C176.644,171.123 173.089,174.677 173.089,179.055C165.747,184.518 163.489,195.964 173.089,227.525C174.363,231.713 176.644,235.457 181.021,235.457L196.885,235.457C201.263,235.457 204.817,231.903 204.817,227.525L204.817,179.055Z" style="fill:rgb(237,23,56);stroke:black;stroke-width:12.53px;"/>
                        </g>
                    </g>
                    <circle cx="203.341" cy="220.316" r="74.554" style="fill:none;stroke:black;stroke-width:11.09px;"/>
                </g>
                <g transform="matrix(0.806356,0,0,0.806356,97.0039,71.9786)">
                    <path d="M143.032,119.02C126.012,86.254 126.694,55.423 151.435,29.912C173.732,6.922 221.119,-5.854 276.116,23.476C323.596,48.798 340.46,37.155 345.397,31.055" style="fill:rgb(245,137,28);"/>
                    <g>
                        <clipPath id="_clip4">
                            <path d="M143.032,119.02C126.012,86.254 126.694,55.423 151.435,29.912C173.732,6.922 221.119,-5.854 276.116,23.476C323.596,48.798 340.46,37.155 345.397,31.055"/>
                        </clipPath>
                        <g clip-path="url(#_clip4)">
                            <path d="M143.032,141.696C143.032,141.696 165.209,117.228 167.498,114.819C169.787,112.41 171.636,67.545 187.537,48.987C192.844,42.792 208.192,35.531 231.249,35.531C268.935,35.531 282.867,59.62 315.734,55.147C348.601,50.673 343.095,27.616 343.095,17.636C343.095,7.656 276.597,-16.07 276.597,-16.07C276.597,-16.07 161.494,-34.554 146.791,-28.673C132.088,-22.792 96.801,-9.769 94.7,-5.568C92.6,-1.367 91.34,42.322 90.5,57.865C89.659,73.408 103.113,110.795 102.688,116.677C102.262,122.558 143.032,141.696 143.032,141.696Z" style="fill:rgb(245,186,28);"/>
                        </g>
                    </g>
                    <path d="M143.032,119.02C126.012,86.254 126.694,55.423 151.435,29.912C173.732,6.922 221.119,-5.854 276.116,23.476C323.596,48.798 340.46,37.155 345.397,31.055" style="fill:none;stroke:black;stroke-width:15.54px;"/>
                    <g transform="matrix(1.02627,0,0,1.02627,-4.91157,-3.35873)">
                        <path d="M286.494,194.279C286.718,203.889 286.232,211.512 286.494,203.246C287.695,165.438 214.024,134.095 213.319,135.999C207.034,152.976 206.015,161.855 192.154,168.198C178.293,174.541 160.674,165.614 141.88,167.493C123.085,169.373 102.986,182.866 91.475,166.656C79.963,150.446 102.626,131.135 111.083,123.617C119.541,116.1 169.395,74.722 185.135,64.62C200.875,54.518 244.816,53.315 257.032,53.785C242.467,65.766 227.02,86.44 228.195,92.548C252.862,111.342 285.154,136.665 286.494,194.279Z" style="fill:rgb(255,242,196);"/>
                    </g>
                    <g transform="matrix(1,0,0,1,-3.72353,-2.06926)">
                        <path d="M215.73,138.103C215.73,138.103 293.572,158.294 297.426,241.541" style="fill:none;stroke:black;stroke-width:15.54px;"/>
                    </g>
                    <g transform="matrix(1.46274,0,0,1.46274,-74.9376,-61.6344)">
                        <path d="M149.916,123.249C147.053,120.687 161.405,109.041 163.458,107.809C165.511,106.577 167.862,117.671 163.62,121.639C159.377,125.608 154.057,126.955 149.916,123.249Z" style="fill:rgb(34,34,34);"/>
                        <g>
                            <clipPath id="_clip5">
                                <path d="M149.916,123.249C147.053,120.687 161.405,109.041 163.458,107.809C165.511,106.577 167.862,117.671 163.62,121.639C159.377,125.608 154.057,126.955 149.916,123.249Z"/>
                            </clipPath>
                            <g clip-path="url(#_clip5)">
                                <g transform="matrix(0.775066,0,0,0.860752,33.7392,14.9878)">
                                    <path d="M149.916,123.249C147.053,120.687 161.405,109.041 163.458,107.809C165.511,106.577 167.862,117.671 163.62,121.639C159.377,125.608 154.057,126.955 149.916,123.249Z"/>
                                </g>
                            </g>
                        </g>
                    </g>
                    <g transform="matrix(0.495622,0,0,0.557891,72.3718,42.8113)">
                        <path d="M149.916,123.249C147.053,120.687 161.405,109.041 163.458,107.809C165.511,106.577 167.862,117.671 163.62,121.639C159.377,125.608 154.057,126.955 149.916,123.249Z" style="fill:white;"/>
                    </g>
                    <g transform="matrix(1.02627,0,0,1.02627,-8.6351,-5.42799)">
                        <path d="M214.237,132.019C213.533,150.109 206.015,161.855 192.154,168.198C178.293,174.541 160.674,165.614 141.88,167.493C123.085,169.373 102.986,182.866 91.475,166.656C79.963,150.446 102.626,131.135 111.083,123.617C119.541,116.1 169.395,74.722 185.135,64.62C200.875,54.518 244.816,53.315 257.032,53.785C242.467,65.766 227.02,86.44 228.195,92.548C252.862,111.342 295.946,154.155 294.565,238.631" style="fill:none;stroke:black;stroke-width:15.15px;"/>
                    </g>
                    <g transform="matrix(-1.67131,0.122499,-0.118153,-1.61202,294.257,376.865)">
                        <path d="M100.798,151.455C101.852,150.1 102.594,148.03 104.652,146.876C106.71,145.721 106.854,147.231 105.868,148.588C104.881,149.945 99.744,152.811 100.798,151.455Z" style="fill:rgb(34,34,34);"/>
                    </g>
                </g>
                <g transform="matrix(0.893365,0,0,0.893365,-17.5643,-20.2402)">
                    <path d="M175.765,99.551C176.742,96.522 179.562,94.47 182.744,94.47C185.926,94.47 188.745,96.522 189.723,99.551L197.723,124.327L223.759,124.279C226.941,124.273 229.764,126.32 230.748,129.347C231.731,132.373 230.65,135.689 228.072,137.554L206.981,152.819L215.072,177.566C216.061,180.591 214.986,183.908 212.412,185.779C209.837,187.649 206.35,187.646 203.779,185.771L182.744,170.429L161.709,185.771C159.138,187.646 155.651,187.649 153.076,185.779C150.502,183.908 149.427,180.591 150.416,177.566L158.507,152.819L137.415,137.554C134.837,135.689 133.757,132.373 134.74,129.347C135.724,126.32 138.547,124.273 141.729,124.279L167.764,124.327L175.765,99.551Z" style="fill:rgb(245,186,28);"/>
                    <clipPath id="_clip6">
                        <path d="M175.765,99.551C176.742,96.522 179.562,94.47 182.744,94.47C185.926,94.47 188.745,96.522 189.723,99.551L197.723,124.327L223.759,124.279C226.941,124.273 229.764,126.32 230.748,129.347C231.731,132.373 230.65,135.689 228.072,137.554L206.981,152.819L215.072,177.566C216.061,180.591 214.986,183.908 212.412,185.779C209.837,187.649 206.35,187.646 203.779,185.771L182.744,170.429L161.709,185.771C159.138,187.646 155.651,187.649 153.076,185.779C150.502,183.908 149.427,180.591 150.416,177.566L158.507,152.819L137.415,137.554C134.837,135.689 133.757,132.373 134.74,129.347C135.724,126.32 138.547,124.273 141.729,124.279L167.764,124.327L175.765,99.551Z"/>
                    </clipPath>
                    <g clip-path="url(#_clip6)">
                        <g transform="matrix(0.307362,0,0,0.307362,126.575,100.403)">
                            <path d="M182.744,94.47L192.722,125.94C193.059,127.003 193.727,127.93 194.629,128.585C195.531,129.241 196.62,129.59 197.735,129.582L230.748,129.347L203.901,148.561C202.995,149.21 202.32,150.132 201.975,151.193C201.63,152.253 201.635,153.396 201.987,154.454L212.412,185.779L185.842,166.184C184.945,165.522 183.859,165.165 182.744,165.165C181.629,165.165 180.543,165.522 179.646,166.184L153.076,185.779L163.501,154.454C163.853,153.396 163.857,152.253 163.513,151.193C163.168,150.132 162.493,149.21 161.586,148.561L134.74,129.347L167.753,129.582C168.868,129.59 169.956,129.241 170.858,128.585C171.761,127.93 172.429,127.003 172.766,125.94L182.744,94.47Z" style="fill:rgb(255,234,177);stroke:rgb(254,234,177);stroke-width:16.54px;"/>
                        </g>
                    </g>
                    <path d="M175.765,99.551C176.742,96.522 179.562,94.47 182.744,94.47C185.926,94.47 188.745,96.522 189.723,99.551L197.723,124.327L223.759,124.279C226.941,124.273 229.764,126.32 230.748,129.347C231.731,132.373 230.65,135.689 228.072,137.554L206.981,152.819L215.072,177.566C216.061,180.591 214.986,183.908 212.412,185.779C209.837,187.649 206.35,187.646 203.779,185.771L182.744,170.429L161.709,185.771C159.138,187.646 155.651,187.649 153.076,185.779C150.502,183.908 149.427,180.591 150.416,177.566L158.507,152.819L137.415,137.554C134.837,135.689 133.757,132.373 134.74,129.347C135.724,126.32 138.547,124.273 141.729,124.279L167.764,124.327L175.765,99.551Z" style="fill:none;stroke:black;stroke-width:14.03px;"/>
                </g>
            </g>
        </g>
    </g>
</svg>
