<?xml version="1.0" encoding="UTF-8" standalone="no"?>
<!DOCTYPE svg PUBLIC "-//W3C//DTD SVG 1.1//EN" "http://www.w3.org/Graphics/SVG/1.1/DTD/svg11.dtd">
<svg width="100%" height="100%" viewBox="0 0 278 275" version="1.1" xmlns="http://www.w3.org/2000/svg" xmlns:xlink="http://www.w3.org/1999/xlink" xml:space="preserve" xmlns:serif="http://www.serif.com/" style="fill-rule:evenodd;clip-rule:evenodd;stroke-linecap:round;stroke-linejoin:round;stroke-miterlimit:1.5;">
    <g transform="matrix(0.75,0,0,0.75,0,2.25)">
        <g transform="matrix(1,0,0,1,-65,-50.457)">
            <g id="Masterball">
                <g transform="matrix(2.64055,0,0,1.76388,-33.0138,42.8944)">
                    <path d="M107.76,65.74C115.171,65.74 170.03,87.561 173.736,93.98C177.441,100.398 168.181,175.537 164.475,181.955C160.769,188.374 115.27,206.286 107.859,206.286C100.448,206.286 55.689,188.374 51.983,181.955C48.277,175.537 36.786,100.398 40.491,93.98C44.197,87.561 100.349,65.74 107.76,65.74Z" style="fill:rgb(28,31,45);stroke:rgb(28,31,45);stroke-width:5.56px;"/>
                </g>
                <g transform="matrix(2.48802,0,0,2.32444,-17.6664,-88.9852)">
                    <path d="M107.582,65.883C114.993,65.883 167.253,92.908 170.958,99.326C174.664,105.744 168.181,175.537 164.475,181.955C160.769,188.374 114.993,206.43 107.582,206.43C100.171,206.43 55.689,188.374 51.983,181.955C48.277,175.537 40.357,105.744 44.063,99.326C47.768,92.908 100.171,65.883 107.582,65.883Z" style="fill:rgb(107,21,242);stroke:black;stroke-width:5.18px;"/>
                </g>
                <g transform="matrix(2.1821,0,0,2.01824,15.2453,-47.1554)">
                    <path d="M107.582,65.815C114.993,65.815 167.253,92.908 170.958,99.326C174.664,105.744 168.181,175.537 164.475,181.955C160.769,188.374 114.993,206.361 107.582,206.361C100.171,206.361 55.689,188.374 51.983,181.955C48.277,175.537 40.357,105.744 44.063,99.326C47.768,92.908 100.171,65.815 107.582,65.815Z" style="fill:rgb(107,21,242);stroke:white;stroke-width:5.94px;"/>
                </g>
                <g transform="matrix(1.90708,0,0,1.76388,44.832,-12.4074)">
                    <path d="M107.582,65.74C114.993,65.74 167.253,92.908 170.958,99.326C174.664,105.744 168.181,175.537 164.475,181.955C160.769,188.374 114.993,206.286 107.582,206.286C100.171,206.286 55.689,188.374 51.983,181.955C48.277,175.537 40.357,105.744 44.063,99.326C47.768,92.908 100.171,65.74 107.582,65.74Z" style="fill:rgb(80,81,96);"/>
                    <clipPath id="_clip1">
                        <path d="M107.582,65.74C114.993,65.74 167.253,92.908 170.958,99.326C174.664,105.744 168.181,175.537 164.475,181.955C160.769,188.374 114.993,206.286 107.582,206.286C100.171,206.286 55.689,188.374 51.983,181.955C48.277,175.537 40.357,105.744 44.063,99.326C47.768,92.908 100.171,65.74 107.582,65.74Z"/>
                    </clipPath>
                    <g clip-path="url(#_clip1)">
                        <g transform="matrix(0.549433,0,0,0.594042,-3.40351,26.1439)">
                            <rect x="202" y="38.686" width="162.768" height="324.407" style="fill:rgb(58,60,73);"/>
                        </g>
                    </g>
                </g>
                <g transform="matrix(1.63385,0,0,1.40629,74.2273,36.4415)">
                    <path d="M107.582,65.588C114.993,65.588 165.329,92.908 169.034,99.326C172.74,105.744 166.257,175.537 162.551,181.955C158.845,188.374 114.993,206.135 107.582,206.135C100.171,206.135 56.33,188.374 52.624,181.955C48.919,175.537 40.998,105.744 44.704,99.326C48.41,92.908 100.171,65.588 107.582,65.588Z" style="fill:rgb(58,60,73);stroke:rgb(245,186,28);stroke-width:8.19px;"/>
                </g>
                <g transform="matrix(0.806356,0,0,0.806356,97.0039,71.9786)">
                    <path d="M143.032,119.02C126.012,86.254 126.694,55.423 151.435,29.912C173.732,6.922 221.119,-5.854 276.116,23.476C323.596,48.798 340.46,37.155 345.397,31.055C351.53,39.356 359.411,92.891 323.771,102.099C283.488,112.507 290.748,154.7 303.486,155.736C311.958,156.425 320.789,151.611 324.224,146.275C326.5,159.028 339.381,211.405 254.137,240.845C156.258,250.927 192.234,182.765 192.234,182.765L154.325,139.487C154.325,139.487 160.053,151.787 143.032,119.02Z" style="fill:rgb(245,137,28);"/>
                    <g>
                        <clipPath id="_clip2">
                            <path d="M143.032,119.02C126.012,86.254 126.694,55.423 151.435,29.912C173.732,6.922 221.119,-5.854 276.116,23.476C323.596,48.798 340.46,37.155 345.397,31.055C351.53,39.356 359.411,92.891 323.771,102.099C283.488,112.507 290.748,154.7 303.486,155.736C311.958,156.425 320.789,151.611 324.224,146.275C326.5,159.028 339.381,211.405 254.137,240.845C156.258,250.927 192.234,182.765 192.234,182.765L154.325,139.487C154.325,139.487 160.053,151.787 143.032,119.02Z"/>
                        </clipPath>
                        <g clip-path="url(#_clip2)">
                            <path d="M143.032,141.696C143.032,141.696 165.209,117.228 167.498,114.819C169.787,112.41 171.636,67.545 187.537,48.987C192.844,42.792 208.192,35.531 231.249,35.531C268.935,35.531 282.867,59.62 315.734,55.147C348.601,50.673 343.095,27.616 343.095,17.636C343.095,7.656 276.597,-16.07 276.597,-16.07C276.597,-16.07 161.494,-34.554 146.791,-28.673C132.088,-22.792 96.801,-9.769 94.7,-5.568C92.6,-1.367 91.34,42.322 90.5,57.865C89.659,73.408 103.113,110.795 102.688,116.677C102.262,122.558 143.032,141.696 143.032,141.696Z" style="fill:rgb(245,186,28);"/>
                        </g>
                    </g>
                    <path d="M143.032,119.02C126.012,86.254 126.694,55.423 151.435,29.912C173.732,6.922 221.119,-5.854 276.116,23.476C323.596,48.798 340.46,37.155 345.397,31.055C351.53,39.356 359.411,92.891 323.771,102.099C283.488,112.507 290.748,154.7 303.486,155.736C311.958,156.425 320.789,151.611 324.224,146.275C326.5,159.028 339.381,211.405 254.137,240.845C156.258,250.927 192.234,182.765 192.234,182.765L154.325,139.487C154.325,139.487 160.053,151.787 143.032,119.02Z" style="fill:none;stroke:black;stroke-width:15.54px;"/>
                    <g transform="matrix(0.579475,0,0,1,132.294,-36.426)">
                        <path d="M252.325,251.821C251.973,276.785 269.554,294.366 293.112,306.321C316.669,318.275 328.992,318.508 328.992,318.508L329.39,334.227L165.567,334.227" style="fill:rgb(255,242,196);stroke:black;stroke-width:19.02px;"/>
                    </g>
                    <g transform="matrix(0.825128,0,0,1.11203,45.5257,-51.2808)">
                        <rect x="152.138" y="313.914" width="184.345" height="18.13" style="fill:rgb(255,242,196);stroke:black;stroke-width:15.87px;"/>
                    </g>
                </g>
                <g transform="matrix(1.12538,0,0,1.12538,21.1638,16.8525)">
                    <circle cx="203.341" cy="220.316" r="74.554" style="fill:rgb(107,21,242);"/>
                    <clipPath id="_clip3">
                        <circle cx="203.341" cy="220.316" r="74.554"/>
                    </clipPath>
                    <g clip-path="url(#_clip3)">
                        <g transform="matrix(0.894889,0,0,0.65896,22.5732,101.958)">
                            <circle cx="202" cy="223.8" r="77.077" style="fill:white;"/>
                        </g>
                        <g transform="matrix(-0.51507,0,0,0.577728,329.411,38.0075)">
                            <path d="M157.057,274.176C149.979,276.674 142.266,278.046 134.196,278.046C99.862,278.046 71.988,253.201 71.988,222.599C71.988,191.997 99.862,167.151 134.196,167.151C142.266,167.151 149.979,168.524 157.057,171.021L157.057,274.176Z" style="fill:rgb(248,12,182);"/>
                        </g>
                        <g transform="matrix(-0.51507,0,0,0.577728,329.411,38.0075)">
                            <path d="M186.688,192.847C192.839,201.446 196.404,211.654 196.404,222.599C196.404,233.543 192.839,243.752 186.688,252.35L186.688,192.847Z" style="fill:rgb(248,12,182);"/>
                        </g>
                        <g transform="matrix(-0.51507,0,0,0.577728,215.511,38.0075)">
                            <path d="M111.335,171.021C118.413,168.524 126.126,167.151 134.196,167.151C168.53,167.151 196.404,191.997 196.404,222.599C196.404,253.201 168.53,278.046 134.196,278.046C126.126,278.046 118.413,276.674 111.335,274.176L111.335,171.021Z" style="fill:rgb(248,12,182);"/>
                        </g>
                        <g transform="matrix(-0.51507,0,0,0.577728,215.511,38.0075)">
                            <path d="M81.704,252.35C75.553,243.752 71.988,233.543 71.988,222.599C71.988,211.654 75.553,201.446 81.704,192.847L81.704,252.35Z" style="fill:rgb(248,12,182);"/>
                        </g>
                        <g transform="matrix(0.888587,0,0,0.888587,38.9523,29.8605)">
                            <path d="M235.839,204.704L235.839,211.173C235.839,236.057 213.059,256.259 185,256.259C156.941,256.259 134.161,236.057 134.161,211.173L134.161,203.105C134.546,202.962 134.934,202.824 135.328,202.691C140.678,200.89 145.901,199.264 151.337,198.215L151.337,204.167C151.337,222.908 166.421,238.123 185,238.123C203.579,238.123 218.663,222.908 218.663,204.167L218.663,201.994C222.768,202.581 226.864,203.216 230.949,203.881C232.58,204.146 234.21,204.425 235.839,204.704Z" style="fill:rgb(216,203,216);"/>
                        </g>
                        <g transform="matrix(0.888587,0,0,0.888587,38.9523,29.8605)">
                            <path d="M151.337,173.238L151.337,198.215C145.901,199.264 140.678,200.89 135.328,202.691C134.934,202.824 134.546,202.962 134.161,203.105L134.161,187.428C141.271,184.615 147.276,179.605 151.337,173.238Z" style="fill:rgb(216,203,216);"/>
                        </g>
                        <g transform="matrix(0.888587,0,0,0.888587,38.9523,29.8605)">
                            <path d="M235.839,187.428L235.839,204.704C234.21,204.425 232.58,204.146 230.949,203.881C226.864,203.216 222.768,202.581 218.663,201.994L218.663,173.238C222.724,179.605 228.729,184.615 235.839,187.428Z" style="fill:rgb(216,203,216);"/>
                        </g>
                        <g transform="matrix(0.888587,0,0,0.888587,38.9523,29.8605)">
                            <path d="M134.161,187.428L134.161,120.361C141.271,123.174 147.276,128.184 151.337,134.551L151.337,173.238C147.276,179.605 141.271,184.615 134.161,187.428Z" style="fill:rgb(210,10,154);"/>
                        </g>
                        <g transform="matrix(0.888587,0,0,0.888587,38.9523,29.8605)">
                            <path d="M235.839,120.361C228.729,123.174 222.724,128.184 218.663,134.551L218.663,173.238C222.724,179.605 228.729,184.615 235.839,187.428L235.839,120.361Z" style="fill:rgb(210,10,154);"/>
                        </g>
                        <g transform="matrix(0.894889,0,0,0.65896,22.5732,101.958)">
                            <path d="M202,135.909C249.494,135.909 287.04,176.306 287.04,223.8C287.04,271.294 249.494,311.692 202,311.692C154.506,311.692 116.96,271.294 116.96,223.8C116.96,176.306 154.506,135.909 202,135.909ZM202,157.538C178.823,157.538 158.186,168.547 145.446,185.923C137.643,196.565 132.887,209.605 132.887,223.8C132.887,237.996 137.643,251.035 145.446,261.678C158.186,279.053 178.823,290.062 202,290.062C225.177,290.062 245.814,279.053 258.554,261.678C266.357,251.035 271.113,237.996 271.113,223.8C271.113,209.605 266.357,196.565 258.554,185.923C245.814,168.547 225.177,157.538 202,157.538Z"/>
                        </g>
                        <g transform="matrix(0.947267,0,0,0.947267,11.4289,27.1795)">
                            <circle cx="202.595" cy="183.368" r="18.084" style="fill:white;stroke:black;stroke-width:11.76px;"/>
                        </g>
                    </g>
                    <circle cx="203.341" cy="220.316" r="74.554" style="fill:none;stroke:black;stroke-width:11.09px;"/>
                </g>
                <g transform="matrix(0.786354,0,0,0.786354,-29.6096,-173.956)">
                    <path d="M330.761,495.976L344.113,458.902L355.605,481.365L366.822,458.902L380.393,495.976L372.974,495.976L365.509,477.398L355.659,495.976L345.427,477.398L338.477,495.976L330.761,495.976Z" style="fill:white;"/>
                </g>
                <g transform="matrix(0.806356,0,0,0.806356,97.0039,71.9786)">
                    <path d="M143.032,119.02C126.012,86.254 126.694,55.423 151.435,29.912C173.732,6.922 221.119,-5.854 276.116,23.476C323.596,48.798 340.46,37.155 345.397,31.055" style="fill:rgb(245,137,28);"/>
                    <g>
                        <clipPath id="_clip4">
                            <path d="M143.032,119.02C126.012,86.254 126.694,55.423 151.435,29.912C173.732,6.922 221.119,-5.854 276.116,23.476C323.596,48.798 340.46,37.155 345.397,31.055"/>
                        </clipPath>
                        <g clip-path="url(#_clip4)">
                            <path d="M143.032,141.696C143.032,141.696 165.209,117.228 167.498,114.819C169.787,112.41 171.636,67.545 187.537,48.987C192.844,42.792 208.192,35.531 231.249,35.531C268.935,35.531 282.867,59.62 315.734,55.147C348.601,50.673 343.095,27.616 343.095,17.636C343.095,7.656 276.597,-16.07 276.597,-16.07C276.597,-16.07 161.494,-34.554 146.791,-28.673C132.088,-22.792 96.801,-9.769 94.7,-5.568C92.6,-1.367 91.34,42.322 90.5,57.865C89.659,73.408 103.113,110.795 102.688,116.677C102.262,122.558 143.032,141.696 143.032,141.696Z" style="fill:rgb(245,186,28);"/>
                        </g>
                    </g>
                    <path d="M143.032,119.02C126.012,86.254 126.694,55.423 151.435,29.912C173.732,6.922 221.119,-5.854 276.116,23.476C323.596,48.798 340.46,37.155 345.397,31.055" style="fill:none;stroke:black;stroke-width:15.54px;"/>
                    <g transform="matrix(1.02627,0,0,1.02627,-4.91157,-3.35873)">
                        <path d="M286.494,194.279C286.718,203.889 286.232,211.512 286.494,203.246C287.695,165.438 214.024,134.095 213.319,135.999C207.034,152.976 206.015,161.855 192.154,168.198C178.293,174.541 160.674,165.614 141.88,167.493C123.085,169.373 102.986,182.866 91.475,166.656C79.963,150.446 102.626,131.135 111.083,123.617C119.541,116.1 169.395,74.722 185.135,64.62C200.875,54.518 244.816,53.315 257.032,53.785C242.467,65.766 227.02,86.44 228.195,92.548C252.862,111.342 285.154,136.665 286.494,194.279Z" style="fill:rgb(255,242,196);"/>
                    </g>
                    <g transform="matrix(1,0,0,1,-3.72353,-2.06926)">
                        <path d="M215.73,138.103C215.73,138.103 293.572,158.294 297.426,241.541" style="fill:none;stroke:black;stroke-width:15.54px;"/>
                    </g>
                    <g transform="matrix(1.46274,0,0,1.46274,-74.9376,-61.6344)">
                        <path d="M149.916,123.249C147.053,120.687 161.405,109.041 163.458,107.809C165.511,106.577 167.862,117.671 163.62,121.639C159.377,125.608 154.057,126.955 149.916,123.249Z" style="fill:rgb(34,34,34);"/>
                        <g>
                            <clipPath id="_clip5">
                                <path d="M149.916,123.249C147.053,120.687 161.405,109.041 163.458,107.809C165.511,106.577 167.862,117.671 163.62,121.639C159.377,125.608 154.057,126.955 149.916,123.249Z"/>
                            </clipPath>
                            <g clip-path="url(#_clip5)">
                                <g transform="matrix(0.775066,0,0,0.860752,33.7392,14.9878)">
                                    <path d="M149.916,123.249C147.053,120.687 161.405,109.041 163.458,107.809C165.511,106.577 167.862,117.671 163.62,121.639C159.377,125.608 154.057,126.955 149.916,123.249Z"/>
                                </g>
                            </g>
                        </g>
                    </g>
                    <g transform="matrix(0.495622,0,0,0.557891,72.3718,42.8113)">
                        <path d="M149.916,123.249C147.053,120.687 161.405,109.041 163.458,107.809C165.511,106.577 167.862,117.671 163.62,121.639C159.377,125.608 154.057,126.955 149.916,123.249Z" style="fill:white;"/>
                    </g>
                    <g transform="matrix(1.02627,0,0,1.02627,-8.6351,-5.42799)">
                        <path d="M214.237,132.019C213.533,150.109 206.015,161.855 192.154,168.198C178.293,174.541 160.674,165.614 141.88,167.493C123.085,169.373 102.986,182.866 91.475,166.656C79.963,150.446 102.626,131.135 111.083,123.617C119.541,116.1 169.395,74.722 185.135,64.62C200.875,54.518 244.816,53.315 257.032,53.785C242.467,65.766 227.02,86.44 228.195,92.548C252.862,111.342 295.946,154.155 294.565,238.631" style="fill:none;stroke:black;stroke-width:15.15px;"/>
                    </g>
                    <g transform="matrix(-1.67131,0.122499,-0.118153,-1.61202,294.257,376.865)">
                        <path d="M100.798,151.455C101.852,150.1 102.594,148.03 104.652,146.876C106.71,145.721 106.854,147.231 105.868,148.588C104.881,149.945 99.744,152.811 100.798,151.455Z" style="fill:rgb(34,34,34);"/>
                    </g>
                </g>
                <g transform="matrix(0.893365,0,0,0.893365,-17.5643,-20.2402)">
                    <path d="M176.899,99.132C177.521,96.405 179.947,94.47 182.744,94.47C185.541,94.47 187.967,96.405 188.589,99.132L193.801,121.983L214.917,111.811C217.437,110.597 220.462,111.287 222.206,113.474C223.95,115.661 223.95,118.763 222.206,120.95L207.59,139.273L228.708,149.44C231.229,150.654 232.575,153.449 231.952,156.176C231.33,158.903 228.904,160.837 226.107,160.837L202.669,160.834L207.887,183.684C208.51,186.411 207.164,189.206 204.644,190.42C202.124,191.633 199.099,190.943 197.355,188.756L182.744,170.429L168.133,188.756C166.389,190.943 163.364,191.633 160.844,190.42C158.324,189.206 156.978,186.411 157.601,183.684L162.819,160.834L139.381,160.837C136.583,160.837 134.158,158.903 133.535,156.176C132.913,153.449 134.259,150.654 136.78,149.44L157.898,139.273L143.282,120.95C141.538,118.763 141.538,115.661 143.282,113.474C145.026,111.287 148.05,110.597 150.57,111.811L171.687,121.983L176.899,99.132Z" style="fill:rgb(245,186,28);"/>
                    <clipPath id="_clip6">
                        <path d="M176.899,99.132C177.521,96.405 179.947,94.47 182.744,94.47C185.541,94.47 187.967,96.405 188.589,99.132L193.801,121.983L214.917,111.811C217.437,110.597 220.462,111.287 222.206,113.474C223.95,115.661 223.95,118.763 222.206,120.95L207.59,139.273L228.708,149.44C231.229,150.654 232.575,153.449 231.952,156.176C231.33,158.903 228.904,160.837 226.107,160.837L202.669,160.834L207.887,183.684C208.51,186.411 207.164,189.206 204.644,190.42C202.124,191.633 199.099,190.943 197.355,188.756L182.744,170.429L168.133,188.756C166.389,190.943 163.364,191.633 160.844,190.42C158.324,189.206 156.978,186.411 157.601,183.684L162.819,160.834L139.381,160.837C136.583,160.837 134.158,158.903 133.535,156.176C132.913,153.449 134.259,150.654 136.78,149.44L157.898,139.273L143.282,120.95C141.538,118.763 141.538,115.661 143.282,113.474C145.026,111.287 148.05,110.597 150.57,111.811L171.687,121.983L176.899,99.132Z"/>
                    </clipPath>
                    <g clip-path="url(#_clip6)">
                        <g transform="matrix(0.307362,0,0,0.307362,126.575,100.403)">
                            <path d="M182.744,94.47L189.635,123.024C189.935,124.268 190.778,125.312 191.931,125.867C193.084,126.422 194.426,126.431 195.586,125.89L222.206,113.474L204.178,136.664C203.393,137.675 203.102,138.985 203.387,140.233C203.672,141.48 204.502,142.534 205.648,143.104L231.952,156.176L202.581,156.54C201.302,156.556 200.096,157.145 199.298,158.146C198.5,159.147 198.194,160.453 198.463,161.704L204.644,190.42L186.047,167.683C185.236,166.693 184.024,166.118 182.744,166.118C181.464,166.118 180.252,166.693 179.441,167.683L160.844,190.42L167.025,161.704C167.294,160.453 166.987,159.147 166.189,158.146C165.391,157.145 164.186,156.556 162.907,156.54L133.535,156.176L159.84,143.104C160.986,142.534 161.816,141.48 162.101,140.233C162.386,138.985 162.095,137.675 161.31,136.664L143.282,113.474L169.902,125.89C171.062,126.431 172.404,126.422 173.557,125.867C174.71,125.312 175.553,124.268 175.853,123.024L182.744,94.47Z" style="fill:rgb(255,234,177);stroke:rgb(254,234,177);stroke-width:16.54px;"/>
                        </g>
                    </g>
                    <path d="M176.899,99.132C177.521,96.405 179.947,94.47 182.744,94.47C185.541,94.47 187.967,96.405 188.589,99.132L193.801,121.983L214.917,111.811C217.437,110.597 220.462,111.287 222.206,113.474C223.95,115.661 223.95,118.763 222.206,120.95L207.59,139.273L228.708,149.44C231.229,150.654 232.575,153.449 231.952,156.176C231.33,158.903 228.904,160.837 226.107,160.837L202.669,160.834L207.887,183.684C208.51,186.411 207.164,189.206 204.644,190.42C202.124,191.633 199.099,190.943 197.355,188.756L182.744,170.429L168.133,188.756C166.389,190.943 163.364,191.633 160.844,190.42C158.324,189.206 156.978,186.411 157.601,183.684L162.819,160.834L139.381,160.837C136.583,160.837 134.158,158.903 133.535,156.176C132.913,153.449 134.259,150.654 136.78,149.44L157.898,139.273L143.282,120.95C141.538,118.763 141.538,115.661 143.282,113.474C145.026,111.287 148.05,110.597 150.57,111.811L171.687,121.983L176.899,99.132Z" style="fill:none;stroke:black;stroke-width:14.03px;"/>
                </g>
            </g>
        </g>
    </g>
</svg>
