<?xml version="1.0" encoding="UTF-8" standalone="no"?>
<!DOCTYPE svg PUBLIC "-//W3C//DTD SVG 1.1//EN" "http://www.w3.org/Graphics/SVG/1.1/DTD/svg11.dtd">
<svg width="100%" height="100%" viewBox="0 0 278 275" version="1.1" xmlns="http://www.w3.org/2000/svg" xmlns:xlink="http://www.w3.org/1999/xlink" xml:space="preserve" xmlns:serif="http://www.serif.com/" style="fill-rule:evenodd;clip-rule:evenodd;stroke-linecap:round;stroke-linejoin:round;stroke-miterlimit:1.5;">
    <g transform="matrix(0.75,0,0,0.75,0,2.25)">
        <g transform="matrix(1,0,0,1,-65,-50.457)">
            <g id="Hyperball">
                <g transform="matrix(2.64055,0,0,1.76388,-33.0138,42.8944)">
                    <path d="M107.76,65.74C115.171,65.74 170.03,87.561 173.736,93.98C177.441,100.398 168.181,175.537 164.475,181.955C160.769,188.374 115.27,206.286 107.859,206.286C100.448,206.286 55.689,188.374 51.983,181.955C48.277,175.537 36.786,100.398 40.491,93.98C44.197,87.561 100.349,65.74 107.76,65.74Z" style="fill:rgb(28,31,45);stroke:rgb(28,31,45);stroke-width:5.56px;"/>
                </g>
                <g transform="matrix(2.48802,0,0,2.32444,-17.6664,-88.9852)">
                    <path d="M107.582,65.883C114.993,65.883 167.253,92.908 170.958,99.326C174.664,105.744 168.181,175.537 164.475,181.955C160.769,188.374 114.993,206.43 107.582,206.43C100.171,206.43 55.689,188.374 51.983,181.955C48.277,175.537 40.357,105.744 44.063,99.326C47.768,92.908 100.171,65.883 107.582,65.883Z" style="fill:rgb(250,202,44);stroke:black;stroke-width:5.18px;"/>
                </g>
                <g transform="matrix(2.1821,0,0,2.01824,15.2453,-47.1554)">
                    <path d="M107.582,65.815C114.993,65.815 167.253,92.908 170.958,99.326C174.664,105.744 168.181,175.537 164.475,181.955C160.769,188.374 114.993,206.361 107.582,206.361C100.171,206.361 55.689,188.374 51.983,181.955C48.277,175.537 40.357,105.744 44.063,99.326C47.768,92.908 100.171,65.815 107.582,65.815Z" style="fill:rgb(250,202,44);stroke:white;stroke-width:5.94px;"/>
                </g>
                <g transform="matrix(1.90708,0,0,1.76388,44.832,-12.4074)">
                    <path d="M107.582,65.74C114.993,65.74 167.253,92.908 170.958,99.326C174.664,105.744 168.181,175.537 164.475,181.955C160.769,188.374 114.993,206.286 107.582,206.286C100.171,206.286 55.689,188.374 51.983,181.955C48.277,175.537 40.357,105.744 44.063,99.326C47.768,92.908 100.171,65.74 107.582,65.74Z" style="fill:rgb(80,81,96);"/>
                    <clipPath id="_clip1">
                        <path d="M107.582,65.74C114.993,65.74 167.253,92.908 170.958,99.326C174.664,105.744 168.181,175.537 164.475,181.955C160.769,188.374 114.993,206.286 107.582,206.286C100.171,206.286 55.689,188.374 51.983,181.955C48.277,175.537 40.357,105.744 44.063,99.326C47.768,92.908 100.171,65.74 107.582,65.74Z"/>
                    </clipPath>
                    <g clip-path="url(#_clip1)">
                        <g transform="matrix(0.549433,0,0,0.594042,-3.40351,26.1439)">
                            <rect x="202" y="38.686" width="162.768" height="324.407" style="fill:rgb(58,60,73);"/>
                        </g>
                    </g>
                </g>
                <g transform="matrix(1.63385,0,0,1.40629,74.2273,36.4415)">
                    <path d="M107.582,65.588C114.993,65.588 165.329,92.908 169.034,99.326C172.74,105.744 166.257,175.537 162.551,181.955C158.845,188.374 114.993,206.135 107.582,206.135C100.171,206.135 56.33,188.374 52.624,181.955C48.919,175.537 40.998,105.744 44.704,99.326C48.41,92.908 100.171,65.588 107.582,65.588Z" style="fill:rgb(58,60,73);stroke:rgb(245,186,28);stroke-width:8.19px;"/>
                </g>
                <g transform="matrix(0.806356,0,0,0.806356,97.0039,71.9786)">
                    <path d="M143.032,119.02C126.012,86.254 126.694,55.423 151.435,29.912C173.732,6.922 221.119,-5.854 276.116,23.476C323.596,48.798 340.46,37.155 345.397,31.055C351.53,39.356 359.411,92.891 323.771,102.099C283.488,112.507 290.748,154.7 303.486,155.736C311.958,156.425 320.789,151.611 324.224,146.275C326.5,159.028 339.381,211.405 254.137,240.845C156.258,250.927 192.234,182.765 192.234,182.765L154.325,139.487C154.325,139.487 160.053,151.787 143.032,119.02Z" style="fill:rgb(255,128,0);"/>
                    <g>
                        <clipPath id="_clip2">
                            <path d="M143.032,119.02C126.012,86.254 126.694,55.423 151.435,29.912C173.732,6.922 221.119,-5.854 276.116,23.476C323.596,48.798 340.46,37.155 345.397,31.055C351.53,39.356 359.411,92.891 323.771,102.099C283.488,112.507 290.748,154.7 303.486,155.736C311.958,156.425 320.789,151.611 324.224,146.275C326.5,159.028 339.381,211.405 254.137,240.845C156.258,250.927 192.234,182.765 192.234,182.765L154.325,139.487C154.325,139.487 160.053,151.787 143.032,119.02Z"/>
                        </clipPath>
                        <g clip-path="url(#_clip2)">
                            <path d="M143.032,141.696C143.032,141.696 165.209,117.228 167.498,114.819C169.787,112.41 171.636,67.545 187.537,48.987C192.844,42.792 208.192,35.531 231.249,35.531C268.935,35.531 282.867,59.62 315.734,55.147C348.601,50.673 343.095,27.616 343.095,17.636C343.095,7.656 276.597,-16.07 276.597,-16.07C276.597,-16.07 161.494,-34.554 146.791,-28.673C132.088,-22.792 96.801,-9.769 94.7,-5.568C92.6,-1.367 91.34,42.322 90.5,57.865C89.659,73.408 103.113,110.795 102.688,116.677C102.262,122.558 143.032,141.696 143.032,141.696Z" style="fill:rgb(245,186,28);"/>
                        </g>
                    </g>
                    <path d="M143.032,119.02C126.012,86.254 126.694,55.423 151.435,29.912C173.732,6.922 221.119,-5.854 276.116,23.476C323.596,48.798 340.46,37.155 345.397,31.055C351.53,39.356 359.411,92.891 323.771,102.099C283.488,112.507 290.748,154.7 303.486,155.736C311.958,156.425 320.789,151.611 324.224,146.275C326.5,159.028 339.381,211.405 254.137,240.845C156.258,250.927 192.234,182.765 192.234,182.765L154.325,139.487C154.325,139.487 160.053,151.787 143.032,119.02Z" style="fill:none;stroke:black;stroke-width:15.54px;"/>
                    <g transform="matrix(0.579475,0,0,1,132.294,-36.426)">
                        <path d="M252.325,251.821C251.973,276.785 269.554,294.366 293.112,306.321C316.669,318.275 328.992,318.508 328.992,318.508L329.39,334.227L165.567,334.227" style="fill:rgb(255,242,196);stroke:black;stroke-width:19.02px;"/>
                    </g>
                    <g transform="matrix(0.825128,0,0,1.11203,45.5257,-51.2808)">
                        <rect x="152.138" y="313.914" width="184.345" height="18.13" style="fill:rgb(255,242,196);stroke:black;stroke-width:15.87px;"/>
                    </g>
                </g>
                <g transform="matrix(1.12538,0,0,1.12538,21.1638,16.8525)">
                    <circle cx="203.341" cy="220.316" r="74.554" style="fill:rgb(14,36,67);"/>
                    <clipPath id="_clip3">
                        <circle cx="203.341" cy="220.316" r="74.554"/>
                    </clipPath>
                    <g clip-path="url(#_clip3)">
                        <g transform="matrix(0.888587,0,0,0.888587,-18.8059,-14.9749)">
                            <path d="M300.839,261.63C300.839,286.514 278.059,306.716 250,306.716C221.941,306.716 199.161,286.514 199.161,261.63L199.161,191.451C234.453,168.495 268.324,168.851 300.839,191.451L300.839,261.63ZM283.663,254.624L283.663,209.588C260.943,195.699 238.501,195.699 216.337,209.588L216.337,254.624C216.337,273.365 231.421,288.58 250,288.58C268.579,288.58 283.663,273.365 283.663,254.624Z" style="fill:rgb(250,202,44);stroke:rgb(250,202,44);stroke-width:12.04px;"/>
                        </g>
                        <g transform="matrix(0.894889,0,0,0.65896,22.5732,101.958)">
                            <circle cx="202" cy="223.8" r="77.077" style="fill:white;"/>
                        </g>
                        <g transform="matrix(0.888587,0,0,0.888587,-18.8059,-27.8976)">
                            <path d="M300.839,261.022L300.839,276.173C300.839,301.057 278.059,321.259 250,321.259C221.941,321.259 199.161,301.057 199.161,276.173L199.161,270.658C204.779,268.544 210.513,266.953 216.337,265.557L216.337,269.167C216.337,287.908 231.421,303.123 250,303.123C268.579,303.123 283.663,287.908 283.663,269.167L283.663,259.066C289.406,259.519 295.133,260.18 300.839,261.022Z" style="fill:rgb(216,203,216);"/>
                        </g>
                        <g transform="matrix(0.894889,0,0,0.65896,22.5732,101.958)">
                            <path d="M202,135.909C249.494,135.909 287.04,176.306 287.04,223.8C287.04,271.294 249.494,311.692 202,311.692C154.506,311.692 116.96,271.294 116.96,223.8C116.96,176.306 154.506,135.909 202,135.909ZM202,157.538C178.823,157.538 158.186,168.547 145.446,185.923C137.643,196.565 132.887,209.605 132.887,223.8C132.887,237.996 137.643,251.035 145.446,261.678C158.186,279.053 178.823,290.062 202,290.062C225.177,290.062 245.814,279.053 258.554,261.678C266.357,251.035 271.113,237.996 271.113,223.8C271.113,209.605 266.357,196.565 258.554,185.923C245.814,168.547 225.177,157.538 202,157.538Z"/>
                        </g>
                        <g transform="matrix(0.947267,0,0,0.947267,11.4289,27.1795)">
                            <circle cx="202.595" cy="183.368" r="18.084" style="fill:white;stroke:black;stroke-width:11.76px;"/>
                        </g>
                    </g>
                    <circle cx="203.341" cy="220.316" r="74.554" style="fill:none;stroke:black;stroke-width:11.09px;"/>
                </g>
                <g transform="matrix(0.806356,0,0,0.806356,97.0039,71.9786)">
                    <path d="M143.032,119.02C126.012,86.254 126.694,55.423 151.435,29.912C173.732,6.922 221.119,-5.854 276.116,23.476C323.596,48.798 340.46,37.155 345.397,31.055" style="fill:rgb(255,128,0);"/>
                    <g>
                        <clipPath id="_clip4">
                            <path d="M143.032,119.02C126.012,86.254 126.694,55.423 151.435,29.912C173.732,6.922 221.119,-5.854 276.116,23.476C323.596,48.798 340.46,37.155 345.397,31.055"/>
                        </clipPath>
                        <g clip-path="url(#_clip4)">
                            <path d="M143.032,141.696C143.032,141.696 165.209,117.228 167.498,114.819C169.787,112.41 171.636,67.545 187.537,48.987C192.844,42.792 208.192,35.531 231.249,35.531C268.935,35.531 282.867,59.62 315.734,55.147C348.601,50.673 343.095,27.616 343.095,17.636C343.095,7.656 276.597,-16.07 276.597,-16.07C276.597,-16.07 161.494,-34.554 146.791,-28.673C132.088,-22.792 96.801,-9.769 94.7,-5.568C92.6,-1.367 91.34,42.322 90.5,57.865C89.659,73.408 103.113,110.795 102.688,116.677C102.262,122.558 143.032,141.696 143.032,141.696Z" style="fill:rgb(245,186,28);"/>
                        </g>
                    </g>
                    <path d="M143.032,119.02C126.012,86.254 126.694,55.423 151.435,29.912C173.732,6.922 221.119,-5.854 276.116,23.476C323.596,48.798 340.46,37.155 345.397,31.055" style="fill:none;stroke:black;stroke-width:15.54px;"/>
                    <g transform="matrix(1.02627,0,0,1.02627,-4.91157,-3.35873)">
                        <path d="M286.494,194.279C286.718,203.889 286.232,211.512 286.494,203.246C287.695,165.438 214.024,134.095 213.319,135.999C207.034,152.976 206.015,161.855 192.154,168.198C178.293,174.541 160.674,165.614 141.88,167.493C123.085,169.373 102.986,182.866 91.475,166.656C79.963,150.446 102.626,131.135 111.083,123.617C119.541,116.1 169.395,74.722 185.135,64.62C200.875,54.518 244.816,53.315 257.032,53.785C242.467,65.766 227.02,86.44 228.195,92.548C252.862,111.342 285.154,136.665 286.494,194.279Z" style="fill:rgb(255,242,196);"/>
                    </g>
                    <g transform="matrix(1,0,0,1,-3.72353,-2.06926)">
                        <path d="M215.73,138.103C215.73,138.103 293.572,158.294 297.426,241.541" style="fill:none;stroke:black;stroke-width:15.54px;"/>
                    </g>
                    <g transform="matrix(1.46274,0,0,1.46274,-74.9376,-61.6344)">
                        <path d="M149.916,123.249C147.053,120.687 161.405,109.041 163.458,107.809C165.511,106.577 167.862,117.671 163.62,121.639C159.377,125.608 154.057,126.955 149.916,123.249Z" style="fill:rgb(34,34,34);"/>
                        <g>
                            <clipPath id="_clip5">
                                <path d="M149.916,123.249C147.053,120.687 161.405,109.041 163.458,107.809C165.511,106.577 167.862,117.671 163.62,121.639C159.377,125.608 154.057,126.955 149.916,123.249Z"/>
                            </clipPath>
                            <g clip-path="url(#_clip5)">
                                <g transform="matrix(0.775066,0,0,0.860752,33.7392,14.9878)">
                                    <path d="M149.916,123.249C147.053,120.687 161.405,109.041 163.458,107.809C165.511,106.577 167.862,117.671 163.62,121.639C159.377,125.608 154.057,126.955 149.916,123.249Z"/>
                                </g>
                            </g>
                        </g>
                    </g>
                    <g transform="matrix(0.495622,0,0,0.557891,72.3718,42.8113)">
                        <path d="M149.916,123.249C147.053,120.687 161.405,109.041 163.458,107.809C165.511,106.577 167.862,117.671 163.62,121.639C159.377,125.608 154.057,126.955 149.916,123.249Z" style="fill:white;"/>
                    </g>
                    <g transform="matrix(1.02627,0,0,1.02627,-8.6351,-5.42799)">
                        <path d="M214.237,132.019C213.533,150.109 206.015,161.855 192.154,168.198C178.293,174.541 160.674,165.614 141.88,167.493C123.085,169.373 102.986,182.866 91.475,166.656C79.963,150.446 102.626,131.135 111.083,123.617C119.541,116.1 169.395,74.722 185.135,64.62C200.875,54.518 244.816,53.315 257.032,53.785C242.467,65.766 227.02,86.44 228.195,92.548C252.862,111.342 295.946,154.155 294.565,238.631" style="fill:none;stroke:black;stroke-width:15.15px;"/>
                    </g>
                    <g transform="matrix(-1.67131,0.122499,-0.118153,-1.61202,294.257,376.865)">
                        <path d="M100.798,151.455C101.852,150.1 102.594,148.03 104.652,146.876C106.71,145.721 106.854,147.231 105.868,148.588C104.881,149.945 99.744,152.811 100.798,151.455Z" style="fill:rgb(34,34,34);"/>
                    </g>
                </g>
                <g transform="matrix(0.893365,0,0,0.893365,-17.5643,-20.2402)">
                    <path d="M176.369,99.349C177.149,96.469 179.761,94.47 182.744,94.47C185.727,94.47 188.339,96.469 189.118,99.349L195.486,122.874L219.044,116.626C221.927,115.861 224.964,117.124 226.456,119.707C227.947,122.29 227.522,125.552 225.418,127.667L208.229,144.944L225.418,162.222C227.522,164.336 227.947,167.598 226.456,170.181C224.964,172.764 221.927,174.027 219.044,173.262L195.486,167.015L189.118,190.54C188.339,193.419 185.727,195.418 182.744,195.418C179.761,195.418 177.149,193.419 176.369,190.54L170.002,167.015L146.444,173.262C143.561,174.027 140.523,172.764 139.032,170.181C137.541,167.598 137.966,164.336 140.07,162.222L157.259,144.944L140.07,127.667C137.966,125.552 137.541,122.29 139.032,119.707C140.523,117.124 143.561,115.861 146.444,116.626L170.002,122.874L176.369,99.349Z" style="fill:rgb(245,186,28);"/>
                    <clipPath id="_clip6">
                        <path d="M176.369,99.349C177.149,96.469 179.761,94.47 182.744,94.47C185.727,94.47 188.339,96.469 189.118,99.349L195.486,122.874L219.044,116.626C221.927,115.861 224.964,117.124 226.456,119.707C227.947,122.29 227.522,125.552 225.418,127.667L208.229,144.944L225.418,162.222C227.522,164.336 227.947,167.598 226.456,170.181C224.964,172.764 221.927,174.027 219.044,173.262L195.486,167.015L189.118,190.54C188.339,193.419 185.727,195.418 182.744,195.418C179.761,195.418 177.149,193.419 176.369,190.54L170.002,167.015L146.444,173.262C143.561,174.027 140.523,172.764 139.032,170.181C137.541,167.598 137.966,164.336 140.07,162.222L157.259,144.944L140.07,127.667C137.966,125.552 137.541,122.29 139.032,119.707C140.523,117.124 143.561,115.861 146.444,116.626L170.002,122.874L176.369,99.349Z"/>
                    </clipPath>
                    <g clip-path="url(#_clip6)">
                        <g transform="matrix(0.307362,0,0,0.307362,126.575,100.403)">
                            <path d="M182.744,94.47L190.933,124.162C191.262,125.352 192.045,126.365 193.114,126.982C194.183,127.6 195.453,127.772 196.647,127.461L226.456,119.707L204.837,141.645C203.97,142.525 203.484,143.71 203.484,144.944C203.484,146.179 203.97,147.364 204.837,148.243L226.456,170.181L196.647,162.428C195.453,162.117 194.183,162.289 193.114,162.906C192.045,163.523 191.262,164.537 190.933,165.727L182.744,195.418L174.555,165.727C174.226,164.537 173.443,163.523 172.374,162.906C171.304,162.289 170.035,162.117 168.84,162.428L139.032,170.181L160.651,148.243C161.518,147.364 162.003,146.179 162.003,144.944C162.003,143.71 161.518,142.525 160.651,141.645L139.032,119.707L168.84,127.461C170.035,127.772 171.304,127.6 172.374,126.982C173.443,126.365 174.226,125.352 174.555,124.162L182.744,94.47Z" style="fill:rgb(255,234,177);stroke:rgb(254,234,177);stroke-width:16.54px;"/>
                        </g>
                    </g>
                    <path d="M176.369,99.349C177.149,96.469 179.761,94.47 182.744,94.47C185.727,94.47 188.339,96.469 189.118,99.349L195.486,122.874L219.044,116.626C221.927,115.861 224.964,117.124 226.456,119.707C227.947,122.29 227.522,125.552 225.418,127.667L208.229,144.944L225.418,162.222C227.522,164.336 227.947,167.598 226.456,170.181C224.964,172.764 221.927,174.027 219.044,173.262L195.486,167.015L189.118,190.54C188.339,193.419 185.727,195.418 182.744,195.418C179.761,195.418 177.149,193.419 176.369,190.54L170.002,167.015L146.444,173.262C143.561,174.027 140.523,172.764 139.032,170.181C137.541,167.598 137.966,164.336 140.07,162.222L157.259,144.944L140.07,127.667C137.966,125.552 137.541,122.29 139.032,119.707C140.523,117.124 143.561,115.861 146.444,116.626L170.002,122.874L176.369,99.349Z" style="fill:none;stroke:black;stroke-width:14.03px;"/>
                </g>
            </g>
        </g>
    </g>
</svg>
