<?xml version="1.0" encoding="UTF-8" standalone="no"?>
<!DOCTYPE svg PUBLIC "-//W3C//DTD SVG 1.1//EN" "http://www.w3.org/Graphics/SVG/1.1/DTD/svg11.dtd">
<svg width="100%" height="100%" viewBox="0 0 42 42" version="1.1" xmlns="http://www.w3.org/2000/svg" xmlns:xlink="http://www.w3.org/1999/xlink" xml:space="preserve" xmlns:serif="http://www.serif.com/" style="fill-rule:evenodd;clip-rule:evenodd;">
	<g id="TYPES" transform="matrix(1,0,0,1,3,3)">
		<g id="AMORPHEOUS" transform="matrix(0.949174,0,0,0.949174,1.76912,1.9115)">
			<g>
				<circle id="svg_41" serif:id="svg_4" cx="17.1" cy="16.95" r="17" style="fill:rgb(229,178,244);stroke:rgb(136,85,151);stroke-width:2.11px;" />
				<g transform="matrix(1,0,0,1,0,1.87877)">
					<g opacity="0.2">
						<g transform="matrix(1.23037,0,0,0.973515,-5.01849,-1.69929)">
							<path d="M8.018,19.708C8.807,17.134 10.529,14.133 13.448,14.184C16.366,14.235 18.221,17.869 21.027,18C23.833,18.131 24.158,14.49 25.827,14.537C27.497,14.583 28.245,19.383 28.253,21.679C28.262,23.974 27.265,24.883 26.43,24.962C25.595,25.041 24.977,23.369 22.001,22.003C19.507,20.859 14.665,21.007 10.462,23.512C7.866,25.06 7.229,22.282 8.018,19.708Z" style="fill:rgb(38,38,42);" />
						</g>
						<g transform="matrix(1.23037,0,0,0.973515,-4.94153,-1.20865)">
							<path d="M9.929,12.494C8.816,12.384 11.312,4.639 17.516,4.538C21.773,4.469 24.509,7.426 24.486,8.086C24.452,9.036 21.832,8.968 21.842,9.547C21.865,10.915 24.957,9.833 24.885,11.333C24.844,12.181 22.213,15.294 20.891,15.237C18.526,15.136 16.515,11.235 13.402,11.286C11.7,11.314 10.475,12.548 9.929,12.494Z" style="fill:rgb(38,38,42);" />
						</g>
						<g transform="matrix(1.17249,0,0,0.973515,-1.9669,-3.0534)">
							<ellipse cx="16.262" cy="28.526" rx="7.316" ry="3.564" style="fill:rgb(38,38,42);" />
						</g>
					</g>
				</g>
				<g transform="matrix(1,0,0,1,0,0.626257)">
					<g transform="matrix(1.23037,0,0,0.973515,-5.01849,-1.69929)">
						<path d="M8.018,19.708C8.807,17.134 10.529,14.133 13.448,14.184C16.366,14.235 18.221,17.869 21.027,18C23.833,18.131 24.158,14.49 25.827,14.537C27.497,14.583 28.245,19.383 28.253,21.679C28.262,23.974 27.265,24.883 26.43,24.962C25.595,25.041 24.977,23.369 22.001,22.003C19.507,20.859 14.665,21.007 10.462,23.512C7.866,25.06 7.229,22.282 8.018,19.708Z" style="fill:rgb(38,38,42);" />
					</g>
					<g transform="matrix(1.23037,0,0,0.973515,-4.94153,-1.20865)">
						<path d="M9.929,12.494C8.816,12.384 11.312,4.639 17.516,4.538C21.773,4.469 24.509,7.426 24.486,8.086C24.452,9.036 21.832,8.968 21.842,9.547C21.865,10.915 24.957,9.833 24.885,11.333C24.844,12.181 22.213,15.294 20.891,15.237C18.526,15.136 16.515,11.235 13.402,11.286C11.7,11.314 10.475,12.548 9.929,12.494Z" style="fill:rgb(38,38,42);" />
					</g>
					<g transform="matrix(1.17249,0,0,0.973515,-1.9669,-3.0534)">
						<ellipse cx="16.262" cy="28.526" rx="7.316" ry="3.564" style="fill:rgb(38,38,42);" />
					</g>
				</g>
			</g>
		</g>
		<g id="AMORPHEOUS2" transform="matrix(0.949174,0,0,0.949174,1.76912,1.9115)">
			<g>
				<circle id="svg_42" serif:id="svg_4" cx="17.1" cy="16.95" r="17" style="fill:rgb(229,178,244);stroke:rgb(136,85,151);stroke-width:2.11px;" />
				<g transform="matrix(0.04581,0,0,0.04581,-5.50178,-4.64602)">
					<path d="M493.03,213.02C537.784,196.569 657.802,234.317 647.384,318.239C645.764,331.284 632.75,356.531 587.367,362.216C590.159,371.946 640.841,483.469 467.283,499.4C397.224,505.83 397.259,501.725 327.16,494.34C337.639,497.923 428.162,532.049 551.67,531.239C679.746,530.4 727.609,483.886 731.5,481.77C710.606,474.715 689.559,468.093 668.835,460.553C623.539,444.073 625.263,408.897 673.347,405.718C767.22,399.512 786.007,452.69 759.763,509.043C703.969,628.848 469.599,613.718 462.625,614.764C450.66,616.557 382.938,666.273 467.413,693.764C513.072,708.623 603.767,714.86 691.177,659.131C697.835,654.887 703.682,649.362 710.64,645.63C713.153,644.282 716.874,645.779 716.449,648.599C714.626,660.702 706.606,677.278 661.203,710.657C551.755,791.121 388.4,780.036 336.015,679.546C313.568,636.485 314.448,610.986 340.18,590.9C338.261,590.02 294.412,576.626 260.588,549.801C179.429,485.438 229.421,409.4 255,406.72C298.202,402.194 537.317,418.147 541.467,410.437C544.511,404.785 522.729,376.398 506.548,372.237C504.423,371.691 392.443,362.446 329.239,323.386C295.605,302.599 316.064,259.327 349.481,266.156C372.169,270.792 394.485,277.104 417.065,282.245C433.424,285.97 449.912,289.109 466.29,292.751C534.941,308.017 559.549,307.61 575.6,292.09C569.862,262.138 517.629,247.001 475.936,250.829C466.256,251.717 476.273,220.178 493.03,213.02Z" style="fill:rgb(38,38,42);fill-opacity:0.2;fill-rule:nonzero;" />
				</g>
				<g transform="matrix(0.04581,0,0,0.04581,-5.50178,-5.33951)">
					<path d="M493.03,213.02C537.784,196.569 657.802,234.317 647.384,318.239C645.764,331.284 632.75,356.531 587.367,362.216C590.159,371.946 640.841,483.469 467.283,499.4C397.224,505.83 397.259,501.725 327.16,494.34C337.639,497.923 428.162,532.049 551.67,531.239C679.746,530.4 727.609,483.886 731.5,481.77C710.606,474.715 689.559,468.093 668.835,460.553C623.539,444.073 625.263,408.897 673.347,405.718C767.22,399.512 786.007,452.69 759.763,509.043C703.969,628.848 469.599,613.718 462.625,614.764C450.66,616.557 382.938,666.273 467.413,693.764C513.072,708.623 603.767,714.86 691.177,659.131C697.835,654.887 703.682,649.362 710.64,645.63C713.153,644.282 716.874,645.779 716.449,648.599C714.626,660.702 706.606,677.278 661.203,710.657C551.755,791.121 388.4,780.036 336.015,679.546C313.568,636.485 314.448,610.986 340.18,590.9C338.261,590.02 294.412,576.626 260.588,549.801C179.429,485.438 229.421,409.4 255,406.72C298.202,402.194 537.317,418.147 541.467,410.437C544.511,404.785 522.729,376.398 506.548,372.237C504.423,371.691 392.443,362.446 329.239,323.386C295.605,302.599 316.064,259.327 349.481,266.156C372.169,270.792 394.485,277.104 417.065,282.245C433.424,285.97 449.912,289.109 466.29,292.751C534.941,308.017 559.549,307.61 575.6,292.09C569.862,262.138 517.629,247.001 475.936,250.829C466.256,251.717 476.273,220.178 493.03,213.02Z" style="fill:rgb(38,38,42);fill-rule:nonzero;" />
				</g>
			</g>
		</g>
	</g>
</svg>
