<?xml version="1.0" encoding="UTF-8" standalone="no"?>
<!DOCTYPE svg PUBLIC "-//W3C//DTD SVG 1.1//EN" "http://www.w3.org/Graphics/SVG/1.1/DTD/svg11.dtd">
<svg width="100%" height="100%" viewBox="0 0 42 42" version="1.1" xmlns="http://www.w3.org/2000/svg" xmlns:xlink="http://www.w3.org/1999/xlink" xml:space="preserve" xmlns:serif="http://www.serif.com/" style="fill-rule:evenodd;clip-rule:evenodd;">
    <g transform="matrix(1,0,0,1,3,3)">
        <g id="DARK" transform="matrix(0.949174,0,0,0.949174,1.76912,1.9115)">
            <g>
                <circle id="svg_4" cx="17.1" cy="16.95" r="17" style="fill:rgb(166,166,166);stroke:rgb(44,43,44);stroke-width:2.11px;"/>
                <g transform="matrix(0.976523,0,0,0.976523,-0.47741,-0.452572)">
                    <path d="M22.304,5.372C27.533,7.171 31.295,12.152 31.295,18.008C31.295,25.378 25.338,31.361 18,31.361C10.662,31.361 4.705,25.378 4.705,18.008C4.705,12.152 8.467,7.171 13.696,5.372C11.576,6.779 10.176,9.193 10.176,11.933C10.176,16.27 13.682,19.791 18,19.791C22.318,19.791 25.824,16.27 25.824,11.933C25.824,9.193 24.424,6.779 22.304,5.372Z" style="fill:rgb(48,44,50);fill-opacity:0.2;"/>
                </g>
                <g transform="matrix(0.976523,0,0,0.976523,-0.47741,-1.51837)">
                    <path d="M22.304,5.372C27.533,7.171 31.295,12.152 31.295,18.008C31.295,25.378 25.338,31.361 18,31.361C10.662,31.361 4.705,25.378 4.705,18.008C4.705,12.152 8.467,7.171 13.696,5.372C11.576,6.779 10.176,9.193 10.176,11.933C10.176,16.27 13.682,19.791 18,19.791C22.318,19.791 25.824,16.27 25.824,11.933C25.824,9.193 24.424,6.779 22.304,5.372Z" style="fill:rgb(48,44,50);"/>
                </g>
            </g>
        </g>
    </g>
</svg>
