<?xml version="1.0" encoding="UTF-8" standalone="no"?>
<!DOCTYPE svg PUBLIC "-//W3C//DTD SVG 1.1//EN" "http://www.w3.org/Graphics/SVG/1.1/DTD/svg11.dtd">
<svg width="100%" height="100%" viewBox="0 0 42 42" version="1.1" xmlns="http://www.w3.org/2000/svg" xmlns:xlink="http://www.w3.org/1999/xlink" xml:space="preserve" xmlns:serif="http://www.serif.com/" style="fill-rule:evenodd;clip-rule:evenodd;">
    <g transform="matrix(1,0,0,1,3,3)">
        <g id="FLYING" transform="matrix(0.949174,0,0,0.949174,1.76912,1.9115)">
            <g>
                <circle id="svg_4" cx="17.1" cy="16.95" r="17" style="fill:rgb(232,216,223);stroke:rgb(187,151,167);stroke-width:2.11px;"/>
                <g transform="matrix(0.909984,0,0,0.904089,0.99857,1.22856)">
                    <path d="M15.416,21.1C15.031,20.822 16.91,22.718 16.91,26.57C16.91,29.278 15.671,31.414 11.723,31.414C7.775,31.414 5.833,28.553 5.789,25.975C5.743,23.237 6.464,19.95 18,14.975C25.734,11.64 25.487,4.818 25.433,4.494C25.379,4.169 30.395,9.409 27.487,14.193C25.351,17.708 19.074,22.818 22.027,21.835C22.971,21.521 24.729,20.145 25.383,19.481C26.654,18.192 28.114,15.965 28.964,14.18C29.7,12.634 28.827,20.229 24.365,23.12C23.905,23.418 21.052,25.186 21.281,25.526C21.52,25.881 24.203,24.503 24.857,24.066C26.087,23.245 27.958,21.462 28.471,20.689C30.921,17 28.92,23.105 26.873,25.559C25.383,27.346 22.86,28.703 21.994,29C19.939,29.703 18.341,29.756 18.466,28.328C18.726,25.345 16.604,21.96 15.416,21.1Z" style="fill:rgb(48,44,50);fill-opacity:0.2;"/>
                </g>
                <g transform="matrix(0.909984,0,0,0.904089,0.99857,0.220414)">
                    <path d="M15.416,21.1C15.031,20.822 16.91,22.718 16.91,26.57C16.91,29.278 15.671,31.414 11.723,31.414C7.775,31.414 5.833,28.553 5.789,25.975C5.743,23.237 6.464,19.95 18,14.975C25.734,11.64 25.487,4.818 25.433,4.494C25.379,4.169 30.395,9.409 27.487,14.193C25.351,17.708 19.074,22.818 22.027,21.835C22.971,21.521 24.729,20.145 25.383,19.481C26.654,18.192 28.114,15.965 28.964,14.18C29.7,12.634 28.827,20.229 24.365,23.12C23.905,23.418 21.052,25.186 21.281,25.526C21.52,25.881 24.203,24.503 24.857,24.066C26.087,23.245 27.958,21.462 28.471,20.689C30.921,17 28.92,23.105 26.873,25.559C25.383,27.346 22.86,28.703 21.994,29C19.939,29.703 18.341,29.756 18.466,28.328C18.726,25.345 16.604,21.96 15.416,21.1Z" style="fill:rgb(48,44,50);"/>
                </g>
            </g>
        </g>
    </g>
</svg>
