<?xml version="1.0" encoding="UTF-8" standalone="no"?>
<!DOCTYPE svg PUBLIC "-//W3C//DTD SVG 1.1//EN" "http://www.w3.org/Graphics/SVG/1.1/DTD/svg11.dtd">
<svg width="100%" height="100%" viewBox="0 0 42 42" version="1.1" xmlns="http://www.w3.org/2000/svg" xmlns:xlink="http://www.w3.org/1999/xlink" xml:space="preserve" xmlns:serif="http://www.serif.com/" style="fill-rule:evenodd;clip-rule:evenodd;">
    <g transform="matrix(1,0,0,1,3,3)">
        <g id="GOURMET" transform="matrix(0.949174,0,0,0.949174,1.76912,1.9115)">
            <g>
                <circle id="svg_42" serif:id="svg_4" cx="17.1" cy="16.95" r="17" style="fill:rgb(255,132,115);stroke:rgb(229,89,82);stroke-width:2.11px;"/>
                <g transform="matrix(0.951949,0,0,0.951949,0.796794,1.33087)">
                    <g opacity="0.2">
                        <g transform="matrix(1.05355,0,0,1.05355,-1.86385,-2.01385)">
                            <path d="M9.051,16.404C9.051,14.822 13.262,11.819 13.262,11.513C13.262,11.208 13.053,10.542 12.311,10.868C10.513,11.659 11.43,9.689 12.671,8.736C13.4,8.177 15.553,7.244 14.672,9.217C14.317,10.014 15.144,10.144 15.487,9.993C17.163,9.257 22.3,8.808 23.291,9.624C24.769,10.841 21.182,13.862 18.878,15.47C16.333,17.248 9.051,19.439 9.051,16.404Z" style="fill:rgb(38,38,42);"/>
                        </g>
                        <g transform="matrix(1.05355,0,0,1.05355,-1.86385,-2.01385)">
                            <path d="M19.283,17.608C18.801,17.022 18.961,14.81 24.021,13.751C25.726,13.394 26.513,11.08 26.216,9.775C25.779,7.853 24.636,6.559 22,6.839C17.501,7.317 23.543,5.317 25.869,6.274C28.195,7.23 29.455,9.143 28.89,11.012C28.325,12.881 25.521,13.946 24.021,14.272C22.522,14.598 20.09,14.862 20.848,17.315C21.217,18.511 20.131,18.641 19.283,17.608Z" style="fill:rgb(38,38,42);"/>
                        </g>
                        <g transform="matrix(1.05355,0,0,1.05355,-1.86385,-2.01385)">
                            <path d="M23.202,17.913C21.985,17.649 21.346,15.815 23.209,15.694C26.897,15.454 27.335,12.552 29.511,13.943C30.7,14.702 29.486,14.429 28.23,14.795C27.478,15.014 27.169,15.737 26.03,17.122C25.13,18.217 24.027,18.092 23.202,17.913Z" style="fill:rgb(38,38,42);"/>
                        </g>
                        <g transform="matrix(1.05355,0,0,1.05355,-1.86385,-2.01385)">
                            <path d="M9.552,19.005C10.375,19.048 25.625,19.048 26.448,19.005C27.272,18.963 26.949,20.187 26.949,20.187C26.949,20.187 29.564,19.55 29.861,20.526C30.616,23.005 26.153,23.826 25.983,24.038C25.813,24.25 26.461,30.118 22.413,30.118L13.587,30.118C9.539,30.118 10.187,24.25 10.017,24.038C9.847,23.826 5.384,23.005 6.139,20.526C6.436,19.55 9.051,20.187 9.051,20.187C9.051,20.187 8.728,18.963 9.552,19.005Z" style="fill:rgb(38,38,42);"/>
                        </g>
                    </g>
                </g>
                <g transform="matrix(0.951949,0,0,0.951949,0.796794,0.168594)">
                    <g transform="matrix(1.05355,0,0,1.05355,-1.86385,-2.01385)">
                        <path d="M9.051,16.404C9.051,14.822 13.262,11.819 13.262,11.513C13.262,11.208 13.053,10.542 12.311,10.868C10.513,11.659 11.43,9.689 12.671,8.736C13.4,8.177 15.553,7.244 14.672,9.217C14.317,10.014 15.144,10.144 15.487,9.993C17.163,9.257 22.3,8.808 23.291,9.624C24.769,10.841 21.182,13.862 18.878,15.47C16.333,17.248 9.051,19.439 9.051,16.404Z" style="fill:rgb(38,38,42);"/>
                    </g>
                    <g transform="matrix(1.05355,0,0,1.05355,-1.86385,-2.01385)">
                        <path d="M19.283,17.608C18.801,17.022 18.961,14.81 24.021,13.751C25.726,13.394 26.513,11.08 26.216,9.775C25.779,7.853 24.636,6.559 22,6.839C17.501,7.317 23.543,5.317 25.869,6.274C28.195,7.23 29.455,9.143 28.89,11.012C28.325,12.881 25.521,13.946 24.021,14.272C22.522,14.598 20.09,14.862 20.848,17.315C21.217,18.511 20.131,18.641 19.283,17.608Z" style="fill:rgb(38,38,42);"/>
                    </g>
                    <g transform="matrix(1.05355,0,0,1.05355,-1.86385,-2.01385)">
                        <path d="M23.202,17.913C21.985,17.649 21.346,15.815 23.209,15.694C26.897,15.454 27.335,12.552 29.511,13.943C30.7,14.702 29.486,14.429 28.23,14.795C27.478,15.014 27.169,15.737 26.03,17.122C25.13,18.217 24.027,18.092 23.202,17.913Z" style="fill:rgb(38,38,42);"/>
                    </g>
                    <g transform="matrix(1.05355,0,0,1.05355,-1.86385,-2.01385)">
                        <path d="M9.552,19.005C10.375,19.048 25.625,19.048 26.448,19.005C27.272,18.963 26.949,20.187 26.949,20.187C26.949,20.187 29.564,19.55 29.861,20.526C30.616,23.005 26.153,23.826 25.983,24.038C25.813,24.25 26.461,30.118 22.413,30.118L13.587,30.118C9.539,30.118 10.187,24.25 10.017,24.038C9.847,23.826 5.384,23.005 6.139,20.526C6.436,19.55 9.051,20.187 9.051,20.187C9.051,20.187 8.728,18.963 9.552,19.005Z" style="fill:rgb(38,38,42);"/>
                    </g>
                </g>
            </g>
        </g>
    </g>
</svg>
