<?xml version="1.0" encoding="UTF-8" standalone="no"?>
<!DOCTYPE svg PUBLIC "-//W3C//DTD SVG 1.1//EN" "http://www.w3.org/Graphics/SVG/1.1/DTD/svg11.dtd">
<svg width="100%" height="100%" viewBox="0 0 42 42" version="1.1" xmlns="http://www.w3.org/2000/svg" xmlns:xlink="http://www.w3.org/1999/xlink" xml:space="preserve" xmlns:serif="http://www.serif.com/" style="fill-rule:evenodd;clip-rule:evenodd;">
    <g transform="matrix(1,0,0,1,3,3)">
        <g id="HUMAN" transform="matrix(0.949174,0,0,0.949174,1.76912,1.9115)">
            <g>
                <circle id="svg_4" cx="17.1" cy="16.95" r="17" style="fill:rgb(253,187,139);stroke:rgb(107,59,24);stroke-width:2.11px;"/>
                <g transform="matrix(1,0,0,1,0,1.01214)">
                    <g opacity="0.2">
                        <g transform="matrix(1.05354,0.00274876,-0.00304738,1.168,-1.03987,-4.73044)">
                            <path d="M12.294,9.122C11.349,8.653 9.981,10.327 8.991,13.776C8.239,16.395 8.126,18.426 9.366,19.945C11.055,22.014 12.978,22.086 15.737,23.396C20.09,25.462 21.387,27.36 22.054,27.994C23.38,29.253 24.153,29.895 25.416,26.879C26.209,24.987 26.652,22.506 25.001,20.056C23.309,17.547 17.674,16.586 15.313,14.996C13.022,13.453 13.239,9.59 12.294,9.122Z" style="fill:rgb(48,44,50);"/>
                        </g>
                        <g transform="matrix(1.28507,0,0,1.34382,-6.41712,-5.23109)">
                            <ellipse cx="19.88" cy="10.191" rx="3.431" ry="3.297" style="fill:rgb(48,44,50);"/>
                        </g>
                    </g>
                </g>
                <g>
                    <g transform="matrix(1.05354,0.00274876,-0.00304738,1.168,-1.03987,-4.73044)">
                        <path d="M12.294,9.122C11.349,8.653 9.981,10.327 8.991,13.776C8.239,16.395 8.126,18.426 9.366,19.945C11.055,22.014 12.978,22.086 15.737,23.396C20.09,25.462 21.387,27.36 22.054,27.994C23.38,29.253 24.153,29.895 25.416,26.879C26.209,24.987 26.652,22.506 25.001,20.056C23.309,17.547 17.674,16.586 15.313,14.996C13.022,13.453 13.239,9.59 12.294,9.122Z" style="fill:rgb(48,44,50);"/>
                    </g>
                    <g transform="matrix(1.28507,0,0,1.34382,-6.41712,-5.23109)">
                        <ellipse cx="19.88" cy="10.191" rx="3.431" ry="3.297" style="fill:rgb(48,44,50);"/>
                    </g>
                </g>
            </g>
        </g>
    </g>
</svg>
