<?xml version="1.0" encoding="UTF-8" standalone="no"?>
<svg width="100%" height="100%" viewBox="0 0 42 42" version="1.1" xml:space="preserve" style="fill-rule:evenodd;clip-rule:evenodd;" id="svg13" xmlns="http://www.w3.org/2000/svg" xmlns:svg="http://www.w3.org/2000/svg">
	<defs id="defs13" />
	<g transform="matrix(1,0,0,1,3,3)" id="g13">
		<g id="g14" style="clip-rule:evenodd;display:inline;fill-rule:evenodd" transform="matrix(0.0389089,0,0,0.0389089,17.117235,17.117239)">
			<path d="m 20.67,-394.25 c -28.62,0 -56.55,2.9 -83.54,8.41 L 20.67,20.67 Z" fill="#b2e9ff" id="path1-1" />
			<path d="m -62.87,-385.84 c -27.83,5.69 -54.63,14.17 -80.13,25.12 L 20.67,20.67 Z" fill="#c3e4ee" id="path2-7" />
			<path d="m -142.99,-360.71 c -25.93,11.14 -50.5,24.85 -73.38,40.81 L 20.68,20.68 Z" fill="#fffefe" id="path3-8" />
			<path d="m -216.38,-319.91 c -23.04,16.07 -44.38,34.41 -63.68,54.71 L 20.67,20.67 Z" fill="#ededed" id="path4-7" />
			<path d="m -280.06,-265.19 c -19.28,20.28 -36.54,42.51 -51.44,66.36 L 20.67,20.68 Z" fill="#dbdbdb" id="path5" />
			<path d="m -331.5,-198.84 c -14.76,23.63 -27.21,48.86 -37.03,75.37 L 20.67,20.67 Z" fill="#a6a6a6" id="path6-6" />
			<path d="m -368.52,-123.47 c -9.62,25.98 -16.73,53.17 -21,81.3 L 20.67,20.67 Z" fill="#876dad" id="path7-1" />
			<path d="m -389.52,-42.17 c -3.11,20.49 -4.73,41.48 -4.73,62.84 0,7.05 0.18,14.05 0.53,21.02 L 20.68,20.67 Z" fill="#b955d2" id="path8-4" />
			<path d="m -393.73,41.69 c 1.42,28.52 5.73,56.29 12.63,83.01 L 20.67,20.67 Z" fill="#ff60f1" id="path9-2" />
			<path d="m -381.1,124.7 c 7.09,27.45 16.92,53.8 29.18,78.74 L 20.68,20.67 -381.09,124.7 Z" fill="#e5b2f4" id="path10" />
			<path d="m -351.92,203.44 c 12.43,25.3 27.37,49.14 44.48,71.22 L 20.68,20.67 Z" fill="#ffafd1" id="path11" />
			<path d="m -307.45,274.66 c 17.19,22.18 36.59,42.57 57.85,60.84 L 20.67,20.67 Z" fill="#ff6095" id="path12" />
			<path d="m -249.6,335.5 c 21.2,18.22 44.27,34.34 68.87,48.02 L 20.67,20.67 Z" fill="#ff8473" id="path13" />
			<path d="m -180.72,383.52 c 24.32,13.53 50.14,24.68 77.15,33.15 l 124.24,-396 -201.4,362.85 z" fill="#d64253" id="path14" />
			<path d="m -103.57,416.67 c 26.39,8.27 53.9,13.98 82.26,16.83 l 41.98,-412.82 -124.24,396 z" fill="#f33218" id="path15" />
			<path d="m -21.31,433.5 c 13.81,1.39 27.81,2.1 41.98,2.1 14.17,0 28.17,-0.71 41.98,-2.1 L 20.67,20.68 Z" fill="#ff9024" id="path16" />
			<path d="m 62.65,433.5 c 28.36,-2.85 55.88,-8.56 82.26,-16.83 L 20.67,20.67 62.65,433.49 Z" fill="#de8a4e" id="path17" />
			<path d="m 144.92,416.67 c 27.01,-8.47 52.83,-19.62 77.15,-33.15 L 20.67,20.67 l 124.24,396 z" fill="#b87333" id="path18" />
			<path d="m 222.07,383.52 c 24.6,-13.69 47.67,-29.8 68.87,-48.02 L 20.67,20.67 Z" fill="#c6964a" id="path19" />
			<path d="m 290.95,335.5 c 21.27,-18.27 40.66,-38.66 57.85,-60.84 L 20.68,20.67 Z" fill="#fdbb8b" id="path20" />
			<path d="m 348.8,274.66 c 17.11,-22.07 32.04,-45.92 44.48,-71.22 L 20.68,20.67 Z" fill="#ffd79a" id="path21" />
			<path d="m 20.67,20.67 372.6,182.77 c 12.26,-24.94 22.09,-51.29 29.18,-78.74 L 20.68,20.67 Z" fill="#fded1e" id="path22" />
			<path d="m 422.45,124.7 c 6.9,-26.72 11.2,-54.49 12.63,-83.01 L 20.68,20.67 Z" fill="#fffe66" id="path23" />
			<path d="m 435.07,41.69 c 0.35,-6.96 0.53,-13.97 0.53,-21.02 0,-21.36 -1.62,-42.35 -4.73,-62.84 L 20.68,20.67 435.08,41.69 Z" fill="#fff896" id="path24" />
			<path d="m 430.87,-42.17 c -4.27,-28.13 -11.38,-55.33 -21,-81.3 L 20.67,20.67 430.86,-42.17 Z" fill="#e7e5af" id="path25" />
			<path d="m 409.87,-123.47 c -9.82,-26.5 -22.26,-51.73 -37.03,-75.37 L 20.67,20.67 Z" fill="#d2d35b" id="path26" />
			<path d="m 372.84,-198.84 c -14.9,-23.85 -32.15,-46.08 -51.44,-66.36 L 20.67,20.67 Z" fill="#74ec62" id="path27" />
			<path d="m 321.41,-265.19 c -19.3,-20.3 -40.64,-38.64 -63.68,-54.71 L 20.68,20.68 Z" fill="#03d979" id="path28" />
			<path d="m 257.73,-319.91 c -22.88,-15.96 -47.45,-29.67 -73.38,-40.81 L 20.68,20.67 Z" fill="#88d7a0" id="path29" />
			<path d="m 184.34,-360.71 c -25.49,-10.95 -52.3,-19.43 -80.13,-25.12 L 20.67,20.68 Z" fill="#51d9d9" id="path30" />
			<path d="m 104.21,-385.84 c -26.99,-5.52 -54.92,-8.41 -83.54,-8.41 v 0 414.92 z" fill="#81c7fc" id="path31" />
			<circle id="c" cx="20.670013" cy="20.670013" r="414.92001" fill="none" stroke="#CCCCCC" stroke-miterlimit="97.63" stroke-width="51.5" />
			<polygon points="426.05,204.76 406.14,305.86 327.24,350.29 230.73,316.59 274.39,167.99 " fill="#302c32" fill-rule="evenodd" opacity="0.2" id="polygon31" transform="translate(-420,-420)" />
			<polygon points="426.05,706.46 406.14,605.35 327.24,560.93 230.73,594.63 274.39,743.23 " fill="#302c32" fill-rule="evenodd" opacity="0.2" id="polygon32" transform="translate(-420,-420)" />
			<polygon points="214.96,568.29 293.19,501.21 293.06,410.67 216.24,343.23 108.34,454.34 " fill="#302c32" fill-rule="evenodd" opacity="0.2" id="polygon33" transform="translate(-420,-420)" />
			<path d="M -75.9,-23.75 V 92.68 l 96.33,55.17 96.36,-55.17 V -23.75 c 4.56,0 -94.96,-52.34 -96.33,-53.02 z" fill="#302c32" fill-rule="evenodd" opacity="0.2" id="path33" />
			<polygon points="454.83,204.76 474.74,305.86 553.64,350.29 650.15,316.59 606.49,167.99 " fill="#302c32" fill-rule="evenodd" opacity="0.2" id="polygon34" transform="translate(-420,-420)" />
			<polygon points="454.83,706.46 606.49,743.23 650.15,594.63 553.64,560.93 474.74,605.35 " fill="#302c32" fill-rule="evenodd" opacity="0.2" id="polygon35" transform="translate(-420,-420)" />
			<polygon points="665.92,568.29 772.54,454.34 664.64,343.23 587.83,410.67 587.69,501.21 " fill="#302c32" fill-rule="evenodd" opacity="0.2" id="polygon36" transform="translate(-420,-420)" />
			<polygon points="426.04,181.1 406.12,282.2 327.23,326.63 230.72,292.93 274.38,144.33 " fill="#302c32" fill-rule="evenodd" id="polygon37" transform="translate(-420,-420)" />
			<polygon points="426.04,682.8 406.12,581.69 327.23,537.27 230.72,570.97 274.38,719.57 " fill="#302c32" fill-rule="evenodd" id="polygon38" transform="translate(-420,-420)" />
			<polygon points="214.95,544.63 293.17,477.55 293.04,387.01 216.22,319.57 108.33,430.68 " fill="#302c32" fill-rule="evenodd" id="polygon39" transform="translate(-420,-420)" />
			<path d="M -75.92,-47.41 V 69.02 l 96.33,55.17 96.36,-55.17 V -47.41 c 4.56,0 -94.96,-52.34 -96.33,-53.02 z" fill="#302c32" fill-rule="evenodd" id="path39" />
			<polygon points="454.81,181.1 474.73,282.2 553.62,326.63 650.13,292.93 606.47,144.33 " fill="#302c32" fill-rule="evenodd" id="polygon40" transform="translate(-420,-420)" />
			<polygon points="454.81,682.8 606.47,719.57 650.13,570.97 553.62,537.27 474.73,581.69 " fill="#302c32" fill-rule="evenodd" id="polygon41" transform="translate(-420,-420)" />
			<polygon points="665.91,544.63 772.52,430.68 664.63,319.57 587.81,387.01 587.68,477.55 " fill="#302c32" fill-rule="evenodd" id="polygon42" transform="translate(-420,-420)" />
		</g>
	</g>
</svg>
