<?xml version="1.0" encoding="UTF-8"?>
<svg id="a" xmlns="http://www.w3.org/2000/svg" width="881.35" height="881.35" viewBox="0 0 881.35 881.35">
	<g id="b">
		<path d="M440.67,25.75c-28.62,0-56.55,2.9-83.54,8.41l83.54,406.51V25.75Z" fill="#b2e9ff" />
		<path d="M357.13,34.16c-27.83,5.69-54.63,14.17-80.13,25.12l163.67,381.39L357.13,34.16Z" fill="#c3e4ee" />
		<path d="M277.01,59.29c-25.93,11.14-50.5,24.85-73.38,40.81l237.05,340.58L277.01,59.29Z" fill="#fffefe" />
		<path d="M203.62,100.09c-23.04,16.07-44.38,34.41-63.68,54.71l300.73,285.87L203.62,100.09Z" fill="#ededed" />
		<path d="M139.94,154.81c-19.28,20.28-36.54,42.51-51.44,66.36l352.17,219.51L139.94,154.81Z" fill="#dbdbdb" />
		<path d="M88.5,221.16c-14.76,23.63-27.21,48.86-37.03,75.37l389.2,144.14L88.5,221.16Z" fill="#a6a6a6" />
		<path d="M51.48,296.53c-9.62,25.98-16.73,53.17-21,81.3l410.19,62.84L51.48,296.53Z" fill="#876dad" />
		<path d="M30.48,377.83c-3.11,20.49-4.73,41.48-4.73,62.84,0,7.05.18,14.05.53,21.02l414.4-21.02L30.48,377.83Z" fill="#b955d2" />
		<path d="M26.27,461.69c1.42,28.52,5.73,56.29,12.63,83.01l401.77-104.03-414.4,21.02Z" fill="#ff60f1" />
		<path d="M38.9,544.7c7.09,27.45,16.92,53.8,29.18,78.74l372.6-182.77-401.77,104.03Z" fill="#e5b2f4" />
		<path d="M68.08,623.44c12.43,25.3,27.37,49.14,44.48,71.22l328.12-253.99-372.6,182.77Z" fill="#ffafd1" />
		<path d="M112.55,694.66c17.19,22.18,36.59,42.57,57.85,60.84l270.27-314.83-328.12,253.99Z" fill="#ff6095" />
		<path d="M170.4,755.5c21.2,18.22,44.27,34.34,68.87,48.02l201.4-362.85-270.27,314.83Z" fill="#ff8473" />
		<path d="M239.28,803.52c24.32,13.53,50.14,24.68,77.15,33.15l124.24-396-201.4,362.85Z" fill="#d64253" />
		<path d="M316.43,836.67c26.39,8.27,53.9,13.98,82.26,16.83l41.98-412.82-124.24,396Z" fill="#f33218" />
		<path d="M398.69,853.5c13.81,1.39,27.81,2.1,41.98,2.1s28.17-.71,41.98-2.1l-41.98-412.82-41.98,412.82Z" fill="#ff9024" />
		<path d="M482.65,853.5c28.36-2.85,55.88-8.56,82.26-16.83l-124.24-396,41.98,412.82Z" fill="#de8a4e" />
		<path d="M564.92,836.67c27.01-8.47,52.83-19.62,77.15-33.15l-201.4-362.85,124.24,396Z" fill="#b87333" />
		<path d="M642.07,803.52c24.6-13.69,47.67-29.8,68.87-48.02l-270.27-314.83,201.4,362.85Z" fill="#c6964a" />
		<path d="M710.95,755.5c21.27-18.27,40.66-38.66,57.85-60.84l-328.12-253.99,270.27,314.83Z" fill="#fdbb8b" />
		<path d="M768.8,694.66c17.11-22.07,32.04-45.92,44.48-71.22l-372.6-182.77,328.12,253.99Z" fill="#ffd79a" />
		<path d="M440.67,440.67l372.6,182.77c12.26-24.94,22.09-51.29,29.18-78.74l-401.77-104.03Z" fill="#fded1e" />
		<path d="M842.45,544.7c6.9-26.72,11.2-54.49,12.63-83.01l-414.4-21.02,401.77,104.03Z" fill="#fffe66" />
		<path d="M855.07,461.69c.35-6.96.53-13.97.53-21.02,0-21.36-1.62-42.35-4.73-62.84l-410.19,62.84,414.4,21.02Z" fill="#fff896" />
		<path d="M850.87,377.83c-4.27-28.13-11.38-55.33-21-81.3l-389.2,144.14,410.19-62.84Z" fill="#e7e5af" />
		<path d="M829.87,296.53c-9.82-26.5-22.26-51.73-37.03-75.37l-352.17,219.51,389.2-144.14Z" fill="#d2d35b" />
		<path d="M792.84,221.16c-14.9-23.85-32.15-46.08-51.44-66.36l-300.73,285.87,352.17-219.51Z" fill="#74ec62" />
		<path d="M741.41,154.81c-19.3-20.3-40.64-38.64-63.68-54.71l-237.05,340.58,300.73-285.87Z" fill="#03d979" />
		<path d="M677.73,100.09c-22.88-15.96-47.45-29.67-73.38-40.81l-163.67,381.39,237.05-340.58Z" fill="#88d7a0" />
		<path d="M604.34,59.29c-25.49-10.95-52.3-19.43-80.13-25.12l-83.54,406.51L604.34,59.29Z" fill="#51d9d9" />
		<path d="M524.21,34.16c-26.99-5.52-54.92-8.41-83.54-8.41h0v414.92s83.54-406.51,83.54-406.51Z" fill="#81c7fc" />
		<circle id="c" cx="440.67" cy="440.67" r="414.92" fill="none" stroke="#302c32" stroke-miterlimit="97.63" stroke-width="51.5" />
		<polygon points="230.73 316.59 274.39 167.99 426.05 204.76 406.14 305.86 327.24 350.29 230.73 316.59" fill="#302c32" fill-rule="evenodd" opacity=".2" />
		<polygon points="230.73 594.63 274.39 743.23 426.05 706.46 406.14 605.35 327.24 560.93 230.73 594.63" fill="#302c32" fill-rule="evenodd" opacity=".2" />
		<polygon points="216.24 343.23 108.34 454.34 214.96 568.29 293.19 501.21 293.06 410.67 216.24 343.23" fill="#302c32" fill-rule="evenodd" opacity=".2" />
		<path d="M344.1,396.25v116.43l96.33,55.17,96.36-55.17v-116.43c4.56,0-94.96-52.34-96.33-53.02l-96.36,53.02Z" fill="#302c32" fill-rule="evenodd" opacity=".2" />
		<polygon points="650.15 316.59 606.49 167.99 454.83 204.76 474.74 305.86 553.64 350.29 650.15 316.59" fill="#302c32" fill-rule="evenodd" opacity=".2" />
		<polygon points="553.64 560.93 474.74 605.35 454.83 706.46 606.49 743.23 650.15 594.63 553.64 560.93" fill="#302c32" fill-rule="evenodd" opacity=".2" />
		<polygon points="587.83 410.67 587.69 501.21 665.92 568.29 772.54 454.34 664.64 343.23 587.83 410.67" fill="#302c32" fill-rule="evenodd" opacity=".2" />
		<polygon points="230.72 292.93 274.38 144.33 426.04 181.1 406.12 282.2 327.23 326.63 230.72 292.93" fill="#302c32" fill-rule="evenodd" />
		<polygon points="230.72 570.97 274.38 719.57 426.04 682.8 406.12 581.69 327.23 537.27 230.72 570.97" fill="#302c32" fill-rule="evenodd" />
		<polygon points="216.22 319.57 108.33 430.68 214.95 544.63 293.17 477.55 293.04 387.01 216.22 319.57" fill="#302c32" fill-rule="evenodd" />
		<path d="M344.08,372.59v116.43l96.33,55.17,96.36-55.17v-116.43c4.56,0-94.96-52.34-96.33-53.02l-96.36,53.02Z" fill="#302c32" fill-rule="evenodd" />
		<polygon points="650.13 292.93 606.47 144.33 454.81 181.1 474.73 282.2 553.62 326.63 650.13 292.93" fill="#302c32" fill-rule="evenodd" />
		<polygon points="553.62 537.27 474.73 581.69 454.81 682.8 606.47 719.57 650.13 570.97 553.62 537.27" fill="#302c32" fill-rule="evenodd" />
		<polygon points="587.81 387.01 587.68 477.55 665.91 544.63 772.52 430.68 664.63 319.57 587.81 387.01" fill="#302c32" fill-rule="evenodd" />
	</g>
</svg>
