<?xml version="1.0" encoding="UTF-8" standalone="no"?>
<!DOCTYPE svg PUBLIC "-//W3C//DTD SVG 1.1//EN" "http://www.w3.org/Graphics/SVG/1.1/DTD/svg11.dtd">
<svg width="100%" height="100%" viewBox="0 0 42 42" version="1.1" xmlns="http://www.w3.org/2000/svg" xmlns:xlink="http://www.w3.org/1999/xlink" xml:space="preserve" xmlns:serif="http://www.serif.com/" style="fill-rule:evenodd;clip-rule:evenodd;">
    <g transform="matrix(1,0,0,1,3,3)">
        <g id="AQUATIC" transform="matrix(0.949174,0,0,0.949174,1.76912,1.9115)">
            <g>
                <circle id="svg_4" cx="17.1" cy="16.95" r="17" style="fill:rgb(25,185,247);stroke:rgb(6,45,59);stroke-width:2.11px;"/>
                <g transform="matrix(1,0,0,1,-0.276494,-1.45021)">
                    <g opacity="0.2">
                        <g transform="matrix(1.05355,0,0,1.05355,-1.86385,-2.01385)">
                            <path d="M5.646,22.673C8.542,22.332 9.95,20.702 12.742,20.856C14.837,20.972 16.737,22.51 18.435,21.397C20.438,20.084 20.628,16.851 18.241,15.399C17.328,14.844 15.884,15.044 15.252,15.714C14.505,16.505 14.61,17.375 14.828,18C15.203,19.074 13.164,17.942 12.828,16.68C12.663,16.059 13.009,13.859 13.941,12.958C16.394,10.585 18.713,10.464 21.858,11.484C23.144,11.901 26.66,13.746 27.36,14.943C28.062,16.142 25.52,13.909 24.669,14.763C24.386,15.046 24.698,15.751 24.776,16.003C24.975,16.645 25.059,18.131 24.914,18.846C24.387,21.437 24.022,22.203 22.699,23.157C21.732,23.854 19.436,24.33 17.97,24.131C15.981,23.861 15.84,23.751 13.969,23.231C11.226,22.468 10.506,23.166 7.8,23.309C5.69,23.42 1.683,23.139 5.646,22.673Z" style="fill:rgb(48,44,50);"/>
                        </g>
                        <g transform="matrix(1.36035,0,0,1.05355,-4.25919,1.86029)">
                            <path d="M7.174,20.499C8.62,20.955 9.436,20.021 11.011,20.088C13.107,20.177 15.767,21.75 17.708,21.724C19.115,21.706 20.915,20.529 21.869,18.779C23.271,16.21 21.204,11.619 23.922,14.331C24.97,15.377 25.709,18.079 25.688,19.7C25.652,22.379 21.474,23.801 17.784,23.716C14.94,23.651 13.42,22.503 11.333,22.388C10.015,22.315 8.531,23.554 6.577,21.982C5.545,21.151 4.447,19.64 7.174,20.499Z" style="fill:rgb(48,44,50);"/>
                        </g>
                    </g>
                </g>
                <g transform="matrix(1,0,0,1,-0.276494,-2.51345)">
                    <g transform="matrix(1.05355,0,0,1.05355,-1.86385,-2.01385)">
                        <path d="M5.646,22.673C8.542,22.332 9.95,20.702 12.742,20.856C14.837,20.972 16.737,22.51 18.435,21.397C20.438,20.084 20.628,16.851 18.241,15.399C17.328,14.844 15.884,15.044 15.252,15.714C14.505,16.505 14.61,17.375 14.828,18C15.203,19.074 13.164,17.942 12.828,16.68C12.663,16.059 13.009,13.859 13.941,12.958C16.394,10.585 18.713,10.464 21.858,11.484C23.144,11.901 26.66,13.746 27.36,14.943C28.062,16.142 25.52,13.909 24.669,14.763C24.386,15.046 24.698,15.751 24.776,16.003C24.975,16.645 25.059,18.131 24.914,18.846C24.387,21.437 24.022,22.203 22.699,23.157C21.732,23.854 19.436,24.33 17.97,24.131C15.981,23.861 15.875,23.506 14.004,22.986C11.261,22.224 10.506,23.166 7.8,23.309C5.69,23.42 1.683,23.139 5.646,22.673Z" style="fill:rgb(48,44,50);"/>
                    </g>
                    <g transform="matrix(1.36035,0,0,1.05355,-4.25919,1.86029)">
                        <path d="M7.174,20.499C8.62,20.955 9.436,20.021 11.011,20.088C13.107,20.177 15.767,21.75 17.708,21.724C19.115,21.706 20.915,20.529 21.869,18.779C23.271,16.21 21.204,11.619 23.922,14.331C24.97,15.377 25.709,18.079 25.688,19.7C25.652,22.379 21.474,23.801 17.784,23.716C14.94,23.651 13.42,22.503 11.333,22.388C10.015,22.315 8.531,23.554 6.577,21.982C5.545,21.151 4.447,19.64 7.174,20.499Z" style="fill:rgb(48,44,50);"/>
                    </g>
                </g>
            </g>
        </g>
    </g>
</svg>
