<?xml version="1.0" encoding="UTF-8" standalone="no"?>
<!DOCTYPE svg PUBLIC "-//W3C//DTD SVG 1.1//EN" "http://www.w3.org/Graphics/SVG/1.1/DTD/svg11.dtd">
<svg width="100%" height="100%" viewBox="0 0 42 42" version="1.1" xmlns="http://www.w3.org/2000/svg" xmlns:xlink="http://www.w3.org/1999/xlink" xml:space="preserve" xmlns:serif="http://www.serif.com/" style="fill-rule:evenodd;clip-rule:evenodd;">
    <g transform="matrix(1,0,0,1,3,3)">
        <g id="ARTIFICIAL" transform="matrix(0.949174,0,0,0.949174,1.76912,1.9115)">
            <g>
                <circle id="svg_4" cx="17.1" cy="16.95" r="17" style="fill:rgb(237,237,237);stroke:rgb(32,49,77);stroke-width:2.11px;"/>
                <g transform="matrix(1.05355,0,0,1.05355,-1.86385,-2.01385)">
                    <path d="M25.58,11.337C25.952,10.692 25.794,9.87 25.209,9.409C24.332,8.718 23.361,8.158 22.325,7.744C21.633,7.467 20.843,7.741 20.47,8.387L19.438,10.175C18.488,10.012 17.518,10.013 16.568,10.176C16.568,10.176 15.539,8.391 15.539,8.391C15.166,7.745 14.375,7.47 13.682,7.748C12.646,8.162 11.675,8.724 10.798,9.415C10.213,9.876 10.055,10.697 10.427,11.342L11.457,13.128C10.841,13.87 10.355,14.712 10.02,15.618C10.02,15.617 7.958,15.618 7.958,15.618C7.213,15.619 6.581,16.166 6.474,16.903C6.314,18.008 6.314,19.13 6.473,20.235C6.579,20.973 7.212,21.521 7.958,21.521L10.018,21.52C10.352,22.424 10.837,23.265 11.452,24.006C11.452,24.006 10.42,25.793 10.42,25.793C10.048,26.439 10.206,27.26 10.791,27.722C11.668,28.412 12.639,28.973 13.675,29.386C14.367,29.663 15.157,29.389 15.53,28.743L16.562,26.956C17.512,27.118 18.482,27.118 19.432,26.955C19.432,26.955 20.461,28.74 20.461,28.74C20.834,29.386 21.625,29.66 22.318,29.383C23.354,28.968 24.325,28.407 25.202,27.716C25.787,27.255 25.945,26.434 25.573,25.788L24.543,24.002C25.159,23.26 25.645,22.418 25.98,21.513C25.98,21.513 28.042,21.512 28.042,21.512C28.787,21.512 29.419,20.964 29.526,20.227C29.686,19.122 29.686,18 29.527,16.896C29.421,16.157 28.788,15.609 28.042,15.61L25.982,15.61C25.648,14.707 25.163,13.866 24.548,13.125C24.548,13.125 25.58,11.337 25.58,11.337ZM19.876,15.315C21.668,16.35 22.281,18.646 21.245,20.439C20.21,22.232 17.915,22.85 16.124,21.815C14.332,20.781 13.719,18.485 14.755,16.691C15.79,14.898 18.085,14.281 19.876,15.315L19.876,15.315Z" style="fill:rgb(48,44,50);fill-opacity:0.2;"/>
                </g>
                <g transform="matrix(1.05355,0,0,1.05355,-1.86385,-2.01385)">
                    <path d="M25.58,10.295C25.952,9.649 25.794,8.828 25.209,8.367C24.332,7.676 23.361,7.116 22.325,6.702C21.633,6.425 20.843,6.699 20.47,7.345L19.438,9.132C18.488,8.97 17.518,8.971 16.568,9.133C16.568,9.133 15.539,7.349 15.539,7.349C15.166,6.702 14.375,6.428 13.682,6.706C12.646,7.12 11.675,7.682 10.798,8.372C10.213,8.834 10.055,9.655 10.427,10.3L11.457,12.086C10.841,12.828 10.355,13.67 10.02,14.575C10.02,14.575 7.958,14.576 7.958,14.576C7.213,14.577 6.581,15.124 6.474,15.861C6.314,16.966 6.314,18.088 6.473,19.192C6.579,19.931 7.212,20.479 7.958,20.479L10.018,20.478C10.352,21.382 10.837,22.222 11.452,22.964C11.452,22.964 10.42,24.751 10.42,24.751C10.048,25.397 10.206,26.218 10.791,26.68C11.668,27.37 12.639,27.93 13.675,28.344C14.367,28.621 15.157,28.347 15.53,27.701L16.562,25.914C17.512,26.076 18.482,26.076 19.432,25.913C19.432,25.913 20.461,27.697 20.461,27.697C20.834,28.344 21.625,28.618 22.318,28.341C23.354,27.926 24.325,27.365 25.202,26.674C25.787,26.213 25.945,25.392 25.573,24.746L24.543,22.96C25.159,22.218 25.645,21.376 25.98,20.471C25.98,20.471 28.042,20.47 28.042,20.47C28.787,20.47 29.419,19.922 29.526,19.185C29.686,18.08 29.686,16.958 29.527,15.854C29.421,15.115 28.788,14.567 28.042,14.567L25.982,14.568C25.648,13.665 25.163,12.824 24.548,12.082C24.548,12.083 25.58,10.295 25.58,10.295ZM19.876,14.273C21.668,15.307 22.281,17.603 21.245,19.397C20.21,21.19 17.915,21.807 16.124,20.773C14.332,19.739 13.719,17.443 14.755,15.649C15.79,13.856 18.085,13.239 19.876,14.273Z" style="fill:rgb(48,44,50);"/>
                </g>
            </g>
        </g>
    </g>
</svg>
