<svg width="100%" height="100%" viewBox="0 0 42 42" version="1.1" style="fill-rule:evenodd;clip-rule:evenodd;" xmlns="http://www.w3.org/2000/svg">
  <defs></defs>
  <g transform="matrix(1,0,0,1,3,3)">
    <g id="BABY" transform="matrix(0.949174,0,0,0.949174,1.76912,1.9115)">
      <g>
        <circle id="svg_4" cx="17.1" cy="16.95" r="17" style="fill: rgb(255,215,154); stroke: rgb(185,145,90); stroke-width: 2.11px;"></circle>
        <path style="fill: rgba(48,44,50, 0.2);" d="M 27.807 19.226 C 27.343 13.142 25.224 9.363 23.526 7.266 C 21.579 4.856 19.136 3.358 17.154 3.358 C 16.219 3.358 15.149 3.689 14.057 4.315 C 12.899 4.979 11.771 5.956 10.79 7.14 C 9.09 9.194 6.965 12.918 6.501 18.998 C 6.218 22.702 7.021 25.673 8.889 27.82 C 11.69 31.043 15.923 31.294 17.154 31.294 C 18.773 31.294 22.825 30.965 25.477 27.913 C 27.302 25.813 28.086 22.89 27.807 19.226 Z"></path>
        <path style="fill: rgb(48,44,50);" d="M 27.681 17.872 C 27.217 11.788 25.098 8.009 23.4 5.912 C 21.453 3.502 19.01 2.004 17.028 2.004 C 16.093 2.004 15.023 2.335 13.931 2.961 C 12.773 3.625 11.645 4.602 10.664 5.786 C 8.964 7.84 6.839 11.564 6.375 17.644 C 6.092 21.348 6.895 24.319 8.763 26.466 C 11.564 29.689 15.797 29.94 17.028 29.94 C 18.647 29.94 22.699 29.611 25.351 26.559 C 27.176 24.459 27.96 21.536 27.681 17.872 Z"></path>
        <g transform="matrix(0.131027, 0, 0, 0.139025, -11.378836, -3.686524)" style="">
          <path style="fill: rgb(255,215,154);" d="M 284.441 156.406 C 282.836 156.509 244.936 158.994 224.091 184.252 C 213.286 197.334 209.08 213.844 211.584 233.319 C 225.164 232.724 250.513 228.946 267.737 210.275 C 280.003 196.985 285.787 178.868 284.984 156.393 L 284.959 156.393 L 284.441 156.406 Z"></path>
          <path style="fill: rgb(255,215,154);" d="M 190.981 64.174 C 187.229 67.293 183.625 70.793 180.261 74.623 C 167.909 88.682 152.472 114.187 149.108 155.802 C 148.648 161.463 148.584 166.885 148.914 172.046 C 151.709 172.59 155.494 173.107 159.926 173.107 C 169.643 173.107 178.675 170.726 186.769 166.017 C 197.497 159.78 206.108 149.7 212.352 136.029 C 224.334 109.813 216.978 91.07 208.69 79.961 C 202.595 71.783 195.116 66.626 190.981 64.174 Z"></path>
        </g>
      </g>
    </g>
  </g>
</svg>