<?xml version="1.0" encoding="UTF-8" standalone="no"?>
<!DOCTYPE svg PUBLIC "-//W3C//DTD SVG 1.1//EN" "http://www.w3.org/Graphics/SVG/1.1/DTD/svg11.dtd">
<svg width="100%" height="100%" viewBox="0 0 42 42" version="1.1" xmlns="http://www.w3.org/2000/svg" xmlns:xlink="http://www.w3.org/1999/xlink" xml:space="preserve" xmlns:serif="http://www.serif.com/" style="fill-rule:evenodd;clip-rule:evenodd;">
    <g transform="matrix(1,0,0,1,3,3)">
        <g id="BUG" transform="matrix(0.949174,0,0,0.949174,1.76912,1.9115)">
            <g>
                <circle id="svg_4" cx="17.1" cy="16.95" r="17" style="fill:rgb(255,254,102);stroke:rgb(115,121,38);stroke-width:2.11px;"/>
                <g transform="matrix(1.01245,0,0,1.01245,-0.212967,0.98657)">
                    <g opacity="0.2">
                        <g transform="matrix(1.05355,0,0,1.05355,-1.86385,-2.01385)">
                            <path d="M10.979,7.985C12.48,3.495 23.959,3.672 25.155,7.985C25.58,9.516 20.3,10.916 19.271,13.113C18.791,14.137 18.927,15.675 18.911,17.053C18.893,18.631 18.792,20.036 19.328,20.999C20.332,22.802 25.105,22.474 24.942,24.133C24.779,25.791 20.309,31.061 18,31.061C15.691,31.061 11.261,25.785 11.086,24.133C10.91,22.481 15.349,22.793 16.326,20.999C16.849,20.038 16.921,18.634 16.925,17.053C16.928,15.68 16.934,14.128 16.472,13.113C15.477,10.928 10.459,9.541 10.979,7.985Z" style="fill:rgb(48,44,50);"/>
                        </g>
                        <g transform="matrix(1.05355,0,0,1.05355,-2.25322,-2.11655)">
                            <path d="M12.73,21.077C11.398,21.216 8.563,18.3 7.71,16.301C6.857,14.303 6.28,9.226 7.613,9.088C8.945,8.95 14.85,13.475 15.703,15.473C16.533,17.418 14.062,20.939 12.73,21.077Z" style="fill:rgb(48,44,50);"/>
                        </g>
                        <g transform="matrix(-1.05355,0,0,1.05355,36.4532,-2.11655)">
                            <path d="M12.73,21.077C11.398,21.216 8.563,18.3 7.71,16.301C6.857,14.303 6.28,9.226 7.613,9.088C8.945,8.95 14.85,13.475 15.703,15.473C16.533,17.418 14.062,20.939 12.73,21.077Z" style="fill:rgb(48,44,50);"/>
                        </g>
                    </g>
                </g>
                <g transform="matrix(1.01245,0,0,1.01245,-0.212967,-0.117986)">
                    <g transform="matrix(1.05355,0,0,1.05355,-1.86385,-2.01385)">
                        <path d="M10.979,7.985C12.48,3.495 23.959,3.672 25.155,7.985C25.58,9.516 20.3,10.916 19.271,13.113C18.791,14.137 18.927,15.675 18.911,17.053C18.893,18.631 18.792,20.036 19.328,20.999C20.332,22.802 25.105,22.474 24.942,24.133C24.779,25.791 20.309,31.061 18,31.061C15.691,31.061 11.261,25.785 11.086,24.133C10.91,22.481 15.349,22.793 16.326,20.999C16.849,20.038 16.921,18.634 16.925,17.053C16.928,15.68 16.934,14.128 16.472,13.113C15.477,10.928 10.459,9.541 10.979,7.985Z" style="fill:rgb(48,44,50);"/>
                    </g>
                    <g transform="matrix(1.05355,0,0,1.05355,-2.25322,-2.11655)">
                        <path d="M12.73,21.077C11.398,21.216 8.563,18.3 7.71,16.301C6.857,14.303 6.28,9.226 7.613,9.088C8.945,8.95 14.85,13.475 15.703,15.473C16.533,17.418 14.062,20.939 12.73,21.077Z" style="fill:rgb(48,44,50);"/>
                    </g>
                    <g transform="matrix(-1.05355,0,0,1.05355,36.4532,-2.11655)">
                        <path d="M12.73,21.077C11.398,21.216 8.563,18.3 7.71,16.301C6.857,14.303 6.28,9.226 7.613,9.088C8.945,8.95 14.85,13.475 15.703,15.473C16.533,17.418 14.062,20.939 12.73,21.077Z" style="fill:rgb(48,44,50);"/>
                    </g>
                </g>
            </g>
        </g>
    </g>
</svg>
