<?xml version="1.0" encoding="UTF-8" standalone="no"?>
<!DOCTYPE svg PUBLIC "-//W3C//DTD SVG 1.1//EN" "http://www.w3.org/Graphics/SVG/1.1/DTD/svg11.dtd">
<svg width="100%" height="100%" viewBox="0 0 42 42" version="1.1" xmlns="http://www.w3.org/2000/svg" xmlns:xlink="http://www.w3.org/1999/xlink" xml:space="preserve" xmlns:serif="http://www.serif.com/" style="fill-rule:evenodd;clip-rule:evenodd;">
    <g transform="matrix(1,0,0,1,3,3)">
        <g id="DRAGON" transform="matrix(0.949174,0,0,0.949174,1.76912,1.9115)">
            <g>
                <circle id="svg_4" cx="17.1" cy="16.95" r="17" style="fill:rgb(203,132,63);stroke:rgb(138,69,19);stroke-width:2.11px;"/>
                <g transform="matrix(1.05355,0,0,1.05355,-1.42913,-1.45039)">
                    <path d="M15.096,15.054C22.684,17.865 29.019,25.514 29.019,25.514C29.019,25.514 25.292,31.009 16.398,30.918C8.953,30.842 3.139,21.863 4.821,15.112C6.466,8.513 12.307,4.444 19.11,5.069C24.362,5.551 27.084,10.221 27.094,13.465C25.557,10.869 22.488,9.1 19.059,9.059C15.04,9.011 11.898,11.002 11.218,14.946C10.539,18.891 12.697,22.971 16.415,22.89C19.808,22.816 17.345,16.819 15.096,15.054ZM19.949,20.139C20.437,21.442 20.356,23.8 18.75,25.497C20.78,25.704 22.585,25.318 24.132,24.247C22.834,22.4 21.741,21.415 19.949,20.139Z" style="fill:rgb(48,44,50);fill-opacity:0.2;"/>
                </g>
                <g transform="matrix(1.05355,0,0,1.05355,-1.42913,-2.49803)">
                    <path d="M15.096,15.054C22.684,17.865 29.019,25.514 29.019,25.514C29.019,25.514 25.292,31.009 16.398,30.918C8.953,30.842 3.139,21.863 4.821,15.112C6.466,8.513 12.307,4.444 19.11,5.069C24.362,5.551 27.084,10.221 27.094,13.465C25.557,10.869 22.488,9.1 19.059,9.059C15.04,9.011 11.898,11.002 11.218,14.946C10.539,18.891 12.697,22.971 16.415,22.89C19.808,22.816 17.345,16.819 15.096,15.054ZM19.949,20.139C20.437,21.442 20.356,23.8 18.75,25.497C20.78,25.704 22.585,25.318 24.132,24.247C22.834,22.4 21.741,21.415 19.949,20.139Z" style="fill:rgb(48,44,50);"/>
                </g>
            </g>
        </g>
    </g>
</svg>
