<?xml version="1.0" encoding="UTF-8" standalone="no"?>
<!DOCTYPE svg PUBLIC "-//W3C//DTD SVG 1.1//EN" "http://www.w3.org/Graphics/SVG/1.1/DTD/svg11.dtd">
<svg width="100%" height="100%" viewBox="0 0 42 42" version="1.1" xmlns="http://www.w3.org/2000/svg" xmlns:xlink="http://www.w3.org/1999/xlink" xml:space="preserve" xmlns:serif="http://www.serif.com/" style="fill-rule:evenodd;clip-rule:evenodd;">
    <g transform="matrix(1,0,0,1,3,3)">
        <g id="FAIRY" transform="matrix(0.949174,0,0,0.949174,1.76912,1.9115)">
            <g>
                <circle id="svg_4" cx="17.1" cy="16.95" r="17" style="fill:rgb(255,175,209);stroke:rgb(149,78,111);stroke-width:2.11px;"/>
                <g transform="matrix(0.95835,0,0,0.95835,0.713733,0.445934)">
                    <g opacity="0.2">
                        <g transform="matrix(1.05355,0,0,1.05355,-1.59925,-2.11109)">
                            <path d="M12.699,7.128C13.05,8.784 16.126,19.01 17.81,19.01C19.493,19.01 22.484,8.778 22.799,7.128C23.028,5.923 20.528,9.447 19.696,9.108C18.865,8.77 18.475,5.103 17.81,5.098C17.144,5.092 16.554,8.737 15.702,9.075C14.851,9.414 12.451,5.961 12.699,7.128Z" style="fill:rgb(48,44,50);"/>
                        </g>
                        <g transform="matrix(1.05355,0,0,1.05355,-2.25032,-1.70971)">
                            <path d="M10.972,9.014C11.547,8.795 7.795,13.834 8.781,18.918C9.945,24.922 16.752,25.118 16.914,26.762C17.039,28.038 15.794,31.196 14.034,30.551C7.866,28.288 4.83,22.731 4.846,18C4.858,14.451 7.081,10.499 10.972,9.014Z" style="fill:rgb(48,44,50);"/>
                        </g>
                        <g transform="matrix(-1.05355,0,0,1.05355,36.4472,-1.70971)">
                            <path d="M10.972,9.014C11.547,8.795 7.795,13.834 8.781,18.918C9.945,24.922 16.752,25.118 16.914,26.762C17.039,28.038 15.794,31.196 14.034,30.551C7.866,28.288 4.83,22.731 4.846,18C4.858,14.451 7.081,10.499 10.972,9.014Z" style="fill:rgb(48,44,50);"/>
                        </g>
                    </g>
                </g>
                <g transform="matrix(0.95835,0,0,0.95835,0.713733,-0.635609)">
                    <g transform="matrix(1.05355,0,0,1.05355,-1.59925,-2.11109)">
                        <path d="M12.699,7.128C13.05,8.784 16.126,19.01 17.81,19.01C19.493,19.01 22.484,8.778 22.799,7.128C23.028,5.923 20.528,9.447 19.696,9.108C18.865,8.77 18.475,5.103 17.81,5.098C17.144,5.092 16.554,8.737 15.702,9.075C14.851,9.414 12.451,5.961 12.699,7.128Z" style="fill:rgb(48,44,50);"/>
                    </g>
                    <g transform="matrix(1.05355,0,0,1.05355,-2.25032,-1.70971)">
                        <path d="M10.972,9.014C11.547,8.795 7.795,13.834 8.781,18.918C9.945,24.922 16.752,25.118 16.914,26.762C17.039,28.038 15.794,31.196 14.034,30.551C7.866,28.288 4.83,22.731 4.846,18C4.858,14.451 7.081,10.499 10.972,9.014Z" style="fill:rgb(48,44,50);"/>
                    </g>
                    <g transform="matrix(-1.05355,0,0,1.05355,36.4472,-1.70971)">
                        <path d="M10.972,9.014C11.547,8.795 7.795,13.834 8.781,18.918C9.945,24.922 16.752,25.118 16.914,26.762C17.039,28.038 15.794,31.196 14.034,30.551C7.866,28.288 4.83,22.731 4.846,18C4.858,14.451 7.081,10.499 10.972,9.014Z" style="fill:rgb(48,44,50);"/>
                    </g>
                </g>
            </g>
        </g>
    </g>
</svg>
