<?xml version="1.0" encoding="UTF-8" standalone="no"?>
<!DOCTYPE svg PUBLIC "-//W3C//DTD SVG 1.1//EN" "http://www.w3.org/Graphics/SVG/1.1/DTD/svg11.dtd">
<svg width="100%" height="100%" viewBox="0 0 42 42" version="1.1" xmlns="http://www.w3.org/2000/svg" xmlns:xlink="http://www.w3.org/1999/xlink" xml:space="preserve" xmlns:serif="http://www.serif.com/" style="fill-rule:evenodd;clip-rule:evenodd;">
    <g transform="matrix(1,0,0,1,3,3)">
        <g id="FIELD" transform="matrix(0.949174,0,0,0.949174,1.76912,1.9115)">
            <g>
                <circle id="svg_4" cx="17.1" cy="16.95" r="17" style="fill:rgb(222,138,78);stroke:rgb(113,61,19);stroke-width:2.11px;"/>
                <g transform="matrix(0.96029,0,0,0.96029,0.627525,0.730152)">
                    <g opacity="0.2">
                        <g transform="matrix(1.17149,0,0,1.08077,-3.81361,-1.35713)">
                            <path d="M17.898,14.978C22.197,14.978 25.688,20.098 25.688,24.555C25.688,29.012 22.197,29.879 17.898,29.879C13.599,29.879 10.108,29.012 10.108,24.555C10.108,20.098 13.599,14.978 17.898,14.978Z" style="fill:rgb(48,44,50);"/>
                        </g>
                        <g transform="matrix(0.448661,-0.153299,0.19512,0.571057,-5.84102,4.49973)">
                            <path d="M18.147,16.847C22.446,16.847 24.365,19.692 24.365,24.149C24.365,28.606 22.197,29.879 17.898,29.879C13.599,29.879 10.108,29.012 10.108,24.555C10.108,20.098 13.847,16.847 18.147,16.847Z" style="fill:rgb(48,44,50);"/>
                        </g>
                        <g transform="matrix(-0.432149,0.116428,-0.148191,-0.550041,23.6804,20.4216)">
                            <path d="M18.147,16.847C22.446,16.847 25.372,20.138 25.372,24.595C25.372,29.052 21.902,30.699 17.603,30.699C13.303,30.699 10.108,29.012 10.108,24.555C10.108,20.098 13.847,16.847 18.147,16.847Z" style="fill:rgb(48,44,50);"/>
                        </g>
                        <g transform="matrix(-0.407305,-0.157648,0.200655,-0.51842,29.9823,30.3863)">
                            <path d="M18.147,16.847C22.446,16.847 25.372,20.138 25.372,24.595C25.372,29.052 21.902,30.699 17.603,30.699C13.303,30.699 10.108,29.012 10.108,24.555C10.108,20.098 13.847,16.847 18.147,16.847Z" style="fill:rgb(48,44,50);"/>
                        </g>
                        <g transform="matrix(-0.437467,-0.0945059,0.120288,-0.55681,26.1665,24.3512)">
                            <path d="M18.147,16.847C22.446,16.847 25.372,20.138 25.372,24.595C25.372,29.052 21.902,30.699 17.603,30.699C13.303,30.699 10.108,29.012 10.108,24.555C10.108,20.098 13.847,16.847 18.147,16.847Z" style="fill:rgb(48,44,50);"/>
                        </g>
                    </g>
                </g>
                <g transform="matrix(0.96029,0,0,0.96029,0.627525,-0.340808)">
                    <g transform="matrix(1.17149,0,0,1.08077,-3.81361,-1.38595)">
                        <path d="M17.898,14.978C22.197,14.978 25.688,20.098 25.688,24.555C25.688,29.012 22.197,29.879 17.898,29.879C13.599,29.879 10.108,29.012 10.108,24.555C10.108,20.098 13.599,14.978 17.898,14.978Z" style="fill:rgb(48,44,50);"/>
                    </g>
                    <g transform="matrix(0.448661,-0.153299,0.19512,0.571057,-5.84102,4.49973)">
                        <path d="M18.147,16.847C22.446,16.847 24.365,19.692 24.365,24.149C24.365,28.606 22.197,29.879 17.898,29.879C13.599,29.879 10.108,29.012 10.108,24.555C10.108,20.098 13.847,16.847 18.147,16.847Z" style="fill:rgb(48,44,50);"/>
                    </g>
                    <g transform="matrix(-0.432149,0.116428,-0.148191,-0.550041,23.6804,20.4216)">
                        <path d="M18.147,16.847C22.446,16.847 25.372,20.138 25.372,24.595C25.372,29.052 21.902,30.699 17.603,30.699C13.303,30.699 10.108,29.012 10.108,24.555C10.108,20.098 13.847,16.847 18.147,16.847Z" style="fill:rgb(48,44,50);"/>
                    </g>
                    <g transform="matrix(-0.407305,-0.157648,0.200655,-0.51842,29.9823,30.3863)">
                        <path d="M18.147,16.847C22.446,16.847 25.372,20.138 25.372,24.595C25.372,29.052 21.902,30.699 17.603,30.699C13.303,30.699 10.108,29.012 10.108,24.555C10.108,20.098 13.847,16.847 18.147,16.847Z" style="fill:rgb(48,44,50);"/>
                    </g>
                    <g transform="matrix(-0.437467,-0.0945059,0.120288,-0.55681,26.1665,24.3512)">
                        <path d="M18.147,16.847C22.446,16.847 25.372,20.138 25.372,24.595C25.372,29.052 21.902,30.699 17.603,30.699C13.303,30.699 10.108,29.012 10.108,24.555C10.108,20.098 13.847,16.847 18.147,16.847Z" style="fill:rgb(48,44,50);"/>
                    </g>
                </g>
            </g>
        </g>
    </g>
</svg>
