<?xml version="1.0" encoding="UTF-8" standalone="no"?>
<!DOCTYPE svg PUBLIC "-//W3C//DTD SVG 1.1//EN" "http://www.w3.org/Graphics/SVG/1.1/DTD/svg11.dtd">
<svg width="100%" height="100%" viewBox="0 0 42 42" version="1.1" xmlns="http://www.w3.org/2000/svg" xmlns:xlink="http://www.w3.org/1999/xlink" xml:space="preserve" xmlns:serif="http://www.serif.com/" style="fill-rule:evenodd;clip-rule:evenodd;">
    <g transform="matrix(1,0,0,1,3,3)">
        <g id="FIGHTING" transform="matrix(0.949174,0,0,0.949174,1.76912,1.9115)">
            <g>
                <circle id="svg_4" cx="17.1" cy="16.95" r="17" style="fill:rgb(243,50,24);stroke:rgb(173,34,32);stroke-width:2.11px;"/>
                <g transform="matrix(1,0,0,1,0,1.06927)">
                    <g opacity="0.2">
                        <g transform="matrix(1.08368,0,0,0.902766,-1.14457,-1.0459)">
                            <path d="M6.974,10.986C7.108,10.061 8.295,9.338 8.962,9.008C9.562,8.711 10.958,8.338 10.971,9.008C11.002,10.568 11.355,15.843 10.951,16.961C10.498,18.214 7.688,17.905 6.953,16.961C6.378,16.223 6.74,12.607 6.974,10.986Z" style="fill:rgb(48,44,50);"/>
                        </g>
                        <g transform="matrix(-1.08368,0,0,0.902766,23.9619,-1.0459)">
                            <path d="M6.953,16.961C6.802,14.972 6.859,7.015 6.991,5.026C7.078,3.72 10.897,3.717 10.917,5.025C10.949,7.184 11.013,15.134 10.951,16.961C10.905,18.293 7.054,18.29 6.953,16.961Z" style="fill:rgb(48,44,50);"/>
                        </g>
                        <g transform="matrix(-1.08368,0,0,0.902766,35.3281,-1.0459)">
                            <path d="M6.974,10.986C7.108,10.061 8.295,9.338 8.962,9.008C9.562,8.711 10.958,8.338 10.971,9.008C11.002,10.568 11.355,15.843 10.951,16.961C10.498,18.214 7.688,17.905 6.953,16.961C6.378,16.223 6.74,12.607 6.974,10.986Z" style="fill:rgb(48,44,50);"/>
                        </g>
                        <g transform="matrix(1.08368,0,0,0.902766,10.2216,-1.0459)">
                            <path d="M6.953,16.961C6.802,14.972 6.859,7.015 6.991,5.026C7.078,3.72 10.897,3.717 10.917,5.025C10.949,7.184 11.013,15.134 10.951,16.961C10.905,18.293 7.054,18.29 6.953,16.961Z" style="fill:rgb(48,44,50);"/>
                        </g>
                        <g transform="matrix(1.01521,0,0,0.992004,-1.15145,-1.98882)">
                            <path d="M7.1,19.213C6.305,19.214 6.639,20.707 6.615,21.865C6.589,23.123 6.746,24.347 7.1,24.936C7.513,25.624 8.474,26.752 9.058,26.995C9.472,27.168 10.757,27.183 11.324,27.075C12.468,26.858 15.546,21.967 15.584,21.244C15.633,20.3 15.652,19.224 14.904,19.213C13.591,19.193 8.489,19.21 7.1,19.213Z" style="fill:rgb(48,44,50);"/>
                        </g>
                        <g transform="matrix(1.01521,0,0,0.992004,-1.15145,-1.98882)">
                            <path d="M13.34,27.756C13.37,27.075 16.287,24.156 16.941,22.842C17.495,21.728 16.757,19.264 18,19.213C19.938,19.132 25.429,19.176 28.84,19.213C30.747,19.233 27.112,26.406 26.821,27.143C26.236,28.625 24.446,28.039 24.082,28.483C23.732,28.911 24.15,30.316 23.708,30.785C23.425,31.086 22.886,31.105 22.058,31.096C19.44,31.068 16.152,31.108 14.097,31.03C13.109,30.992 13.287,28.929 13.34,27.756Z" style="fill:rgb(48,44,50);"/>
                        </g>
                    </g>
                </g>
                <g>
                    <g transform="matrix(1.08368,0,0,0.902766,-1.14457,-1.0459)">
                        <path d="M6.974,10.986C7.108,10.061 8.295,9.338 8.962,9.008C9.562,8.711 10.958,8.338 10.971,9.008C11.002,10.568 11.355,15.843 10.951,16.961C10.498,18.214 7.688,17.905 6.953,16.961C6.378,16.223 6.74,12.607 6.974,10.986Z" style="fill:rgb(48,44,50);"/>
                    </g>
                    <g transform="matrix(-1.08368,0,0,0.902766,23.9619,-1.0459)">
                        <path d="M6.953,16.961C6.802,14.972 6.859,7.015 6.991,5.026C7.078,3.72 10.897,3.717 10.917,5.025C10.949,7.184 11.013,15.134 10.951,16.961C10.905,18.293 7.054,18.29 6.953,16.961Z" style="fill:rgb(48,44,50);"/>
                    </g>
                    <g transform="matrix(-1.08368,0,0,0.902766,35.3281,-1.0459)">
                        <path d="M6.974,10.986C7.108,10.061 8.295,9.338 8.962,9.008C9.562,8.711 10.958,8.338 10.971,9.008C11.002,10.568 11.355,15.843 10.951,16.961C10.498,18.214 7.688,17.905 6.953,16.961C6.378,16.223 6.74,12.607 6.974,10.986Z" style="fill:rgb(48,44,50);"/>
                    </g>
                    <g transform="matrix(1.08368,0,0,0.902766,10.2216,-1.0459)">
                        <path d="M6.953,16.961C6.802,14.972 6.859,7.015 6.991,5.026C7.078,3.72 10.897,3.717 10.917,5.025C10.949,7.184 11.013,15.134 10.951,16.961C10.905,18.293 7.054,18.29 6.953,16.961Z" style="fill:rgb(48,44,50);"/>
                    </g>
                    <g transform="matrix(1.01521,0,0,0.992004,-1.15145,-1.98882)">
                        <path d="M7.1,19.213C6.305,19.214 6.639,20.707 6.615,21.865C6.589,23.123 6.746,24.347 7.1,24.936C7.513,25.624 8.474,26.752 9.058,26.995C9.472,27.168 10.757,27.183 11.324,27.075C12.468,26.858 15.546,21.967 15.584,21.244C15.633,20.3 15.652,19.224 14.904,19.213C13.591,19.193 8.489,19.21 7.1,19.213Z" style="fill:rgb(48,44,50);"/>
                    </g>
                    <g transform="matrix(1.01521,0,0,0.992004,-1.15145,-1.98882)">
                        <path d="M13.34,27.756C13.37,27.075 16.287,24.156 16.941,22.842C17.495,21.728 16.757,19.264 18,19.213C19.938,19.132 25.429,19.176 28.84,19.213C30.747,19.233 27.112,26.406 26.821,27.143C26.236,28.625 24.446,28.039 24.082,28.483C23.732,28.911 24.15,30.316 23.708,30.785C23.425,31.086 22.886,31.105 22.058,31.096C19.44,31.068 16.152,31.108 14.097,31.03C13.109,30.992 13.287,28.929 13.34,27.756Z" style="fill:rgb(48,44,50);"/>
                    </g>
                </g>
            </g>
        </g>
    </g>
</svg>
