<?xml version="1.0" encoding="UTF-8" standalone="no"?>
<!DOCTYPE svg PUBLIC "-//W3C//DTD SVG 1.1//EN" "http://www.w3.org/Graphics/SVG/1.1/DTD/svg11.dtd">
<svg width="100%" height="100%" viewBox="0 0 42 42" version="1.1" xmlns="http://www.w3.org/2000/svg" xmlns:xlink="http://www.w3.org/1999/xlink" xml:space="preserve" xmlns:serif="http://www.serif.com/" style="fill-rule:evenodd;clip-rule:evenodd;">
    <g transform="matrix(1,0,0,1,3,3)">
        <g id="FIRE" transform="matrix(0.949174,0,0,0.949174,1.76912,1.9115)">
            <g>
                <circle id="svg_4" cx="17.1" cy="16.95" r="17" style="fill:rgb(255,144,36);stroke:rgb(236,91,0);stroke-width:2.11px;"/>
                <g transform="matrix(0.863586,0,0,0.873592,-0.1717,-0.0209381)">
                    <path d="M19.996,35.239C17.574,35.169 15.171,35.135 10.512,32.309C8.221,30.92 5.084,28.09 5.96,26.324C6.624,24.982 7.248,26.647 8.602,27.826C9.436,28.552 10.727,29.107 11.751,29.117C14.674,29.147 7.019,19.464 8.296,15.896C9.573,12.328 9.16,16.197 11.113,17.549C13.066,18.901 20.127,8.278 19.526,5.342C18.925,2.407 27.713,11.007 27.713,19.572C27.713,20.601 28.906,20.131 29.845,19.002C30.517,18.195 30.86,16.734 31.462,16.701C32.183,16.66 32.07,21.434 28.996,24.304C25.377,27.682 28.37,27.391 31.03,26.405C32.537,25.846 33.736,24.513 34.061,24.867C34.645,25.505 33.247,28.098 30.036,31.049C27.961,32.956 24.563,35.37 19.996,35.239ZM17.857,32.188C16.489,32.205 12.203,27.476 16.126,27.63C20.049,27.784 20.703,26.592 18.722,25.957C16.742,25.323 15.742,24.842 17.434,22.073C19.126,19.304 21.722,17.299 21.953,14.881C22.184,12.463 24.395,15.943 21.492,21.154C18.493,26.536 25.761,20.078 25.434,23.25C25.107,26.423 23.534,32.117 17.857,32.188Z" style="fill:rgb(48,44,50);fill-opacity:0.2;"/>
                </g>
                <g transform="matrix(0.863586,0,0,0.873592,-0.1717,-1.0227)">
                    <path d="M19.996,35.239C17.574,35.169 15.171,35.135 10.512,32.309C8.221,30.92 5.084,28.09 5.96,26.324C6.624,24.982 7.248,26.647 8.602,27.826C9.436,28.552 10.727,29.107 11.751,29.117C14.674,29.147 7.019,19.464 8.296,15.896C9.573,12.328 9.16,16.197 11.113,17.549C13.066,18.901 20.127,8.278 19.526,5.342C18.925,2.407 27.713,11.007 27.713,19.572C27.713,20.601 28.906,20.131 29.845,19.002C30.517,18.195 30.86,16.734 31.462,16.701C32.183,16.66 32.07,21.434 28.996,24.304C25.377,27.682 28.37,27.391 31.03,26.405C32.537,25.846 33.736,24.513 34.061,24.867C34.645,25.505 33.247,28.098 30.036,31.049C27.961,32.956 24.563,35.37 19.996,35.239ZM17.857,32.188C16.489,32.205 12.203,27.476 16.126,27.63C20.049,27.784 20.703,26.592 18.722,25.957C16.742,25.323 15.742,24.842 17.434,22.073C19.126,19.304 21.722,17.299 21.953,14.881C22.184,12.463 24.395,15.943 21.492,21.154C18.493,26.536 25.761,20.078 25.434,23.25C25.107,26.423 23.534,32.117 17.857,32.188Z" style="fill:rgb(48,44,50);"/>
                </g>
            </g>
        </g>
    </g>
</svg>
