<?xml version="1.0" encoding="UTF-8" standalone="no"?>
<!DOCTYPE svg PUBLIC "-//W3C//DTD SVG 1.1//EN" "http://www.w3.org/Graphics/SVG/1.1/DTD/svg11.dtd">
<svg width="100%" height="100%" viewBox="0 0 40 40" version="1.1" xmlns="http://www.w3.org/2000/svg" xmlns:xlink="http://www.w3.org/1999/xlink" xml:space="preserve" xmlns:serif="http://www.serif.com/" style="fill-rule:evenodd;clip-rule:evenodd;stroke-linecap:round;stroke-linejoin:round;stroke-miterlimit:1.5;">
    <g transform="matrix(0.037037,0,0,0.037037,0,0)">
        <g transform="matrix(0.908089,0,0,0.908089,96.0214,80.4816)">
            <circle cx="488.916" cy="506.028" r="523.775" style="fill:rgb(255,144,36);stroke:rgb(236,91,0);stroke-width:66.25px;"/>
        </g>
        <g transform="matrix(1,0,0,1,-0.113899,33.8562)">
            <path d="M540,917.597C474.603,915.719 409.726,914.802 283.929,838.499C222.07,800.978 137.395,724.58 161.023,676.895C178.975,640.664 195.809,685.608 232.372,717.454C254.878,737.056 289.746,752.022 317.394,752.302C396.312,753.102 189.62,491.684 224.099,395.347C258.577,299.009 247.422,403.459 300.154,439.966C352.886,476.473 543.533,189.639 527.308,110.391C511.083,31.142 748.377,263.33 748.377,494.576C748.377,522.362 780.565,509.672 805.928,479.208C824.071,457.417 833.334,417.974 849.582,417.06C869.052,415.965 866.006,544.863 783.014,622.339C685.293,713.564 766.116,705.704 837.912,679.085C878.609,663.996 910.992,627.995 919.756,637.561C935.539,654.788 897.784,724.785 811.099,804.458C755.075,855.949 663.313,921.138 540,917.597Z" style="fill:rgb(48,44,50);"/>
        </g>
        <path d="M482.142,869.072C445.193,869.532 329.494,741.866 435.413,746.02C541.331,750.173 558.984,717.983 505.506,700.849C452.027,683.715 425.029,670.735 470.719,595.969C516.409,521.203 586.502,467.082 592.733,401.785C598.963,336.488 658.672,430.465 580.272,571.17C499.303,716.484 695.536,542.094 686.709,627.764C677.883,713.433 635.415,867.166 482.142,869.072Z" style="fill:rgb(255,144,36);"/>
    </g>
</svg>
