<?xml version="1.0" encoding="UTF-8" standalone="no"?>
<!DOCTYPE svg PUBLIC "-//W3C//DTD SVG 1.1//EN" "http://www.w3.org/Graphics/SVG/1.1/DTD/svg11.dtd">
<svg width="100%" height="100%" viewBox="0 0 42 42" version="1.1" xmlns="http://www.w3.org/2000/svg" xmlns:xlink="http://www.w3.org/1999/xlink" xml:space="preserve" xmlns:serif="http://www.serif.com/" style="fill-rule:evenodd;clip-rule:evenodd;">
    <g transform="matrix(1,0,0,1,3,3)">
        <g id="FLORA" transform="matrix(0.949174,0,0,0.949174,1.76912,1.9115)">
            <g>
                <circle id="svg_4" cx="17.1" cy="16.95" r="17" style="fill:rgb(255,96,241);stroke:rgb(68,22,69);stroke-width:2.11px;"/>
                <g transform="matrix(1,0,0,1,0.0601417,0.144146)">
                    <g opacity="0.2">
                        <g transform="matrix(1,0,0,1,0.264015,-0.0171308)">
                            <g transform="matrix(1.05355,0,0,1.05355,-2.26272,-2.08508)">
                                <path d="M14.773,24.914C14.3,25.382 11.832,23.392 11.021,22.041C10.125,20.548 8.925,16.424 9.399,15.956C9.872,15.489 12.965,17.742 13.861,19.235C14.756,20.728 15.247,24.446 14.773,24.914Z" style="fill:rgb(48,44,50);"/>
                            </g>
                            <g transform="matrix(1.05355,0,0,1.05355,-2.26272,-2.08508)">
                                <path d="M14.435,18.863C13.59,18.739 11.145,16.514 10.987,15.213C10.83,13.911 12.644,10.931 13.489,11.055C14.334,11.179 15.9,14.655 16.058,15.956C16.191,17.058 15.28,18.987 14.435,18.863Z" style="fill:rgb(48,44,50);"/>
                            </g>
                            <g transform="matrix(1.05355,0,0,1.05355,-2.26272,-2.08508)">
                                <path d="M9.399,20.184C8.225,19.529 4.253,19.345 3.948,19.962C3.644,20.579 6.399,23.234 7.572,23.889C8.566,24.443 10.683,24.506 10.987,23.889C11.292,23.271 10.572,20.838 9.399,20.184Z" style="fill:rgb(48,44,50);"/>
                            </g>
                            <g transform="matrix(1.05355,0,0,1.05355,-2.26272,-2.08508)">
                                <path d="M11.493,24.483C10.132,24.353 6.887,25.344 6.842,25.917C6.797,26.489 9.862,27.787 11.223,27.918C12.542,28.045 14.964,27.273 15.009,26.701C15.054,26.129 12.854,24.614 11.493,24.483Z" style="fill:rgb(48,44,50);"/>
                            </g>
                        </g>
                        <g transform="matrix(0.825133,0,0,1.1111,2.24665,-2.56403)">
                            <path d="M14.773,12.484C15.01,11.333 16.956,7.113 18.106,7.084C19.255,7.056 21.51,11.157 21.669,12.311C21.794,13.223 20.077,13.892 19.488,14.007C18.938,14.115 18.501,13.006 18.106,13.003C17.711,13.001 17.585,14.062 17.117,13.99C16.556,13.903 14.586,13.394 14.773,12.484Z" style="fill:rgb(48,44,50);"/>
                        </g>
                        <g transform="matrix(1.05355,0,0,1.05355,-1.86385,-2.01385)">
                            <path d="M18.082,14.007C17.104,14.057 15.051,20.443 15.009,22.428C14.976,23.953 17.104,25.966 18.082,25.917C19.06,25.867 20.843,23.722 20.877,22.131C20.919,20.146 19.06,13.958 18.082,14.007Z" style="fill:rgb(48,44,50);"/>
                        </g>
                        <g transform="matrix(1.05355,0,0,1.05355,-1.86385,-2.01385)">
                            <path d="M16.361,26.201C15.917,26.255 15.015,27.03 15.279,27.539C15.589,28.136 17.149,29.721 18.082,29.784C19.015,29.847 20.614,28.562 20.877,27.918C21.139,27.273 20.284,26.034 19.795,25.917C19.306,25.8 18.654,27.167 18.082,27.215C17.509,27.262 16.805,26.147 16.361,26.201Z" style="fill:rgb(48,44,50);"/>
                        </g>
                        <g transform="matrix(1,0,0,1,-0.286347,-0.0171308)">
                            <g transform="matrix(-1.05355,0,0,1.05355,36.3648,-2.08508)">
                                <path d="M14.773,24.914C14.3,25.382 11.832,23.392 11.021,22.041C10.125,20.548 8.925,16.424 9.399,15.956C9.872,15.489 12.965,17.742 13.861,19.235C14.756,20.728 15.247,24.446 14.773,24.914Z" style="fill:rgb(48,44,50);"/>
                            </g>
                            <g transform="matrix(-1.05355,0,0,1.05355,36.3648,-2.08508)">
                                <path d="M14.435,18.863C13.59,18.739 11.145,16.514 10.987,15.213C10.83,13.911 12.644,10.931 13.489,11.055C14.334,11.179 15.9,14.655 16.058,15.956C16.191,17.058 15.28,18.987 14.435,18.863Z" style="fill:rgb(48,44,50);"/>
                            </g>
                            <g transform="matrix(-1.05355,0,0,1.05355,36.3648,-2.08508)">
                                <path d="M9.399,20.184C8.225,19.529 4.253,19.345 3.948,19.962C3.644,20.579 6.399,23.234 7.572,23.889C8.566,24.443 10.683,24.506 10.987,23.889C11.292,23.271 10.572,20.838 9.399,20.184Z" style="fill:rgb(48,44,50);"/>
                            </g>
                            <g transform="matrix(-1.05355,0,0,1.05355,36.3648,-2.08508)">
                                <path d="M11.493,24.483C10.132,24.353 6.887,25.344 6.842,25.917C6.797,26.489 9.862,27.787 11.223,27.918C12.542,28.045 14.964,27.273 15.009,26.701C15.054,26.129 12.854,24.614 11.493,24.483Z" style="fill:rgb(48,44,50);"/>
                            </g>
                        </g>
                    </g>
                </g>
                <g transform="matrix(1,0,0,1,0.0601417,-0.918565)">
                    <g transform="matrix(1,0,0,1,0.264015,-0.0171308)">
                        <g transform="matrix(1.05355,0,0,1.05355,-2.26272,-2.08508)">
                            <path d="M14.773,24.914C14.3,25.382 11.832,23.392 11.021,22.041C10.125,20.548 8.925,16.424 9.399,15.956C9.872,15.489 12.965,17.742 13.861,19.235C14.756,20.728 15.247,24.446 14.773,24.914Z" style="fill:rgb(48,44,50);"/>
                        </g>
                        <g transform="matrix(1.05355,0,0,1.05355,-2.26272,-2.08508)">
                            <path d="M14.435,18.863C13.59,18.739 11.145,16.514 10.987,15.213C10.83,13.911 12.644,10.931 13.489,11.055C14.334,11.179 15.9,14.655 16.058,15.956C16.191,17.058 15.28,18.987 14.435,18.863Z" style="fill:rgb(48,44,50);"/>
                        </g>
                        <g transform="matrix(1.05355,0,0,1.05355,-2.26272,-2.08508)">
                            <path d="M9.399,20.184C8.225,19.529 4.253,19.345 3.948,19.962C3.644,20.579 6.399,23.234 7.572,23.889C8.566,24.443 10.683,24.506 10.987,23.889C11.292,23.271 10.572,20.838 9.399,20.184Z" style="fill:rgb(48,44,50);"/>
                        </g>
                        <g transform="matrix(1.05355,0,0,1.05355,-2.26272,-2.08508)">
                            <path d="M11.493,24.483C10.132,24.353 6.887,25.344 6.842,25.917C6.797,26.489 9.862,27.787 11.223,27.918C12.542,28.045 14.964,27.273 15.009,26.701C15.054,26.129 12.854,24.614 11.493,24.483Z" style="fill:rgb(48,44,50);"/>
                        </g>
                    </g>
                    <g transform="matrix(0.825133,0,0,1.1111,2.24665,-2.56403)">
                        <path d="M14.773,12.484C15.01,11.333 16.956,7.113 18.106,7.084C19.255,7.056 21.51,11.157 21.669,12.311C21.794,13.223 20.077,13.892 19.488,14.007C18.938,14.115 18.501,13.006 18.106,13.003C17.711,13.001 17.585,14.062 17.117,13.99C16.556,13.903 14.586,13.394 14.773,12.484Z" style="fill:rgb(48,44,50);"/>
                    </g>
                    <g transform="matrix(1.05355,0,0,1.05355,-1.86385,-2.01385)">
                        <path d="M18.082,14.007C17.104,14.057 15.051,20.443 15.009,22.428C14.976,23.953 17.104,25.966 18.082,25.917C19.06,25.867 20.843,23.722 20.877,22.131C20.919,20.146 19.06,13.958 18.082,14.007Z" style="fill:rgb(48,44,50);"/>
                    </g>
                    <g transform="matrix(1.05355,0,0,1.05355,-1.86385,-2.01385)">
                        <path d="M16.361,26.201C15.917,26.255 15.015,27.03 15.279,27.539C15.589,28.136 17.149,29.721 18.082,29.784C19.015,29.847 20.614,28.562 20.877,27.918C21.139,27.273 20.284,26.034 19.795,25.917C19.306,25.8 18.654,27.167 18.082,27.215C17.509,27.262 16.805,26.147 16.361,26.201Z" style="fill:rgb(48,44,50);"/>
                    </g>
                    <g transform="matrix(1,0,0,1,-0.286347,-0.0171308)">
                        <g transform="matrix(-1.05355,0,0,1.05355,36.3648,-2.08508)">
                            <path d="M14.773,24.914C14.3,25.382 11.832,23.392 11.021,22.041C10.125,20.548 8.925,16.424 9.399,15.956C9.872,15.489 12.965,17.742 13.861,19.235C14.756,20.728 15.247,24.446 14.773,24.914Z" style="fill:rgb(48,44,50);"/>
                        </g>
                        <g transform="matrix(-1.05355,0,0,1.05355,36.3648,-2.08508)">
                            <path d="M14.435,18.863C13.59,18.739 11.145,16.514 10.987,15.213C10.83,13.911 12.644,10.931 13.489,11.055C14.334,11.179 15.9,14.655 16.058,15.956C16.191,17.058 15.28,18.987 14.435,18.863Z" style="fill:rgb(48,44,50);"/>
                        </g>
                        <g transform="matrix(-1.05355,0,0,1.05355,36.3648,-2.08508)">
                            <path d="M9.399,20.184C8.225,19.529 4.253,19.345 3.948,19.962C3.644,20.579 6.399,23.234 7.572,23.889C8.566,24.443 10.683,24.506 10.987,23.889C11.292,23.271 10.572,20.838 9.399,20.184Z" style="fill:rgb(48,44,50);"/>
                        </g>
                        <g transform="matrix(-1.05355,0,0,1.05355,36.3648,-2.08508)">
                            <path d="M11.493,24.483C10.132,24.353 6.887,25.344 6.842,25.917C6.797,26.489 9.862,27.787 11.223,27.918C12.542,28.045 14.964,27.273 15.009,26.701C15.054,26.129 12.854,24.614 11.493,24.483Z" style="fill:rgb(48,44,50);"/>
                        </g>
                    </g>
                </g>
            </g>
        </g>
    </g>
</svg>
