<?xml version="1.0" encoding="UTF-8" standalone="no"?>
<!DOCTYPE svg PUBLIC "-//W3C//DTD SVG 1.1//EN" "http://www.w3.org/Graphics/SVG/1.1/DTD/svg11.dtd">
<svg width="100%" height="100%" viewBox="0 0 42 42" version="1.1" xmlns="http://www.w3.org/2000/svg" xmlns:xlink="http://www.w3.org/1999/xlink" xml:space="preserve" xmlns:serif="http://www.serif.com/" style="fill-rule:evenodd;clip-rule:evenodd;">
    <g transform="matrix(1,0,0,1,3,3)">
        <g id="FOSSIL" transform="matrix(0.949174,0,0,0.949174,1.76912,1.9115)">
            <g>
                <circle id="svg_4" cx="17.1" cy="16.95" r="17" style="fill:rgb(210,211,91);stroke:rgb(89,89,38);stroke-width:2.11px;"/>
                <g transform="matrix(1.05355,0,0,1.11958,-1.67427,-3.23011)">
                    <path d="M13.072,23.553C13.4,24.209 16.27,24.267 16.773,23.808C17.318,23.309 17.087,27.28 16.821,28.02C16.634,28.54 15.758,28.238 15.178,28.249C13.524,28.278 10.549,27.432 10.198,26.649C9.847,25.867 12.668,22.741 13.072,23.553ZM19.245,21.862C19.499,21.203 21.354,21.969 21.776,22.054C21.879,22.075 21.78,22.269 21.776,22.372C21.712,24.066 18.865,27.3 18.199,27.481C17.532,27.662 17,24.004 17.78,23.457C18.4,23.022 19.052,22.362 19.245,21.862ZM11.453,20.1C11.271,20.807 11.559,21.939 11.855,22.248C12.53,22.955 9.567,25.601 8.682,25.265C7.797,24.93 6.082,21.096 6.544,20.235C7.006,19.374 11.688,19.183 11.453,20.1ZM13.268,17.793C13.328,17.386 14.147,18.263 14.294,18.477C14.41,18.645 14.094,18.879 14.15,19.072C14.288,19.549 15.543,18.816 16.043,18.906C17.108,19.097 17.682,19.824 17.486,20.695C17.197,21.975 15.809,22.768 13.826,21.687C12.624,21.031 13.19,18.328 13.268,17.793ZM26.982,12.914C28.374,13.653 32.198,20.624 30.053,23.885C29.607,24.563 29.05,23.061 26.49,22.339C24.805,21.864 23.108,22.725 23.233,21.917C23.39,20.902 23.37,19.153 22.177,18C20.966,16.829 25.591,12.175 26.982,12.914ZM19.401,20.998C18.98,20.754 19.321,20.068 18.806,19.337C17.117,16.938 15.851,18.265 14.938,17.912C14.513,17.747 13.558,17.479 13.799,17.156C14.04,16.834 15.035,16.187 16.188,16.152C19.088,16.064 21.065,20.106 21.6,20.913C22.006,21.525 19.821,21.242 19.401,20.998ZM8.576,13.041C9.655,12.875 13.344,15.459 13.044,16.413C12.939,16.747 12.169,17.708 11.984,17.98C11.369,18.882 7.137,18.233 6.569,17.41C6.001,16.587 7.497,13.207 8.576,13.041ZM18.541,8.926C19.708,8.288 24.746,9.98 25.041,11.162C25.337,12.344 20.99,17.165 20.314,16.02C19.811,15.168 18.376,15.057 18.039,14.991C16.844,14.756 17.374,9.565 18.541,8.926ZM15.567,8.98C16.493,9.565 16.923,14.841 15.809,14.936C15.318,14.978 14.353,15.424 14.149,15.538C13.194,16.074 10.016,12.523 10.252,11.43C10.488,10.337 14.641,8.396 15.567,8.98Z" style="fill:rgb(48,44,50);fill-opacity:0.2;"/>
                </g>
                <g transform="matrix(1.05355,0,0,1.11958,-1.67427,-4.38865)">
                    <path d="M13.072,23.553C13.4,24.209 16.27,24.267 16.773,23.808C17.318,23.309 17.087,27.28 16.821,28.02C16.634,28.54 15.758,28.238 15.178,28.249C13.524,28.278 10.549,27.432 10.198,26.649C9.847,25.867 12.668,22.741 13.072,23.553ZM19.245,21.862C19.499,21.203 21.354,21.969 21.776,22.054C21.879,22.075 21.78,22.269 21.776,22.372C21.712,24.066 18.865,27.3 18.199,27.481C17.532,27.662 17,24.004 17.78,23.457C18.4,23.022 19.052,22.362 19.245,21.862ZM11.453,20.1C11.271,20.807 11.559,21.939 11.855,22.248C12.53,22.955 9.567,25.601 8.682,25.265C7.797,24.93 6.082,21.096 6.544,20.235C7.006,19.374 11.688,19.183 11.453,20.1ZM13.268,17.793C13.328,17.386 14.147,18.263 14.294,18.477C14.41,18.645 14.094,18.879 14.15,19.072C14.288,19.549 15.543,18.816 16.043,18.906C17.108,19.097 17.682,19.824 17.486,20.695C17.197,21.975 15.809,22.768 13.826,21.687C12.624,21.031 13.19,18.328 13.268,17.793ZM26.982,12.914C28.374,13.653 32.198,20.624 30.053,23.885C29.607,24.563 29.05,23.061 26.49,22.339C24.805,21.864 23.108,22.725 23.233,21.917C23.39,20.902 23.37,19.153 22.177,18C20.966,16.829 25.591,12.175 26.982,12.914ZM19.401,20.998C18.98,20.754 19.321,20.068 18.806,19.337C17.117,16.938 15.851,18.265 14.938,17.912C14.513,17.747 13.558,17.479 13.799,17.156C14.04,16.834 15.035,16.187 16.188,16.152C19.088,16.064 21.065,20.106 21.6,20.913C22.006,21.525 19.821,21.242 19.401,20.998ZM8.576,13.041C9.655,12.875 13.344,15.459 13.044,16.413C12.939,16.747 12.169,17.708 11.984,17.98C11.369,18.882 7.137,18.233 6.569,17.41C6.001,16.587 7.497,13.207 8.576,13.041ZM18.541,8.926C19.708,8.288 24.746,9.98 25.041,11.162C25.337,12.344 20.99,17.165 20.314,16.02C19.811,15.168 18.376,15.057 18.039,14.991C16.844,14.756 17.374,9.565 18.541,8.926ZM15.567,8.98C16.493,9.565 16.923,14.841 15.809,14.936C15.318,14.978 14.353,15.424 14.149,15.538C13.194,16.074 10.016,12.523 10.252,11.43C10.488,10.337 14.641,8.396 15.567,8.98Z" style="fill:rgb(48,44,50);"/>
                </g>
            </g>
        </g>
    </g>
</svg>
