<?xml version="1.0" encoding="UTF-8" standalone="no"?>
<!DOCTYPE svg PUBLIC "-//W3C//DTD SVG 1.1//EN" "http://www.w3.org/Graphics/SVG/1.1/DTD/svg11.dtd">
<svg width="100%" height="100%" viewBox="0 0 42 42" version="1.1" xmlns="http://www.w3.org/2000/svg" xmlns:xlink="http://www.w3.org/1999/xlink" xml:space="preserve" xmlns:serif="http://www.serif.com/" style="fill-rule:evenodd;clip-rule:evenodd;">
    <g transform="matrix(1,0,0,1,3,3)">
        <g id="GHOST" transform="matrix(0.949174,0,0,0.949174,1.76912,1.9115)">
            <g>
                <circle id="svg_4" cx="17.1" cy="16.95" r="17" style="fill:rgb(135,109,173);stroke:rgb(53,50,71);stroke-width:2.11px;"/>
                <g transform="matrix(1.05355,0,0,1.05355,-1.86385,-2.01385)">
                    <path d="M11.045,25.991C11.054,26.01 11.062,26.029 11.07,26.049C11.127,26.201 11.167,26.375 11.219,26.533C11.377,27.007 11.646,27.348 12.176,27.35C12.4,27.35 12.634,27.275 12.868,27.135C13.124,26.983 13.389,26.747 13.651,26.51C13.834,26.345 14.015,26.18 14.194,26.059C14.276,26.004 14.352,25.952 14.428,25.934C14.515,26.04 14.87,26.474 15.075,26.743C15.27,26.998 15.47,27.214 15.645,27.322C15.794,27.413 15.94,27.45 16.075,27.444C16.53,27.426 16.901,27.165 17.23,26.797C17.41,26.594 17.58,26.36 17.763,26.154C17.87,26.033 17.979,25.92 18.106,25.847C18.144,25.882 18.198,25.935 18.235,25.98C18.421,26.208 18.611,26.52 18.801,26.788C18.997,27.066 19.202,27.299 19.392,27.421C19.636,27.577 19.879,27.601 20.112,27.504C20.541,27.325 20.848,26.911 21.135,26.476C21.299,26.227 21.444,25.961 21.675,25.833C21.726,25.871 21.827,25.948 21.892,26.014C22.122,26.248 22.364,26.57 22.599,26.847C22.883,27.182 23.172,27.449 23.413,27.546C23.621,27.629 23.816,27.627 23.995,27.55C24.448,27.354 24.655,26.957 24.78,26.513C24.829,26.34 24.865,26.161 24.923,26.006C24.95,25.933 24.975,25.859 25.052,25.836C25.112,25.873 25.436,26.074 25.648,26.254C26.235,26.751 26.905,27.405 27.262,27.563C27.546,27.688 27.771,27.631 27.916,27.52C28.023,27.439 28.124,27.308 28.148,27.083C28.386,24.866 28.552,22.64 28.645,20.412C28.703,19.029 28.711,17.64 28.599,16.261C28.509,15.143 28.397,14.004 28.031,12.944C27.424,11.189 26.505,9.665 24.939,8.575C23.397,7.501 21.215,6.843 18.042,6.843C12.299,6.843 9.146,9.282 7.842,13.324C7.568,14.174 7.487,15.105 7.389,16.328C7.146,19.382 7.545,24.56 7.844,27.228C7.871,27.465 7.987,27.603 8.128,27.686C8.267,27.768 8.483,27.807 8.754,27.705C9.026,27.603 9.437,27.321 9.853,26.989C10.309,26.626 10.777,26.207 11.045,25.991ZM13.15,11.532C14.575,11.532 15.736,12.671 15.736,14.076C15.736,15.482 14.575,16.621 13.15,16.621C11.724,16.621 10.563,15.482 10.563,14.076C10.563,12.671 11.724,11.532 13.15,11.532ZM22.849,11.532C24.274,11.532 25.435,12.671 25.435,14.076C25.435,15.482 24.274,16.621 22.849,16.621C21.423,16.621 20.262,15.482 20.262,14.076C20.262,12.671 21.423,11.532 22.849,11.532Z" style="fill:rgb(48,44,50);fill-opacity:0.2;"/>
                </g>
                <g transform="matrix(1.05355,0,0,1.05355,-1.86385,-2.01385)">
                    <path d="M11.045,25.004C11.054,25.022 11.062,25.042 11.07,25.062C11.127,25.213 11.167,25.387 11.219,25.546C11.377,26.02 11.646,26.361 12.176,26.362C12.4,26.363 12.634,26.288 12.868,26.148C13.124,25.996 13.389,25.76 13.651,25.523C13.834,25.358 14.015,25.193 14.194,25.072C14.276,25.016 14.352,24.964 14.428,24.946C14.515,25.053 14.87,25.487 15.075,25.756C15.27,26.011 15.47,26.226 15.645,26.335C15.794,26.426 15.94,26.462 16.075,26.457C16.53,26.439 16.901,26.178 17.23,25.809C17.41,25.607 17.58,25.373 17.763,25.166C17.87,25.046 17.979,24.933 18.106,24.859C18.144,24.895 18.198,24.947 18.235,24.993C18.421,25.221 18.611,25.533 18.801,25.801C18.997,26.078 19.202,26.312 19.392,26.433C19.636,26.589 19.879,26.614 20.112,26.517C20.541,26.338 20.848,25.924 21.135,25.489C21.299,25.24 21.444,24.974 21.675,24.846C21.726,24.884 21.827,24.961 21.892,25.027C22.122,25.261 22.364,25.583 22.599,25.86C22.883,26.195 23.172,26.462 23.413,26.559C23.621,26.642 23.816,26.639 23.995,26.562C24.448,26.367 24.655,25.969 24.78,25.526C24.829,25.353 24.865,25.174 24.923,25.019C24.95,24.946 24.975,24.872 25.052,24.849C25.112,24.885 25.436,25.087 25.648,25.267C26.235,25.763 26.905,26.417 27.262,26.575C27.546,26.701 27.771,26.644 27.916,26.533C28.023,26.452 28.124,26.32 28.148,26.096C28.386,23.879 28.552,21.653 28.645,19.425C28.703,18.042 28.711,16.653 28.599,15.273C28.509,14.155 28.397,13.017 28.031,11.957C27.424,10.202 26.505,8.678 24.939,7.587C23.397,6.513 21.215,5.855 18.042,5.855C12.299,5.855 9.146,8.295 7.842,12.337C7.568,13.187 7.487,14.118 7.389,15.34C7.146,18.394 7.545,23.573 7.844,26.241C7.871,26.478 7.987,26.616 8.128,26.699C8.267,26.781 8.483,26.819 8.754,26.718C9.026,26.616 9.437,26.333 9.853,26.002C10.309,25.639 10.777,25.219 11.045,25.004ZM13.15,10.545C14.575,10.545 15.736,11.683 15.736,13.089C15.736,14.495 14.575,15.633 13.15,15.633C11.724,15.633 10.563,14.495 10.563,13.089C10.563,11.683 11.724,10.545 13.15,10.545ZM22.849,10.545C24.274,10.545 25.435,11.683 25.435,13.089C25.435,14.495 24.274,15.633 22.849,15.633C21.423,15.633 20.262,14.495 20.262,13.089C20.262,11.683 21.423,10.545 22.849,10.545Z" style="fill:rgb(48,44,50);"/>
                </g>
            </g>
        </g>
    </g>
</svg>
