<?xml version="1.0" encoding="UTF-8" standalone="no"?>
<!DOCTYPE svg PUBLIC "-//W3C//DTD SVG 1.1//EN" "http://www.w3.org/Graphics/SVG/1.1/DTD/svg11.dtd">
<svg width="100%" height="100%" viewBox="0 0 42 42" version="1.1" xmlns="http://www.w3.org/2000/svg" xmlns:xlink="http://www.w3.org/1999/xlink" xml:space="preserve" xmlns:serif="http://www.serif.com/" style="fill-rule:evenodd;clip-rule:evenodd;">
    <g transform="matrix(1,0,0,1,3,3)">
        <g id="GRASS" transform="matrix(0.949174,0,0,0.949174,1.76912,1.9115)">
            <g>
                <circle id="svg_4" cx="17.1" cy="16.95" r="17" style="fill:rgb(23,179,0);stroke:rgb(0,128,0);stroke-width:2.11px;"/>
                <g transform="matrix(1.02921,0,0,1.02921,-1.1501,-0.986668)">
                    <path d="M17.97,32.337C15.863,31.033 15.236,27.192 13.788,27.931C12.338,28.671 9.311,29.106 6.997,23.97C5.233,20.056 6.381,15.737 10.03,11.781C13.09,8.465 19.741,4.428 23.12,4.498C23.122,9.346 25.482,11.876 26.89,14.833C28.961,19.181 27.663,25.124 21.97,27.838C19.601,28.968 18.015,27.546 17.08,27.481C16.407,27.434 17.589,29.88 19.28,31.14C20.316,31.911 19.03,32.718 17.97,32.337ZM19.293,13.175C20.022,11.776 21.068,9.552 20.634,9.211C20.2,8.871 18.034,11.191 17.002,13.353C16.566,13.137 15.578,11.17 15.032,11.247C14.485,11.324 15.152,14.726 16.181,15.196C15.882,15.919 15.594,16.683 15.333,17.473C13.554,16.857 11.68,13.551 11.152,13.71C10.623,13.869 12.18,18.538 14.775,19.395C14.6,20.097 14.455,20.81 14.351,21.523C13.896,21.434 9.908,18.194 9.368,18.31C8.829,18.426 12.935,23.305 14.176,23.522C14.165,23.967 14.727,25.809 15.278,25.768C15.828,25.727 16.167,24.03 16.17,23.692C18.56,23.692 24.872,20.159 24.571,19.697C24.27,19.234 18.35,21.657 16.331,21.692C16.43,21.014 16.57,20.337 16.74,19.669C18.255,19.613 22.615,16.238 22.261,15.815C21.908,15.391 18.377,17.374 17.372,17.582C17.621,16.868 17.892,16.181 18.17,15.535C19.195,15.467 21.689,13.337 21.342,12.908C20.996,12.478 19.517,13.061 19.293,13.175Z" style="fill:rgb(48,44,50);fill-opacity:0.2;"/>
                </g>
                <g transform="matrix(1.02921,0,0,1.02921,-1.1501,-2.01899)">
                    <path d="M17.97,32.337C15.863,31.033 15.236,27.192 13.788,27.931C12.338,28.671 9.311,29.106 6.997,23.97C5.233,20.056 6.381,15.737 10.03,11.781C13.09,8.465 19.741,4.428 23.12,4.498C23.122,9.346 25.482,11.876 26.89,14.833C28.961,19.181 27.663,25.124 21.97,27.838C19.601,28.968 18.015,27.546 17.08,27.481C16.407,27.434 17.589,29.88 19.28,31.14C20.316,31.911 19.03,32.718 17.97,32.337ZM19.293,13.175C20.022,11.776 21.068,9.552 20.634,9.211C20.2,8.871 18.034,11.191 17.002,13.353C16.566,13.137 15.578,11.17 15.032,11.247C14.485,11.324 15.152,14.726 16.181,15.196C15.882,15.919 15.594,16.683 15.333,17.473C13.554,16.857 11.68,13.551 11.152,13.71C10.623,13.869 12.18,18.538 14.775,19.395C14.6,20.097 14.455,20.81 14.351,21.523C13.896,21.434 9.908,18.194 9.368,18.31C8.829,18.426 12.935,23.305 14.176,23.522C14.165,23.967 14.727,25.809 15.278,25.768C15.828,25.727 16.167,24.03 16.17,23.692C18.56,23.692 24.872,20.159 24.571,19.697C24.27,19.234 18.35,21.657 16.331,21.692C16.43,21.014 16.57,20.337 16.74,19.669C18.255,19.613 22.615,16.238 22.261,15.815C21.908,15.391 18.377,17.374 17.372,17.582C17.621,16.868 17.892,16.181 18.17,15.535C19.195,15.467 21.689,13.337 21.342,12.908C20.996,12.478 19.517,13.061 19.293,13.175Z" style="fill:rgb(48,44,50);"/>
                </g>
            </g>
        </g>
    </g>
</svg>
