<?xml version="1.0" encoding="UTF-8" standalone="no"?>
<!DOCTYPE svg PUBLIC "-//W3C//DTD SVG 1.1//EN" "http://www.w3.org/Graphics/SVG/1.1/DTD/svg11.dtd">
<svg width="100%" height="100%" viewBox="0 0 42 42" version="1.1" xmlns="http://www.w3.org/2000/svg" xmlns:xlink="http://www.w3.org/1999/xlink" xml:space="preserve" xmlns:serif="http://www.serif.com/" style="fill-rule:evenodd;clip-rule:evenodd;">
    <g transform="matrix(1,0,0,1,3,3)">
        <g id="GROUND" transform="matrix(0.949174,0,0,0.949174,1.76912,1.9115)">
            <g>
                <circle id="svg_4" cx="17.1" cy="16.95" r="17" style="fill:rgb(198,150,74);stroke:rgb(102,55,17);stroke-width:2.11px;"/>
                <g transform="matrix(0.933406,0,0,0.933406,1.15828,2.2396)">
                    <g opacity="0.2">
                        <g transform="matrix(1.05355,0,0,1.05355,-1.86385,-2.01385)">
                            <path d="M6.938,9.025L8.374,13.228L8.888,16.866L17.285,15.026L26.935,14.96L27.003,11.564L29.022,8.968L17.285,7.882L6.938,9.025Z" style="fill:rgb(48,44,50);"/>
                        </g>
                        <g transform="matrix(1.05355,0,0,1.05355,-1.87377,6.36797)">
                            <path d="M9.007,10.902L11.722,13.627L12.928,16.866L19.751,14.965L24.966,14.901L24.976,11.969L27.012,8.91L17.295,9.374L9.007,10.902Z" style="fill:rgb(48,44,50);"/>
                        </g>
                        <g transform="matrix(0.694881,0,0,0.914939,5.0072,15.5838)">
                            <path d="M11.522,11.307L14.071,13.238L14.673,15.899L20.308,15.542L23.664,13.576L24.398,11.505L26.686,8.91L20.245,9.162L11.522,11.307Z" style="fill:rgb(48,44,50);"/>
                        </g>
                    </g>
                </g>
                <g transform="matrix(0.933406,0,0,0.933406,1.15828,1.22711)">
                    <g transform="matrix(1.05355,0,0,1.05355,-1.86385,-2.01385)">
                        <path d="M6.938,9.025L8.374,13.228L8.888,16.866L17.285,15.026L26.935,14.96L27.003,11.564L29.022,8.968L17.285,7.882L6.938,9.025Z" style="fill:rgb(48,44,50);"/>
                    </g>
                    <g transform="matrix(1.05355,0,0,1.05355,-1.87377,6.36797)">
                        <path d="M9.007,10.902L11.722,13.627L12.928,16.866L19.751,14.965L24.966,14.901L24.976,11.969L27.012,8.91L17.295,9.374L9.007,10.902Z" style="fill:rgb(48,44,50);"/>
                    </g>
                    <g transform="matrix(0.694881,0,0,0.914939,5.0072,15.5838)">
                        <path d="M11.522,11.307L14.071,13.238L14.673,15.899L20.308,15.542L23.664,13.576L24.398,11.505L26.686,8.91L20.245,9.162L11.522,11.307Z" style="fill:rgb(48,44,50);"/>
                    </g>
                </g>
            </g>
        </g>
    </g>
</svg>
