<?xml version="1.0" encoding="UTF-8" standalone="no"?>
<!DOCTYPE svg PUBLIC "-//W3C//DTD SVG 1.1//EN" "http://www.w3.org/Graphics/SVG/1.1/DTD/svg11.dtd">
<svg width="100%" height="100%" viewBox="0 0 42 42" version="1.1" xmlns="http://www.w3.org/2000/svg" xmlns:xlink="http://www.w3.org/1999/xlink" xml:space="preserve" xmlns:serif="http://www.serif.com/" style="fill-rule:evenodd;clip-rule:evenodd;">
    <g transform="matrix(1,0,0,1,3,3)">
        <g id="ICE" transform="matrix(0.949174,0,0,0.949174,1.76912,1.9115)">
            <g>
                <circle id="svg_4" cx="17.1" cy="16.95" r="17" style="fill:rgb(195,228,238);stroke:rgb(73,140,146);stroke-width:2.11px;"/>
                <g transform="matrix(1.05593,0,0,1.05593,-0.918759,-0.266479)">
                    <g opacity="0.2">
                        <g transform="matrix(0.843364,0,0,0.843364,2.67289,2.57919)">
                            <g transform="matrix(1.05355,0,0,1.05355,-1.86385,-2.01385)">
                                <path d="M16.964,5.172L16.964,30.97C16.964,31.542 17.429,33.069 18.001,33.069C18.573,33.069 19.036,31.542 19.036,30.97L19.036,5.172C19.036,4.6 18.537,2.871 17.965,2.871C17.393,2.871 16.964,4.6 16.964,5.172Z" style="fill:rgb(48,44,50);"/>
                            </g>
                            <g transform="matrix(1.05355,0,0,1.05355,-1.86385,-2.01385)">
                                <path d="M12.347,4.496C11.974,4.93 17.294,10.115 17.294,10.115C17.682,10.448 18.254,10.449 18.643,10.118C18.643,10.118 23.959,4.968 23.588,4.533C23.217,4.098 17.972,7.965 17.972,7.965C17.972,7.965 12.719,4.063 12.347,4.496Z" style="fill:rgb(48,44,50);"/>
                            </g>
                            <g transform="matrix(-1.05355,0,0,-1.05355,35.9926,36.063)">
                                <path d="M12.347,4.496C11.974,4.93 17.294,10.115 17.294,10.115C17.682,10.448 18.254,10.449 18.643,10.118C18.643,10.118 23.959,4.968 23.588,4.533C23.217,4.098 17.972,7.965 17.972,7.965C17.972,7.965 12.719,4.063 12.347,4.496Z" style="fill:rgb(48,44,50);"/>
                            </g>
                        </g>
                        <g transform="matrix(0.42476,0.728589,-0.728589,0.42476,22.22,-2.6643)">
                            <g transform="matrix(1.05355,5.55112e-17,-5.55112e-17,1.05355,-1.86385,-2.01385)">
                                <path d="M16.964,5.172L16.964,30.97C16.964,31.542 17.457,33.121 18.029,33.121C18.601,33.121 19.036,31.542 19.036,30.97L19.036,5.172C19.036,4.6 18.538,2.632 17.966,2.632C17.394,2.632 16.964,4.6 16.964,5.172Z" style="fill:rgb(48,44,50);"/>
                            </g>
                            <g transform="matrix(1.05355,5.55112e-17,-5.55112e-17,1.05355,-1.86385,-2.01385)">
                                <path d="M12.347,4.496C11.974,4.93 17.294,10.115 17.294,10.115C17.682,10.448 18.254,10.449 18.643,10.118C18.643,10.118 23.959,4.968 23.588,4.533C23.217,4.098 17.972,7.965 17.972,7.965C17.972,7.965 12.719,4.063 12.347,4.496Z" style="fill:rgb(48,44,50);"/>
                            </g>
                            <g transform="matrix(-1.05355,-5.55112e-17,5.55112e-17,-1.05355,35.9926,36.063)">
                                <path d="M12.347,4.496C11.974,4.93 17.294,10.115 17.294,10.115C17.682,10.448 18.254,10.449 18.643,10.118C18.643,10.118 23.959,4.968 23.588,4.533C23.217,4.098 17.972,7.965 17.972,7.965C17.972,7.965 12.719,4.063 12.347,4.496Z" style="fill:rgb(48,44,50);"/>
                            </g>
                        </g>
                        <g transform="matrix(-0.421682,0.730375,-0.730375,-0.421682,36.6945,11.6527)">
                            <g transform="matrix(1.05355,0,0,1.05355,-1.86385,-2.01385)">
                                <path d="M16.964,5.172L16.964,30.97C16.964,31.542 17.469,33.261 18.041,33.261C18.613,33.261 19.036,31.542 19.036,30.97L19.036,5.172C19.036,4.6 18.566,2.911 17.995,2.911C17.423,2.911 16.964,4.6 16.964,5.172Z" style="fill:rgb(48,44,50);"/>
                            </g>
                            <g transform="matrix(1.05355,0,0,1.05355,-1.86385,-2.01385)">
                                <path d="M12.347,4.496C11.974,4.93 17.294,10.115 17.294,10.115C17.682,10.448 18.254,10.449 18.643,10.118C18.643,10.118 23.959,4.968 23.588,4.533C23.217,4.098 17.972,7.965 17.972,7.965C17.972,7.965 12.719,4.063 12.347,4.496Z" style="fill:rgb(48,44,50);"/>
                            </g>
                            <g transform="matrix(-1.05355,0,0,-1.05355,35.9926,36.063)">
                                <path d="M12.347,4.496C11.974,4.93 17.294,10.115 17.294,10.115C17.682,10.448 18.254,10.449 18.643,10.118C18.643,10.118 23.959,4.968 23.588,4.533C23.217,4.098 17.972,7.965 17.972,7.965C17.972,7.965 12.719,4.063 12.347,4.496Z" style="fill:rgb(48,44,50);"/>
                            </g>
                        </g>
                    </g>
                </g>
                <g transform="matrix(1.05593,0,0,1.05593,-0.918759,-1.41343)">
                    <g transform="matrix(0.843364,0,0,0.843364,2.67289,2.57919)">
                        <g transform="matrix(1.05355,0,0,1.05355,-1.86385,-2.01385)">
                            <path d="M16.964,5.172L16.964,30.97C16.964,31.542 17.429,33.069 18.001,33.069C18.573,33.069 19.036,31.542 19.036,30.97L19.036,5.172C19.036,4.6 18.537,2.871 17.965,2.871C17.393,2.871 16.964,4.6 16.964,5.172Z" style="fill:rgb(48,44,50);"/>
                        </g>
                        <g transform="matrix(1.05355,0,0,1.05355,-1.86385,-2.01385)">
                            <path d="M12.347,4.496C11.974,4.93 17.294,10.115 17.294,10.115C17.682,10.448 18.254,10.449 18.643,10.118C18.643,10.118 23.959,4.968 23.588,4.533C23.217,4.098 17.972,7.965 17.972,7.965C17.972,7.965 12.719,4.063 12.347,4.496Z" style="fill:rgb(48,44,50);"/>
                        </g>
                        <g transform="matrix(-1.05355,0,0,-1.05355,35.9926,36.063)">
                            <path d="M12.347,4.496C11.974,4.93 17.294,10.115 17.294,10.115C17.682,10.448 18.254,10.449 18.643,10.118C18.643,10.118 23.959,4.968 23.588,4.533C23.217,4.098 17.972,7.965 17.972,7.965C17.972,7.965 12.719,4.063 12.347,4.496Z" style="fill:rgb(48,44,50);"/>
                        </g>
                    </g>
                    <g transform="matrix(0.42476,0.728589,-0.728589,0.42476,22.22,-2.6643)">
                        <g transform="matrix(1.05355,5.55112e-17,-5.55112e-17,1.05355,-1.86385,-2.01385)">
                            <path d="M16.964,5.172L16.964,30.97C16.964,31.542 17.457,33.121 18.029,33.121C18.601,33.121 19.036,31.542 19.036,30.97L19.036,5.172C19.036,4.6 18.538,2.632 17.966,2.632C17.394,2.632 16.964,4.6 16.964,5.172Z" style="fill:rgb(48,44,50);"/>
                        </g>
                        <g transform="matrix(1.05355,5.55112e-17,-5.55112e-17,1.05355,-1.86385,-2.01385)">
                            <path d="M12.347,4.496C11.974,4.93 17.294,10.115 17.294,10.115C17.682,10.448 18.254,10.449 18.643,10.118C18.643,10.118 23.959,4.968 23.588,4.533C23.217,4.098 17.972,7.965 17.972,7.965C17.972,7.965 12.719,4.063 12.347,4.496Z" style="fill:rgb(48,44,50);"/>
                        </g>
                        <g transform="matrix(-1.05355,-5.55112e-17,5.55112e-17,-1.05355,35.9926,36.063)">
                            <path d="M12.347,4.496C11.974,4.93 17.294,10.115 17.294,10.115C17.682,10.448 18.254,10.449 18.643,10.118C18.643,10.118 23.959,4.968 23.588,4.533C23.217,4.098 17.972,7.965 17.972,7.965C17.972,7.965 12.719,4.063 12.347,4.496Z" style="fill:rgb(48,44,50);"/>
                        </g>
                    </g>
                    <g transform="matrix(-0.421682,0.730375,-0.730375,-0.421682,36.6945,11.6527)">
                        <g transform="matrix(1.05355,0,0,1.05355,-1.86385,-2.01385)">
                            <path d="M16.964,5.172L16.964,30.97C16.964,31.542 17.469,33.261 18.041,33.261C18.613,33.261 19.036,31.542 19.036,30.97L19.036,5.172C19.036,4.6 18.566,2.911 17.995,2.911C17.423,2.911 16.964,4.6 16.964,5.172Z" style="fill:rgb(48,44,50);"/>
                        </g>
                        <g transform="matrix(1.05355,0,0,1.05355,-1.86385,-2.01385)">
                            <path d="M12.347,4.496C11.974,4.93 17.294,10.115 17.294,10.115C17.682,10.448 18.254,10.449 18.643,10.118C18.643,10.118 23.959,4.968 23.588,4.533C23.217,4.098 17.972,7.965 17.972,7.965C17.972,7.965 12.719,4.063 12.347,4.496Z" style="fill:rgb(48,44,50);"/>
                        </g>
                        <g transform="matrix(-1.05355,0,0,-1.05355,35.9926,36.063)">
                            <path d="M12.347,4.496C11.974,4.93 17.294,10.115 17.294,10.115C17.682,10.448 18.254,10.449 18.643,10.118C18.643,10.118 23.959,4.968 23.588,4.533C23.217,4.098 17.972,7.965 17.972,7.965C17.972,7.965 12.719,4.063 12.347,4.496Z" style="fill:rgb(48,44,50);"/>
                        </g>
                    </g>
                </g>
            </g>
        </g>
    </g>
</svg>
