<?xml version="1.0" encoding="UTF-8" standalone="no"?>
<!DOCTYPE svg PUBLIC "-//W3C//DTD SVG 1.1//EN" "http://www.w3.org/Graphics/SVG/1.1/DTD/svg11.dtd">
<svg width="100%" height="100%" viewBox="0 0 36 36" version="1.1" xmlns="http://www.w3.org/2000/svg" xmlns:xlink="http://www.w3.org/1999/xlink" xml:space="preserve" xmlns:serif="http://www.serif.com/" style="fill-rule:evenodd;clip-rule:evenodd;">
    <g id="TYPES">
        <g id="GRASS" transform="matrix(0.949174,0,0,0.949174,1.76912,1.9115)">
            <g>
                <circle id="svg_4" cx="17.1" cy="16.95" r="17" style="fill:rgb(23,179,0);stroke:rgb(0,128,0);stroke-width:2.11px;"/>
                <g transform="matrix(1.02921,0,0,1.02921,-1.1501,-0.986668)">
                    <path d="M17.97,32.337C15.863,31.033 15.236,27.192 13.788,27.931C12.338,28.671 9.311,29.106 6.997,23.97C5.233,20.056 6.381,15.737 10.03,11.781C13.09,8.465 19.741,4.428 23.12,4.498C23.122,9.346 25.482,11.876 26.89,14.833C28.961,19.181 27.663,25.124 21.97,27.838C19.601,28.968 18.015,27.546 17.08,27.481C16.407,27.434 17.589,29.88 19.28,31.14C20.316,31.911 19.03,32.718 17.97,32.337ZM19.293,13.175C20.022,11.776 21.068,9.552 20.634,9.211C20.2,8.871 18.034,11.191 17.002,13.353C16.566,13.137 15.578,11.17 15.032,11.247C14.485,11.324 15.152,14.726 16.181,15.196C15.882,15.919 15.594,16.683 15.333,17.473C13.554,16.857 11.68,13.551 11.152,13.71C10.623,13.869 12.18,18.538 14.775,19.395C14.6,20.097 14.455,20.81 14.351,21.523C13.896,21.434 9.908,18.194 9.368,18.31C8.829,18.426 12.935,23.305 14.176,23.522C14.165,23.967 14.727,25.809 15.278,25.768C15.828,25.727 16.167,24.03 16.17,23.692C18.56,23.692 24.872,20.159 24.571,19.697C24.27,19.234 18.35,21.657 16.331,21.692C16.43,21.014 16.57,20.337 16.74,19.669C18.255,19.613 22.615,16.238 22.261,15.815C21.908,15.391 18.377,17.374 17.372,17.582C17.621,16.868 17.892,16.181 18.17,15.535C19.195,15.467 21.689,13.337 21.342,12.908C20.996,12.478 19.517,13.061 19.293,13.175Z" style="fill:rgb(48,44,50);fill-opacity:0.2;"/>
                </g>
                <g transform="matrix(1.02921,0,0,1.02921,-1.1501,-2.01899)">
                    <path d="M17.97,32.337C15.863,31.033 15.236,27.192 13.788,27.931C12.338,28.671 9.311,29.106 6.997,23.97C5.233,20.056 6.381,15.737 10.03,11.781C13.09,8.465 19.741,4.428 23.12,4.498C23.122,9.346 25.482,11.876 26.89,14.833C28.961,19.181 27.663,25.124 21.97,27.838C19.601,28.968 18.015,27.546 17.08,27.481C16.407,27.434 17.589,29.88 19.28,31.14C20.316,31.911 19.03,32.718 17.97,32.337ZM19.293,13.175C20.022,11.776 21.068,9.552 20.634,9.211C20.2,8.871 18.034,11.191 17.002,13.353C16.566,13.137 15.578,11.17 15.032,11.247C14.485,11.324 15.152,14.726 16.181,15.196C15.882,15.919 15.594,16.683 15.333,17.473C13.554,16.857 11.68,13.551 11.152,13.71C10.623,13.869 12.18,18.538 14.775,19.395C14.6,20.097 14.455,20.81 14.351,21.523C13.896,21.434 9.908,18.194 9.368,18.31C8.829,18.426 12.935,23.305 14.176,23.522C14.165,23.967 14.727,25.809 15.278,25.768C15.828,25.727 16.167,24.03 16.17,23.692C18.56,23.692 24.872,20.159 24.571,19.697C24.27,19.234 18.35,21.657 16.331,21.692C16.43,21.014 16.57,20.337 16.74,19.669C18.255,19.613 22.615,16.238 22.261,15.815C21.908,15.391 18.377,17.374 17.372,17.582C17.621,16.868 17.892,16.181 18.17,15.535C19.195,15.467 21.689,13.337 21.342,12.908C20.996,12.478 19.517,13.061 19.293,13.175Z" style="fill:rgb(48,44,50);"/>
                </g>
            </g>
        </g>
        <g id="FAIRY" transform="matrix(0.949174,0,0,0.949174,1.76912,1.9115)">
            <g>
                <circle id="svg_41" serif:id="svg_4" cx="17.1" cy="16.95" r="17" style="fill:rgb(255,175,209);stroke:rgb(149,78,111);stroke-width:2.11px;"/>
                <g transform="matrix(0.95835,0,0,0.95835,0.713733,0.445934)">
                    <g opacity="0.2">
                        <g transform="matrix(1.05355,0,0,1.05355,-1.59925,-2.11109)">
                            <path d="M12.699,7.128C13.05,8.784 16.126,19.01 17.81,19.01C19.493,19.01 22.484,8.778 22.799,7.128C23.028,5.923 20.528,9.447 19.696,9.108C18.865,8.77 18.475,5.103 17.81,5.098C17.144,5.092 16.554,8.737 15.702,9.075C14.851,9.414 12.451,5.961 12.699,7.128Z" style="fill:rgb(48,44,50);"/>
                        </g>
                        <g transform="matrix(1.05355,0,0,1.05355,-2.25032,-1.70971)">
                            <path d="M10.972,9.014C11.547,8.795 7.795,13.834 8.781,18.918C9.945,24.922 16.752,25.118 16.914,26.762C17.039,28.038 15.794,31.196 14.034,30.551C7.866,28.288 4.83,22.731 4.846,18C4.858,14.451 7.081,10.499 10.972,9.014Z" style="fill:rgb(48,44,50);"/>
                        </g>
                        <g transform="matrix(-1.05355,0,0,1.05355,36.4472,-1.70971)">
                            <path d="M10.972,9.014C11.547,8.795 7.795,13.834 8.781,18.918C9.945,24.922 16.752,25.118 16.914,26.762C17.039,28.038 15.794,31.196 14.034,30.551C7.866,28.288 4.83,22.731 4.846,18C4.858,14.451 7.081,10.499 10.972,9.014Z" style="fill:rgb(48,44,50);"/>
                        </g>
                    </g>
                </g>
                <g transform="matrix(0.95835,0,0,0.95835,0.713733,-0.635609)">
                    <g transform="matrix(1.05355,0,0,1.05355,-1.59925,-2.11109)">
                        <path d="M12.699,7.128C13.05,8.784 16.126,19.01 17.81,19.01C19.493,19.01 22.484,8.778 22.799,7.128C23.028,5.923 20.528,9.447 19.696,9.108C18.865,8.77 18.475,5.103 17.81,5.098C17.144,5.092 16.554,8.737 15.702,9.075C14.851,9.414 12.451,5.961 12.699,7.128Z" style="fill:rgb(48,44,50);"/>
                    </g>
                    <g transform="matrix(1.05355,0,0,1.05355,-2.25032,-1.70971)">
                        <path d="M10.972,9.014C11.547,8.795 7.795,13.834 8.781,18.918C9.945,24.922 16.752,25.118 16.914,26.762C17.039,28.038 15.794,31.196 14.034,30.551C7.866,28.288 4.83,22.731 4.846,18C4.858,14.451 7.081,10.499 10.972,9.014Z" style="fill:rgb(48,44,50);"/>
                    </g>
                    <g transform="matrix(-1.05355,0,0,1.05355,36.4472,-1.70971)">
                        <path d="M10.972,9.014C11.547,8.795 7.795,13.834 8.781,18.918C9.945,24.922 16.752,25.118 16.914,26.762C17.039,28.038 15.794,31.196 14.034,30.551C7.866,28.288 4.83,22.731 4.846,18C4.858,14.451 7.081,10.499 10.972,9.014Z" style="fill:rgb(48,44,50);"/>
                    </g>
                </g>
            </g>
        </g>
        <g id="LIGHT" transform="matrix(0.949174,0,0,0.949174,1.76912,1.9115)">
            <g>
                <circle id="svg_42" serif:id="svg_4" cx="17.1" cy="16.95" r="17" style="fill:rgb(255,248,150);stroke:rgb(232,220,48);stroke-width:2.11px;"/>
                <g transform="matrix(2.43358,0,0,2.43358,-24.4182,-32.7827)">
                    <path d="M17.061,15.043C17.208,15.043 17.279,17.665 17.504,17.886C17.729,18.107 18.27,16.328 18.412,16.369C18.554,16.411 18.046,18.2 18.355,18.136C18.664,18.072 20.141,15.904 20.266,15.984C20.39,16.064 19.032,18.308 19.102,18.616C19.172,18.924 20.589,17.719 20.685,17.83C20.782,17.942 19.388,19.173 19.683,19.286C19.977,19.399 22.392,18.374 22.454,18.509C22.515,18.643 20.159,19.797 20.051,20.093C19.944,20.39 21.787,20.143 21.808,20.289C21.829,20.435 19.991,20.717 20.177,20.971C20.364,21.226 22.95,21.669 22.929,21.815C22.908,21.962 20.302,21.658 20.051,21.85C19.8,22.041 21.485,22.83 21.424,22.964C21.362,23.099 19.663,22.342 19.683,22.657C19.702,22.972 21.638,24.742 21.541,24.854C21.444,24.966 19.416,23.302 19.102,23.327C18.787,23.353 19.778,24.927 19.654,25.007C19.529,25.086 18.509,23.531 18.355,23.807C18.202,24.082 18.873,26.618 18.731,26.66C18.589,26.702 17.783,24.205 17.504,24.057C17.226,23.908 17.208,25.768 17.061,25.768C16.913,25.768 16.895,23.908 16.617,24.057C16.339,24.205 15.532,26.702 15.39,26.66C15.248,26.618 15.92,24.082 15.766,23.807C15.612,23.531 14.592,25.086 14.467,25.007C14.343,24.927 15.334,23.353 15.019,23.327C14.705,23.302 12.677,24.966 12.58,24.854C12.483,24.742 14.419,22.972 14.438,22.657C14.458,22.342 12.759,23.099 12.698,22.964C12.636,22.83 14.321,22.041 14.07,21.85C13.819,21.658 11.213,21.962 11.192,21.815C11.171,21.669 13.757,21.226 13.944,20.971C14.13,20.717 12.292,20.435 12.313,20.289C12.334,20.143 14.177,20.39 14.07,20.093C13.962,19.797 11.606,18.643 11.668,18.509C11.729,18.374 14.144,19.399 14.438,19.286C14.733,19.173 13.339,17.942 13.436,17.83C13.532,17.719 14.949,18.924 15.019,18.616C15.089,18.308 13.731,16.064 13.855,15.984C13.98,15.904 15.457,18.072 15.766,18.136C16.075,18.2 15.567,16.411 15.709,16.369C15.851,16.328 16.392,18.107 16.617,17.886C16.842,17.665 16.913,15.043 17.061,15.043Z" style="fill:rgb(48,44,50);fill-opacity:0.2;"/>
                </g>
                <g transform="matrix(2.43358,0,0,2.43358,-24.4182,-33.8363)">
                    <path d="M17.061,15.043C17.208,15.043 17.279,17.665 17.504,17.886C17.729,18.107 18.27,16.328 18.412,16.369C18.554,16.411 18.046,18.2 18.355,18.136C18.664,18.072 20.141,15.904 20.266,15.984C20.39,16.064 19.032,18.308 19.102,18.616C19.172,18.924 20.589,17.719 20.685,17.83C20.782,17.942 19.388,19.173 19.683,19.286C19.977,19.399 22.392,18.374 22.454,18.509C22.515,18.643 20.159,19.797 20.051,20.093C19.944,20.39 21.787,20.143 21.808,20.289C21.829,20.435 19.991,20.717 20.177,20.971C20.364,21.226 22.95,21.669 22.929,21.815C22.908,21.962 20.302,21.658 20.051,21.85C19.8,22.041 21.485,22.83 21.424,22.964C21.362,23.099 19.663,22.342 19.683,22.657C19.702,22.972 21.638,24.742 21.541,24.854C21.444,24.966 19.416,23.302 19.102,23.327C18.787,23.353 19.778,24.927 19.654,25.007C19.529,25.086 18.509,23.531 18.355,23.807C18.202,24.082 18.873,26.618 18.731,26.66C18.589,26.702 17.783,24.205 17.504,24.057C17.226,23.908 17.208,25.768 17.061,25.768C16.913,25.768 16.895,23.908 16.617,24.057C16.339,24.205 15.532,26.702 15.39,26.66C15.248,26.618 15.92,24.082 15.766,23.807C15.612,23.531 14.592,25.086 14.467,25.007C14.343,24.927 15.334,23.353 15.019,23.327C14.705,23.302 12.677,24.966 12.58,24.854C12.483,24.742 14.419,22.972 14.438,22.657C14.458,22.342 12.759,23.099 12.698,22.964C12.636,22.83 14.321,22.041 14.07,21.85C13.819,21.658 11.213,21.962 11.192,21.815C11.171,21.669 13.757,21.226 13.944,20.971C14.13,20.717 12.292,20.435 12.313,20.289C12.334,20.143 14.177,20.39 14.07,20.093C13.962,19.797 11.606,18.643 11.668,18.509C11.729,18.374 14.144,19.399 14.438,19.286C14.733,19.173 13.339,17.942 13.436,17.83C13.532,17.719 14.949,18.924 15.019,18.616C15.089,18.308 13.731,16.064 13.855,15.984C13.98,15.904 15.457,18.072 15.766,18.136C16.075,18.2 15.567,16.411 15.709,16.369C15.851,16.328 16.392,18.107 16.617,17.886C16.842,17.665 16.913,15.043 17.061,15.043Z" style="fill:rgb(48,44,50);"/>
                </g>
                <g transform="matrix(1.05355,0,0,1.05355,-1.33708,-2.54063)">
                    <circle cx="17.5" cy="18.5" r="3.5" style="fill:rgb(48,44,50);"/>
                    <path d="M17.5,13C20.536,13 23,15.464 23,18.5C23,21.536 20.536,24 17.5,24C14.464,24 12,21.536 12,18.5C12,15.464 14.464,13 17.5,13ZM17.5,15C15.568,15 14,16.568 14,18.5C14,20.432 15.568,22 17.5,22C19.432,22 21,20.432 21,18.5C21,16.568 19.432,15 17.5,15Z" style="fill:rgb(255,248,150);"/>
                </g>
            </g>
        </g>
    </g>
</svg>
