<?xml version="1.0" encoding="UTF-8" standalone="no"?>
<!DOCTYPE svg PUBLIC "-//W3C//DTD SVG 1.1//EN" "http://www.w3.org/Graphics/SVG/1.1/DTD/svg11.dtd">
<svg width="100%" height="100%" viewBox="0 0 42 42" version="1.1" xmlns="http://www.w3.org/2000/svg" xmlns:xlink="http://www.w3.org/1999/xlink" xml:space="preserve" xmlns:serif="http://www.serif.com/" style="fill-rule:evenodd;clip-rule:evenodd;">
    <g transform="matrix(1,0,0,1,3,3)">
        <g id="MONSTER" transform="matrix(0.949174,0,0,0.949174,1.76912,1.9115)">
            <g>
                <circle id="svg_4" cx="17.1" cy="16.95" r="17" style="fill:rgb(23,148,100);stroke:rgb(17,69,48);stroke-width:2.11px;"/>
                <g transform="matrix(1.05355,0,0,1.05355,-2.11912,-2.25549)">
                    <path d="M21.178,31.116C22.914,31.097 22.024,29.848 21.031,29.012C19.111,27.393 16.647,26.534 14.627,25.041C11.407,22.66 13.95,17.673 15.945,15.417C17.071,14.142 18.845,14.498 20.204,15.162C22.447,16.258 25.013,20.846 22.639,23.01C21.063,24.445 16.837,23.481 16.969,20.979C17.037,19.687 18.277,18.391 19.274,19.26C20.091,19.973 19.206,21.378 19.548,21.364C20.261,21.334 21.213,20.464 21.326,19.383C21.459,18.102 20.88,17.221 19.908,16.815C18.317,16.151 16.349,17.202 15.467,18.962C14.184,21.521 16.612,24.297 18.685,25.401C21.716,27.015 25.769,25.978 27.844,23.314C29.12,21.677 29.79,19.259 29.508,17.15C29.462,16.803 29.144,16.879 29.009,17.027C28.551,17.525 28.285,18.175 27.904,18.735C27.58,19.209 26.208,20.035 25.862,19.113C25.118,17.129 28.228,17.025 28.848,15.458C29.262,14.41 28.738,12.433 28.314,12.36C28.1,12.323 27.844,14.46 26.114,15.989C25.841,16.23 24.924,16.158 25.057,15.819C25.357,15.048 27.457,13.939 26.951,10.261C26.704,8.473 24.944,6.952 24.922,8.339C24.896,9.915 25.161,12.426 22.993,13.219C22.521,13.391 22.278,13.077 21.994,12.908C21.126,12.39 22.855,11.219 22.866,9.997C22.885,8.001 21.184,6.655 19.798,6.342C18.719,6.099 19.545,7.773 20.113,8.749C20.638,9.651 20.485,12.066 18.758,12.17C17.308,12.258 18.318,10.709 17.35,8.895C16.227,6.793 14.31,6.701 12.797,7.219C10.854,7.885 10.496,8.886 10.894,8.939C12.876,9.206 16.348,8.352 16.155,11.614C16.134,11.982 16.038,12.365 15.835,12.672C15,13.932 13.986,11.822 13.602,11.501C12.071,10.22 7.166,12.667 8.877,12.642C10.539,12.618 12.953,12.913 12.879,14.542C12.838,15.442 11.468,14.771 11.17,14.634C9.851,14.032 8.081,15.71 7.403,16.69C6.932,17.372 9.747,16.483 10.512,16.368C11.058,16.286 11.727,16.32 11.553,16.985C11.032,18.98 9.56,18.939 8.07,20.087C7.214,20.747 6.7,22.011 6.998,22.311C7.153,22.466 7.666,21.85 8.299,21.428C8.73,21.141 10.899,19.439 11.282,21.376C11.541,22.686 7.319,22.815 8.261,25.566C8.428,26.054 8.602,25.101 9.442,24.526C10.105,24.072 10.847,23.814 11.422,23.946C11.551,23.975 12.089,24.154 11.879,24.437C11.769,24.586 9.262,27.133 10.043,27.819C10.201,27.958 10.287,27.595 10.566,27.344C11.429,26.567 13.244,26.16 14.083,27.383C15.052,28.795 12.309,29.653 11.736,30.018C11.48,30.181 11.237,30.382 11.058,30.628C10.968,30.752 10.814,31.081 10.968,31.079C13.671,31.043 17.987,31.15 21.178,31.116Z" style="fill:rgb(48,44,50);fill-opacity:0.2;"/>
                </g>
                <g transform="matrix(1.05355,0,0,1.05355,-2.11912,-3.28995)">
                    <path d="M21.178,31.116C22.914,31.097 22.024,29.848 21.031,29.012C19.111,27.393 16.647,26.534 14.627,25.041C11.407,22.66 13.95,17.673 15.945,15.417C17.071,14.142 18.845,14.498 20.204,15.162C22.447,16.258 25.013,20.846 22.639,23.01C21.063,24.445 16.837,23.481 16.969,20.979C17.037,19.687 18.277,18.391 19.274,19.26C20.091,19.973 19.206,21.378 19.548,21.364C20.261,21.334 21.213,20.464 21.326,19.383C21.459,18.102 20.88,17.221 19.908,16.815C18.317,16.151 16.349,17.202 15.467,18.962C14.184,21.521 16.612,24.297 18.685,25.401C21.716,27.015 25.769,25.978 27.844,23.314C29.12,21.677 29.79,19.259 29.508,17.15C29.462,16.803 29.144,16.879 29.009,17.027C28.551,17.525 28.285,18.175 27.904,18.735C27.58,19.209 26.208,20.035 25.862,19.113C25.118,17.129 28.228,17.025 28.848,15.458C29.262,14.41 28.738,12.433 28.314,12.36C28.1,12.323 27.844,14.46 26.114,15.989C25.841,16.23 24.924,16.158 25.057,15.819C25.357,15.048 27.457,13.939 26.951,10.261C26.704,8.473 24.944,6.952 24.922,8.339C24.896,9.915 25.161,12.426 22.993,13.219C22.521,13.391 22.278,13.077 21.994,12.908C21.126,12.39 22.855,11.219 22.866,9.997C22.885,8.001 21.184,6.655 19.798,6.342C18.719,6.099 19.545,7.773 20.113,8.749C20.638,9.651 20.485,12.066 18.758,12.17C17.308,12.258 18.318,10.709 17.35,8.895C16.227,6.793 14.31,6.701 12.797,7.219C10.854,7.885 10.496,8.886 10.894,8.939C12.876,9.206 16.348,8.352 16.155,11.614C16.134,11.982 16.038,12.365 15.835,12.672C15,13.932 13.986,11.822 13.602,11.501C12.071,10.22 7.166,12.667 8.877,12.642C10.539,12.618 12.953,12.913 12.879,14.542C12.838,15.442 11.468,14.771 11.17,14.634C9.851,14.032 8.081,15.71 7.403,16.69C6.932,17.372 9.747,16.483 10.512,16.368C11.058,16.286 11.727,16.32 11.553,16.985C11.032,18.98 9.56,18.939 8.07,20.087C7.214,20.747 6.7,22.011 6.998,22.311C7.153,22.466 7.666,21.85 8.299,21.428C8.73,21.141 10.899,19.439 11.282,21.376C11.541,22.686 7.319,22.815 8.261,25.566C8.428,26.054 8.602,25.101 9.442,24.526C10.105,24.072 10.847,23.814 11.422,23.946C11.551,23.975 12.089,24.154 11.879,24.437C11.769,24.586 9.262,27.133 10.043,27.819C10.201,27.958 10.287,27.595 10.566,27.344C11.429,26.567 13.244,26.16 14.083,27.383C15.052,28.795 12.309,29.653 11.736,30.018C11.48,30.181 11.237,30.382 11.058,30.628C10.968,30.752 10.814,31.081 10.968,31.079C13.671,31.043 17.987,31.15 21.178,31.116Z" style="fill:rgb(48,44,50);"/>
                </g>
            </g>
        </g>
    </g>
</svg>
