<?xml version="1.0" encoding="UTF-8" standalone="no"?>
<!DOCTYPE svg PUBLIC "-//W3C//DTD SVG 1.1//EN" "http://www.w3.org/Graphics/SVG/1.1/DTD/svg11.dtd">
<svg width="100%" height="100%" viewBox="0 0 42 42" version="1.1" xmlns="http://www.w3.org/2000/svg" xmlns:xlink="http://www.w3.org/1999/xlink" xml:space="preserve" xmlns:serif="http://www.serif.com/" style="fill-rule:evenodd;clip-rule:evenodd;">
    <g transform="matrix(1,0,0,1,3,3)">
        <g id="NORMAL" transform="matrix(0.949174,0,0,0.949174,1.76912,1.9115)">
            <g>
                <circle id="svg_4" cx="17.1" cy="16.95" r="17" style="fill:rgb(255,254,254);stroke:rgb(117,117,117);stroke-width:2.11px;"/>
                <g transform="matrix(1.06811,1.12557e-16,-1.12557e-16,1.06811,-4.44721,-4.00101)">
                    <path d="M20.124,8.514C20.13,8.492 20.15,8.478 20.173,8.478C20.196,8.478 20.216,8.492 20.223,8.514L21.57,12.73C21.876,13.685 22.526,14.493 23.395,14.994C24.264,15.496 25.288,15.655 26.268,15.442L30.593,14.501C30.615,14.497 30.638,14.507 30.649,14.526C30.661,14.546 30.658,14.571 30.643,14.587L27.666,17.862C26.991,18.605 26.617,19.572 26.617,20.575C26.617,21.578 26.991,22.545 27.666,23.287L30.643,26.562C30.658,26.579 30.661,26.604 30.649,26.623C30.638,26.643 30.615,26.653 30.593,26.648L26.268,25.707C25.288,25.494 24.264,25.654 23.395,26.155C22.526,26.657 21.876,27.464 21.57,28.42L20.223,32.635C20.216,32.657 20.196,32.672 20.173,32.672C20.15,32.672 20.13,32.657 20.124,32.635L18.776,28.42C18.47,27.464 17.82,26.657 16.951,26.155C16.083,25.654 15.058,25.494 14.078,25.707L9.753,26.648C9.731,26.653 9.708,26.643 9.697,26.623C9.686,26.604 9.688,26.579 9.703,26.562L12.681,23.287C13.355,22.545 13.729,21.578 13.729,20.575C13.729,19.572 13.355,18.605 12.681,17.862L9.703,14.587C9.688,14.571 9.686,14.546 9.697,14.526C9.708,14.507 9.731,14.497 9.753,14.501L14.078,15.442C15.058,15.655 16.083,15.496 16.951,14.994C17.82,14.493 18.47,13.685 18.776,12.73L20.124,8.514Z" style="fill:rgb(48,44,50);fill-opacity:0.2;"/>
                </g>
                <g transform="matrix(1.06811,1.12557e-16,-1.12557e-16,1.06811,-4.44721,-5.01678)">
                    <path d="M20.124,8.514C20.13,8.492 20.15,8.478 20.173,8.478C20.196,8.478 20.216,8.492 20.223,8.514L21.57,12.73C21.876,13.685 22.526,14.493 23.395,14.994C24.264,15.496 25.288,15.655 26.268,15.442L30.593,14.501C30.615,14.497 30.638,14.507 30.649,14.526C30.661,14.546 30.658,14.571 30.643,14.587L27.666,17.862C26.991,18.605 26.617,19.572 26.617,20.575C26.617,21.578 26.991,22.545 27.666,23.287L30.643,26.562C30.658,26.579 30.661,26.604 30.649,26.623C30.638,26.643 30.615,26.653 30.593,26.648L26.268,25.707C25.288,25.494 24.264,25.654 23.395,26.155C22.526,26.657 21.876,27.464 21.57,28.42L20.223,32.635C20.216,32.657 20.196,32.672 20.173,32.672C20.15,32.672 20.13,32.657 20.124,32.635L18.776,28.42C18.47,27.464 17.82,26.657 16.951,26.155C16.083,25.654 15.058,25.494 14.078,25.707L9.753,26.648C9.731,26.653 9.708,26.643 9.697,26.623C9.686,26.604 9.688,26.579 9.703,26.562L12.681,23.287C13.355,22.545 13.729,21.578 13.729,20.575C13.729,19.572 13.355,18.605 12.681,17.862L9.703,14.587C9.688,14.571 9.686,14.546 9.697,14.526C9.708,14.507 9.731,14.497 9.753,14.501L14.078,15.442C15.058,15.655 16.083,15.496 16.951,14.994C17.82,14.493 18.47,13.685 18.776,12.73L20.124,8.514Z" style="fill:rgb(48,44,50);"/>
                </g>
            </g>
        </g>
    </g>
</svg>
