<?xml version="1.0" encoding="UTF-8" standalone="no"?>
<!DOCTYPE svg PUBLIC "-//W3C//DTD SVG 1.1//EN" "http://www.w3.org/Graphics/SVG/1.1/DTD/svg11.dtd">
<svg width="100%" height="100%" viewBox="0 0 42 42" version="1.1" xmlns="http://www.w3.org/2000/svg" xmlns:xlink="http://www.w3.org/1999/xlink" xml:space="preserve" xmlns:serif="http://www.serif.com/" style="fill-rule:evenodd;clip-rule:evenodd;">
    <g transform="matrix(1,0,0,1,3,3)">
        <g id="POISON" transform="matrix(0.949174,0,0,0.949174,1.76912,1.9115)">
            <g>
                <circle id="svg_4" cx="17.1" cy="16.95" r="17" style="fill:rgb(136,215,160);stroke:rgb(90,126,95);stroke-width:2.11px;"/>
                <g transform="matrix(1,0,0,1,0,2.29098)">
                    <g opacity="0.2">
                        <g transform="matrix(0.928256,0,0,0.928256,0.391395,0.71882)">
                            <path d="M17.994,19.413C23.452,16.698 29.207,13.778 29.439,14.206C29.484,14.289 29.479,14.99 29.206,15.724C29.965,17.221 29.389,20.47 28.814,20.499C27.987,20.54 27.994,17.796 27.044,18.094C26.27,18.338 24.943,18.921 23.326,19.684C22.575,20.061 21.794,20.444 20.986,20.836C22.245,21.444 23.437,22.035 24.552,22.608C25.586,23.076 26.431,23.428 26.989,23.603C27.939,23.902 27.932,21.158 28.759,21.199C29.319,21.227 29.879,24.301 29.21,25.846C29.533,26.624 29.541,27.404 29.494,27.492C29.271,27.902 23.96,25.229 18.706,22.612L18.59,22.558C18.483,22.508 18.376,22.457 18.268,22.407L18.006,22.284C12.548,25 6.793,27.919 6.561,27.492C6.516,27.409 6.521,26.708 6.794,25.974C6.035,24.477 6.611,21.228 7.186,21.199C8.013,21.158 8.006,23.902 8.956,23.603C9.73,23.36 11.057,22.777 12.674,22.013C13.425,21.637 14.206,21.253 15.014,20.862C13.755,20.254 12.563,19.663 11.448,19.09C10.414,18.622 9.569,18.27 9.011,18.094C8.061,17.796 8.068,20.54 7.241,20.499C6.681,20.471 6.121,17.397 6.79,15.851C6.467,15.073 6.459,14.294 6.506,14.206C6.729,13.796 12.04,16.469 17.294,19.086L17.41,19.14C17.517,19.19 17.624,19.24 17.732,19.29L17.994,19.413Z" style="fill:rgb(48,44,50);"/>
                        </g>
                        <g transform="matrix(1.05355,0,0,1.05355,-1.92178,-2.92228)">
                            <path d="M14.666,7.058C13.387,7.416 11.694,8.294 11.216,9.422C10.737,10.55 10.57,14.184 11.635,14.988C13.061,16.066 15.319,17.039 16.221,18.008C16.337,18.133 17.361,19.563 18.055,19.574C18.958,19.589 19.627,18.169 19.749,18.008C20.618,16.863 23.001,15.913 24.395,14.988C25.605,14.186 25.396,10.568 24.733,9.377C24.069,8.186 22.531,7.357 20.953,6.965C19.101,6.504 16.329,6.594 14.666,7.058ZM18,8.405C20.292,8.405 22.153,9.86 22.153,11.022C22.153,12.183 20.292,13.931 18,13.931C15.708,13.931 13.847,12.183 13.847,11.022C13.847,9.86 15.708,8.405 18,8.405Z" style="fill:rgb(48,44,50);"/>
                        </g>
                    </g>
                </g>
                <g transform="matrix(1,0,0,1,0,1.23636)">
                    <g transform="matrix(0.928256,0,0,0.928256,0.391395,0.71882)">
                        <path d="M17.994,19.413C23.452,16.698 29.207,13.778 29.439,14.206C29.484,14.289 29.479,14.99 29.206,15.724C29.965,17.221 29.389,20.47 28.814,20.499C27.987,20.54 27.994,17.796 27.044,18.094C26.27,18.338 24.943,18.921 23.326,19.684C22.575,20.061 21.794,20.444 20.986,20.836C22.245,21.444 23.437,22.035 24.552,22.608C25.586,23.076 26.431,23.428 26.989,23.603C27.939,23.902 27.932,21.158 28.759,21.199C29.319,21.227 29.879,24.301 29.21,25.846C29.533,26.624 29.541,27.404 29.494,27.492C29.271,27.902 23.96,25.229 18.706,22.612L18.59,22.558C18.483,22.508 18.376,22.457 18.268,22.407L18.006,22.284C12.548,25 6.793,27.919 6.561,27.492C6.516,27.409 6.521,26.708 6.794,25.974C6.035,24.477 6.611,21.228 7.186,21.199C8.013,21.158 8.006,23.902 8.956,23.603C9.73,23.36 11.057,22.777 12.674,22.013C13.425,21.637 14.206,21.253 15.014,20.862C13.755,20.254 12.563,19.663 11.448,19.09C10.414,18.622 9.569,18.27 9.011,18.094C8.061,17.796 8.068,20.54 7.241,20.499C6.681,20.471 6.121,17.397 6.79,15.851C6.467,15.073 6.459,14.294 6.506,14.206C6.729,13.796 12.04,16.469 17.294,19.086L17.41,19.14C17.517,19.19 17.624,19.24 17.732,19.29L17.994,19.413Z" style="fill:rgb(48,44,50);"/>
                    </g>
                    <g transform="matrix(1.05355,0,0,1.05355,-1.92178,-2.92228)">
                        <path d="M14.666,7.058C13.387,7.416 11.694,8.294 11.216,9.422C10.737,10.55 10.57,14.184 11.635,14.988C13.061,16.066 15.319,17.039 16.221,18.008C16.337,18.133 17.361,19.563 18.055,19.574C18.958,19.589 19.627,18.169 19.749,18.008C20.618,16.863 23.001,15.913 24.395,14.988C25.605,14.186 25.396,10.568 24.733,9.377C24.069,8.186 22.531,7.357 20.953,6.965C19.101,6.504 16.329,6.594 14.666,7.058ZM18,8.405C20.292,8.405 22.153,9.86 22.153,11.022C22.153,12.183 20.292,13.931 18,13.931C15.708,13.931 13.847,12.183 13.847,11.022C13.847,9.86 15.708,8.405 18,8.405Z" style="fill:rgb(48,44,50);"/>
                    </g>
                </g>
            </g>
        </g>
    </g>
</svg>
