<?xml version="1.0" encoding="UTF-8" standalone="no"?>
<!DOCTYPE svg PUBLIC "-//W3C//DTD SVG 1.1//EN" "http://www.w3.org/Graphics/SVG/1.1/DTD/svg11.dtd">
<svg width="100%" height="100%" viewBox="0 0 42 42" version="1.1" xmlns="http://www.w3.org/2000/svg" xmlns:xlink="http://www.w3.org/1999/xlink" xml:space="preserve" xmlns:serif="http://www.serif.com/" style="fill-rule:evenodd;clip-rule:evenodd;">
    <g transform="matrix(1,0,0,1,3,3)">
        <g id="PSYCHIC" transform="matrix(0.949174,0,0,0.949174,1.76912,1.9115)">
            <g>
                <circle id="svg_4" cx="17.1" cy="16.95" r="17" style="fill:rgb(185,85,210);stroke:rgb(124,48,129);stroke-width:2.11px;"/>
                <g transform="matrix(1,0,0,1,0,1.00944)">
                    <g opacity="0.2">
                        <g transform="matrix(0.892606,0,0,0.794182,2.45537,2.65472)">
                            <ellipse cx="16.407" cy="18" rx="15.437" ry="10.026" style="fill:none;stroke:rgb(48,44,50);stroke-width:3.74px;stroke-linecap:round;stroke-linejoin:round;stroke-miterlimit:1.5;"/>
                        </g>
                        <g transform="matrix(0.393077,0,0,0.382425,10.6509,10.0664)">
                            <ellipse cx="16.407" cy="18" rx="15.437" ry="10.026" style="fill:none;stroke:rgb(48,44,50);stroke-width:8.15px;stroke-linecap:round;stroke-linejoin:round;stroke-miterlimit:1.5;"/>
                        </g>
                        <g transform="matrix(0.208628,0,0,0.202974,10.8298,12.081)">
                            <ellipse cx="16.407" cy="18" rx="15.437" ry="10.026" style="fill:rgb(48,44,50);"/>
                        </g>
                    </g>
                </g>
                <g>
                    <g transform="matrix(0.892606,0,0,0.794182,2.45537,2.65472)">
                        <ellipse cx="16.407" cy="18" rx="15.437" ry="10.026" style="fill:none;stroke:rgb(48,44,50);stroke-width:3.74px;stroke-linecap:round;stroke-linejoin:round;stroke-miterlimit:1.5;"/>
                    </g>
                    <g transform="matrix(0.393077,0,0,0.382425,10.6509,10.0664)">
                        <ellipse cx="16.407" cy="18" rx="15.437" ry="10.026" style="fill:none;stroke:rgb(48,44,50);stroke-width:8.15px;stroke-linecap:round;stroke-linejoin:round;stroke-miterlimit:1.5;"/>
                    </g>
                    <g transform="matrix(0.208628,0,0,0.202974,10.8298,12.081)">
                        <ellipse cx="16.407" cy="18" rx="15.437" ry="10.026" style="fill:rgb(48,44,50);"/>
                    </g>
                </g>
            </g>
        </g>
    </g>
</svg>
