<?xml version="1.0" encoding="UTF-8" standalone="no"?>
<!DOCTYPE svg PUBLIC "-//W3C//DTD SVG 1.1//EN" "http://www.w3.org/Graphics/SVG/1.1/DTD/svg11.dtd">
<svg width="100%" height="100%" viewBox="0 0 42 42" version="1.1" xmlns="http://www.w3.org/2000/svg" xmlns:xlink="http://www.w3.org/1999/xlink" xml:space="preserve" xmlns:serif="http://www.serif.com/" style="fill-rule:evenodd;clip-rule:evenodd;">
    <g transform="matrix(1,0,0,1,3,3)">
        <g id="SOUND" transform="matrix(0.949174,0,0,0.949174,1.76912,1.9115)">
            <g>
                <circle id="svg_4" cx="17.1" cy="16.95" r="17" style="fill:rgb(255,96,149);stroke:rgb(92,37,55);stroke-width:2.11px;"/>
                <g transform="matrix(0.950948,0,0,0.950948,1.12444,2.62911)">
                    <g opacity="0.2">
                        <g transform="matrix(0.832548,0,0,0.697015,0.4626,6.06149)">
                            <path d="M11.053,20.014L11.053,0.525L12.751,0.525L12.751,22.447C12.751,24.012 11.185,25.283 9.256,25.283C7.328,25.283 5.762,24.012 5.762,22.447C5.762,20.881 7.328,19.61 9.256,19.61C9.913,19.61 10.528,19.758 11.053,20.014Z" style="fill:rgb(48,44,50);stroke:rgb(48,44,50);stroke-width:2.89px;stroke-linecap:round;stroke-linejoin:round;stroke-miterlimit:1.5;"/>
                        </g>
                        <g transform="matrix(0.832548,0,0,0.697015,15.9322,9.32646)">
                            <path d="M11.053,20.014L11.053,0.525L12.751,0.525L12.751,22.447C12.751,24.012 11.185,25.283 9.256,25.283C7.328,25.283 5.762,24.012 5.762,22.447C5.762,20.881 7.328,19.61 9.256,19.61C9.913,19.61 10.528,19.758 11.053,20.014Z" style="fill:rgb(48,44,50);stroke:rgb(48,44,50);stroke-width:2.89px;stroke-linecap:round;stroke-linejoin:round;stroke-miterlimit:1.5;"/>
                        </g>
                        <g transform="matrix(1.05355,0,0,1.16584,-1.6229,-4.58005)">
                            <path d="M11.227,9.441L26.235,12.242" style="fill:none;stroke:rgb(48,44,50);stroke-width:2.99px;stroke-linecap:round;stroke-linejoin:round;stroke-miterlimit:1.5;"/>
                        </g>
                        <g transform="matrix(1.05355,0,0,1.16584,-1.6229,2.14268)">
                            <path d="M11.227,9.441L26.235,12.242" style="fill:none;stroke:rgb(48,44,50);stroke-width:2.99px;stroke-linecap:round;stroke-linejoin:round;stroke-miterlimit:1.5;"/>
                        </g>
                    </g>
                </g>
                <g transform="matrix(0.950948,0,0,0.950948,1.12444,1.63923)">
                    <g transform="matrix(0.832548,0,0,0.697015,0.4626,6.06149)">
                        <path d="M11.053,20.014L11.053,0.525L12.751,0.525L12.751,22.447C12.751,24.012 11.185,25.283 9.256,25.283C7.328,25.283 5.762,24.012 5.762,22.447C5.762,20.881 7.328,19.61 9.256,19.61C9.913,19.61 10.528,19.758 11.053,20.014Z" style="fill:rgb(48,44,50);stroke:rgb(48,44,50);stroke-width:2.89px;stroke-linecap:round;stroke-linejoin:round;stroke-miterlimit:1.5;"/>
                    </g>
                    <g transform="matrix(0.832548,0,0,0.697015,15.9322,9.32646)">
                        <path d="M11.053,20.014L11.053,0.525L12.751,0.525L12.751,22.447C12.751,24.012 11.185,25.283 9.256,25.283C7.328,25.283 5.762,24.012 5.762,22.447C5.762,20.881 7.328,19.61 9.256,19.61C9.913,19.61 10.528,19.758 11.053,20.014Z" style="fill:rgb(48,44,50);stroke:rgb(48,44,50);stroke-width:2.89px;stroke-linecap:round;stroke-linejoin:round;stroke-miterlimit:1.5;"/>
                    </g>
                    <g transform="matrix(1.05355,0,0,1.16584,-1.6229,-4.58005)">
                        <path d="M11.227,9.441L26.235,12.242" style="fill:none;stroke:rgb(48,44,50);stroke-width:2.99px;stroke-linecap:round;stroke-linejoin:round;stroke-miterlimit:1.5;"/>
                    </g>
                    <g transform="matrix(1.05355,0,0,1.16584,-1.6229,2.14268)">
                        <path d="M11.227,9.441L26.235,12.242" style="fill:none;stroke:rgb(48,44,50);stroke-width:2.99px;stroke-linecap:round;stroke-linejoin:round;stroke-miterlimit:1.5;"/>
                    </g>
                </g>
            </g>
        </g>
    </g>
</svg>
