<?xml version="1.0" encoding="UTF-8" standalone="no"?>
<!DOCTYPE svg PUBLIC "-//W3C//DTD SVG 1.1//EN" "http://www.w3.org/Graphics/SVG/1.1/DTD/svg11.dtd">
<svg width="100%" height="100%" viewBox="0 0 42 42" version="1.1" xmlns="http://www.w3.org/2000/svg" xmlns:xlink="http://www.w3.org/1999/xlink" xml:space="preserve" xmlns:serif="http://www.serif.com/" style="fill-rule:evenodd;clip-rule:evenodd;">
    <g transform="matrix(1,0,0,1,3,3)">
        <g id="WATER" transform="matrix(0.949174,0,0,0.949174,1.76912,1.9115)">
            <g>
                <circle id="svg_4" cx="17.1" cy="16.95" r="17" style="fill:rgb(45,162,253);stroke:rgb(0,72,201);stroke-width:2.11px;"/>
                <g transform="matrix(0.924603,0,0,0.924603,1.28529,1.12576)">
                    <g transform="matrix(1.13946,0,0,1.13946,-3.4421,-1.16515)">
                        <path d="M22.952,6.638C23.218,6.011 24.025,4.285 23.485,3.868C22.945,3.451 21.195,4.449 20.655,4.865C15.068,9.172 9.648,13.985 9.648,20.94C9.648,25.55 13.391,29.292 18,29.292C22.609,29.292 26.352,25.55 26.352,20.94C26.352,17.992 25.221,16.036 24.046,14.225C22.736,12.204 21.352,10.413 22.952,6.638ZM13.195,17.08C12.162,20.72 13.001,25.209 16.213,26.094C16.876,26.277 18.4,25.749 18.655,24.745C18.91,23.742 17.8,22.64 17.137,22.457C15.498,22.006 15.032,19.75 15.559,17.893C15.841,16.898 15.749,15.032 15.097,14.808C14.444,14.583 13.478,16.085 13.195,17.08Z" style="fill:rgb(48,44,50);fill-opacity:0.2;"/>
                    </g>
                    <g transform="matrix(1.13946,0,0,1.13946,-3.4421,-2.3583)">
                        <path d="M22.952,6.638C23.218,6.011 23.947,4.363 23.407,3.946C22.867,3.53 21.195,4.449 20.655,4.865C15.068,9.172 9.648,13.985 9.648,20.94C9.648,25.55 13.391,29.292 18,29.292C22.609,29.292 26.352,25.55 26.352,20.94C26.352,17.992 25.221,16.036 24.046,14.225C22.736,12.204 21.352,10.413 22.952,6.638ZM13.195,17.08C12.162,20.72 13.001,25.209 16.213,26.094C16.876,26.277 18.4,25.749 18.655,24.745C18.91,23.742 17.8,22.64 17.137,22.457C15.498,22.006 15.032,19.75 15.559,17.893C15.841,16.898 15.749,15.032 15.097,14.808C14.444,14.583 13.478,16.085 13.195,17.08Z" style="fill:rgb(48,44,50);"/>
                    </g>
                </g>
            </g>
        </g>
    </g>
</svg>
