<svg width="100%" height="100%" viewBox="0 0 42 42" version="1.1" style="fill-rule:evenodd;clip-rule:evenodd;" xmlns="http://www.w3.org/2000/svg">
  <defs></defs>
  <g transform="matrix(1,0,0,1,3,3)">
    <g id="WILD" transform="matrix(0.949174,0,0,0.949174,1.76912,1.9115)">
      <g>
        <circle id="svg_4" cx="17.1" cy="16.95" r="17" style="stroke-width: 2.11px; paint-order: fill; fill: #B22334; stroke: #4E0000;"></circle>
      </g>
    </g>
  </g>
  <path fill="#302C32" d="M 22.502 8.061 C 21.7 8.055 20.889 8.137 20.083 8.317 C 17.919 8.798 17.111 10.265 17.204 11.668 C 17.674 11.695 18.162 11.763 18.661 11.869 C 20.122 12.18 21.683 12.83 23.149 13.805 C 28.203 12.53 31.325 16.375 32.458 21.474 C 34.963 14.028 29.032 8.108 22.501 8.061 L 22.502 8.061 Z M 16.83 12.603 C 15.984 12.597 15.256 12.751 14.728 13.043 L 14.726 13.04 C 14.013 13.425 13.526 14.019 13.257 14.687 C 13.994 14.931 14.707 15.384 15.371 15.97 C 16.264 16.759 17.077 17.8 17.743 18.977 C 23.636 19.097 25.882 24.188 25.336 29.826 C 29.343 24.44 27.462 18.247 23.126 14.938 C 21.615 13.832 19.96 13.109 18.465 12.79 C 17.889 12.667 17.338 12.607 16.83 12.603 Z M 12.147 15.435 C 9.415 15.367 7.844 19.508 10.77 20.891 C 16.033 23.379 15.553 27.995 12.525 32.114 C 18.328 29.702 19.296 23.434 16.658 19.008 L 16.666 19.007 C 16.097 18.09 15.437 17.285 14.748 16.676 C 14.011 16.025 13.249 15.609 12.542 15.475 C 12.408 15.452 12.276 15.439 12.146 15.435 L 12.147 15.435 Z" style=""></path>
  <path fill="#302C32" d="M 22.387 9.539 C 21.585 9.533 20.774 9.615 19.968 9.795 C 17.804 10.276 16.996 11.743 17.089 13.146 C 17.559 13.173 18.047 13.241 18.546 13.347 C 20.007 13.658 21.568 14.308 23.034 15.283 C 28.088 14.008 31.21 17.853 32.343 22.952 C 34.848 15.506 28.917 9.586 22.386 9.539 L 22.387 9.539 Z M 16.715 14.081 C 15.869 14.075 15.141 14.229 14.613 14.521 L 14.611 14.518 C 13.898 14.903 13.411 15.497 13.142 16.165 C 13.879 16.409 14.592 16.862 15.256 17.448 C 16.149 18.237 16.962 19.278 17.628 20.455 C 23.521 20.575 25.767 25.666 25.221 31.304 C 29.228 25.918 27.347 19.725 23.011 16.416 C 21.5 15.31 19.845 14.587 18.35 14.268 C 17.774 14.145 17.223 14.085 16.715 14.081 Z M 12.032 16.913 C 9.3 16.845 7.729 20.986 10.655 22.369 C 15.918 24.857 15.438 29.473 12.41 33.592 C 18.213 31.18 19.181 24.912 16.543 20.486 L 16.551 20.485 C 15.982 19.568 15.322 18.763 14.633 18.154 C 13.896 17.503 13.134 17.087 12.427 16.953 C 12.293 16.93 12.161 16.917 12.031 16.913 L 12.032 16.913 Z" style="opacity: 0.23;"></path>
</svg>