<?xml version="1.0" encoding="UTF-8" standalone="no"?>
<!DOCTYPE svg PUBLIC "-//W3C//DTD SVG 1.1//EN" "http://www.w3.org/Graphics/SVG/1.1/DTD/svg11.dtd">
<svg width="100%" height="100%" viewBox="0 0 370 370" version="1.1" xmlns="http://www.w3.org/2000/svg" xmlns:xlink="http://www.w3.org/1999/xlink" xml:space="preserve" xmlns:serif="http://www.serif.com/" style="fill-rule:evenodd;clip-rule:evenodd;stroke-linecap:round;stroke-linejoin:round;stroke-miterlimit:1.5;">
    <g transform="matrix(1,0,0,1,-1110,-1100)">
        <g id="Artboard1" transform="matrix(1,0,0,1,1110,1100)">
            <rect x="0" y="0" width="370" height="370" style="fill:none;"/>
            <g id="Loveball" transform="matrix(1,0,0,1,-65,-50.457)">
                <g transform="matrix(2.64055,0,0,1.76388,-33.0138,42.8944)">
                    <path d="M107.76,65.74C115.171,65.74 170.03,87.561 173.736,93.98C177.441,100.398 168.181,175.537 164.475,181.955C160.769,188.374 115.27,206.286 107.859,206.286C100.448,206.286 55.689,188.374 51.983,181.955C48.277,175.537 36.786,100.398 40.491,93.98C44.197,87.561 100.349,65.74 107.76,65.74Z" style="fill:rgb(28,31,45);stroke:rgb(28,31,45);stroke-width:5.56px;"/>
                </g>
                <g transform="matrix(2.48802,0,0,2.32444,-17.6664,-88.9852)">
                    <path d="M107.582,65.883C114.993,65.883 167.253,92.908 170.958,99.326C174.664,105.744 168.181,175.537 164.475,181.955C160.769,188.374 114.993,206.43 107.582,206.43C100.171,206.43 55.689,188.374 51.983,181.955C48.277,175.537 40.357,105.744 44.063,99.326C47.768,92.908 100.171,65.883 107.582,65.883Z" style="fill:rgb(255,95,182);stroke:black;stroke-width:5.18px;"/>
                </g>
                <g transform="matrix(2.1821,0,0,2.01824,15.2453,-47.1554)">
                    <path d="M107.582,65.815C114.993,65.815 167.253,92.908 170.958,99.326C174.664,105.744 168.181,175.537 164.475,181.955C160.769,188.374 114.993,206.361 107.582,206.361C100.171,206.361 55.689,188.374 51.983,181.955C48.277,175.537 40.357,105.744 44.063,99.326C47.768,92.908 100.171,65.815 107.582,65.815Z" style="fill:rgb(255,95,182);stroke:white;stroke-width:5.94px;"/>
                </g>
                <g transform="matrix(1.90708,0,0,1.76388,44.832,-12.4074)">
                    <path d="M107.582,65.74C114.993,65.74 167.253,92.908 170.958,99.326C174.664,105.744 168.181,175.537 164.475,181.955C160.769,188.374 114.993,206.286 107.582,206.286C100.171,206.286 55.689,188.374 51.983,181.955C48.277,175.537 40.357,105.744 44.063,99.326C47.768,92.908 100.171,65.74 107.582,65.74Z" style="fill:rgb(96,80,95);"/>
                    <clipPath id="_clip1">
                        <path d="M107.582,65.74C114.993,65.74 167.253,92.908 170.958,99.326C174.664,105.744 168.181,175.537 164.475,181.955C160.769,188.374 114.993,206.286 107.582,206.286C100.171,206.286 55.689,188.374 51.983,181.955C48.277,175.537 40.357,105.744 44.063,99.326C47.768,92.908 100.171,65.74 107.582,65.74Z"/>
                    </clipPath>
                    <g clip-path="url(#_clip1)">
                        <g transform="matrix(0.549433,0,0,0.594042,-3.40351,26.1439)">
                            <rect x="202" y="38.686" width="162.768" height="324.407" style="fill:rgb(73,58,73);"/>
                        </g>
                    </g>
                </g>
                <g transform="matrix(1.63385,0,0,1.40629,74.2273,36.4415)">
                    <path d="M107.582,65.588C114.993,65.588 165.329,92.908 169.034,99.326C172.74,105.744 166.257,175.537 162.551,181.955C158.845,188.374 114.993,206.135 107.582,206.135C100.171,206.135 56.33,188.374 52.624,181.955C48.919,175.537 40.998,105.744 44.704,99.326C48.41,92.908 100.171,65.588 107.582,65.588Z" style="fill:rgb(70,58,73);stroke:rgb(245,186,28);stroke-width:8.19px;"/>
                </g>
                <g transform="matrix(0.806356,0,0,0.806356,97.0039,71.9786)">
                    <path d="M143.032,119.02C126.012,86.254 126.694,55.423 151.435,29.912C173.732,6.922 221.119,-5.854 276.116,23.476C323.596,48.798 340.46,37.155 345.397,31.055C351.53,39.356 359.411,92.891 323.771,102.099C283.488,112.507 290.748,154.7 303.486,155.736C311.958,156.425 320.789,151.611 324.224,146.275C326.5,159.028 339.381,211.405 254.137,240.845C156.258,250.927 192.234,182.765 192.234,182.765L154.325,139.487C154.325,139.487 160.053,151.787 143.032,119.02Z" style="fill:rgb(245,137,28);"/>
                    <g>
                        <clipPath id="_clip2">
                            <path d="M143.032,119.02C126.012,86.254 126.694,55.423 151.435,29.912C173.732,6.922 221.119,-5.854 276.116,23.476C323.596,48.798 340.46,37.155 345.397,31.055C351.53,39.356 359.411,92.891 323.771,102.099C283.488,112.507 290.748,154.7 303.486,155.736C311.958,156.425 320.789,151.611 324.224,146.275C326.5,159.028 339.381,211.405 254.137,240.845C156.258,250.927 192.234,182.765 192.234,182.765L154.325,139.487C154.325,139.487 160.053,151.787 143.032,119.02Z"/>
                        </clipPath>
                        <g clip-path="url(#_clip2)">
                            <path d="M143.032,141.696C143.032,141.696 165.209,117.228 167.498,114.819C169.787,112.41 171.636,67.545 187.537,48.987C192.844,42.792 208.192,35.531 231.249,35.531C268.935,35.531 282.867,59.62 315.734,55.147C348.601,50.673 343.095,27.616 343.095,17.636C343.095,7.656 276.597,-16.07 276.597,-16.07C276.597,-16.07 161.494,-34.554 146.791,-28.673C132.088,-22.792 96.801,-9.769 94.7,-5.568C92.6,-1.367 91.34,42.322 90.5,57.865C89.659,73.408 103.113,110.795 102.688,116.677C102.262,122.558 143.032,141.696 143.032,141.696Z" style="fill:rgb(245,186,28);"/>
                        </g>
                    </g>
                    <path d="M143.032,119.02C126.012,86.254 126.694,55.423 151.435,29.912C173.732,6.922 221.119,-5.854 276.116,23.476C323.596,48.798 340.46,37.155 345.397,31.055C351.53,39.356 359.411,92.891 323.771,102.099C283.488,112.507 290.748,154.7 303.486,155.736C311.958,156.425 320.789,151.611 324.224,146.275C326.5,159.028 339.381,211.405 254.137,240.845C156.258,250.927 192.234,182.765 192.234,182.765L154.325,139.487C154.325,139.487 160.053,151.787 143.032,119.02Z" style="fill:none;stroke:black;stroke-width:15.54px;"/>
                </g>
                <g transform="matrix(1.12538,0,0,1.12538,21.1638,16.8525)">
                    <circle cx="203.341" cy="220.316" r="74.554" style="fill:rgb(255,95,182);"/>
                    <clipPath id="_clip3">
                        <circle cx="203.341" cy="220.316" r="74.554"/>
                    </clipPath>
                    <g clip-path="url(#_clip3)">
                        <g transform="matrix(0.411758,0.498904,-0.577434,0.476571,907.641,-516.69)">
                            <path d="M197.783,1283.09C206.385,1269.33 223.59,1269.33 232.192,1276.21C240.794,1283.09 240.794,1296.84 232.192,1310.6C226.17,1320.91 210.686,1331.23 197.783,1338.11C184.88,1331.23 169.396,1320.91 163.375,1310.6C154.772,1296.84 154.772,1283.09 163.375,1276.21C171.977,1269.33 189.181,1269.33 197.783,1283.09Z" style="fill:rgb(255,205,232);stroke:white;stroke-width:4.47px;"/>
                        </g>
                        <g transform="matrix(0.457411,-0.457411,0.52941,0.52941,-610.114,-396.161)">
                            <path d="M197.783,1283.09C206.385,1269.33 223.59,1269.33 232.192,1276.21C240.794,1283.09 240.794,1296.84 232.192,1310.6C226.17,1320.91 210.686,1331.23 197.783,1338.11C184.88,1331.23 169.396,1320.91 163.375,1310.6C154.772,1296.84 154.772,1283.09 163.375,1276.21C171.977,1269.33 189.181,1269.33 197.783,1283.09Z" style="fill:rgb(255,205,232);stroke:white;stroke-width:4.47px;"/>
                        </g>
                        <g transform="matrix(0.894889,0,0,0.65896,22.5732,101.958)">
                            <circle cx="202" cy="223.8" r="77.077" style="fill:white;"/>
                        </g>
                        <g transform="matrix(0.774793,0,1.02768e-16,0.748062,50.0998,-723.595)">
                            <path d="M197.783,1283.09C206.385,1269.33 223.59,1269.33 232.192,1276.21C240.794,1283.09 240.794,1296.84 232.192,1310.6C226.17,1320.91 210.686,1331.23 197.783,1338.11C184.88,1331.23 169.396,1320.91 163.375,1310.6C154.772,1296.84 154.772,1283.09 163.375,1276.21C171.977,1269.33 189.181,1269.33 197.783,1283.09Z" style="fill:rgb(255,205,232);"/>
                        </g>
                        <g transform="matrix(0.888587,0,0,0.888587,-18.8059,-14.9749)">
                            <path d="M216.337,254.594C209.983,257.1 204.218,260.304 199.235,264.08C200.672,287.827 222.868,306.716 250,306.716C277.132,306.716 299.328,287.827 300.765,264.08C295.782,260.304 290.017,257.1 283.663,254.594L283.663,254.624C283.663,273.365 268.579,288.58 250,288.58C231.421,288.58 216.337,273.365 216.337,254.624L216.337,254.594Z" style="fill:rgb(247,217,234);"/>
                        </g>
                        <g transform="matrix(0.888587,0,0,0.888587,-18.8059,-14.9749)">
                            <path d="M199.161,245.197L199.161,159.784L300.839,159.784L300.839,245.197C295.555,242.205 289.799,239.66 283.663,237.646L283.663,177.921L216.337,177.921L216.337,237.646C210.201,239.66 204.445,242.205 199.161,245.197Z" style="fill:rgb(247,217,234);"/>
                        </g>
                        <g transform="matrix(0.894889,0,0,0.65896,22.5732,101.958)">
                            <path d="M168.574,143.008L168.574,165.861C178.519,160.532 189.914,157.538 202,157.538C214.086,157.538 225.481,160.532 235.426,165.861L235.426,143.008C225.201,138.451 213.913,135.909 202,135.909C190.087,135.909 178.799,138.451 168.574,143.008Z"/>
                        </g>
                        <g transform="matrix(0.894889,0,0,0.65896,22.5732,101.958)">
                            <path d="M252.481,153.191L252.481,175.35C252.481,176.458 252.456,177.56 252.408,178.654C247.46,173.562 241.735,169.242 235.426,165.861L235.426,143.008C241.519,145.724 247.234,149.155 252.481,153.191Z"/>
                        </g>
                        <g transform="matrix(0.894889,0,0,0.65896,22.5732,101.958)">
                            <path d="M252.481,153.191C273.536,169.386 287.04,195.317 287.04,223.8C287.04,271.294 249.494,311.692 202,311.692C154.506,311.692 116.96,271.294 116.96,223.8C116.96,195.317 130.464,169.386 151.519,153.191L151.519,175.35C151.519,176.458 151.544,177.56 151.592,178.654C149.383,180.928 147.328,183.356 145.446,185.923C137.643,196.565 132.887,209.605 132.887,223.8C132.887,237.996 137.643,251.035 145.446,261.678C158.186,279.053 178.823,290.062 202,290.062C225.177,290.062 245.814,279.053 258.554,261.678C266.357,251.035 271.113,237.996 271.113,223.8C271.113,209.605 266.357,196.565 258.554,185.923C256.672,183.356 254.617,180.928 252.408,178.654C252.456,177.56 252.481,176.458 252.481,175.35L252.481,153.191Z"/>
                        </g>
                        <g transform="matrix(0.894889,0,0,0.65896,22.5732,101.958)">
                            <path d="M151.592,178.654C151.544,177.56 151.519,176.458 151.519,175.35L151.519,153.191C156.766,149.155 162.481,145.724 168.574,143.008L168.574,165.861C162.265,169.242 156.54,173.562 151.592,178.654Z"/>
                        </g>
                        <g transform="matrix(0.947267,0,0,0.947267,11.4289,27.1795)">
                            <circle cx="202.595" cy="183.368" r="18.084" style="fill:white;stroke:black;stroke-width:11.76px;"/>
                        </g>
                    </g>
                    <circle cx="203.341" cy="220.316" r="74.554" style="fill:none;stroke:black;stroke-width:11.09px;"/>
                </g>
                <g transform="matrix(0.806356,0,0,0.806356,97.0039,71.9786)">
                    <path d="M143.032,119.02C126.012,86.254 126.694,55.423 151.435,29.912C173.732,6.922 221.119,-5.854 276.116,23.476C323.596,48.798 340.46,37.155 345.397,31.055" style="fill:rgb(245,137,28);"/>
                    <g>
                        <clipPath id="_clip4">
                            <path d="M143.032,119.02C126.012,86.254 126.694,55.423 151.435,29.912C173.732,6.922 221.119,-5.854 276.116,23.476C323.596,48.798 340.46,37.155 345.397,31.055"/>
                        </clipPath>
                        <g clip-path="url(#_clip4)">
                            <path d="M143.032,141.696C143.032,141.696 165.209,117.228 167.498,114.819C169.787,112.41 171.636,67.545 187.537,48.987C192.844,42.792 208.192,35.531 231.249,35.531C268.935,35.531 282.867,59.62 315.734,55.147C348.601,50.673 343.095,27.616 343.095,17.636C343.095,7.656 276.597,-16.07 276.597,-16.07C276.597,-16.07 161.494,-34.554 146.791,-28.673C132.088,-22.792 96.801,-9.769 94.7,-5.568C92.6,-1.367 91.34,42.322 90.5,57.865C89.659,73.408 103.113,110.795 102.688,116.677C102.262,122.558 143.032,141.696 143.032,141.696Z" style="fill:rgb(245,186,28);"/>
                        </g>
                    </g>
                    <path d="M143.032,119.02C126.012,86.254 126.694,55.423 151.435,29.912C173.732,6.922 221.119,-5.854 276.116,23.476C323.596,48.798 340.46,37.155 345.397,31.055" style="fill:none;stroke:black;stroke-width:15.54px;"/>
                    <g transform="matrix(1.02627,0,0,1.02627,-4.91157,-3.35873)">
                        <path d="M286.494,194.279C286.718,203.889 286.232,211.512 286.494,203.246C287.695,165.438 214.024,134.095 213.319,135.999C207.034,152.976 206.015,161.855 192.154,168.198C178.293,174.541 160.674,165.614 141.88,167.493C123.085,169.373 102.986,182.866 91.475,166.656C79.963,150.446 102.626,131.135 111.083,123.617C119.541,116.1 169.395,74.722 185.135,64.62C200.875,54.518 244.816,53.315 257.032,53.785C242.467,65.766 227.02,86.44 228.195,92.548C252.862,111.342 285.154,136.665 286.494,194.279Z" style="fill:rgb(255,242,196);"/>
                    </g>
                    <g transform="matrix(1,0,0,1,-3.72353,-2.06926)">
                        <path d="M215.73,138.103C215.73,138.103 293.572,158.294 297.426,241.541" style="fill:none;stroke:black;stroke-width:15.54px;"/>
                    </g>
                    <g transform="matrix(1.46274,0,0,1.46274,-74.9376,-61.6344)">
                        <path d="M149.916,123.249C147.053,120.687 161.405,109.041 163.458,107.809C165.511,106.577 167.862,117.671 163.62,121.639C159.377,125.608 154.057,126.955 149.916,123.249Z" style="fill:rgb(34,34,34);"/>
                        <g>
                            <clipPath id="_clip5">
                                <path d="M149.916,123.249C147.053,120.687 161.405,109.041 163.458,107.809C165.511,106.577 167.862,117.671 163.62,121.639C159.377,125.608 154.057,126.955 149.916,123.249Z"/>
                            </clipPath>
                            <g clip-path="url(#_clip5)">
                                <g transform="matrix(0.775066,0,0,0.860752,33.7392,14.9878)">
                                    <path d="M149.916,123.249C147.053,120.687 161.405,109.041 163.458,107.809C165.511,106.577 167.862,117.671 163.62,121.639C159.377,125.608 154.057,126.955 149.916,123.249Z"/>
                                </g>
                            </g>
                        </g>
                    </g>
                    <g transform="matrix(0.495622,0,0,0.557891,72.3718,42.8113)">
                        <path d="M149.916,123.249C147.053,120.687 161.405,109.041 163.458,107.809C165.511,106.577 167.862,117.671 163.62,121.639C159.377,125.608 154.057,126.955 149.916,123.249Z" style="fill:white;"/>
                    </g>
                    <g transform="matrix(1.02627,0,0,1.02627,-8.6351,-5.42799)">
                        <path d="M214.237,132.019C213.533,150.109 206.015,161.855 192.154,168.198C178.293,174.541 160.674,165.614 141.88,167.493C123.085,169.373 102.986,182.866 91.475,166.656C79.963,150.446 102.626,131.135 111.083,123.617C119.541,116.1 169.395,74.722 185.135,64.62C200.875,54.518 244.816,53.315 257.032,53.785C242.467,65.766 227.02,86.44 228.195,92.548C252.862,111.342 295.946,154.155 294.565,238.631" style="fill:none;stroke:black;stroke-width:15.15px;"/>
                    </g>
                    <g transform="matrix(-1.67131,0.122499,-0.118153,-1.61202,294.257,376.865)">
                        <path d="M100.798,151.455C101.852,150.1 102.594,148.03 104.652,146.876C106.71,145.721 106.854,147.231 105.868,148.588C104.881,149.945 99.744,152.811 100.798,151.455Z" style="fill:rgb(34,34,34);"/>
                    </g>
                </g>
            </g>
            <g>
                <g transform="matrix(0.995172,0,0,0.995172,-682.103,-546.219)">
                    <path d="M822.164,827.404L822.164,818.212L850.768,818.212L850.768,827.404L845.684,830.023L845.684,875.574L850.665,878.193L850.665,887.334L822.061,887.334L822.061,878.193L827.094,875.574L827.094,830.023L822.164,827.404ZM920.557,818.212L920.557,827.301L916.141,830.023L894.059,887.334L879.885,887.334L857.7,830.331L853.284,827.609L853.284,818.212L882.71,818.212L882.71,827.609L878.396,830.228L889.642,865.149L900.683,830.023L896.472,827.301L896.472,818.212L920.557,818.212Z" style="fill:rgb(255,95,182);"/>
                    <clipPath id="_clip6">
                        <path d="M822.164,827.404L822.164,818.212L850.768,818.212L850.768,827.404L845.684,830.023L845.684,875.574L850.665,878.193L850.665,887.334L822.061,887.334L822.061,878.193L827.094,875.574L827.094,830.023L822.164,827.404ZM920.557,818.212L920.557,827.301L916.141,830.023L894.059,887.334L879.885,887.334L857.7,830.331L853.284,827.609L853.284,818.212L882.71,818.212L882.71,827.609L878.396,830.228L889.642,865.149L900.683,830.023L896.472,827.301L896.472,818.212L920.557,818.212Z"/>
                    </clipPath>
                    <g clip-path="url(#_clip6)">
                        <g transform="matrix(0.443314,0,5.88011e-17,0.506113,801.743,226.908)">
                            <path d="M197.783,1283.09C206.385,1269.33 223.59,1269.33 232.192,1276.21C240.794,1283.09 240.794,1296.84 232.192,1310.6C226.17,1320.91 210.686,1331.23 197.783,1338.11C184.88,1331.23 169.396,1320.91 163.375,1310.6C154.772,1296.84 154.772,1283.09 163.375,1276.21C171.977,1269.33 189.181,1269.33 197.783,1283.09Z" style="fill:rgb(255,205,232);"/>
                        </g>
                        <g transform="matrix(-0.437737,5.36073e-17,-1.15763e-16,-0.471169,955.591,1431.43)">
                            <path d="M197.783,1283.09C206.385,1269.33 223.59,1269.33 232.192,1276.21C240.794,1283.09 240.794,1296.84 232.192,1310.6C226.17,1320.91 210.686,1331.23 197.783,1338.11C184.88,1331.23 169.396,1320.91 163.375,1310.6C154.772,1296.84 154.772,1283.09 163.375,1276.21C171.977,1269.33 189.181,1269.33 197.783,1283.09Z" style="fill:rgb(255,205,232);"/>
                        </g>
                        <g transform="matrix(-0.423269,-0.111609,0.120133,-0.455596,836.134,1441.14)">
                            <path d="M197.783,1283.09C206.385,1269.33 223.59,1269.33 232.192,1276.21C240.794,1283.09 240.794,1296.84 232.192,1310.6C226.17,1320.91 210.686,1331.23 197.783,1338.11C184.88,1331.23 169.396,1320.91 163.375,1310.6C154.772,1296.84 154.772,1283.09 163.375,1276.21C171.977,1269.33 189.181,1269.33 197.783,1283.09Z" style="fill:rgb(255,205,232);"/>
                        </g>
                        <g transform="matrix(0.437737,6.93889e-17,0,0.471169,749.579,237.945)">
                            <path d="M197.783,1283.09C206.385,1269.33 223.59,1269.33 232.192,1276.21C240.794,1283.09 240.794,1296.84 232.192,1310.6C226.17,1320.91 210.686,1331.23 197.783,1338.11C184.88,1331.23 169.396,1320.91 163.375,1310.6C154.772,1296.84 154.772,1283.09 163.375,1276.21C171.977,1269.33 189.181,1269.33 197.783,1283.09Z" style="fill:rgb(255,205,232);"/>
                        </g>
                    </g>
                    <path d="M814.098,867.922L814.098,837.594C811.017,835.156 809.168,831.417 809.168,827.404L809.168,818.212C809.168,811.034 814.986,805.215 822.164,805.215L850.768,805.215C851.192,805.215 851.612,805.236 852.026,805.276C852.44,805.236 852.86,805.215 853.284,805.215L882.71,805.215C885.237,805.215 887.595,805.937 889.591,807.185C891.587,805.937 893.945,805.215 896.472,805.215L920.557,805.215C927.735,805.215 933.553,811.034 933.553,818.212L933.553,827.301C933.553,831.811 931.215,835.999 927.376,838.365L926.692,838.787L906.186,892.006C904.253,897.021 899.433,900.33 894.059,900.33L879.885,900.33C874.527,900.33 869.717,897.041 867.774,892.047L863.661,881.479L863.661,887.334C863.661,894.511 857.842,900.33 850.665,900.33L822.061,900.33C814.883,900.33 809.065,894.511 809.065,887.334L809.065,878.193C809.065,874.133 810.957,870.356 814.098,867.922ZM920.557,818.212L896.472,818.212L896.472,827.301L900.683,830.023L889.642,865.149L878.396,830.228L882.71,827.609L882.71,818.212L853.284,818.212L853.284,827.609L857.7,830.331L879.885,887.334L894.059,887.334L916.141,830.023L920.557,827.301L920.557,818.212ZM822.164,827.404L827.094,830.023L827.094,875.574L822.061,878.193L822.061,887.334L850.665,887.334L850.665,878.193L845.684,875.574L845.684,830.023L850.768,827.404L850.768,818.212L822.164,818.212L822.164,827.404Z"/>
                </g>
                <g transform="matrix(1,0,0,1,-740,-1100)">
                    <rect x="912.347" y="1428.2" width="10.601" height="8.629"/>
                </g>
            </g>
        </g>
    </g>
</svg>
