<?xml version="1.0" encoding="UTF-8" standalone="no"?>
<!DOCTYPE svg PUBLIC "-//W3C//DTD SVG 1.1//EN" "http://www.w3.org/Graphics/SVG/1.1/DTD/svg11.dtd">
<svg width="100%" height="100%" viewBox="0 0 370 370" version="1.1" xmlns="http://www.w3.org/2000/svg" xmlns:xlink="http://www.w3.org/1999/xlink" xml:space="preserve" xmlns:serif="http://www.serif.com/" style="fill-rule:evenodd;clip-rule:evenodd;stroke-linecap:round;stroke-linejoin:round;stroke-miterlimit:1.5;">
    <g transform="matrix(1,0,0,1,-370,-1100)">
        <g id="Artboard1" transform="matrix(1,0,0,1,370,1100)">
            <rect x="0" y="0" width="370" height="370" style="fill:none;"/>
            <g id="Pokeball" transform="matrix(1,0,0,1,-65,-50.457)">
                <g transform="matrix(2.64055,0,0,1.76388,-33.0138,42.8944)">
                    <path d="M107.76,65.74C115.171,65.74 170.03,87.561 173.736,93.98C177.441,100.398 168.181,175.537 164.475,181.955C160.769,188.374 115.27,206.286 107.859,206.286C100.448,206.286 55.689,188.374 51.983,181.955C48.277,175.537 36.786,100.398 40.491,93.98C44.197,87.561 100.349,65.74 107.76,65.74Z" style="fill:rgb(28,31,45);stroke:rgb(28,31,45);stroke-width:5.56px;"/>
                </g>
                <g transform="matrix(2.48802,0,0,2.32444,-17.6664,-88.9852)">
                    <path d="M107.582,65.883C114.993,65.883 167.253,92.908 170.958,99.326C174.664,105.744 168.181,175.537 164.475,181.955C160.769,188.374 114.993,206.43 107.582,206.43C100.171,206.43 55.689,188.374 51.983,181.955C48.277,175.537 40.357,105.744 44.063,99.326C47.768,92.908 100.171,65.883 107.582,65.883Z" style="fill:rgb(33,160,153);stroke:black;stroke-width:5.18px;"/>
                </g>
                <g transform="matrix(2.1821,0,0,2.01824,15.2453,-47.1554)">
                    <path d="M107.582,65.815C114.993,65.815 167.253,92.908 170.958,99.326C174.664,105.744 168.181,175.537 164.475,181.955C160.769,188.374 114.993,206.361 107.582,206.361C100.171,206.361 55.689,188.374 51.983,181.955C48.277,175.537 40.357,105.744 44.063,99.326C47.768,92.908 100.171,65.815 107.582,65.815Z" style="fill:rgb(33,160,153);stroke:white;stroke-width:5.94px;"/>
                </g>
                <g transform="matrix(1.90708,0,0,1.76388,44.832,-12.4074)">
                    <path d="M107.582,65.74C114.993,65.74 167.253,92.908 170.958,99.326C174.664,105.744 168.181,175.537 164.475,181.955C160.769,188.374 114.993,206.286 107.582,206.286C100.171,206.286 55.689,188.374 51.983,181.955C48.277,175.537 40.357,105.744 44.063,99.326C47.768,92.908 100.171,65.74 107.582,65.74Z" style="fill:rgb(80,94,96);"/>
                    <clipPath id="_clip1">
                        <path d="M107.582,65.74C114.993,65.74 167.253,92.908 170.958,99.326C174.664,105.744 168.181,175.537 164.475,181.955C160.769,188.374 114.993,206.286 107.582,206.286C100.171,206.286 55.689,188.374 51.983,181.955C48.277,175.537 40.357,105.744 44.063,99.326C47.768,92.908 100.171,65.74 107.582,65.74Z"/>
                    </clipPath>
                    <g clip-path="url(#_clip1)">
                        <g transform="matrix(0.549433,0,0,0.594042,-3.40351,26.1439)">
                            <rect x="202" y="38.686" width="162.768" height="324.407" style="fill:rgb(58,73,72);"/>
                        </g>
                    </g>
                </g>
                <g transform="matrix(1.63385,0,0,1.40629,74.2273,36.4415)">
                    <path d="M107.582,65.588C114.993,65.588 165.329,92.908 169.034,99.326C172.74,105.744 166.257,175.537 162.551,181.955C158.845,188.374 114.993,206.135 107.582,206.135C100.171,206.135 56.33,188.374 52.624,181.955C48.919,175.537 40.998,105.744 44.704,99.326C48.41,92.908 100.171,65.588 107.582,65.588Z" style="fill:rgb(58,73,71);stroke:rgb(245,186,28);stroke-width:8.19px;"/>
                </g>
                <g transform="matrix(0.806356,0,0,0.806356,97.0039,71.9786)">
                    <path d="M143.032,119.02C126.012,86.254 126.694,55.423 151.435,29.912C173.732,6.922 221.119,-5.854 276.116,23.476C323.596,48.798 340.46,37.155 345.397,31.055C351.53,39.356 359.411,92.891 323.771,102.099C283.488,112.507 290.748,154.7 303.486,155.736C311.958,156.425 320.789,151.611 324.224,146.275C326.5,159.028 339.381,211.405 254.137,240.845C156.258,250.927 192.234,182.765 192.234,182.765L154.325,139.487C154.325,139.487 160.053,151.787 143.032,119.02Z" style="fill:rgb(245,137,28);"/>
                    <g>
                        <clipPath id="_clip2">
                            <path d="M143.032,119.02C126.012,86.254 126.694,55.423 151.435,29.912C173.732,6.922 221.119,-5.854 276.116,23.476C323.596,48.798 340.46,37.155 345.397,31.055C351.53,39.356 359.411,92.891 323.771,102.099C283.488,112.507 290.748,154.7 303.486,155.736C311.958,156.425 320.789,151.611 324.224,146.275C326.5,159.028 339.381,211.405 254.137,240.845C156.258,250.927 192.234,182.765 192.234,182.765L154.325,139.487C154.325,139.487 160.053,151.787 143.032,119.02Z"/>
                        </clipPath>
                        <g clip-path="url(#_clip2)">
                            <path d="M143.032,141.696C143.032,141.696 165.209,117.228 167.498,114.819C169.787,112.41 171.636,67.545 187.537,48.987C192.844,42.792 208.192,35.531 231.249,35.531C268.935,35.531 282.867,59.62 315.734,55.147C348.601,50.673 343.095,27.616 343.095,17.636C343.095,7.656 276.597,-16.07 276.597,-16.07C276.597,-16.07 161.494,-34.554 146.791,-28.673C132.088,-22.792 96.801,-9.769 94.7,-5.568C92.6,-1.367 91.34,42.322 90.5,57.865C89.659,73.408 103.113,110.795 102.688,116.677C102.262,122.558 143.032,141.696 143.032,141.696Z" style="fill:rgb(245,186,28);"/>
                        </g>
                    </g>
                    <path d="M143.032,119.02C126.012,86.254 126.694,55.423 151.435,29.912C173.732,6.922 221.119,-5.854 276.116,23.476C323.596,48.798 340.46,37.155 345.397,31.055C351.53,39.356 359.411,92.891 323.771,102.099C283.488,112.507 290.748,154.7 303.486,155.736C311.958,156.425 320.789,151.611 324.224,146.275C326.5,159.028 339.381,211.405 254.137,240.845C156.258,250.927 192.234,182.765 192.234,182.765L154.325,139.487C154.325,139.487 160.053,151.787 143.032,119.02Z" style="fill:none;stroke:black;stroke-width:15.54px;"/>
                </g>
                <g transform="matrix(1.12538,0,0,1.12538,21.1638,16.8525)">
                    <circle cx="203.341" cy="220.316" r="74.554" style="fill:rgb(33,160,153);"/>
                    <clipPath id="_clip3">
                        <circle cx="203.341" cy="220.316" r="74.554"/>
                    </clipPath>
                    <g clip-path="url(#_clip3)">
                        <g transform="matrix(-0.984226,0,0,0.618282,389.186,-580.178)">
                            <path d="M124.503,1305.86C125.536,1311.79 129.403,1315.28 133.133,1313.63C136.863,1311.99 139.053,1305.84 138.02,1299.9C137.539,1297.13 138.302,1291.44 139.44,1284C141.618,1269.75 146.052,1250.69 152.466,1232.54C162.442,1204.3 176.996,1177.19 196.231,1178.34C200.099,1178.57 203.357,1173.76 203.502,1167.6C203.647,1161.45 200.625,1156.26 196.757,1156.03C172.499,1154.58 152.823,1185.99 140.242,1221.59C131.903,1245.19 126.627,1270.19 124.775,1286.43C123.767,1295.28 123.85,1302.1 124.503,1305.86Z" style="fill:rgb(52,52,52);"/>
                        </g>
                        <g transform="matrix(0.984226,0,0,0.618282,17.4959,-579.497)">
                            <path d="M138.02,1299.9C139.053,1305.84 136.863,1311.99 133.133,1313.63C129.403,1315.28 125.536,1311.79 124.503,1305.86C123.85,1302.1 123.767,1295.28 124.775,1286.43C126.627,1270.19 131.903,1245.19 140.242,1221.59C152.823,1185.99 172.499,1154.58 196.757,1156.03C200.625,1156.26 203.647,1161.45 203.502,1167.6C203.357,1173.76 200.099,1178.57 196.231,1178.34C176.996,1177.19 162.442,1204.3 152.466,1232.54C146.052,1250.69 141.618,1269.75 139.44,1284C138.302,1291.44 137.539,1297.13 138.02,1299.9Z" style="fill:rgb(52,52,52);"/>
                        </g>
                        <g transform="matrix(0.888587,0,0,0.888587,38.9523,-947.585)">
                            <path d="M56.416,1249.6C52.632,1247.59 51.195,1242.88 53.21,1239.1C55.225,1235.31 59.933,1233.88 63.717,1235.89C145.749,1279.57 218.958,1286.63 278.982,1236.77C282.28,1234.03 287.181,1234.49 289.92,1237.78C292.66,1241.08 292.206,1245.98 288.909,1248.72C224.081,1302.57 145.013,1296.78 56.416,1249.6Z" style="fill:rgb(52,52,52);"/>
                        </g>
                        <g transform="matrix(0.894889,0,0,0.65896,22.5732,101.958)">
                            <circle cx="202" cy="223.8" r="77.077" style="fill:white;"/>
                        </g>
                        <g transform="matrix(0.888587,0,0,0.888587,38.9523,29.8605)">
                            <path d="M134.161,204.493L134.161,109.327L235.839,109.327L235.839,200.837C230.124,200.558 224.364,200.554 218.663,199.983L218.663,127.464L151.337,127.464L151.337,199.808C145.501,200.976 139.737,202.467 134.161,204.493Z" style="fill:rgb(157,222,218);"/>
                        </g>
                        <g transform="matrix(0.888587,0,0,0.888587,38.9523,29.8605)">
                            <path d="M235.839,200.837L235.839,211.173C235.839,236.057 213.059,256.259 185,256.259C156.941,256.259 134.161,236.057 134.161,211.173L134.161,204.493C139.737,202.467 145.501,200.976 151.337,199.808L151.337,204.167C151.337,222.908 166.421,238.123 185,238.123C203.579,238.123 218.663,222.908 218.663,204.167L218.663,199.983C224.364,200.554 230.124,200.558 235.839,200.837Z" style="fill:rgb(157,222,218);"/>
                        </g>
                        <g transform="matrix(0.894889,0,0,0.65896,22.5732,101.958)">
                            <path d="M202,135.909C249.494,135.909 287.04,176.306 287.04,223.8C287.04,271.294 249.494,311.692 202,311.692C154.506,311.692 116.96,271.294 116.96,223.8C116.96,176.306 154.506,135.909 202,135.909ZM202,157.538C178.823,157.538 158.186,168.547 145.446,185.923C137.643,196.565 132.887,209.605 132.887,223.8C132.887,237.996 137.643,251.035 145.446,261.678C158.186,279.053 178.823,290.062 202,290.062C225.177,290.062 245.814,279.053 258.554,261.678C266.357,251.035 271.113,237.996 271.113,223.8C271.113,209.605 266.357,196.565 258.554,185.923C245.814,168.547 225.177,157.538 202,157.538Z"/>
                        </g>
                        <g transform="matrix(0.947267,0,0,0.947267,11.4289,27.1795)">
                            <circle cx="202.595" cy="183.368" r="18.084" style="fill:white;stroke:black;stroke-width:11.76px;"/>
                        </g>
                    </g>
                    <circle cx="203.341" cy="220.316" r="74.554" style="fill:none;stroke:black;stroke-width:11.09px;"/>
                </g>
                <g transform="matrix(0.806356,0,0,0.806356,97.0039,71.9786)">
                    <path d="M143.032,119.02C126.012,86.254 126.694,55.423 151.435,29.912C173.732,6.922 221.119,-5.854 276.116,23.476C323.596,48.798 340.46,37.155 345.397,31.055" style="fill:rgb(245,137,28);"/>
                    <g>
                        <clipPath id="_clip4">
                            <path d="M143.032,119.02C126.012,86.254 126.694,55.423 151.435,29.912C173.732,6.922 221.119,-5.854 276.116,23.476C323.596,48.798 340.46,37.155 345.397,31.055"/>
                        </clipPath>
                        <g clip-path="url(#_clip4)">
                            <path d="M143.032,141.696C143.032,141.696 165.209,117.228 167.498,114.819C169.787,112.41 171.636,67.545 187.537,48.987C192.844,42.792 208.192,35.531 231.249,35.531C268.935,35.531 282.867,59.62 315.734,55.147C348.601,50.673 343.095,27.616 343.095,17.636C343.095,7.656 276.597,-16.07 276.597,-16.07C276.597,-16.07 161.494,-34.554 146.791,-28.673C132.088,-22.792 96.801,-9.769 94.7,-5.568C92.6,-1.367 91.34,42.322 90.5,57.865C89.659,73.408 103.113,110.795 102.688,116.677C102.262,122.558 143.032,141.696 143.032,141.696Z" style="fill:rgb(245,186,28);"/>
                        </g>
                    </g>
                    <path d="M143.032,119.02C126.012,86.254 126.694,55.423 151.435,29.912C173.732,6.922 221.119,-5.854 276.116,23.476C323.596,48.798 340.46,37.155 345.397,31.055" style="fill:none;stroke:black;stroke-width:15.54px;"/>
                    <g transform="matrix(1.02627,0,0,1.02627,-4.91157,-3.35873)">
                        <path d="M286.494,194.279C286.718,203.889 286.232,211.512 286.494,203.246C287.695,165.438 214.024,134.095 213.319,135.999C207.034,152.976 206.015,161.855 192.154,168.198C178.293,174.541 160.674,165.614 141.88,167.493C123.085,169.373 102.986,182.866 91.475,166.656C79.963,150.446 102.626,131.135 111.083,123.617C119.541,116.1 169.395,74.722 185.135,64.62C200.875,54.518 244.816,53.315 257.032,53.785C242.467,65.766 227.02,86.44 228.195,92.548C252.862,111.342 285.154,136.665 286.494,194.279Z" style="fill:rgb(255,242,196);"/>
                    </g>
                    <g transform="matrix(1,0,0,1,-3.72353,-2.06926)">
                        <path d="M215.73,138.103C215.73,138.103 293.572,158.294 297.426,241.541" style="fill:none;stroke:black;stroke-width:15.54px;"/>
                    </g>
                    <g transform="matrix(1.46274,0,0,1.46274,-74.9376,-61.6344)">
                        <path d="M149.916,123.249C147.053,120.687 161.405,109.041 163.458,107.809C165.511,106.577 167.862,117.671 163.62,121.639C159.377,125.608 154.057,126.955 149.916,123.249Z" style="fill:rgb(34,34,34);"/>
                        <g>
                            <clipPath id="_clip5">
                                <path d="M149.916,123.249C147.053,120.687 161.405,109.041 163.458,107.809C165.511,106.577 167.862,117.671 163.62,121.639C159.377,125.608 154.057,126.955 149.916,123.249Z"/>
                            </clipPath>
                            <g clip-path="url(#_clip5)">
                                <g transform="matrix(0.775066,0,0,0.860752,33.7392,14.9878)">
                                    <path d="M149.916,123.249C147.053,120.687 161.405,109.041 163.458,107.809C165.511,106.577 167.862,117.671 163.62,121.639C159.377,125.608 154.057,126.955 149.916,123.249Z"/>
                                </g>
                            </g>
                        </g>
                    </g>
                    <g transform="matrix(0.495622,0,0,0.557891,72.3718,42.8113)">
                        <path d="M149.916,123.249C147.053,120.687 161.405,109.041 163.458,107.809C165.511,106.577 167.862,117.671 163.62,121.639C159.377,125.608 154.057,126.955 149.916,123.249Z" style="fill:white;"/>
                    </g>
                    <g transform="matrix(1.02627,0,0,1.02627,-8.6351,-5.42799)">
                        <path d="M214.237,132.019C213.533,150.109 206.015,161.855 192.154,168.198C178.293,174.541 160.674,165.614 141.88,167.493C123.085,169.373 102.986,182.866 91.475,166.656C79.963,150.446 102.626,131.135 111.083,123.617C119.541,116.1 169.395,74.722 185.135,64.62C200.875,54.518 244.816,53.315 257.032,53.785C242.467,65.766 227.02,86.44 228.195,92.548C252.862,111.342 295.946,154.155 294.565,238.631" style="fill:none;stroke:black;stroke-width:15.15px;"/>
                    </g>
                    <g transform="matrix(-1.67131,0.122499,-0.118153,-1.61202,294.257,376.865)">
                        <path d="M100.798,151.455C101.852,150.1 102.594,148.03 104.652,146.876C106.71,145.721 106.854,147.231 105.868,148.588C104.881,149.945 99.744,152.811 100.798,151.455Z" style="fill:rgb(34,34,34);"/>
                    </g>
                </g>
            </g>
            <g transform="matrix(0.995172,0,0,0.995172,-679.803,-548.519)">
                <path d="M836.825,827.404L836.825,818.212L865.429,818.212L865.429,827.404L860.345,830.023L860.345,875.574L865.326,878.193L865.326,887.334L836.722,887.334L836.722,878.193L841.755,875.574L841.755,830.023L836.825,827.404ZM872.67,827.404L872.67,818.212L901.274,818.212L901.274,827.404L896.19,830.023L896.19,875.574L901.171,878.193L901.171,887.334L872.567,887.334L872.567,878.193L877.6,875.574L877.6,830.023L872.67,827.404Z" style="fill:rgb(156,255,250);"/>
                <clipPath id="_clip6">
                    <path d="M836.825,827.404L836.825,818.212L865.429,818.212L865.429,827.404L860.345,830.023L860.345,875.574L865.326,878.193L865.326,887.334L836.722,887.334L836.722,878.193L841.755,875.574L841.755,830.023L836.825,827.404ZM872.67,827.404L872.67,818.212L901.274,818.212L901.274,827.404L896.19,830.023L896.19,875.574L901.171,878.193L901.171,887.334L872.567,887.334L872.567,878.193L877.6,875.574L877.6,830.023L872.67,827.404Z"/>
                </clipPath>
                <g clip-path="url(#_clip6)">
                    <g transform="matrix(0.6072,-7.43605e-17,-3.96679e-17,-0.323913,754.214,1276.16)">
                        <path d="M124.503,1305.86C125.536,1311.79 129.403,1315.28 133.133,1313.63C136.863,1311.99 139.053,1305.84 138.02,1299.9C137.539,1297.13 138.302,1291.44 139.44,1284C141.618,1269.75 146.052,1250.69 152.466,1232.54C162.442,1204.3 176.996,1177.19 196.231,1178.34C200.099,1178.57 203.357,1173.76 203.502,1167.6C203.647,1161.45 200.625,1156.26 196.757,1156.03C172.499,1154.58 152.823,1185.99 140.242,1221.59C131.903,1245.19 126.627,1270.19 124.775,1286.43C123.767,1295.28 123.85,1302.1 124.503,1305.86Z" style="fill:rgb(33,160,153);"/>
                    </g>
                    <g transform="matrix(-0.6072,7.43605e-17,-3.96679e-17,-0.323913,983.521,1275.8)">
                        <path d="M138.02,1299.9C139.053,1305.84 136.863,1311.99 133.133,1313.63C129.403,1315.28 125.536,1311.79 124.503,1305.86C123.85,1302.1 123.767,1295.28 124.775,1286.43C126.627,1270.19 131.903,1245.19 140.242,1221.59C152.823,1185.99 172.499,1154.58 196.757,1156.03C200.625,1156.26 203.647,1161.45 203.502,1167.6C203.357,1173.76 200.099,1178.57 196.231,1178.34C176.996,1177.19 162.442,1204.3 152.466,1232.54C146.052,1250.69 141.618,1269.75 139.44,1284C138.302,1291.44 137.539,1297.13 138.02,1299.9Z" style="fill:rgb(33,160,153);"/>
                    </g>
                    <g transform="matrix(-0.548197,6.71347e-17,-5.70101e-17,-0.465523,970.284,1468.64)">
                        <path d="M56.416,1249.6C52.632,1247.59 51.195,1242.88 53.21,1239.1C55.225,1235.31 59.933,1233.88 63.717,1235.89C145.749,1279.57 218.958,1286.63 278.982,1236.77C282.28,1234.03 287.181,1234.49 289.92,1237.78C292.66,1241.08 292.206,1245.98 288.909,1248.72C224.081,1302.57 145.013,1296.78 56.416,1249.6Z" style="fill:rgb(33,160,153);"/>
                    </g>
                    <g transform="matrix(-0.6072,-1.2326e-32,-2.46519e-32,0.323913,983.588,429.137)">
                        <path d="M124.503,1305.86C125.536,1311.79 129.403,1315.28 133.133,1313.63C136.863,1311.99 139.053,1305.84 138.02,1299.9C137.539,1297.13 138.302,1291.44 139.44,1284C141.618,1269.75 146.052,1250.69 152.466,1232.54C162.442,1204.3 176.996,1177.19 196.231,1178.34C200.099,1178.57 203.357,1173.76 203.502,1167.6C203.647,1161.45 200.625,1156.26 196.757,1156.03C172.499,1154.58 152.823,1185.99 140.242,1221.59C131.903,1245.19 126.627,1270.19 124.775,1286.43C123.767,1295.28 123.85,1302.1 124.503,1305.86Z" style="fill:rgb(33,160,153);"/>
                    </g>
                    <g transform="matrix(0.6072,1.2326e-32,-2.46519e-32,0.323913,754.281,429.494)">
                        <path d="M138.02,1299.9C139.053,1305.84 136.863,1311.99 133.133,1313.63C129.403,1315.28 125.536,1311.79 124.503,1305.86C123.85,1302.1 123.767,1295.28 124.775,1286.43C126.627,1270.19 131.903,1245.19 140.242,1221.59C152.823,1185.99 172.499,1154.58 196.757,1156.03C200.625,1156.26 203.647,1161.45 203.502,1167.6C203.357,1173.76 200.099,1178.57 196.231,1178.34C176.996,1177.19 162.442,1204.3 152.466,1232.54C146.052,1250.69 141.618,1269.75 139.44,1284C138.302,1291.44 137.539,1297.13 138.02,1299.9Z" style="fill:rgb(33,160,153);"/>
                    </g>
                    <g transform="matrix(0.548197,1.2326e-32,-2.46519e-32,0.465523,767.518,236.656)">
                        <path d="M56.416,1249.6C52.632,1247.59 51.195,1242.88 53.21,1239.1C55.225,1235.31 59.933,1233.88 63.717,1235.89C145.749,1279.57 218.958,1286.63 278.982,1236.77C282.28,1234.03 287.181,1234.49 289.92,1237.78C292.66,1241.08 292.206,1245.98 288.909,1248.72C224.081,1302.57 145.013,1296.78 56.416,1249.6Z" style="fill:rgb(33,160,153);"/>
                    </g>
                </g>
                <path d="M828.759,867.922L828.759,837.594C825.678,835.156 823.829,831.417 823.829,827.404L823.829,818.212C823.829,811.034 829.648,805.215 836.825,805.215L865.429,805.215C866.686,805.215 867.9,805.394 869.05,805.726C870.199,805.394 871.414,805.215 872.67,805.215L901.274,805.215C908.451,805.215 914.27,811.034 914.27,818.212L914.27,827.404C914.27,831.486 912.357,835.282 909.186,837.714L909.186,867.962C912.297,870.398 914.167,874.156 914.167,878.193L914.167,887.334C914.167,894.511 908.349,900.33 901.171,900.33L872.567,900.33C871.311,900.33 870.096,900.151 868.947,899.819C867.798,900.151 866.583,900.33 865.326,900.33L836.722,900.33C829.545,900.33 823.726,894.511 823.726,887.334L823.726,878.193C823.726,874.133 825.618,870.356 828.759,867.922ZM836.825,827.404L841.755,830.023L841.755,875.574L836.722,878.193L836.722,887.334L865.326,887.334L865.326,878.193L860.345,875.574L860.345,830.023L865.429,827.404L865.429,818.212L836.825,818.212L836.825,827.404ZM872.67,827.404L877.6,830.023L877.6,875.574L872.567,878.193L872.567,887.334L901.171,887.334L901.171,878.193L896.19,875.574L896.19,830.023L901.274,827.404L901.274,818.212L872.67,818.212L872.67,827.404Z"/>
            </g>
        </g>
    </g>
</svg>
