<?xml version="1.0" encoding="UTF-8" standalone="no"?>
<!DOCTYPE svg PUBLIC "-//W3C//DTD SVG 1.1//EN" "http://www.w3.org/Graphics/SVG/1.1/DTD/svg11.dtd">
<svg width="100%" height="100%" viewBox="0 0 370 370" version="1.1" xmlns="http://www.w3.org/2000/svg" xmlns:xlink="http://www.w3.org/1999/xlink" xml:space="preserve" xmlns:serif="http://www.serif.com/" style="fill-rule:evenodd;clip-rule:evenodd;stroke-linecap:round;stroke-linejoin:round;stroke-miterlimit:1.5;">
    <g transform="matrix(1,0,0,1,-2220,-1100)">
        <g id="Artboard1" transform="matrix(1,0,0,1,2220,1100)">
            <rect x="0" y="0" width="370" height="370" style="fill:none;"/>
            <g id="Pokeball" transform="matrix(1,0,0,1,-65,-50.457)">
                <g transform="matrix(2.64055,0,0,1.76388,-33.0138,42.8944)">
                    <path d="M107.76,65.74C115.171,65.74 170.03,87.561 173.736,93.98C177.441,100.398 168.181,175.537 164.475,181.955C160.769,188.374 115.27,206.286 107.859,206.286C100.448,206.286 55.689,188.374 51.983,181.955C48.277,175.537 36.786,100.398 40.491,93.98C44.197,87.561 100.349,65.74 107.76,65.74Z" style="fill:rgb(28,31,45);stroke:rgb(28,31,45);stroke-width:5.56px;"/>
                </g>
                <g transform="matrix(2.48802,0,0,2.32444,-17.6664,-88.9852)">
                    <path d="M107.582,65.883C114.993,65.883 167.253,92.908 170.958,99.326C174.664,105.744 168.181,175.537 164.475,181.955C160.769,188.374 114.993,206.43 107.582,206.43C100.171,206.43 55.689,188.374 51.983,181.955C48.277,175.537 40.357,105.744 44.063,99.326C47.768,92.908 100.171,65.883 107.582,65.883Z" style="fill:rgb(246,24,58);stroke:black;stroke-width:5.18px;"/>
                </g>
                <g transform="matrix(2.1821,0,0,2.01824,15.2453,-47.1554)">
                    <path d="M107.582,65.815C114.993,65.815 167.253,92.908 170.958,99.326C174.664,105.744 168.181,175.537 164.475,181.955C160.769,188.374 114.993,206.361 107.582,206.361C100.171,206.361 55.689,188.374 51.983,181.955C48.277,175.537 40.357,105.744 44.063,99.326C47.768,92.908 100.171,65.815 107.582,65.815Z" style="fill:rgb(246,24,58);stroke:white;stroke-width:5.94px;"/>
                </g>
                <g transform="matrix(1.90708,0,0,1.76388,44.832,-12.4074)">
                    <path d="M107.582,65.74C114.993,65.74 167.253,92.908 170.958,99.326C174.664,105.744 168.181,175.537 164.475,181.955C160.769,188.374 114.993,206.286 107.582,206.286C100.171,206.286 55.689,188.374 51.983,181.955C48.277,175.537 40.357,105.744 44.063,99.326C47.768,92.908 100.171,65.74 107.582,65.74Z" style="fill:rgb(96,80,84);"/>
                    <clipPath id="_clip1">
                        <path d="M107.582,65.74C114.993,65.74 167.253,92.908 170.958,99.326C174.664,105.744 168.181,175.537 164.475,181.955C160.769,188.374 114.993,206.286 107.582,206.286C100.171,206.286 55.689,188.374 51.983,181.955C48.277,175.537 40.357,105.744 44.063,99.326C47.768,92.908 100.171,65.74 107.582,65.74Z"/>
                    </clipPath>
                    <g clip-path="url(#_clip1)">
                        <g transform="matrix(0.549433,0,0,0.594042,-3.40351,26.1439)">
                            <rect x="202" y="38.686" width="162.768" height="324.407" style="fill:rgb(73,58,59);"/>
                        </g>
                    </g>
                </g>
                <g transform="matrix(1.63385,0,0,1.40629,74.2273,36.4415)">
                    <path d="M107.582,65.588C114.993,65.588 165.329,92.908 169.034,99.326C172.74,105.744 166.257,175.537 162.551,181.955C158.845,188.374 114.993,206.135 107.582,206.135C100.171,206.135 56.33,188.374 52.624,181.955C48.919,175.537 40.998,105.744 44.704,99.326C48.41,92.908 100.171,65.588 107.582,65.588Z" style="fill:rgb(73,58,62);stroke:rgb(245,186,28);stroke-width:8.19px;"/>
                </g>
                <g transform="matrix(0.806356,0,0,0.806356,97.0039,71.9786)">
                    <path d="M143.032,119.02C126.012,86.254 126.694,55.423 151.435,29.912C173.732,6.922 221.119,-5.854 276.116,23.476C323.596,48.798 340.46,37.155 345.397,31.055C351.53,39.356 359.411,92.891 323.771,102.099C283.488,112.507 290.748,154.7 303.486,155.736C311.958,156.425 320.789,151.611 324.224,146.275C326.5,159.028 339.381,211.405 254.137,240.845C156.258,250.927 192.234,182.765 192.234,182.765L154.325,139.487C154.325,139.487 160.053,151.787 143.032,119.02Z" style="fill:rgb(245,137,28);"/>
                    <g>
                        <clipPath id="_clip2">
                            <path d="M143.032,119.02C126.012,86.254 126.694,55.423 151.435,29.912C173.732,6.922 221.119,-5.854 276.116,23.476C323.596,48.798 340.46,37.155 345.397,31.055C351.53,39.356 359.411,92.891 323.771,102.099C283.488,112.507 290.748,154.7 303.486,155.736C311.958,156.425 320.789,151.611 324.224,146.275C326.5,159.028 339.381,211.405 254.137,240.845C156.258,250.927 192.234,182.765 192.234,182.765L154.325,139.487C154.325,139.487 160.053,151.787 143.032,119.02Z"/>
                        </clipPath>
                        <g clip-path="url(#_clip2)">
                            <path d="M143.032,141.696C143.032,141.696 165.209,117.228 167.498,114.819C169.787,112.41 171.636,67.545 187.537,48.987C192.844,42.792 208.192,35.531 231.249,35.531C268.935,35.531 282.867,59.62 315.734,55.147C348.601,50.673 343.095,27.616 343.095,17.636C343.095,7.656 276.597,-16.07 276.597,-16.07C276.597,-16.07 161.494,-34.554 146.791,-28.673C132.088,-22.792 96.801,-9.769 94.7,-5.568C92.6,-1.367 91.34,42.322 90.5,57.865C89.659,73.408 103.113,110.795 102.688,116.677C102.262,122.558 143.032,141.696 143.032,141.696Z" style="fill:rgb(245,186,28);"/>
                        </g>
                    </g>
                    <path d="M143.032,119.02C126.012,86.254 126.694,55.423 151.435,29.912C173.732,6.922 221.119,-5.854 276.116,23.476C323.596,48.798 340.46,37.155 345.397,31.055C351.53,39.356 359.411,92.891 323.771,102.099C283.488,112.507 290.748,154.7 303.486,155.736C311.958,156.425 320.789,151.611 324.224,146.275C326.5,159.028 339.381,211.405 254.137,240.845C156.258,250.927 192.234,182.765 192.234,182.765L154.325,139.487C154.325,139.487 160.053,151.787 143.032,119.02Z" style="fill:none;stroke:black;stroke-width:15.54px;"/>
                </g>
                <g transform="matrix(1.12538,0,0,1.12538,21.1638,16.8525)">
                    <circle cx="203.341" cy="220.316" r="74.554" style="fill:rgb(246,24,58);"/>
                    <clipPath id="_clip3">
                        <circle cx="203.341" cy="220.316" r="74.554"/>
                    </clipPath>
                    <g clip-path="url(#_clip3)">
                        <g transform="matrix(0.894889,0,0,0.65896,22.5732,101.958)">
                            <circle cx="202" cy="223.8" r="77.077" style="fill:white;"/>
                        </g>
                        <g transform="matrix(0.888587,0,0,0.888587,38.9523,29.8605)">
                            <path d="M134.161,204.493L134.161,109.327L235.839,109.327L235.839,200.837C230.124,200.558 224.364,200.554 218.663,199.983L218.663,127.464L151.337,127.464L151.337,199.808C145.501,200.976 139.737,202.467 134.161,204.493Z" style="fill:rgb(208,19,49);"/>
                        </g>
                        <g transform="matrix(0.888587,0,0,0.888587,38.9523,29.8605)">
                            <path d="M235.839,200.837L235.839,211.173C235.839,236.057 213.059,256.259 185,256.259C156.941,256.259 134.161,236.057 134.161,211.173L134.161,204.493C139.737,202.467 145.501,200.976 151.337,199.808L151.337,204.167C151.337,222.908 166.421,238.123 185,238.123C203.579,238.123 218.663,222.908 218.663,204.167L218.663,199.983C224.364,200.554 230.124,200.558 235.839,200.837Z" style="fill:rgb(216,203,216);"/>
                        </g>
                        <g transform="matrix(0.894889,0,0,0.65896,22.5732,101.958)">
                            <path d="M202,135.909C249.494,135.909 287.04,176.306 287.04,223.8C287.04,271.294 249.494,311.692 202,311.692C154.506,311.692 116.96,271.294 116.96,223.8C116.96,176.306 154.506,135.909 202,135.909ZM202,157.538C178.823,157.538 158.186,168.547 145.446,185.923C137.643,196.565 132.887,209.605 132.887,223.8C132.887,237.996 137.643,251.035 145.446,261.678C158.186,279.053 178.823,290.062 202,290.062C225.177,290.062 245.814,279.053 258.554,261.678C266.357,251.035 271.113,237.996 271.113,223.8C271.113,209.605 266.357,196.565 258.554,185.923C245.814,168.547 225.177,157.538 202,157.538Z"/>
                        </g>
                        <g transform="matrix(0.947267,0,0,0.947267,11.4289,27.1795)">
                            <circle cx="202.595" cy="183.368" r="18.084" style="fill:white;stroke:black;stroke-width:11.76px;"/>
                        </g>
                    </g>
                    <circle cx="203.341" cy="220.316" r="74.554" style="fill:none;stroke:black;stroke-width:11.09px;"/>
                </g>
                <g transform="matrix(0.806356,0,0,0.806356,97.0039,71.9786)">
                    <path d="M143.032,119.02C126.012,86.254 126.694,55.423 151.435,29.912C173.732,6.922 221.119,-5.854 276.116,23.476C323.596,48.798 340.46,37.155 345.397,31.055" style="fill:rgb(245,137,28);"/>
                    <g>
                        <clipPath id="_clip4">
                            <path d="M143.032,119.02C126.012,86.254 126.694,55.423 151.435,29.912C173.732,6.922 221.119,-5.854 276.116,23.476C323.596,48.798 340.46,37.155 345.397,31.055"/>
                        </clipPath>
                        <g clip-path="url(#_clip4)">
                            <path d="M143.032,141.696C143.032,141.696 165.209,117.228 167.498,114.819C169.787,112.41 171.636,67.545 187.537,48.987C192.844,42.792 208.192,35.531 231.249,35.531C268.935,35.531 282.867,59.62 315.734,55.147C348.601,50.673 343.095,27.616 343.095,17.636C343.095,7.656 276.597,-16.07 276.597,-16.07C276.597,-16.07 161.494,-34.554 146.791,-28.673C132.088,-22.792 96.801,-9.769 94.7,-5.568C92.6,-1.367 91.34,42.322 90.5,57.865C89.659,73.408 103.113,110.795 102.688,116.677C102.262,122.558 143.032,141.696 143.032,141.696Z" style="fill:rgb(245,186,28);"/>
                        </g>
                    </g>
                    <path d="M143.032,119.02C126.012,86.254 126.694,55.423 151.435,29.912C173.732,6.922 221.119,-5.854 276.116,23.476C323.596,48.798 340.46,37.155 345.397,31.055" style="fill:none;stroke:black;stroke-width:15.54px;"/>
                    <g transform="matrix(1.02627,0,0,1.02627,-4.91157,-3.35873)">
                        <path d="M286.494,194.279C286.718,203.889 286.232,211.512 286.494,203.246C287.695,165.438 214.024,134.095 213.319,135.999C207.034,152.976 206.015,161.855 192.154,168.198C178.293,174.541 160.674,165.614 141.88,167.493C123.085,169.373 102.986,182.866 91.475,166.656C79.963,150.446 102.626,131.135 111.083,123.617C119.541,116.1 169.395,74.722 185.135,64.62C200.875,54.518 244.816,53.315 257.032,53.785C242.467,65.766 227.02,86.44 228.195,92.548C252.862,111.342 285.154,136.665 286.494,194.279Z" style="fill:rgb(255,242,196);"/>
                    </g>
                    <g transform="matrix(1,0,0,1,-3.72353,-2.06926)">
                        <path d="M215.73,138.103C215.73,138.103 293.572,158.294 297.426,241.541" style="fill:none;stroke:black;stroke-width:15.54px;"/>
                    </g>
                    <g transform="matrix(1.46274,0,0,1.46274,-74.9376,-61.6344)">
                        <path d="M149.916,123.249C147.053,120.687 161.405,109.041 163.458,107.809C165.511,106.577 167.862,117.671 163.62,121.639C159.377,125.608 154.057,126.955 149.916,123.249Z" style="fill:rgb(34,34,34);"/>
                        <g>
                            <clipPath id="_clip5">
                                <path d="M149.916,123.249C147.053,120.687 161.405,109.041 163.458,107.809C165.511,106.577 167.862,117.671 163.62,121.639C159.377,125.608 154.057,126.955 149.916,123.249Z"/>
                            </clipPath>
                            <g clip-path="url(#_clip5)">
                                <g transform="matrix(0.775066,0,0,0.860752,33.7392,14.9878)">
                                    <path d="M149.916,123.249C147.053,120.687 161.405,109.041 163.458,107.809C165.511,106.577 167.862,117.671 163.62,121.639C159.377,125.608 154.057,126.955 149.916,123.249Z"/>
                                </g>
                            </g>
                        </g>
                    </g>
                    <g transform="matrix(0.495622,0,0,0.557891,72.3718,42.8113)">
                        <path d="M149.916,123.249C147.053,120.687 161.405,109.041 163.458,107.809C165.511,106.577 167.862,117.671 163.62,121.639C159.377,125.608 154.057,126.955 149.916,123.249Z" style="fill:white;"/>
                    </g>
                    <g transform="matrix(1.02627,0,0,1.02627,-8.6351,-5.42799)">
                        <path d="M214.237,132.019C213.533,150.109 206.015,161.855 192.154,168.198C178.293,174.541 160.674,165.614 141.88,167.493C123.085,169.373 102.986,182.866 91.475,166.656C79.963,150.446 102.626,131.135 111.083,123.617C119.541,116.1 169.395,74.722 185.135,64.62C200.875,54.518 244.816,53.315 257.032,53.785C242.467,65.766 227.02,86.44 228.195,92.548C252.862,111.342 295.946,154.155 294.565,238.631" style="fill:none;stroke:black;stroke-width:15.15px;"/>
                    </g>
                    <g transform="matrix(-1.67131,0.122499,-0.118153,-1.61202,294.257,376.865)">
                        <path d="M100.798,151.455C101.852,150.1 102.594,148.03 104.652,146.876C106.71,145.721 106.854,147.231 105.868,148.588C104.881,149.945 99.744,152.811 100.798,151.455Z" style="fill:rgb(34,34,34);"/>
                    </g>
                </g>
            </g>
            <g transform="matrix(0.995172,0,0,0.995172,-677.503,-546.219)">
                <path d="M866.79,818.212L866.79,827.301L862.374,830.023L840.291,887.334L826.118,887.334L803.933,830.331L799.517,827.609L799.517,818.212L828.942,818.212L828.942,827.609L824.629,830.228L835.875,865.149L846.916,830.023L842.705,827.301L842.705,818.212L866.79,818.212ZM869.409,827.404L869.409,818.212L898.013,818.212L898.013,827.404L892.929,830.023L892.929,875.574L897.91,878.193L897.91,887.334L869.306,887.334L869.306,878.193L874.339,875.574L874.339,830.023L869.409,827.404ZM905.254,827.404L905.254,818.212L933.858,818.212L933.858,827.404L928.774,830.023L928.774,875.574L933.755,878.193L933.755,887.334L905.151,887.334L905.151,878.193L910.184,875.574L910.184,830.023L905.254,827.404Z" style="fill:rgb(246,24,58);"/>
                <clipPath id="_clip6">
                    <path d="M866.79,818.212L866.79,827.301L862.374,830.023L840.291,887.334L826.118,887.334L803.933,830.331L799.517,827.609L799.517,818.212L828.942,818.212L828.942,827.609L824.629,830.228L835.875,865.149L846.916,830.023L842.705,827.301L842.705,818.212L866.79,818.212ZM869.409,827.404L869.409,818.212L898.013,818.212L898.013,827.404L892.929,830.023L892.929,875.574L897.91,878.193L897.91,887.334L869.306,887.334L869.306,878.193L874.339,875.574L874.339,830.023L869.409,827.404ZM905.254,827.404L905.254,818.212L933.858,818.212L933.858,827.404L928.774,830.023L928.774,875.574L933.755,878.193L933.755,887.334L905.151,887.334L905.151,878.193L910.184,875.574L910.184,830.023L905.254,827.404Z"/>
                </clipPath>
                <g clip-path="url(#_clip6)">
                    <g transform="matrix(0.566487,-0.218029,0.21988,0.685647,-223.846,127.157)">
                        <rect x="1144.63" y="1458.83" width="353.019" height="58.23" style="fill:rgb(208,19,49);"/>
                    </g>
                </g>
                <path d="M835.824,807.185C837.819,805.937 840.178,805.215 842.705,805.215L866.79,805.215C867.232,805.215 867.669,805.238 868.099,805.281C868.53,805.238 868.967,805.215 869.409,805.215L898.013,805.215C899.269,805.215 900.484,805.394 901.633,805.726C902.783,805.394 903.997,805.215 905.254,805.215L933.858,805.215C941.035,805.215 946.854,811.034 946.854,818.212L946.854,827.404C946.854,831.486 944.941,835.282 941.77,837.714L941.77,867.962C944.881,870.398 946.751,874.156 946.751,878.193L946.751,887.334C946.751,894.511 940.933,900.33 933.755,900.33L905.151,900.33C903.895,900.33 902.68,900.151 901.531,899.819C900.381,900.151 899.167,900.33 897.91,900.33L869.306,900.33C862.129,900.33 856.31,894.511 856.31,887.334L856.31,881.906L852.419,892.006C850.486,897.021 845.666,900.33 840.291,900.33L826.118,900.33C820.759,900.33 815.95,897.041 814.007,892.047L793.403,839.107L792.698,838.673C788.859,836.307 786.521,832.119 786.521,827.609L786.521,818.212C786.521,811.034 792.339,805.215 799.517,805.215L828.942,805.215C831.469,805.215 833.828,805.937 835.824,807.185ZM866.79,818.212L842.705,818.212L842.705,827.301L846.916,830.023L835.875,865.149L824.629,830.228L828.942,827.609L828.942,818.212L799.517,818.212L799.517,827.609L803.933,830.331L826.118,887.334L840.291,887.334L862.374,830.023L866.79,827.301L866.79,818.212ZM869.409,827.404L874.339,830.023L874.339,875.574L869.306,878.193L869.306,887.334L897.91,887.334L897.91,878.193L892.929,875.574L892.929,830.023L898.013,827.404L898.013,818.212L869.409,818.212L869.409,827.404ZM905.254,827.404L910.184,830.023L910.184,875.574L905.151,878.193L905.151,887.334L933.755,887.334L933.755,878.193L928.774,875.574L928.774,830.023L933.858,827.404L933.858,818.212L905.254,818.212L905.254,827.404Z"/>
            </g>
            <g transform="matrix(1,0,0,1,-740,-1100)">
                <rect x="912.332" y="1430.29" width="4.902" height="3.585"/>
            </g>
        </g>
    </g>
</svg>
