<?xml version="1.0" encoding="UTF-8" standalone="no"?>
<!DOCTYPE svg PUBLIC "-//W3C//DTD SVG 1.1//EN" "http://www.w3.org/Graphics/SVG/1.1/DTD/svg11.dtd">
<svg width="100%" height="100%" viewBox="0 0 370 370" version="1.1" xmlns="http://www.w3.org/2000/svg" xmlns:xlink="http://www.w3.org/1999/xlink" xml:space="preserve" xmlns:serif="http://www.serif.com/" style="fill-rule:evenodd;clip-rule:evenodd;stroke-linecap:round;stroke-linejoin:round;stroke-miterlimit:1.5;">
    <g transform="matrix(1,0,0,1,-1850,-1100)">
        <g id="Artboard1" transform="matrix(1,0,0,1,1850,1100)">
            <rect x="0" y="0" width="370" height="370" style="fill:none;"/>
            <g id="Quickball" transform="matrix(1,0,0,1,-65,-50.457)">
                <g transform="matrix(2.64055,0,0,1.76388,-33.0138,42.8944)">
                    <path d="M107.76,65.74C115.171,65.74 170.03,87.561 173.736,93.98C177.441,100.398 168.181,175.537 164.475,181.955C160.769,188.374 115.27,206.286 107.859,206.286C100.448,206.286 55.689,188.374 51.983,181.955C48.277,175.537 36.786,100.398 40.491,93.98C44.197,87.561 100.349,65.74 107.76,65.74Z" style="fill:rgb(28,31,45);stroke:rgb(28,31,45);stroke-width:5.56px;"/>
                </g>
                <g transform="matrix(2.48802,0,0,2.32444,-17.6664,-88.9852)">
                    <path d="M107.582,65.883C114.993,65.883 167.253,92.908 170.958,99.326C174.664,105.744 168.181,175.537 164.475,181.955C160.769,188.374 114.993,206.43 107.582,206.43C100.171,206.43 55.689,188.374 51.983,181.955C48.277,175.537 40.357,105.744 44.063,99.326C47.768,92.908 100.171,65.883 107.582,65.883Z" style="fill:rgb(27,137,211);stroke:black;stroke-width:5.18px;"/>
                </g>
                <g transform="matrix(2.1821,0,0,2.01824,15.2453,-47.1554)">
                    <path d="M107.582,65.815C114.993,65.815 167.253,92.908 170.958,99.326C174.664,105.744 168.181,175.537 164.475,181.955C160.769,188.374 114.993,206.361 107.582,206.361C100.171,206.361 55.689,188.374 51.983,181.955C48.277,175.537 40.357,105.744 44.063,99.326C47.768,92.908 100.171,65.815 107.582,65.815Z" style="fill:rgb(27,137,211);stroke:white;stroke-width:5.94px;"/>
                </g>
                <g transform="matrix(1.90708,0,0,1.76388,44.832,-12.4074)">
                    <path d="M107.582,65.74C114.993,65.74 167.253,92.908 170.958,99.326C174.664,105.744 168.181,175.537 164.475,181.955C160.769,188.374 114.993,206.286 107.582,206.286C100.171,206.286 55.689,188.374 51.983,181.955C48.277,175.537 40.357,105.744 44.063,99.326C47.768,92.908 100.171,65.74 107.582,65.74Z" style="fill:rgb(80,81,96);"/>
                    <clipPath id="_clip1">
                        <path d="M107.582,65.74C114.993,65.74 167.253,92.908 170.958,99.326C174.664,105.744 168.181,175.537 164.475,181.955C160.769,188.374 114.993,206.286 107.582,206.286C100.171,206.286 55.689,188.374 51.983,181.955C48.277,175.537 40.357,105.744 44.063,99.326C47.768,92.908 100.171,65.74 107.582,65.74Z"/>
                    </clipPath>
                    <g clip-path="url(#_clip1)">
                        <g transform="matrix(0.549433,0,0,0.594042,-3.40351,26.1439)">
                            <rect x="202" y="38.686" width="162.768" height="324.407" style="fill:rgb(58,60,73);"/>
                        </g>
                    </g>
                </g>
                <g transform="matrix(1.63385,0,0,1.40629,74.2273,36.4415)">
                    <path d="M107.582,65.588C114.993,65.588 165.329,92.908 169.034,99.326C172.74,105.744 166.257,175.537 162.551,181.955C158.845,188.374 114.993,206.135 107.582,206.135C100.171,206.135 56.33,188.374 52.624,181.955C48.919,175.537 40.998,105.744 44.704,99.326C48.41,92.908 100.171,65.588 107.582,65.588Z" style="fill:rgb(59,58,73);stroke:rgb(245,186,28);stroke-width:8.19px;"/>
                </g>
                <g transform="matrix(0.806356,0,0,0.806356,97.0039,71.9786)">
                    <path d="M143.032,119.02C126.012,86.254 126.694,55.423 151.435,29.912C173.732,6.922 221.119,-5.854 276.116,23.476C323.596,48.798 340.46,37.155 345.397,31.055C351.53,39.356 359.411,92.891 323.771,102.099C283.488,112.507 290.748,154.7 303.486,155.736C311.958,156.425 320.789,151.611 324.224,146.275C326.5,159.028 339.381,211.405 254.137,240.845C156.258,250.927 192.234,182.765 192.234,182.765L154.325,139.487C154.325,139.487 160.053,151.787 143.032,119.02Z" style="fill:rgb(245,137,28);"/>
                    <g>
                        <clipPath id="_clip2">
                            <path d="M143.032,119.02C126.012,86.254 126.694,55.423 151.435,29.912C173.732,6.922 221.119,-5.854 276.116,23.476C323.596,48.798 340.46,37.155 345.397,31.055C351.53,39.356 359.411,92.891 323.771,102.099C283.488,112.507 290.748,154.7 303.486,155.736C311.958,156.425 320.789,151.611 324.224,146.275C326.5,159.028 339.381,211.405 254.137,240.845C156.258,250.927 192.234,182.765 192.234,182.765L154.325,139.487C154.325,139.487 160.053,151.787 143.032,119.02Z"/>
                        </clipPath>
                        <g clip-path="url(#_clip2)">
                            <path d="M143.032,141.696C143.032,141.696 165.209,117.228 167.498,114.819C169.787,112.41 171.636,67.545 187.537,48.987C192.844,42.792 208.192,35.531 231.249,35.531C268.935,35.531 282.867,59.62 315.734,55.147C348.601,50.673 343.095,27.616 343.095,17.636C343.095,7.656 276.597,-16.07 276.597,-16.07C276.597,-16.07 161.494,-34.554 146.791,-28.673C132.088,-22.792 96.801,-9.769 94.7,-5.568C92.6,-1.367 91.34,42.322 90.5,57.865C89.659,73.408 103.113,110.795 102.688,116.677C102.262,122.558 143.032,141.696 143.032,141.696Z" style="fill:rgb(245,186,28);"/>
                        </g>
                    </g>
                    <path d="M143.032,119.02C126.012,86.254 126.694,55.423 151.435,29.912C173.732,6.922 221.119,-5.854 276.116,23.476C323.596,48.798 340.46,37.155 345.397,31.055C351.53,39.356 359.411,92.891 323.771,102.099C283.488,112.507 290.748,154.7 303.486,155.736C311.958,156.425 320.789,151.611 324.224,146.275C326.5,159.028 339.381,211.405 254.137,240.845C156.258,250.927 192.234,182.765 192.234,182.765L154.325,139.487C154.325,139.487 160.053,151.787 143.032,119.02Z" style="fill:none;stroke:black;stroke-width:15.54px;"/>
                </g>
                <g transform="matrix(1.12538,0,0,1.12538,21.1638,16.8525)">
                    <circle cx="203.341" cy="220.316" r="74.554" style="fill:rgb(27,137,211);"/>
                    <clipPath id="_clip3">
                        <circle cx="203.341" cy="220.316" r="74.554"/>
                    </clipPath>
                    <g clip-path="url(#_clip3)">
                        <g transform="matrix(0.894889,0,0,0.65896,22.5732,101.958)">
                            <circle cx="202" cy="223.8" r="77.077" style="fill:rgb(27,137,211);"/>
                        </g>
                        <g transform="matrix(0.901412,0.901412,-0.901412,0.901412,217.946,-163.165)">
                            <rect x="165.721" y="181.924" width="58.461" height="58.461" style="fill:rgb(254,226,37);"/>
                        </g>
                        <g transform="matrix(2.25049,2.25049,-0.383309,0.383309,-154.458,-316.77)">
                            <rect x="165.721" y="181.924" width="58.461" height="58.461" style="fill:rgb(254,226,37);"/>
                        </g>
                        <g transform="matrix(-2.25049,2.25049,-0.383309,-0.383309,723.015,-154.895)">
                            <rect x="165.721" y="181.924" width="58.461" height="58.461" style="fill:rgb(254,226,37);"/>
                        </g>
                        <g transform="matrix(0.888587,0,0,0.888587,-18.8059,-14.9749)">
                            <path d="M216.337,254.594C209.983,257.1 204.218,260.304 199.235,264.08C200.672,287.827 222.868,306.716 250,306.716C277.132,306.716 299.328,287.827 300.765,264.08C295.782,260.304 290.017,257.1 283.663,254.594L283.663,254.624C283.663,273.365 268.579,288.58 250,288.58C231.421,288.58 216.337,273.365 216.337,254.624L216.337,254.594Z" style="fill:rgb(216,203,216);"/>
                        </g>
                        <g transform="matrix(0.888587,0,0,0.888587,-18.8059,-14.9749)">
                            <path d="M199.161,245.197L199.161,159.784L300.839,159.784L300.839,245.197C295.555,242.205 289.799,239.66 283.663,237.646L283.663,177.921L216.337,177.921L216.337,237.646C210.201,239.66 204.445,242.205 199.161,245.197Z" style="fill:rgb(216,203,216);"/>
                        </g>
                        <g transform="matrix(0.894889,0,0,0.65896,22.5732,101.958)">
                            <path d="M168.574,143.008L168.574,165.861C178.519,160.532 189.914,157.538 202,157.538C214.086,157.538 225.481,160.532 235.426,165.861L235.426,143.008C225.201,138.451 213.913,135.909 202,135.909C190.087,135.909 178.799,138.451 168.574,143.008Z" style="fill:rgb(11,40,66);"/>
                        </g>
                        <g transform="matrix(0.894889,0,0,0.65896,22.5732,101.958)">
                            <path d="M252.481,153.191L252.481,175.35C252.481,176.458 252.456,177.56 252.408,178.654C247.46,173.562 241.735,169.242 235.426,165.861L235.426,143.008C241.519,145.724 247.234,149.155 252.481,153.191Z" style="fill:rgb(11,40,66);"/>
                        </g>
                        <g transform="matrix(0.894889,0,0,0.65896,22.5732,101.958)">
                            <path d="M252.481,153.191C273.536,169.386 287.04,195.317 287.04,223.8C287.04,271.294 249.494,311.692 202,311.692C154.506,311.692 116.96,271.294 116.96,223.8C116.96,195.317 130.464,169.386 151.519,153.191L151.519,175.35C151.519,176.458 151.544,177.56 151.592,178.654C149.383,180.928 147.328,183.356 145.446,185.923C137.643,196.565 132.887,209.605 132.887,223.8C132.887,237.996 137.643,251.035 145.446,261.678C158.186,279.053 178.823,290.062 202,290.062C225.177,290.062 245.814,279.053 258.554,261.678C266.357,251.035 271.113,237.996 271.113,223.8C271.113,209.605 266.357,196.565 258.554,185.923C256.672,183.356 254.617,180.928 252.408,178.654C252.456,177.56 252.481,176.458 252.481,175.35L252.481,153.191Z" style="fill:rgb(11,40,66);"/>
                        </g>
                        <g transform="matrix(0.894889,0,0,0.65896,22.5732,101.958)">
                            <path d="M151.592,178.654C151.544,177.56 151.519,176.458 151.519,175.35L151.519,153.191C156.766,149.155 162.481,145.724 168.574,143.008L168.574,165.861C162.265,169.242 156.54,173.562 151.592,178.654Z" style="fill:rgb(11,40,66);"/>
                        </g>
                        <g transform="matrix(0.947267,0,0,0.947267,11.4289,27.1795)">
                            <circle cx="202.595" cy="183.368" r="18.084" style="fill:white;stroke:rgb(11,40,66);stroke-width:11.76px;"/>
                        </g>
                    </g>
                    <circle cx="203.341" cy="220.316" r="74.554" style="fill:none;stroke:black;stroke-width:11.09px;"/>
                </g>
                <g transform="matrix(0.806356,0,0,0.806356,97.0039,71.9786)">
                    <path d="M143.032,119.02C126.012,86.254 126.694,55.423 151.435,29.912C173.732,6.922 221.119,-5.854 276.116,23.476C323.596,48.798 340.46,37.155 345.397,31.055" style="fill:rgb(245,137,28);"/>
                    <g>
                        <clipPath id="_clip4">
                            <path d="M143.032,119.02C126.012,86.254 126.694,55.423 151.435,29.912C173.732,6.922 221.119,-5.854 276.116,23.476C323.596,48.798 340.46,37.155 345.397,31.055"/>
                        </clipPath>
                        <g clip-path="url(#_clip4)">
                            <path d="M143.032,141.696C143.032,141.696 165.209,117.228 167.498,114.819C169.787,112.41 171.636,67.545 187.537,48.987C192.844,42.792 208.192,35.531 231.249,35.531C268.935,35.531 282.867,59.62 315.734,55.147C348.601,50.673 343.095,27.616 343.095,17.636C343.095,7.656 276.597,-16.07 276.597,-16.07C276.597,-16.07 161.494,-34.554 146.791,-28.673C132.088,-22.792 96.801,-9.769 94.7,-5.568C92.6,-1.367 91.34,42.322 90.5,57.865C89.659,73.408 103.113,110.795 102.688,116.677C102.262,122.558 143.032,141.696 143.032,141.696Z" style="fill:rgb(245,186,28);"/>
                        </g>
                    </g>
                    <path d="M143.032,119.02C126.012,86.254 126.694,55.423 151.435,29.912C173.732,6.922 221.119,-5.854 276.116,23.476C323.596,48.798 340.46,37.155 345.397,31.055" style="fill:none;stroke:black;stroke-width:15.54px;"/>
                    <g transform="matrix(1.02627,0,0,1.02627,-4.91157,-3.35873)">
                        <path d="M286.494,194.279C286.718,203.889 286.232,211.512 286.494,203.246C287.695,165.438 214.024,134.095 213.319,135.999C207.034,152.976 206.015,161.855 192.154,168.198C178.293,174.541 160.674,165.614 141.88,167.493C123.085,169.373 102.986,182.866 91.475,166.656C79.963,150.446 102.626,131.135 111.083,123.617C119.541,116.1 169.395,74.722 185.135,64.62C200.875,54.518 244.816,53.315 257.032,53.785C242.467,65.766 227.02,86.44 228.195,92.548C252.862,111.342 285.154,136.665 286.494,194.279Z" style="fill:rgb(255,242,196);"/>
                    </g>
                    <g transform="matrix(1,0,0,1,-3.72353,-2.06926)">
                        <path d="M215.73,138.103C215.73,138.103 293.572,158.294 297.426,241.541" style="fill:none;stroke:black;stroke-width:15.54px;"/>
                    </g>
                    <g transform="matrix(1.46274,0,0,1.46274,-74.9376,-61.6344)">
                        <path d="M149.916,123.249C147.053,120.687 161.405,109.041 163.458,107.809C165.511,106.577 167.862,117.671 163.62,121.639C159.377,125.608 154.057,126.955 149.916,123.249Z" style="fill:rgb(34,34,34);"/>
                        <g>
                            <clipPath id="_clip5">
                                <path d="M149.916,123.249C147.053,120.687 161.405,109.041 163.458,107.809C165.511,106.577 167.862,117.671 163.62,121.639C159.377,125.608 154.057,126.955 149.916,123.249Z"/>
                            </clipPath>
                            <g clip-path="url(#_clip5)">
                                <g transform="matrix(0.775066,0,0,0.860752,33.7392,14.9878)">
                                    <path d="M149.916,123.249C147.053,120.687 161.405,109.041 163.458,107.809C165.511,106.577 167.862,117.671 163.62,121.639C159.377,125.608 154.057,126.955 149.916,123.249Z"/>
                                </g>
                            </g>
                        </g>
                    </g>
                    <g transform="matrix(0.495622,0,0,0.557891,72.3718,42.8113)">
                        <path d="M149.916,123.249C147.053,120.687 161.405,109.041 163.458,107.809C165.511,106.577 167.862,117.671 163.62,121.639C159.377,125.608 154.057,126.955 149.916,123.249Z" style="fill:white;"/>
                    </g>
                    <g transform="matrix(1.02627,0,0,1.02627,-8.6351,-5.42799)">
                        <path d="M214.237,132.019C213.533,150.109 206.015,161.855 192.154,168.198C178.293,174.541 160.674,165.614 141.88,167.493C123.085,169.373 102.986,182.866 91.475,166.656C79.963,150.446 102.626,131.135 111.083,123.617C119.541,116.1 169.395,74.722 185.135,64.62C200.875,54.518 244.816,53.315 257.032,53.785C242.467,65.766 227.02,86.44 228.195,92.548C252.862,111.342 295.946,154.155 294.565,238.631" style="fill:none;stroke:black;stroke-width:15.15px;"/>
                    </g>
                    <g transform="matrix(-1.67131,0.122499,-0.118153,-1.61202,294.257,376.865)">
                        <path d="M100.798,151.455C101.852,150.1 102.594,148.03 104.652,146.876C106.71,145.721 106.854,147.231 105.868,148.588C104.881,149.945 99.744,152.811 100.798,151.455Z" style="fill:rgb(34,34,34);"/>
                    </g>
                </g>
            </g>
            <g transform="matrix(0.995172,0,0,0.995172,-677.503,-546.219)">
                <path d="M884.712,818.212L884.712,827.301L880.296,830.023L858.214,887.334L844.04,887.334L821.856,830.331L817.439,827.609L817.439,818.212L846.865,818.212L846.865,827.609L842.551,830.228L853.797,865.149L864.839,830.023L860.628,827.301L860.628,818.212L884.712,818.212ZM887.331,827.404L887.331,818.212L915.935,818.212L915.935,827.404L910.851,830.023L910.851,875.574L915.833,878.193L915.833,887.334L887.229,887.334L887.229,878.193L892.261,875.574L892.261,830.023L887.331,827.404Z" style="fill:rgb(27,137,211);"/>
                <clipPath id="_clip6">
                    <path d="M884.712,818.212L884.712,827.301L880.296,830.023L858.214,887.334L844.04,887.334L821.856,830.331L817.439,827.609L817.439,818.212L846.865,818.212L846.865,827.609L842.551,830.228L853.797,865.149L864.839,830.023L860.628,827.301L860.628,818.212L884.712,818.212ZM887.331,827.404L887.331,818.212L915.935,818.212L915.935,827.404L910.851,830.023L910.851,875.574L915.833,878.193L915.833,887.334L887.229,887.334L887.229,878.193L892.261,875.574L892.261,830.023L887.331,827.404Z"/>
                </clipPath>
                <g clip-path="url(#_clip6)">
                    <g transform="matrix(0.379916,0.379916,-0.379916,0.379916,857.772,736.726)">
                        <rect x="165.721" y="181.924" width="58.461" height="58.461" style="fill:rgb(254,226,37);"/>
                    </g>
                    <g transform="matrix(0.948507,0.948507,-0.161552,0.161552,700.815,671.987)">
                        <rect x="165.721" y="181.924" width="58.461" height="58.461" style="fill:rgb(254,226,37);"/>
                    </g>
                    <g transform="matrix(-0.948507,0.948507,-0.161552,-0.161552,1070.64,740.212)">
                        <rect x="165.721" y="181.924" width="58.461" height="58.461" style="fill:rgb(254,226,37);"/>
                    </g>
                    <g transform="matrix(0.379916,0.379916,-0.379916,0.379916,907.722,669.268)">
                        <path d="M224.182,181.924L224.182,240.385L187.403,241.677L165.721,218.185L165.721,181.924L224.182,181.924Z" style="fill:rgb(254,226,37);"/>
                    </g>
                    <g transform="matrix(0.948507,0.948507,-0.161552,0.161552,750.765,604.529)">
                        <rect x="165.721" y="181.924" width="58.461" height="58.461" style="fill:rgb(254,226,37);"/>
                    </g>
                    <g transform="matrix(-0.773393,0.773393,-0.161552,-0.161552,1091.57,701.774)">
                        <rect x="165.721" y="181.924" width="58.461" height="58.461" style="fill:rgb(254,226,37);"/>
                    </g>
                </g>
                <path d="M853.746,807.185C855.742,805.937 858.1,805.215 860.628,805.215L884.712,805.215C885.154,805.215 885.591,805.238 886.022,805.281C886.453,805.238 886.889,805.215 887.331,805.215L915.935,805.215C923.113,805.215 928.931,811.034 928.931,818.212L928.931,827.404C928.931,831.486 927.018,835.282 923.847,837.714L923.847,867.962C926.958,870.398 928.829,874.156 928.829,878.193L928.829,887.334C928.829,894.511 923.01,900.33 915.833,900.33L887.229,900.33C880.051,900.33 874.233,894.511 874.233,887.334L874.233,881.906L870.341,892.006C868.409,897.021 863.588,900.33 858.214,900.33L844.04,900.33C838.682,900.33 833.873,897.041 831.929,892.047L811.326,839.107L810.621,838.673C806.781,836.307 804.443,832.119 804.443,827.609L804.443,818.212C804.443,811.034 810.262,805.215 817.439,805.215L846.865,805.215C849.392,805.215 851.751,805.937 853.746,807.185ZM887.331,827.404L892.261,830.023L892.261,875.574L887.229,878.193L887.229,887.334L915.833,887.334L915.833,878.193L910.851,875.574L910.851,830.023L915.935,827.404L915.935,818.212L887.331,818.212L887.331,827.404ZM884.712,818.212L860.628,818.212L860.628,827.301L864.839,830.023L853.797,865.149L842.551,830.228L846.865,827.609L846.865,818.212L817.439,818.212L817.439,827.609L821.856,830.331L844.04,887.334L858.214,887.334L880.296,830.023L884.712,827.301L884.712,818.212Z"/>
            </g>
        </g>
    </g>
</svg>
