<?xml version="1.0" encoding="UTF-8" standalone="no"?>
<!DOCTYPE svg PUBLIC "-//W3C//DTD SVG 1.1//EN" "http://www.w3.org/Graphics/SVG/1.1/DTD/svg11.dtd">
<svg width="100%" height="100%" viewBox="0 0 370 370" version="1.1" xmlns="http://www.w3.org/2000/svg" xmlns:xlink="http://www.w3.org/1999/xlink" xml:space="preserve" xmlns:serif="http://www.serif.com/" style="fill-rule:evenodd;clip-rule:evenodd;stroke-linecap:round;stroke-linejoin:round;stroke-miterlimit:1.5;">
    <g transform="matrix(1,0,0,1,-740,-1100)">
        <g id="Artboard1" transform="matrix(1,0,0,1,740,1100)">
            <rect x="0" y="0" width="370" height="370" style="fill:none;"/>
            <g id="Pokeball" transform="matrix(1,0,0,1,-65,-50.457)">
                <g transform="matrix(2.64055,0,0,1.76388,-33.0138,42.8944)">
                    <path d="M107.76,65.74C115.171,65.74 170.03,87.561 173.736,93.98C177.441,100.398 168.181,175.537 164.475,181.955C160.769,188.374 115.27,206.286 107.859,206.286C100.448,206.286 55.689,188.374 51.983,181.955C48.277,175.537 36.786,100.398 40.491,93.98C44.197,87.561 100.349,65.74 107.76,65.74Z" style="fill:rgb(28,31,45);stroke:rgb(28,31,45);stroke-width:5.56px;"/>
                </g>
                <g transform="matrix(2.48802,0,0,2.32444,-17.6664,-88.9852)">
                    <path d="M107.582,65.883C114.993,65.883 167.253,92.908 170.958,99.326C174.664,105.744 168.181,175.537 164.475,181.955C160.769,188.374 114.993,206.43 107.582,206.43C100.171,206.43 55.689,188.374 51.983,181.955C48.277,175.537 40.357,105.744 44.063,99.326C47.768,92.908 100.171,65.883 107.582,65.883Z" style="fill:rgb(165,203,75);stroke:black;stroke-width:5.18px;"/>
                </g>
                <g transform="matrix(2.1821,0,0,2.01824,15.2453,-47.1554)">
                    <path d="M107.582,65.815C114.993,65.815 167.253,92.908 170.958,99.326C174.664,105.744 168.181,175.537 164.475,181.955C160.769,188.374 114.993,206.361 107.582,206.361C100.171,206.361 55.689,188.374 51.983,181.955C48.277,175.537 40.357,105.744 44.063,99.326C47.768,92.908 100.171,65.815 107.582,65.815Z" style="fill:rgb(165,203,75);stroke:white;stroke-width:5.94px;"/>
                </g>
                <g transform="matrix(1.90708,0,0,1.76388,44.832,-12.4074)">
                    <path d="M107.582,65.74C114.993,65.74 167.253,92.908 170.958,99.326C174.664,105.744 168.181,175.537 164.475,181.955C160.769,188.374 114.993,206.286 107.582,206.286C100.171,206.286 55.689,188.374 51.983,181.955C48.277,175.537 40.357,105.744 44.063,99.326C47.768,92.908 100.171,65.74 107.582,65.74Z" style="fill:rgb(85,96,80);"/>
                    <clipPath id="_clip1">
                        <path d="M107.582,65.74C114.993,65.74 167.253,92.908 170.958,99.326C174.664,105.744 168.181,175.537 164.475,181.955C160.769,188.374 114.993,206.286 107.582,206.286C100.171,206.286 55.689,188.374 51.983,181.955C48.277,175.537 40.357,105.744 44.063,99.326C47.768,92.908 100.171,65.74 107.582,65.74Z"/>
                    </clipPath>
                    <g clip-path="url(#_clip1)">
                        <g transform="matrix(0.549433,0,0,0.594042,-3.40351,26.1439)">
                            <rect x="202" y="38.686" width="162.768" height="324.407" style="fill:rgb(62,73,58);"/>
                        </g>
                    </g>
                </g>
                <g transform="matrix(1.63385,0,0,1.40629,74.2273,36.4415)">
                    <path d="M107.582,65.588C114.993,65.588 165.329,92.908 169.034,99.326C172.74,105.744 166.257,175.537 162.551,181.955C158.845,188.374 114.993,206.135 107.582,206.135C100.171,206.135 56.33,188.374 52.624,181.955C48.919,175.537 40.998,105.744 44.704,99.326C48.41,92.908 100.171,65.588 107.582,65.588Z" style="fill:rgb(61,73,58);stroke:rgb(245,186,28);stroke-width:8.19px;"/>
                </g>
                <g transform="matrix(0.806356,0,0,0.806356,97.0039,71.9786)">
                    <path d="M143.032,119.02C126.012,86.254 126.694,55.423 151.435,29.912C173.732,6.922 221.119,-5.854 276.116,23.476C323.596,48.798 340.46,37.155 345.397,31.055C351.53,39.356 359.411,92.891 323.771,102.099C283.488,112.507 290.748,154.7 303.486,155.736C311.958,156.425 320.789,151.611 324.224,146.275C326.5,159.028 339.381,211.405 254.137,240.845C156.258,250.927 192.234,182.765 192.234,182.765L154.325,139.487C154.325,139.487 160.053,151.787 143.032,119.02Z" style="fill:rgb(245,137,28);"/>
                    <g>
                        <clipPath id="_clip2">
                            <path d="M143.032,119.02C126.012,86.254 126.694,55.423 151.435,29.912C173.732,6.922 221.119,-5.854 276.116,23.476C323.596,48.798 340.46,37.155 345.397,31.055C351.53,39.356 359.411,92.891 323.771,102.099C283.488,112.507 290.748,154.7 303.486,155.736C311.958,156.425 320.789,151.611 324.224,146.275C326.5,159.028 339.381,211.405 254.137,240.845C156.258,250.927 192.234,182.765 192.234,182.765L154.325,139.487C154.325,139.487 160.053,151.787 143.032,119.02Z"/>
                        </clipPath>
                        <g clip-path="url(#_clip2)">
                            <path d="M143.032,141.696C143.032,141.696 165.209,117.228 167.498,114.819C169.787,112.41 171.636,67.545 187.537,48.987C192.844,42.792 208.192,35.531 231.249,35.531C268.935,35.531 282.867,59.62 315.734,55.147C348.601,50.673 343.095,27.616 343.095,17.636C343.095,7.656 276.597,-16.07 276.597,-16.07C276.597,-16.07 161.494,-34.554 146.791,-28.673C132.088,-22.792 96.801,-9.769 94.7,-5.568C92.6,-1.367 91.34,42.322 90.5,57.865C89.659,73.408 103.113,110.795 102.688,116.677C102.262,122.558 143.032,141.696 143.032,141.696Z" style="fill:rgb(245,186,28);"/>
                        </g>
                    </g>
                    <path d="M143.032,119.02C126.012,86.254 126.694,55.423 151.435,29.912C173.732,6.922 221.119,-5.854 276.116,23.476C323.596,48.798 340.46,37.155 345.397,31.055C351.53,39.356 359.411,92.891 323.771,102.099C283.488,112.507 290.748,154.7 303.486,155.736C311.958,156.425 320.789,151.611 324.224,146.275C326.5,159.028 339.381,211.405 254.137,240.845C156.258,250.927 192.234,182.765 192.234,182.765L154.325,139.487C154.325,139.487 160.053,151.787 143.032,119.02Z" style="fill:none;stroke:black;stroke-width:15.54px;"/>
                </g>
                <g transform="matrix(1.12538,0,0,1.12538,21.1638,16.8525)">
                    <circle cx="203.341" cy="220.316" r="74.554" style="fill:rgb(16,135,57);"/>
                    <clipPath id="_clip3">
                        <circle cx="203.341" cy="220.316" r="74.554"/>
                    </clipPath>
                    <g clip-path="url(#_clip3)">
                        <g transform="matrix(0.894889,0,0,0.65896,22.5732,101.958)">
                            <circle cx="202" cy="223.8" r="77.077" style="fill:white;"/>
                        </g>
                        <g transform="matrix(0.884401,-0.0861438,0.0861438,0.884401,-64.7458,-933.886)">
                            <path d="M94.989,1296.12C94.989,1296.12 117.231,1264.04 135.699,1276.93C146.168,1284.24 146.749,1291.35 190.422,1291.05" style="fill:none;stroke:rgb(165,203,75);stroke-width:15.53px;"/>
                        </g>
                        <g transform="matrix(0.884401,-0.0861438,0.0861438,0.884401,17.1857,-937.229)">
                            <path d="M94.989,1296.12C94.989,1296.12 121.067,1276.51 139.188,1278.84C158.596,1281.34 163.17,1293.98 185.634,1317.04" style="fill:none;stroke:rgb(165,203,75);stroke-width:15.53px;"/>
                        </g>
                        <g transform="matrix(0.884401,-0.0861438,0.0861438,0.884401,17.1857,-978.883)">
                            <path d="M97.755,1291.33C97.755,1291.33 117.979,1304.91 136.1,1307.24C155.507,1309.73 163.17,1293.98 185.634,1317.04" style="fill:none;stroke:rgb(165,203,75);stroke-width:15.53px;"/>
                        </g>
                        <g transform="matrix(-0.884902,0.0808375,0.305532,-0.920198,-63.4341,1334.14)">
                            <path d="M123.191,1278.01C124.771,1272.87 128.167,1269.01 136.899,1269.64C159.021,1271.27 172.341,1300.92 181.291,1294.02" style="fill:none;stroke:rgb(221,183,121);stroke-width:19.14px;"/>
                        </g>
                        <g transform="matrix(0.675559,0.57724,-0.57724,0.675559,860.634,-787.178)">
                            <path d="M87.832,1343.97C91.032,1348.74 110.289,1337.21 113.568,1324.33C115.968,1314.91 116.113,1308.36 129.922,1295.51C150.64,1276.23 157.448,1289.52 186.736,1263.15" style="fill:none;stroke:rgb(192,122,63);stroke-width:15.53px;"/>
                        </g>
                        <g transform="matrix(0.628792,-0.627858,0.50638,0.507133,-590.431,-346.379)">
                            <path d="M94.989,1296.12C94.989,1296.12 104.054,1270.5 120.165,1279.11C136.276,1287.73 153.431,1266.84 159.768,1279.94" style="fill:none;stroke:rgb(221,183,121);stroke-width:17.1px;"/>
                        </g>
                        <g transform="matrix(0.675559,0.57724,-0.465555,0.544852,771.46,-558.652)">
                            <path d="M108.616,1290.92C108.616,1290.92 113.654,1266.71 123.631,1273.18C139.181,1283.26 145.509,1280.08 154.46,1273.18" style="fill:none;stroke:rgb(192,122,63);stroke-width:17.1px;"/>
                        </g>
                        <g transform="matrix(0.888587,0,0,0.888587,38.9523,29.8605)">
                            <path d="M134.161,204.493L134.161,109.327L235.839,109.327L235.839,200.837C230.124,200.558 224.364,200.554 218.663,199.983L218.663,127.464L151.337,127.464L151.337,199.808C145.501,200.976 139.737,202.467 134.161,204.493Z" style="fill:rgb(12,81,36);"/>
                        </g>
                        <g transform="matrix(0.888587,0,0,0.888587,38.9523,29.8605)">
                            <path d="M235.839,200.837L235.839,211.173C235.839,236.057 213.059,256.259 185,256.259C156.941,256.259 134.161,236.057 134.161,211.173L134.161,204.493C139.737,202.467 145.501,200.976 151.337,199.808L151.337,204.167C151.337,222.908 166.421,238.123 185,238.123C203.579,238.123 218.663,222.908 218.663,204.167L218.663,199.983C224.364,200.554 230.124,200.558 235.839,200.837Z" style="fill:rgb(204,216,203);"/>
                        </g>
                        <g transform="matrix(0.894889,0,0,0.65896,22.5732,101.958)">
                            <path d="M202,135.909C249.494,135.909 287.04,176.306 287.04,223.8C287.04,271.294 249.494,311.692 202,311.692C154.506,311.692 116.96,271.294 116.96,223.8C116.96,176.306 154.506,135.909 202,135.909ZM202,157.538C178.823,157.538 158.186,168.547 145.446,185.923C137.643,196.565 132.887,209.605 132.887,223.8C132.887,237.996 137.643,251.035 145.446,261.678C158.186,279.053 178.823,290.062 202,290.062C225.177,290.062 245.814,279.053 258.554,261.678C266.357,251.035 271.113,237.996 271.113,223.8C271.113,209.605 266.357,196.565 258.554,185.923C245.814,168.547 225.177,157.538 202,157.538Z"/>
                        </g>
                        <g transform="matrix(0.947267,0,0,0.947267,11.4289,27.1795)">
                            <circle cx="202.595" cy="183.368" r="18.084" style="fill:white;stroke:black;stroke-width:11.76px;"/>
                        </g>
                    </g>
                    <circle cx="203.341" cy="220.316" r="74.554" style="fill:none;stroke:black;stroke-width:11.09px;"/>
                </g>
                <g transform="matrix(0.806356,0,0,0.806356,97.0039,71.9786)">
                    <path d="M143.032,119.02C126.012,86.254 126.694,55.423 151.435,29.912C173.732,6.922 221.119,-5.854 276.116,23.476C323.596,48.798 340.46,37.155 345.397,31.055" style="fill:rgb(245,137,28);"/>
                    <g>
                        <clipPath id="_clip4">
                            <path d="M143.032,119.02C126.012,86.254 126.694,55.423 151.435,29.912C173.732,6.922 221.119,-5.854 276.116,23.476C323.596,48.798 340.46,37.155 345.397,31.055"/>
                        </clipPath>
                        <g clip-path="url(#_clip4)">
                            <path d="M143.032,141.696C143.032,141.696 165.209,117.228 167.498,114.819C169.787,112.41 171.636,67.545 187.537,48.987C192.844,42.792 208.192,35.531 231.249,35.531C268.935,35.531 282.867,59.62 315.734,55.147C348.601,50.673 343.095,27.616 343.095,17.636C343.095,7.656 276.597,-16.07 276.597,-16.07C276.597,-16.07 161.494,-34.554 146.791,-28.673C132.088,-22.792 96.801,-9.769 94.7,-5.568C92.6,-1.367 91.34,42.322 90.5,57.865C89.659,73.408 103.113,110.795 102.688,116.677C102.262,122.558 143.032,141.696 143.032,141.696Z" style="fill:rgb(245,186,28);"/>
                        </g>
                    </g>
                    <path d="M143.032,119.02C126.012,86.254 126.694,55.423 151.435,29.912C173.732,6.922 221.119,-5.854 276.116,23.476C323.596,48.798 340.46,37.155 345.397,31.055" style="fill:none;stroke:black;stroke-width:15.54px;"/>
                    <g transform="matrix(1.02627,0,0,1.02627,-4.91157,-3.35873)">
                        <path d="M286.494,194.279C286.718,203.889 286.232,211.512 286.494,203.246C287.695,165.438 214.024,134.095 213.319,135.999C207.034,152.976 206.015,161.855 192.154,168.198C178.293,174.541 160.674,165.614 141.88,167.493C123.085,169.373 102.986,182.866 91.475,166.656C79.963,150.446 102.626,131.135 111.083,123.617C119.541,116.1 169.395,74.722 185.135,64.62C200.875,54.518 244.816,53.315 257.032,53.785C242.467,65.766 227.02,86.44 228.195,92.548C252.862,111.342 285.154,136.665 286.494,194.279Z" style="fill:rgb(255,242,196);"/>
                    </g>
                    <g transform="matrix(1,0,0,1,-3.72353,-2.06926)">
                        <path d="M215.73,138.103C215.73,138.103 293.572,158.294 297.426,241.541" style="fill:none;stroke:black;stroke-width:15.54px;"/>
                    </g>
                    <g transform="matrix(1.46274,0,0,1.46274,-74.9376,-61.6344)">
                        <path d="M149.916,123.249C147.053,120.687 161.405,109.041 163.458,107.809C165.511,106.577 167.862,117.671 163.62,121.639C159.377,125.608 154.057,126.955 149.916,123.249Z" style="fill:rgb(34,34,34);"/>
                        <g>
                            <clipPath id="_clip5">
                                <path d="M149.916,123.249C147.053,120.687 161.405,109.041 163.458,107.809C165.511,106.577 167.862,117.671 163.62,121.639C159.377,125.608 154.057,126.955 149.916,123.249Z"/>
                            </clipPath>
                            <g clip-path="url(#_clip5)">
                                <g transform="matrix(0.775066,0,0,0.860752,33.7392,14.9878)">
                                    <path d="M149.916,123.249C147.053,120.687 161.405,109.041 163.458,107.809C165.511,106.577 167.862,117.671 163.62,121.639C159.377,125.608 154.057,126.955 149.916,123.249Z"/>
                                </g>
                            </g>
                        </g>
                    </g>
                    <g transform="matrix(0.495622,0,0,0.557891,72.3718,42.8113)">
                        <path d="M149.916,123.249C147.053,120.687 161.405,109.041 163.458,107.809C165.511,106.577 167.862,117.671 163.62,121.639C159.377,125.608 154.057,126.955 149.916,123.249Z" style="fill:white;"/>
                    </g>
                    <g transform="matrix(1.02627,0,0,1.02627,-8.6351,-5.42799)">
                        <path d="M214.237,132.019C213.533,150.109 206.015,161.855 192.154,168.198C178.293,174.541 160.674,165.614 141.88,167.493C123.085,169.373 102.986,182.866 91.475,166.656C79.963,150.446 102.626,131.135 111.083,123.617C119.541,116.1 169.395,74.722 185.135,64.62C200.875,54.518 244.816,53.315 257.032,53.785C242.467,65.766 227.02,86.44 228.195,92.548C252.862,111.342 295.946,154.155 294.565,238.631" style="fill:none;stroke:black;stroke-width:15.15px;"/>
                    </g>
                    <g transform="matrix(-1.67131,0.122499,-0.118153,-1.61202,294.257,376.865)">
                        <path d="M100.798,151.455C101.852,150.1 102.594,148.03 104.652,146.876C106.71,145.721 106.854,147.231 105.868,148.588C104.881,149.945 99.744,152.811 100.798,151.455Z" style="fill:rgb(34,34,34);"/>
                    </g>
                </g>
            </g>
            <g transform="matrix(0.995172,0,0,0.995172,-679.803,-548.519)">
                <path d="M818.903,827.404L818.903,818.212L847.507,818.212L847.507,827.404L842.423,830.023L842.423,875.574L847.404,878.193L847.404,887.334L818.8,887.334L818.8,878.193L823.833,875.574L823.833,830.023L818.903,827.404ZM854.748,827.404L854.748,818.212L883.351,818.212L883.351,827.404L878.267,830.023L878.267,875.574L883.249,878.193L883.249,887.334L854.645,887.334L854.645,878.193L859.677,875.574L859.677,830.023L854.748,827.404ZM890.592,827.404L890.592,818.212L919.196,818.212L919.196,827.404L914.112,830.023L914.112,875.574L919.094,878.193L919.094,887.334L890.49,887.334L890.49,878.193L895.522,875.574L895.522,830.023L890.592,827.404Z" style="fill:rgb(16,135,57);"/>
                <clipPath id="_clip6">
                    <path d="M818.903,827.404L818.903,818.212L847.507,818.212L847.507,827.404L842.423,830.023L842.423,875.574L847.404,878.193L847.404,887.334L818.8,887.334L818.8,878.193L823.833,875.574L823.833,830.023L818.903,827.404ZM854.748,827.404L854.748,818.212L883.351,818.212L883.351,827.404L878.267,830.023L878.267,875.574L883.249,878.193L883.249,887.334L854.645,887.334L854.645,878.193L859.677,875.574L859.677,830.023L854.748,827.404ZM890.592,827.404L890.592,818.212L919.196,818.212L919.196,827.404L914.112,830.023L914.112,875.574L919.094,878.193L919.094,887.334L890.49,887.334L890.49,878.193L895.522,875.574L895.522,830.023L890.592,827.404Z"/>
                </clipPath>
                <g clip-path="url(#_clip6)">
                    <g transform="matrix(1.32467,0.707994,-0.707994,1.32467,1598.59,-931.302)">
                        <path d="M94.989,1296.12C94.989,1296.12 113.847,1265.18 132.315,1278.08C142.784,1285.38 157.173,1298.29 190.422,1291.05" style="fill:none;stroke:rgb(165,203,75);stroke-width:10.39px;"/>
                    </g>
                    <g transform="matrix(1.2517,0.830207,-0.830207,1.2517,1780.7,-881.371)">
                        <path d="M89.526,1302C89.526,1302 111.459,1260.88 138.836,1279.31C149.428,1286.44 186.215,1290.69 210.461,1278.76" style="fill:none;stroke:rgb(165,203,75);stroke-width:10.39px;"/>
                    </g>
                    <g transform="matrix(1.32467,0.707994,-0.707994,1.32467,1577.91,-908.54)">
                        <path d="M103.393,1308.19C103.393,1308.19 118.874,1265.9 137.342,1278.79C147.811,1286.1 146.749,1291.35 190.422,1291.05" style="fill:none;stroke:rgb(165,203,75);stroke-width:10.39px;"/>
                    </g>
                </g>
                <path d="M810.837,867.922L810.837,837.594C807.756,835.156 805.907,831.417 805.907,827.404L805.907,818.212C805.907,811.034 811.725,805.215 818.903,805.215L847.507,805.215C848.763,805.215 849.978,805.394 851.127,805.726C852.276,805.394 853.491,805.215 854.748,805.215L883.351,805.215C884.608,805.215 885.823,805.394 886.972,805.726C888.121,805.394 889.336,805.215 890.592,805.215L919.196,805.215C926.374,805.215 932.192,811.034 932.192,818.212L932.192,827.404C932.192,831.486 930.279,835.282 927.108,837.714L927.108,867.962C930.219,870.398 932.09,874.156 932.09,878.193L932.09,887.334C932.09,894.511 926.271,900.33 919.094,900.33L890.49,900.33C889.233,900.33 888.018,900.151 886.869,899.819C885.72,900.151 884.505,900.33 883.249,900.33L854.645,900.33C853.388,900.33 852.174,900.151 851.024,899.819C849.875,900.151 848.66,900.33 847.404,900.33L818.8,900.33C811.622,900.33 805.804,894.511 805.804,887.334L805.804,878.193C805.804,874.133 807.696,870.356 810.837,867.922ZM818.903,827.404L823.833,830.023L823.833,875.574L818.8,878.193L818.8,887.334L847.404,887.334L847.404,878.193L842.423,875.574L842.423,830.023L847.507,827.404L847.507,818.212L818.903,818.212L818.903,827.404ZM854.748,827.404L859.677,830.023L859.677,875.574L854.645,878.193L854.645,887.334L883.249,887.334L883.249,878.193L878.267,875.574L878.267,830.023L883.351,827.404L883.351,818.212L854.748,818.212L854.748,827.404ZM890.592,827.404L895.522,830.023L895.522,875.574L890.49,878.193L890.49,887.334L919.094,887.334L919.094,878.193L914.112,875.574L914.112,830.023L919.196,827.404L919.196,818.212L890.592,818.212L890.592,827.404Z"/>
            </g>
        </g>
    </g>
</svg>
