<?xml version="1.0" encoding="UTF-8" standalone="no"?>
<!DOCTYPE svg PUBLIC "-//W3C//DTD SVG 1.1//EN" "http://www.w3.org/Graphics/SVG/1.1/DTD/svg11.dtd">
<svg width="100%" height="100%" viewBox="0 0 370 370" version="1.1" xmlns="http://www.w3.org/2000/svg" xmlns:xlink="http://www.w3.org/1999/xlink" xml:space="preserve" xmlns:serif="http://www.serif.com/" style="fill-rule:evenodd;clip-rule:evenodd;stroke-linecap:round;stroke-linejoin:round;stroke-miterlimit:1.5;">
    <g transform="matrix(1,0,0,1,-2590,-1100)">
        <g id="Artboard1" transform="matrix(1,0,0,1,2590,1100)">
            <rect x="0" y="0" width="370" height="370" style="fill:none;"/>
            <g id="Superball" transform="matrix(1,0,0,1,-65,-50.457)">
                <g transform="matrix(2.64055,0,0,1.76388,-33.0138,42.8944)">
                    <path d="M107.76,65.74C115.171,65.74 170.03,87.561 173.736,93.98C177.441,100.398 168.181,175.537 164.475,181.955C160.769,188.374 115.27,206.286 107.859,206.286C100.448,206.286 55.689,188.374 51.983,181.955C48.277,175.537 36.786,100.398 40.491,93.98C44.197,87.561 100.349,65.74 107.76,65.74Z" style="fill:rgb(28,31,45);stroke:rgb(28,31,45);stroke-width:5.56px;"/>
                </g>
                <g transform="matrix(2.48802,0,0,2.32444,-17.6664,-88.9852)">
                    <path d="M107.582,65.883C114.993,65.883 167.253,92.908 170.958,99.326C174.664,105.744 168.181,175.537 164.475,181.955C160.769,188.374 114.993,206.43 107.582,206.43C100.171,206.43 55.689,188.374 51.983,181.955C48.277,175.537 40.357,105.744 44.063,99.326C47.768,92.908 100.171,65.883 107.582,65.883Z" style="fill:rgb(0,134,255);stroke:black;stroke-width:5.18px;"/>
                </g>
                <g transform="matrix(2.1821,0,0,2.01824,15.2453,-47.1554)">
                    <path d="M107.582,65.815C114.993,65.815 167.253,92.908 170.958,99.326C174.664,105.744 168.181,175.537 164.475,181.955C160.769,188.374 114.993,206.361 107.582,206.361C100.171,206.361 55.689,188.374 51.983,181.955C48.277,175.537 40.357,105.744 44.063,99.326C47.768,92.908 100.171,65.815 107.582,65.815Z" style="fill:rgb(0,134,255);stroke:white;stroke-width:5.94px;"/>
                </g>
                <g transform="matrix(1.90708,0,0,1.76388,44.832,-12.4074)">
                    <path d="M107.582,65.74C114.993,65.74 167.253,92.908 170.958,99.326C174.664,105.744 168.181,175.537 164.475,181.955C160.769,188.374 114.993,206.286 107.582,206.286C100.171,206.286 55.689,188.374 51.983,181.955C48.277,175.537 40.357,105.744 44.063,99.326C47.768,92.908 100.171,65.74 107.582,65.74Z" style="fill:rgb(80,81,96);"/>
                    <clipPath id="_clip1">
                        <path d="M107.582,65.74C114.993,65.74 167.253,92.908 170.958,99.326C174.664,105.744 168.181,175.537 164.475,181.955C160.769,188.374 114.993,206.286 107.582,206.286C100.171,206.286 55.689,188.374 51.983,181.955C48.277,175.537 40.357,105.744 44.063,99.326C47.768,92.908 100.171,65.74 107.582,65.74Z"/>
                    </clipPath>
                    <g clip-path="url(#_clip1)">
                        <g transform="matrix(0.549433,0,0,0.594042,-3.40351,26.1439)">
                            <rect x="202" y="38.686" width="162.768" height="324.407" style="fill:rgb(58,60,73);"/>
                        </g>
                    </g>
                </g>
                <g transform="matrix(1.63385,0,0,1.40629,74.2273,36.4415)">
                    <path d="M107.582,65.588C114.993,65.588 165.329,92.908 169.034,99.326C172.74,105.744 166.257,175.537 162.551,181.955C158.845,188.374 114.993,206.135 107.582,206.135C100.171,206.135 56.33,188.374 52.624,181.955C48.919,175.537 40.998,105.744 44.704,99.326C48.41,92.908 100.171,65.588 107.582,65.588Z" style="fill:rgb(58,60,73);stroke:rgb(245,186,28);stroke-width:8.19px;"/>
                </g>
                <g transform="matrix(0.806356,0,0,0.806356,97.0039,71.9786)">
                    <path d="M143.032,119.02C126.012,86.254 126.694,55.423 151.435,29.912C173.732,6.922 221.119,-5.854 276.116,23.476C323.596,48.798 340.46,37.155 345.397,31.055C351.53,39.356 359.411,92.891 323.771,102.099C283.488,112.507 290.748,154.7 303.486,155.736C311.958,156.425 320.789,151.611 324.224,146.275C326.5,159.028 339.381,211.405 254.137,240.845C156.258,250.927 192.234,182.765 192.234,182.765L154.325,139.487C154.325,139.487 160.053,151.787 143.032,119.02Z" style="fill:rgb(245,137,28);"/>
                    <g>
                        <clipPath id="_clip2">
                            <path d="M143.032,119.02C126.012,86.254 126.694,55.423 151.435,29.912C173.732,6.922 221.119,-5.854 276.116,23.476C323.596,48.798 340.46,37.155 345.397,31.055C351.53,39.356 359.411,92.891 323.771,102.099C283.488,112.507 290.748,154.7 303.486,155.736C311.958,156.425 320.789,151.611 324.224,146.275C326.5,159.028 339.381,211.405 254.137,240.845C156.258,250.927 192.234,182.765 192.234,182.765L154.325,139.487C154.325,139.487 160.053,151.787 143.032,119.02Z"/>
                        </clipPath>
                        <g clip-path="url(#_clip2)">
                            <path d="M143.032,141.696C143.032,141.696 165.209,117.228 167.498,114.819C169.787,112.41 171.636,67.545 187.537,48.987C192.844,42.792 208.192,35.531 231.249,35.531C268.935,35.531 282.867,59.62 315.734,55.147C348.601,50.673 343.095,27.616 343.095,17.636C343.095,7.656 276.597,-16.07 276.597,-16.07C276.597,-16.07 161.494,-34.554 146.791,-28.673C132.088,-22.792 96.801,-9.769 94.7,-5.568C92.6,-1.367 91.34,42.322 90.5,57.865C89.659,73.408 103.113,110.795 102.688,116.677C102.262,122.558 143.032,141.696 143.032,141.696Z" style="fill:rgb(245,186,28);"/>
                        </g>
                    </g>
                    <path d="M143.032,119.02C126.012,86.254 126.694,55.423 151.435,29.912C173.732,6.922 221.119,-5.854 276.116,23.476C323.596,48.798 340.46,37.155 345.397,31.055C351.53,39.356 359.411,92.891 323.771,102.099C283.488,112.507 290.748,154.7 303.486,155.736C311.958,156.425 320.789,151.611 324.224,146.275C326.5,159.028 339.381,211.405 254.137,240.845C156.258,250.927 192.234,182.765 192.234,182.765L154.325,139.487C154.325,139.487 160.053,151.787 143.032,119.02Z" style="fill:none;stroke:black;stroke-width:15.54px;"/>
                </g>
                <g transform="matrix(1.12538,0,0,1.12538,21.1638,16.8525)">
                    <circle cx="203.341" cy="220.316" r="74.554" style="fill:rgb(0,134,255);"/>
                    <clipPath id="_clip3">
                        <circle cx="203.341" cy="220.316" r="74.554"/>
                    </clipPath>
                    <g clip-path="url(#_clip3)">
                        <g transform="matrix(0.894889,0,0,0.65896,22.5732,101.958)">
                            <circle cx="202" cy="223.8" r="77.077" style="fill:white;"/>
                        </g>
                        <g transform="matrix(0.888587,0,0,0.888587,38.9523,29.8605)">
                            <path d="M235.839,198.362L235.839,211.173C235.839,236.057 213.059,256.259 185,256.259C156.941,256.259 134.161,236.057 134.161,211.173L134.161,202.036C138.565,200.323 143.423,199.183 147.288,197.975C148.629,197.556 149.979,197.185 151.337,196.853L151.337,204.167C151.337,222.908 166.421,238.123 185,238.123C203.579,238.123 218.663,222.908 218.663,204.167L218.663,194.52C218.82,194.54 218.976,194.56 219.132,194.58C223.062,195.071 226.757,196.202 230.57,197.082C232.305,197.482 234.087,197.873 235.839,198.362Z" style="fill:rgb(216,203,216);"/>
                        </g>
                        <g transform="matrix(0.888587,0,0,0.888587,38.9523,29.8605)">
                            <path d="M134.161,202.036L134.161,109.327L235.839,109.327L235.839,198.362C234.087,197.873 232.305,197.482 230.57,197.082C226.757,196.202 223.062,195.071 219.132,194.58C218.976,194.56 218.82,194.54 218.663,194.52L218.663,127.464L151.337,127.464L151.337,196.853C149.979,197.185 148.629,197.556 147.288,197.975C143.423,199.183 138.565,200.323 134.161,202.036Z" style="fill:rgb(0,107,216);"/>
                        </g>
                        <g transform="matrix(0.894889,0,0,0.65896,22.5732,101.958)">
                            <path d="M202,135.909C249.494,135.909 287.04,176.306 287.04,223.8C287.04,271.294 249.494,311.692 202,311.692C154.506,311.692 116.96,271.294 116.96,223.8C116.96,176.306 154.506,135.909 202,135.909ZM202,157.538C178.823,157.538 158.186,168.547 145.446,185.923C137.643,196.565 132.887,209.605 132.887,223.8C132.887,237.996 137.643,251.035 145.446,261.678C158.186,279.053 178.823,290.062 202,290.062C225.177,290.062 245.814,279.053 258.554,261.678C266.357,251.035 271.113,237.996 271.113,223.8C271.113,209.605 266.357,196.565 258.554,185.923C245.814,168.547 225.177,157.538 202,157.538Z"/>
                        </g>
                        <g transform="matrix(0.947267,0,0,0.947267,11.4289,27.1795)">
                            <circle cx="202.595" cy="183.368" r="18.084" style="fill:white;stroke:black;stroke-width:11.76px;"/>
                        </g>
                        <g transform="matrix(0.66835,-0.585572,0.585572,0.66835,-91.549,139.453)">
                            <path d="M204.817,179.055C204.817,174.677 201.263,171.123 196.885,171.123L181.021,171.123C176.644,171.123 173.089,174.677 173.089,179.055C173.089,179.055 163.421,184.97 173.089,227.525C173.918,231.171 176.644,235.457 181.021,235.457L196.885,235.457C201.263,235.457 204.817,231.903 204.817,227.525L204.817,179.055Z" style="fill:rgb(237,23,56);stroke:black;stroke-width:12.53px;"/>
                        </g>
                        <g transform="matrix(-0.66835,-0.585572,-0.585572,0.66835,498.231,139.453)">
                            <path d="M204.817,179.055C204.817,174.677 201.263,171.123 196.885,171.123L181.021,171.123C176.644,171.123 173.089,174.677 173.089,179.055C165.747,184.518 163.489,195.964 173.089,227.525C174.363,231.713 176.644,235.457 181.021,235.457L196.885,235.457C201.263,235.457 204.817,231.903 204.817,227.525L204.817,179.055Z" style="fill:rgb(237,23,56);stroke:black;stroke-width:12.53px;"/>
                        </g>
                    </g>
                    <circle cx="203.341" cy="220.316" r="74.554" style="fill:none;stroke:black;stroke-width:11.09px;"/>
                </g>
                <g transform="matrix(0.806356,0,0,0.806356,97.0039,71.9786)">
                    <path d="M143.032,119.02C126.012,86.254 126.694,55.423 151.435,29.912C173.732,6.922 221.119,-5.854 276.116,23.476C323.596,48.798 340.46,37.155 345.397,31.055" style="fill:rgb(245,137,28);"/>
                    <g>
                        <clipPath id="_clip4">
                            <path d="M143.032,119.02C126.012,86.254 126.694,55.423 151.435,29.912C173.732,6.922 221.119,-5.854 276.116,23.476C323.596,48.798 340.46,37.155 345.397,31.055"/>
                        </clipPath>
                        <g clip-path="url(#_clip4)">
                            <path d="M143.032,141.696C143.032,141.696 165.209,117.228 167.498,114.819C169.787,112.41 171.636,67.545 187.537,48.987C192.844,42.792 208.192,35.531 231.249,35.531C268.935,35.531 282.867,59.62 315.734,55.147C348.601,50.673 343.095,27.616 343.095,17.636C343.095,7.656 276.597,-16.07 276.597,-16.07C276.597,-16.07 161.494,-34.554 146.791,-28.673C132.088,-22.792 96.801,-9.769 94.7,-5.568C92.6,-1.367 91.34,42.322 90.5,57.865C89.659,73.408 103.113,110.795 102.688,116.677C102.262,122.558 143.032,141.696 143.032,141.696Z" style="fill:rgb(245,186,28);"/>
                        </g>
                    </g>
                    <path d="M143.032,119.02C126.012,86.254 126.694,55.423 151.435,29.912C173.732,6.922 221.119,-5.854 276.116,23.476C323.596,48.798 340.46,37.155 345.397,31.055" style="fill:none;stroke:black;stroke-width:15.54px;"/>
                    <g transform="matrix(1.02627,0,0,1.02627,-4.91157,-3.35873)">
                        <path d="M286.494,194.279C286.718,203.889 286.232,211.512 286.494,203.246C287.695,165.438 214.024,134.095 213.319,135.999C207.034,152.976 206.015,161.855 192.154,168.198C178.293,174.541 160.674,165.614 141.88,167.493C123.085,169.373 102.986,182.866 91.475,166.656C79.963,150.446 102.626,131.135 111.083,123.617C119.541,116.1 169.395,74.722 185.135,64.62C200.875,54.518 244.816,53.315 257.032,53.785C242.467,65.766 227.02,86.44 228.195,92.548C252.862,111.342 285.154,136.665 286.494,194.279Z" style="fill:rgb(255,242,196);"/>
                    </g>
                    <g transform="matrix(1,0,0,1,-3.72353,-2.06926)">
                        <path d="M215.73,138.103C215.73,138.103 293.572,158.294 297.426,241.541" style="fill:none;stroke:black;stroke-width:15.54px;"/>
                    </g>
                    <g transform="matrix(1.46274,0,0,1.46274,-74.9376,-61.6344)">
                        <path d="M149.916,123.249C147.053,120.687 161.405,109.041 163.458,107.809C165.511,106.577 167.862,117.671 163.62,121.639C159.377,125.608 154.057,126.955 149.916,123.249Z" style="fill:rgb(34,34,34);"/>
                        <g>
                            <clipPath id="_clip5">
                                <path d="M149.916,123.249C147.053,120.687 161.405,109.041 163.458,107.809C165.511,106.577 167.862,117.671 163.62,121.639C159.377,125.608 154.057,126.955 149.916,123.249Z"/>
                            </clipPath>
                            <g clip-path="url(#_clip5)">
                                <g transform="matrix(0.775066,0,0,0.860752,33.7392,14.9878)">
                                    <path d="M149.916,123.249C147.053,120.687 161.405,109.041 163.458,107.809C165.511,106.577 167.862,117.671 163.62,121.639C159.377,125.608 154.057,126.955 149.916,123.249Z"/>
                                </g>
                            </g>
                        </g>
                    </g>
                    <g transform="matrix(0.495622,0,0,0.557891,72.3718,42.8113)">
                        <path d="M149.916,123.249C147.053,120.687 161.405,109.041 163.458,107.809C165.511,106.577 167.862,117.671 163.62,121.639C159.377,125.608 154.057,126.955 149.916,123.249Z" style="fill:white;"/>
                    </g>
                    <g transform="matrix(1.02627,0,0,1.02627,-8.6351,-5.42799)">
                        <path d="M214.237,132.019C213.533,150.109 206.015,161.855 192.154,168.198C178.293,174.541 160.674,165.614 141.88,167.493C123.085,169.373 102.986,182.866 91.475,166.656C79.963,150.446 102.626,131.135 111.083,123.617C119.541,116.1 169.395,74.722 185.135,64.62C200.875,54.518 244.816,53.315 257.032,53.785C242.467,65.766 227.02,86.44 228.195,92.548C252.862,111.342 295.946,154.155 294.565,238.631" style="fill:none;stroke:black;stroke-width:15.15px;"/>
                    </g>
                    <g transform="matrix(-1.67131,0.122499,-0.118153,-1.61202,294.257,376.865)">
                        <path d="M100.798,151.455C101.852,150.1 102.594,148.03 104.652,146.876C106.71,145.721 106.854,147.231 105.868,148.588C104.881,149.945 99.744,152.811 100.798,151.455Z" style="fill:rgb(34,34,34);"/>
                    </g>
                </g>
            </g>
            <g transform="matrix(0.995172,0,0,0.995172,-677.503,-546.219)">
                <path d="M848.868,818.212L848.868,827.301L844.451,830.023L822.369,887.334L808.195,887.334L786.011,830.331L781.594,827.609L781.594,818.212L811.02,818.212L811.02,827.609L806.706,830.228L817.953,865.149L828.994,830.023L824.783,827.301L824.783,818.212L848.868,818.212ZM851.487,827.404L851.487,818.212L880.091,818.212L880.091,827.404L875.007,830.023L875.007,875.574L879.988,878.193L879.988,887.334L851.384,887.334L851.384,878.193L856.417,875.574L856.417,830.023L851.487,827.404ZM887.331,827.404L887.331,818.212L915.935,818.212L915.935,827.404L910.851,830.023L910.851,875.574L915.833,878.193L915.833,887.334L887.229,887.334L887.229,878.193L892.261,875.574L892.261,830.023L887.331,827.404ZM923.176,827.404L923.176,818.212L951.78,818.212L951.78,827.404L946.696,830.023L946.696,875.574L951.677,878.193L951.677,887.334L923.074,887.334L923.074,878.193L928.106,875.574L928.106,830.023L923.176,827.404Z" style="fill:rgb(0,134,255);"/>
                <clipPath id="_clip6">
                    <path d="M848.868,818.212L848.868,827.301L844.451,830.023L822.369,887.334L808.195,887.334L786.011,830.331L781.594,827.609L781.594,818.212L811.02,818.212L811.02,827.609L806.706,830.228L817.953,865.149L828.994,830.023L824.783,827.301L824.783,818.212L848.868,818.212ZM851.487,827.404L851.487,818.212L880.091,818.212L880.091,827.404L875.007,830.023L875.007,875.574L879.988,878.193L879.988,887.334L851.384,887.334L851.384,878.193L856.417,875.574L856.417,830.023L851.487,827.404ZM887.331,827.404L887.331,818.212L915.935,818.212L915.935,827.404L910.851,830.023L910.851,875.574L915.833,878.193L915.833,887.334L887.229,887.334L887.229,878.193L892.261,875.574L892.261,830.023L887.331,827.404ZM923.176,827.404L923.176,818.212L951.78,818.212L951.78,827.404L946.696,830.023L946.696,875.574L951.677,878.193L951.677,887.334L923.074,887.334L923.074,878.193L928.106,875.574L928.106,830.023L923.176,827.404Z"/>
                </clipPath>
                <g clip-path="url(#_clip6)">
                    <g transform="matrix(0.989388,-0.175605,0.0695524,0.583774,-526.621,247.312)">
                        <rect x="1144.63" y="1458.83" width="353.019" height="58.23" style="fill:rgb(237,23,56);"/>
                    </g>
                    <g transform="matrix(0.989388,-0.175605,0.0493581,0.414277,-489.21,545.118)">
                        <rect x="1144.63" y="1458.83" width="353.019" height="58.23" style="fill:rgb(237,23,56);"/>
                    </g>
                    <g transform="matrix(0.989388,-0.175605,0.0700213,0.58771,-575.856,182.99)">
                        <rect x="1144.63" y="1458.83" width="353.019" height="58.23" style="fill:rgb(237,23,56);"/>
                    </g>
                </g>
                <path d="M817.901,807.185C819.897,805.937 822.256,805.215 824.783,805.215L848.868,805.215C849.31,805.215 849.746,805.238 850.177,805.281C850.608,805.238 851.045,805.215 851.487,805.215L880.091,805.215C881.347,805.215 882.562,805.394 883.711,805.726C884.86,805.394 886.075,805.215 887.331,805.215L915.935,805.215C917.192,805.215 918.407,805.394 919.556,805.726C920.705,805.394 921.92,805.215 923.176,805.215L951.78,805.215C958.958,805.215 964.776,811.034 964.776,818.212L964.776,827.404C964.776,831.486 962.863,835.282 959.692,837.714L959.692,867.962C962.803,870.398 964.674,874.156 964.674,878.193L964.674,887.334C964.674,894.511 958.855,900.33 951.677,900.33L923.074,900.33C921.817,900.33 920.602,900.151 919.453,899.819C918.304,900.151 917.089,900.33 915.833,900.33L887.229,900.33C885.972,900.33 884.757,900.151 883.608,899.819C882.459,900.151 881.244,900.33 879.988,900.33L851.384,900.33C844.206,900.33 838.388,894.511 838.388,887.334L838.388,881.906L834.496,892.006C832.564,897.021 827.744,900.33 822.369,900.33L808.195,900.33C802.837,900.33 798.028,897.041 796.084,892.047L775.481,839.107L774.776,838.673C770.936,836.307 768.598,832.119 768.598,827.609L768.598,818.212C768.598,811.034 774.417,805.215 781.594,805.215L811.02,805.215C813.547,805.215 815.906,805.937 817.901,807.185ZM848.868,818.212L824.783,818.212L824.783,827.301L828.994,830.023L817.953,865.149L806.706,830.228L811.02,827.609L811.02,818.212L781.594,818.212L781.594,827.609L786.011,830.331L808.195,887.334L822.369,887.334L844.451,830.023L848.868,827.301L848.868,818.212ZM851.487,827.404L856.417,830.023L856.417,875.574L851.384,878.193L851.384,887.334L879.988,887.334L879.988,878.193L875.007,875.574L875.007,830.023L880.091,827.404L880.091,818.212L851.487,818.212L851.487,827.404ZM887.331,827.404L892.261,830.023L892.261,875.574L887.229,878.193L887.229,887.334L915.833,887.334L915.833,878.193L910.851,875.574L910.851,830.023L915.935,827.404L915.935,818.212L887.331,818.212L887.331,827.404ZM923.176,827.404L928.106,830.023L928.106,875.574L923.074,878.193L923.074,887.334L951.677,887.334L951.677,878.193L946.696,875.574L946.696,830.023L951.78,827.404L951.78,818.212L923.176,818.212L923.176,827.404Z"/>
            </g>
        </g>
    </g>
</svg>
